<?xml version="1.0" encoding="UTF-8"?>
<svg id="Layer_1" data-name="Layer 1" xmlns="http://www.w3.org/2000/svg" version="1.1" viewBox="0 0 32 32">
  <defs>
    <style>
      .cls-1 {
        fill: #fff;
        stroke-width: 0px;
      }
    </style>
  </defs>
  <path class="cls-1" d="M16,2.9c4.3,0,4.8,0,6.5,0,1.8,0,3.5.4,4.8,1.7,1.3,1.3,1.7,3,1.7,4.8,0,1.7,0,2.2,0,6.5s0,4.8,0,6.5c0,1.8-.4,3.5-1.7,4.8-1.3,1.3-3,1.7-4.8,1.7-1.7,0-2.2,0-6.5,0s-4.8,0-6.5,0c-1.8,0-3.5-.4-4.8-1.7-1.3-1.3-1.7-3-1.7-4.8,0-1.7,0-2.2,0-6.5s0-4.8,0-6.5c0-1.8.4-3.5,1.7-4.8,1.3-1.3,3-1.7,4.8-1.7,1.7,0,2.2,0,6.5,0M16,0c-4.3,0-4.9,0-6.6,0-2.6.1-4.9.8-6.7,2.6C.9,4.5.2,6.8,0,9.4c0,1.7,0,2.3,0,6.6s0,4.9,0,6.6c.1,2.6.8,4.9,2.6,6.7,1.8,1.8,4.1,2.5,6.7,2.6,1.7,0,2.3,0,6.6,0s4.9,0,6.6,0c2.6-.1,4.9-.8,6.7-2.6,1.8-1.8,2.5-4.1,2.6-6.7,0-1.7,0-2.3,0-6.6s0-4.9,0-6.6c-.1-2.6-.8-4.9-2.6-6.7C27.5.9,25.2.2,22.6,0c-1.7,0-2.3,0-6.6,0h0Z"/>
  <path class="cls-1" d="M16,7.8c-4.5,0-8.2,3.7-8.2,8.2s3.7,8.2,8.2,8.2,8.2-3.7,8.2-8.2-3.7-8.2-8.2-8.2ZM16,21.3c-2.9,0-5.3-2.4-5.3-5.3s2.4-5.3,5.3-5.3,5.3,2.4,5.3,5.3-2.4,5.3-5.3,5.3Z"/>
  <circle class="cls-1" cx="24.5" cy="7.5" r="1.9"/>
</svg>