<?xml version="1.0" encoding="utf-8"?>
<!-- Generator: Adobe Illustrator 28.3.0, SVG Export Plug-In . SVG Version: 6.00 Build 0)  -->
<svg version="1.1" id="Layer_1" xmlns="http://www.w3.org/2000/svg" xmlns:xlink="http://www.w3.org/1999/xlink" x="0px" y="0px"
	 viewBox="0 0 533.1 560" style="enable-background:new 0 0 533.1 560;" xml:space="preserve">
<style type="text/css">
	.st0{fill:#FFFFFF;}
</style>
<path class="st0" d="M109.1,359.3l153.1-153.1c2.1-2.1,5.5-2.1,7.6,0l153.1,153.1c3.4,3.4,1,9.1-3.8,9.1H309c-3,0-5.4,2.4-5.4,5.4
	v21.8c0,3,2.4,5.4,5.4,5.4h188.6c4.8,0,7.2-5.8,3.8-9.1L269.8,160.3c-2.1-2.1-5.5-2.1-7.6,0L30.6,391.9c-3.4,3.4-1,9.1,3.8,9.1H277
	c3,0,5.4-2.4,5.4-5.4v-80.1c0-4.3,5.2-6.4,8.2-3.4l28.9,28.9c2.1,2.1,5.5,2.1,7.6,0l15.4-15.4c2.1-2.1,2.1-5.5,0-7.6l-72.6-72.6
	c-2.1-2.1-5.5-2.1-7.6,0L189.7,318c-2.1,2.1-2.1,5.5,0,7.6l15.4,15.4c2.1,2.1,5.5,2.1,7.6,0l28.9-28.9c3-3,8.2-0.9,8.2,3.4v47.6
	c0,3-2.4,5.4-5.4,5.4H112.9C108.2,368.5,105.8,362.7,109.1,359.3z"/>
</svg>
