<?xml version="1.0" encoding="utf-8"?>
<!-- Generator: Adobe Illustrator 28.3.0, SVG Export Plug-In . SVG Version: 6.00 Build 0)  -->
<svg version="1.1" id="Layer_1" xmlns="http://www.w3.org/2000/svg" xmlns:xlink="http://www.w3.org/1999/xlink" x="0px" y="0px"
	 viewBox="0 0 533.1 560" style="enable-background:new 0 0 533.1 560;" xml:space="preserve">
<style type="text/css">
	.st0{fill:#FFFFFF;}
	.st1{fill:none;}
</style>
<g>
	<path class="st0" d="M267.5,14.9C121,14.9,1.9,134,1.9,280.5c0,78.4,34.2,149,88.4,197.6c1.6-2.1,3.2-4.2,4.8-6.2
		c4.8-6,9.6-12,14.5-17.9c4.9-5.8,10.3-11.2,15.5-16.6c6.1-6.3,12.3-12.4,18.5-18.5c2.4-2.4,5-4.5,7.5-6.7c1.9-1.7,3.7-3.3,1.9-6.1
		c-0.4-0.6-0.1-1.6-0.1-2.4c-0.1-1.6,0.4-3.9-0.5-4.6c-1.5-1.3-3,0.9-4.6,1.4c-5.4,1.7-10.6-0.6-12.3-5.8c-0.7-1.9-0.7-4.1-1.1-6.1
		c-0.2-1.4-0.5-2.8-0.8-4.2c-0.7-4.2-1.4-8.5-2.2-12.7c-0.9-4.8-1.5-9.7-2.7-14.5c-3.2-13-5.5-26.2-6.9-39.5
		c-0.7-6.2-0.8-12.5-1.1-18.8c0-0.6,0.1-1.3-0.1-1.9c-1.2-6-1.5-12-1.9-18.1c-0.1-1.1-0.3-2.4-0.9-3.1c-1.9-2-4-3.7-6-5.6
		c-2.4-2.3-5-2.4-8-1.2c-9,3.6-18.7,4.9-27.8,8.5c-6.7,2.7-13.9-2.7-12.6-10.7c0.8-5.2,2.1-10.3,2.7-15.5c1-8.8,3.4-17.2,6.3-25.4
		c3.3-9.2,7-18.3,14.3-25.3c1.1-1.1,2.2-2.5,2.7-4c2.4-7.1,4.8-14.2,6.9-21.3c1.2-4.2,2.8-8.1,5.2-11.8c3.6-5.7,7.9-10.9,12.1-16.2
		c4.4-5.4,9.1-10.4,15.5-13.4c1-0.5,1.9-1.2,2.9-1.7c4.8-2.9,9.4-6.1,14.3-8.7c10.9-5.8,21.9-11.2,33.5-15.6c2.1-0.8,3.8-2,5.2-4
		c2-2.9,4.5-5.5,8-6.7c2.4-0.9,4.7-2,7.1-2.6c6.9-1.8,13.9-3.4,20.8-5c6.1-1.4,12.1-2.7,18.4-3.1c5.5-0.4,11-1.7,16.6-1.6
		c9.8,0,19.7-0.6,29.4,0.9c4.6,0.7,9.2,1.2,13.7,1.8c4.6,0.6,9.1,1.3,13.7,2.1c5.5,0.9,11,2,16,4.5c4.2,2.1,8.2,4.3,12.6,6.1
		c10.7,4.3,21.1,9.3,30.6,15.9c5.4,3.7,10.8,7.5,16.1,11.3c8.4,6,16.7,12,23.7,19.7c0.9,1,1.8,1.8,2.7,2.8
		c6.8,7.1,13.8,14.1,20.3,21.5c5.2,5.9,10.1,12.1,15.7,17.6c0.8,0.8,1.3,1.8,1.9,2.7c2.8,4.3,2,9.5-1.9,12.8
		c-0.4,0.3-0.8,0.6-1.1,0.9c-1,0.8-1.4,1.4-0.3,2.6c6.8,7.3,13.6,14.6,20.2,22.1c4.9,5.5,9.8,11,13.8,17.3c2.6,4,5.6,7.8,8.4,11.7
		c6.1,8.4,12.5,16.6,18.4,25.2c5.9,8.6,11.2,17.5,16.9,26.2c1.2,1.8,2.4,3.5,3.7,5.3c1.5-11.5,2.3-23.1,2.3-35
		C533.1,134,414,14.9,267.5,14.9z"/>
	<path class="st0" d="M479.4,338.7c-1.8-2.4-3.6-4.9-5.4-7.3c-3.8-5-2.1-11.7,3.7-14.3c0.6-0.3,1.3-0.2,1.8-0.5
		c3.6-1.7,4.2-3.8,1.8-7.1c-5.4-7.2-9.9-15-16.3-21.4c-3.8-3.8-6.6-8.6-9.9-12.9c-1.6-2.2-3.2-4.4-5.1-6.4
		c-5-5.3-8.7-11.6-14.1-16.5c-6-5.4-11.5-11.4-17.3-17c-1.6-1.6-3.5-2.9-5.1-4.4c-1.9-1.8-4.1-3.4-5.4-5.5
		c-2.8-4.4-7.3-6.8-10.8-10.3c-3-2.9-6.4-5.3-9.6-8c-1.4-1.1-2.7-2.3-4.1-3.3c-2.4-1.8-4-4.3-4.9-7c-0.7-2-0.6-4.1,0.5-6.1
		c1.5-2.6,2.8-5.3,4.4-7.9c0.7-1.1,0.6-1.7-0.2-2.5c-2.8-2.4-5.5-5-8.4-7.3c-4.5-3.6-8.9-7.3-13.6-10.7c-4.4-3.2-9-6.1-13.6-8.9
		c-4.2-2.6-8.4-5.3-12.9-7.5c-5.1-2.5-10.5-4.6-15.8-6.9c-2.3-1-4.7-2.1-7.1-2.9c-9.7-3.5-19.5-6.8-29.6-9.2
		c-1.2-0.3-2.5-0.6-3.8-0.5c-6.2,0.3-12.6-1.2-18.6,1.8c-0.6,0.3-1.6,0.2-2.4,0c-6.5-1.2-11.9-1-18.1,0c-3.8,0.6-7.6,0.8-11.5,1.1
		c-2.4,0.2-4.9,0-7.3,0.1c-3.7,0.1-5.7,1.1-6.4,4.6c-0.9,4.4-4,6.1-7.6,7c-12.1,2.7-23.5,6.9-34.4,12.8c-5.1,2.7-10.4,4.7-15.7,6.9
		c-2.8,1.2-5.1,3.6-7.6,5.5c4.7-0.7,9.5-1,14-2.3c5.8-1.6,11.8-2.3,17.7-3.6c3.7-0.8,7.3-1.2,11-0.8c8.9,0.9,17.5,2.5,25.2,7.9
		c6.7,4.7,12.5,10,16.7,17.1c1.7,2.9,2.8,6.1,4.3,9.1c3.8,7.7,7.2,15.7,10.5,23.6c2.2,5.4,5.4,10.5,8.5,15.6c3,4.9,6.1,9.8,9.6,14.4
		c2.4,3.2,2.6,6.7,1.8,10.1c-0.7,2.9-3.3,5.1-6.2,6.2c-5.1,1.9-10.4,3-15.9,3c-6.9,0.1-13.9,0-20.7,1.1c-7.2,1.1-14.3,3.4-20.5,7.5
		c-4.7,3.1-9.4,6.1-13.3,10.3c-4.3,4.7-9.9,4.2-15.3,2.9c-5.7-1.4-11.1-3.8-16.7-5.8c-1.6-0.6-2-0.4-2,1.3c0,7.5-0.2,15,1.8,22.5
		c1.2,4.4,1.4,9.1,2.1,13.7c0.8,4.5,1.7,9.1,2.5,13.6c0.3,1.9,0.4,3.8,0.9,5.7c0.5,2,1,2,3.2,1.7c2.3-0.4,4.8-0.7,7.1-0.6
		c1.9,0.1,3.6,0.9,4.8,2.8c1.4,2.2,2.6,4.4,2.9,7c0.7,7.2,1.1,14.3,2.1,21.5c0.8,6,2.3,11.8,3.4,17.7c1.1,5.4,2.1,10.9,3.2,16.3
		c0.4,2,0.8,4,1.2,6.1c0.3,1.6,0.8,3.1,0.7,4.7c-0.2,3-0.5,6.1-1.3,9c-1,3.4-4,5.4-6.5,7.7c-1.8,1.6-3.8,3-5.5,4.6
		c-4.6,4.3-9.3,8.5-13.7,12.9c-3.2,3.2-6.1,6.7-9.1,10c-2.1,2.4-4.1,4.9-6.4,7.2c-5.8,5.8-11.4,11.8-16.4,18.3
		c-2.6,3.3-5.4,6.4-8.4,9.4c-2.1,2-3.9,4.3-5.7,6.6c42.1,28,92.5,44.3,146.7,44.3c11.9,0,23.5-0.8,35-2.3c0-1.1,0.2-2.3,0.5-3.5
		c1.9-6.2,4-12.4,5.9-18.6c1.6-5.5,1.9-11.1,1.2-16.7c-0.5-4.4-1.9-8.7-2.6-13c-2-12.6-6.4-24.3-13.2-35.1
		c-2.4-3.8-4.8-7.6-7.9-10.8c-6.3-6.5-12.9-12.7-19.6-18.7c-5.1-4.6-10.8-8.6-15.9-13.2c-3-2.6-6.4-3.7-10.1-3.9
		c-5.5-0.3-8.9-3.1-11.1-7.8c-2.8-6,1-12.4,7.7-12.8c1.1-0.1,2.3,0,3.4,0c0-0.1,0-0.2,0-0.3c2.2,0.3,4.4,0.5,6.6,1
		c6.2,1.3,11.8,4,17.3,6.8c12.6,6.4,25,13,37.3,19.9c11.5,6.4,22.3,13.9,32.7,21.8c4.6,3.5,8.6,7.8,13.3,11.1
		c4.9,3.4,7.9,7.9,10.1,13.1c2.5,6-1.3,12-7.7,12.2c-3.1,0.1-5.6-0.9-7.8-3.1c-2.9-2.8-6-5.4-9-8c-0.3-0.3-0.8-0.4-1.3-0.6
		c0.1,0.5,0,1.1,0.2,1.6c3.9,8.6,8,17.1,11.7,25.8c3.3,7.6,7,15,8.3,23.3c0.7,4.5,1.6,9.1,2.3,13.6c0.2,1.2,0.1,2.4-0.2,3.6
		c33.2-11.6,63.3-29.5,89.1-52.4c-0.5-3.4-1-6.9-1.8-10.3c-1.4-6.5-2.9-13-4.6-19.4c-1.4-5.3-1.9-11-5.5-15.6
		c-0.6-0.8-0.8-2.1-1.1-3.1c-1.2-5.7,1.4-9.8,7.2-11c2.6-0.5,5,0.2,7.1,1.6c4.5,3,7.7,7.3,9.7,12.2c3.6,9,5.6,18.4,6.9,28
		c6.9-7.5,13.5-15.3,19.5-23.5c-0.5-0.7-1-1.6-1.6-2.6c-1-1.9-1.6-4.1-2.2-6.3c-4.4-15.1-11.7-29-19.4-42.7
		c-1.1-1.9-1.7-4.1-2.6-6.1c-0.7-1.4-0.5-2.7-0.1-4.2c1.6-5.2,5.1-7.8,10.7-7.8c4.5,0,7.3,1.3,9.2,4.9c2.5,4.7,4.7,9.4,6.9,14.3
		c3,6.7,5.8,13.5,8.5,20.3c1.3,3.4,2.7,6.7,3.9,10.1c5.4-8.9,10.3-18.2,14.7-27.8c-1.6-3.6-3.3-7.2-5.2-10.8
		C496.9,365.2,488.9,351.5,479.4,338.7z M308.7,194.4c-16.4,0-36.7,1.6-39.2-8.3c-5-19.9,22.8-28.9,39.2-28.9
		c16.4,0,29.8,8.3,29.8,18.6C338.5,186.1,325.2,194.4,308.7,194.4z M392.2,256.7c3,0.8,5.9,2.4,8.5,4.2c3.2,2.3,6.1,5.2,9,7.9
		c1.8,1.6,3.4,3.5,5.3,5c5,3.7,9,8.3,12.6,13.2c1.4,1.8,2.7,4,2.3,6.5c0.7,5.2-5.5,10.3-10.8,8.9c-3.1-0.8-5.5-2.4-7.6-4.6
		c-5.1-5.3-11.2-9.6-16.9-14.3c-4.4-3.5-8.4-7.4-12.6-11.2c-1.6-1.4-2.6-3.2-2.7-5.5C379,260.8,385.9,255.1,392.2,256.7z
		 M442.5,369.8c-0.2,7-6.6,11-12.7,7.6c-2-1.1-4-2.8-5.4-4.6c-4.5-6-8.6-12.3-13.2-18.3c-6.1-7.8-12.3-15.6-18.9-23
		c-4.3-4.9-8.3-10.3-13.8-14c-0.7-0.4-1.2-1.1-1.7-1.7c-4-4.7-3.6-12.6,4-14.9c5-1.5,9,0.6,12.4,3.4c5.3,4.5,10.1,9.5,14.7,14.7
		c5.4,6.1,10.4,12.6,15.4,19c5.3,6.8,10.6,13.6,15.6,20.7c2.1,2.9,4.1,6.2,3.5,9.8C442.5,369.2,442.6,369.5,442.5,369.8z"/>
	<path class="st0" d="M200.9,231.6c-3.5,4.4-7.9,5.5-13.3,4c-2.2-0.6-4.8-0.1-7.2,0c-1.6,0.1-3.2,0.6-4.7,0.5
		c-5.2-0.5-10.3-0.1-15.5,1c-3.6,0.7-7.3,0.7-11,1.1c-1.1,0.1-2.2,0.3-3.3,0.7c-1.8,0.6-4.2,0-5.4,2.2c1.6,1.3,3.1,2.7,4.8,3.8
		c8.8,5.6,18.3,9.8,28.6,11.7c0.9,0.2,1.8,0.6,2.7,0.9c2,0.6,4,1.8,5.9,1.6c1.7-0.2,3.2-2,4.6-3.3c6.5-5.7,14-9.2,22.5-11.1
		c5.9-1.3,11.6-3.3,17.3-5.2c2.2-0.7,4.9,0.3,6.5-2.2c-1.2-1.9-2.4-3.7-3.6-5.6c-1-1.5-2-2.9-3-4.3c-5.1-6.6-7.9-14.1-9.7-22.1
		c-1-4.4-2.4-8.6-4.8-12.4c-0.7-1.2-1.6-2.6-2.8-3.1c-2.2-1.1-4-2.7-5.8-4.2c-2.7-2.3-5.7-4.3-9.6-3.8c-2.8,0.4-5.8,0.5-8.5,1.4
		c-4.6,1.6-9.3,2.1-14,2.9c-6.1,1-12,3.2-18,4.2c-5.4,0.9-9.2,4-13,7.4c-3.3,3-7,5.7-10.5,8.4c-4.7,3.6-9.6,6.9-14.1,10.7
		c-2.1,1.8-3.6,4.4-5.1,6.9c-0.8,1.3-0.8,3-1.1,4.5c1.5-0.4,3.1-0.5,4.4-1.2c2.3-1.1,4.6-2.3,6.7-3.7c7.3-4.8,15.1-8.1,23.8-9.4
		c5.2-0.8,10.4-1.4,15.6-2c4.2-0.5,8.3-0.7,12.4-0.9c7.2-0.4,13.9,1.9,20.7,3.3c1.1,0.2,2.2,0.5,3.3,0.7c3.7,0.6,6.2,2.8,7.4,6.1
		c1.2,3.3,0.8,6.7-1.9,9.4C201.8,230.7,201.3,231.1,200.9,231.6z"/>
</g>
<line class="st1" x1="548" y1="101" x2="548" y2="100"/>
</svg>
