<?xml version="1.0" encoding="UTF-8"?>
<svg id="Layer_1" data-name="Layer 1" xmlns="http://www.w3.org/2000/svg" version="1.1" viewBox="0 0 256.8 256.8">
  <defs>
    <style>
      .cls-1 {
        fill: #0a0b0d;
        stroke-width: 0px;
      }
    </style>
  </defs>
  <path class="cls-1" d="M129.2,89.8c-2-8.1,9.3-11.8,16-11.8s12.2,3.4,12.2,7.6-5.4,7.6-12.2,7.6-15,.7-16-3.4ZM180.4,129.7c2.3,1.9,4.8,3.6,6.9,5.8.9.9,1.8,1.5,3.1,1.9,2.1.6,4.7-1.5,4.4-3.6.2-1-.4-1.9-.9-2.7-1.5-2-3.1-3.9-5.1-5.4-.8-.6-1.4-1.4-2.2-2-1.2-1.1-2.4-2.3-3.7-3.2-1-.7-2.2-1.4-3.5-1.7-2.6-.7-5.4,1.7-5.3,4.2,0,.9.5,1.6,1.1,2.2,1.7,1.6,3.4,3.1,5.1,4.6ZM173.8,143.5c2.3,1.5,3.9,3.7,5.6,5.7,2.7,3,5.2,6.2,7.7,9.4,1.9,2.4,3.5,5,5.4,7.5.6.8,1.4,1.4,2.2,1.9,2.5,1.4,5.1-.3,5.2-3.1,0-.1,0-.3,0-.6.2-1.5-.6-2.8-1.5-4-2-2.9-4.2-5.7-6.4-8.5-2.1-2.6-4.1-5.3-6.3-7.8-1.9-2.1-3.9-4.2-6-6-1.4-1.1-3-2-5-1.4-3.1.9-3.3,4.2-1.6,6.1.2.3.4.5.7.7ZM256.8,128.4c0,70.8-57.6,128.4-128.4,128.4S0,199.2,0,128.4,57.6,0,128.4,0s128.4,57.6,128.4,128.4ZM56,209.2c.7-.9,1.3-1.7,2-2.6,2-2.5,3.9-4.9,5.9-7.3,2-2.4,4.2-4.6,6.4-6.8,2.5-2.6,5-5.1,7.6-7.6,1-1,2.1-1.8,3.1-2.8.8-.7,1.5-1.3.8-2.5-.2-.2,0-.6,0-1,0-.7.2-1.6-.2-1.9-.6-.6-1.2.4-1.9.6-2.2.7-4.3-.2-5-2.4-.3-.8-.3-1.7-.4-2.5-.1-.6-.2-1.1-.3-1.7-.3-1.7-.6-3.5-.9-5.2-.4-2-.6-4-1.1-5.9-1.3-5.3-2.2-10.7-2.8-16.1-.3-2.5-.3-5.1-.5-7.7,0-.3,0-.5,0-.8-.5-2.4-.6-4.9-.8-7.4,0-.4-.1-1-.4-1.3-.8-.8-1.6-1.5-2.4-2.3-1-.9-2.1-1-3.3-.5-3.7,1.5-7.7,2-11.4,3.5-2.7,1.1-5.7-1.1-5.2-4.4.3-2.1.9-4.2,1.1-6.3.4-3.6,1.4-7,2.6-10.4,1.3-3.8,2.8-7.5,5.8-10.3.5-.4.9-1,1.1-1.6,1-2.9,2-5.8,2.8-8.7.5-1.7,1.2-3.3,2.1-4.8,1.5-2.3,3.2-4.5,4.9-6.6,1.8-2.2,3.7-4.2,6.3-5.5.4-.2.8-.5,1.2-.7,2-1.2,3.9-2.5,5.9-3.6,4.4-2.4,9-4.6,13.7-6.4.9-.3,1.6-.8,2.1-1.7.8-1.2,1.8-2.2,3.3-2.8,1-.4,1.9-.8,2.9-1.1,2.8-.7,5.7-1.4,8.5-2,2.5-.6,4.9-1.1,7.5-1.3,2.3-.2,4.5-.7,6.8-.7,4,0,8-.3,12,.4,1.9.3,3.7.5,5.6.7,1.9.3,3.7.5,5.6.9,2.2.4,4.5.8,6.5,1.8,1.7.9,3.4,1.8,5.1,2.5,4.4,1.8,8.6,3.8,12.5,6.5,2.2,1.5,4.4,3.1,6.6,4.6,3.4,2.4,6.8,4.9,9.7,8.1.4.4.8.7,1.1,1.1,2.8,2.9,5.6,5.8,8.3,8.8,2.1,2.4,4.1,4.9,6.4,7.2.3.3.5.7.8,1.1,1.1,1.8.8,3.9-.8,5.2-.2.1-.3.2-.5.4-.4.3-.6.6-.1,1.1,2.8,3,5.6,6,8.3,9,2,2.3,4,4.5,5.6,7.1,1.1,1.6,2.3,3.2,3.4,4.8,2.5,3.4,5.1,6.8,7.5,10.3,2.4,3.5,4.6,7.2,6.9,10.7.5.7,1,1.4,1.5,2.2.6-4.7.9-9.5.9-14.3,0-59.8-48.7-108.5-108.5-108.5S19.9,68.6,19.9,128.4s14,60.9,36.1,80.8ZM101.7,107.9c-.2.2-.4.4-.5.6-1.4,1.8-3.2,2.3-5.4,1.6-.9-.3-1.9,0-2.9,0-.6,0-1.3.3-1.9.2-2.1-.2-4.2,0-6.3.4-1.5.3-3,.3-4.5.4-.4,0-.9.1-1.3.3-.8.2-1.7,0-2.2.9.7.5,1.3,1.1,2,1.6,3.6,2.3,7.5,4,11.7,4.8.4,0,.7.3,1.1.4.8.2,1.6.8,2.4.6.7,0,1.3-.8,1.9-1.3,2.7-2.3,5.7-3.8,9.2-4.6,2.4-.5,4.7-1.4,7.1-2.1.9-.3,2,.1,2.7-.9-.5-.8-1-1.5-1.5-2.3-.4-.6-.8-1.2-1.2-1.8-2.1-2.7-3.2-5.8-4-9-.4-1.8-1-3.5-2-5.1-.3-.5-.7-1-1.1-1.3-.9-.4-1.6-1.1-2.4-1.7-1.1-1-2.3-1.7-3.9-1.6-1.2.2-2.4.2-3.5.6-1.9.6-3.8.9-5.7,1.2-2.5.4-4.9,1.3-7.4,1.7-2.2.4-3.8,1.6-5.3,3-1.4,1.2-2.8,2.3-4.3,3.4-1.9,1.5-3.9,2.8-5.8,4.4-.9.7-1.5,1.8-2.1,2.8-.3.5-.3,1.2-.5,1.8.6-.2,1.2-.2,1.8-.5.9-.4,1.9-.9,2.7-1.5,3-2,6.2-3.3,9.7-3.8,2.1-.3,4.3-.6,6.4-.8,1.7-.2,3.4-.3,5.1-.4,2.9-.2,5.7.8,8.5,1.3.4,0,.9.2,1.3.3,1.5.2,2.5,1.1,3,2.5.5,1.4.3,2.7-.8,3.8ZM128.4,237c4.8,0,9.6-.3,14.3-.9,0-.5,0-.9.2-1.4.8-2.5,1.7-5.1,2.4-7.6.7-2.2.8-4.5.5-6.8-.2-1.8-.8-3.5-1.1-5.3-.8-5.2-2.6-9.9-5.4-14.3-1-1.5-2-3.1-3.2-4.4-2.6-2.7-5.3-5.2-8-7.7-2.1-1.9-4.4-3.5-6.5-5.4-1.2-1.1-2.6-1.5-4.1-1.6-2.2-.1-3.6-1.3-4.5-3.2-1.1-2.4.4-5.1,3.1-5.2.5,0,.9,0,1.4,0,0,0,0,0,0-.1.9.1,1.8.2,2.7.4,2.5.5,4.8,1.6,7.1,2.8,5.1,2.6,10.2,5.3,15.2,8.1,4.7,2.6,9.1,5.7,13.4,8.9,1.9,1.4,3.5,3.2,5.4,4.5,2,1.4,3.2,3.2,4.1,5.4,1,2.5-.5,4.9-3.2,5-1.3,0-2.3-.4-3.2-1.3-1.2-1.1-2.4-2.2-3.7-3.3-.1-.1-.3-.2-.5-.2,0,.2,0,.4,0,.6,1.6,3.5,3.3,7,4.8,10.5,1.3,3.1,2.9,6.1,3.4,9.5.3,1.9.7,3.7.9,5.6,0,.5,0,1,0,1.5,13.6-4.7,25.9-12.1,36.4-21.4-.2-1.4-.4-2.8-.7-4.2-.6-2.7-1.2-5.3-1.9-7.9-.6-2.2-.8-4.5-2.3-6.4-.3-.3-.3-.8-.4-1.3-.5-2.3.6-4,2.9-4.5,1.1-.2,2,0,2.9.7,1.9,1.2,3.2,3,4,5,1.5,3.7,2.3,7.5,2.8,11.5,2.8-3.1,5.5-6.3,8-9.6-.2-.3-.4-.6-.6-1-.4-.8-.7-1.7-.9-2.6-1.8-6.2-4.8-11.9-7.9-17.4-.4-.8-.7-1.7-1.1-2.5-.3-.6-.2-1.1,0-1.7.7-2.1,2.1-3.2,4.4-3.2,1.8,0,3,.5,3.8,2,1,1.9,1.9,3.9,2.8,5.8,1.2,2.7,2.4,5.5,3.5,8.3.5,1.4,1.1,2.8,1.6,4.1,2.2-3.6,4.2-7.4,6-11.4-.7-1.5-1.4-3-2.1-4.4-3-5.7-6.3-11.3-10.1-16.5-.7-1-1.5-2-2.2-3-1.6-2-.9-4.8,1.5-5.8.2-.1.5,0,.8-.2,1.5-.7,1.7-1.6.7-2.9-2.2-2.9-4-6.1-6.7-8.8-1.5-1.6-2.7-3.5-4.1-5.3-.7-.9-1.3-1.8-2.1-2.6-2-2.2-3.5-4.7-5.8-6.7-2.4-2.2-4.7-4.6-7.1-7-.7-.6-1.4-1.2-2.1-1.8-.8-.7-1.7-1.4-2.2-2.3-1.1-1.8-3-2.8-4.4-4.2-1.2-1.2-2.6-2.2-3.9-3.3-.6-.5-1.1-.9-1.7-1.3-1-.7-1.6-1.7-2-2.9-.3-.8-.3-1.7.2-2.5.6-1.1,1.1-2.2,1.8-3.2.3-.4.3-.7,0-1-1.1-1-2.2-2-3.4-3-1.8-1.5-3.6-3-5.6-4.4-1.8-1.3-3.7-2.5-5.6-3.7-1.7-1.1-3.5-2.1-5.3-3-2.1-1-4.3-1.9-6.5-2.8-1-.4-1.9-.9-2.9-1.2-4-1.4-8-2.8-12.1-3.7-.5-.1-1-.2-1.5-.2-2.5.1-5.1-.5-7.6.7-.3.1-.7,0-1,0-2.6-.5-4.9-.4-7.4,0-1.5.3-3.1.3-4.7.4-1,0-2,0-3,0-1.5,0-2.3.5-2.6,1.9-.4,1.8-1.6,2.5-3.1,2.8-4.9,1.1-9.6,2.8-14.1,5.2-2.1,1.1-4.3,1.9-6.4,2.8-1.1.5-2.1,1.5-3.1,2.3,1.9-.3,3.9-.4,5.7-.9,2.4-.7,4.8-.9,7.2-1.5,1.5-.3,3-.5,4.5-.3,3.6.4,7.1,1,10.3,3.2,2.7,1.9,5.1,4.1,6.8,7,.7,1.2,1.2,2.5,1.8,3.7,1.6,3.2,2.9,6.4,4.3,9.7.9,2.2,2.2,4.3,3.5,6.4,1.2,2,2.5,4,3.9,5.9,1,1.3,1.1,2.8.7,4.1-.3,1.2-1.3,2.1-2.6,2.5-2.1.8-4.2,1.2-6.5,1.2-2.8,0-5.7,0-8.4.4-2.9.5-5.8,1.4-8.4,3.1-1.9,1.3-3.9,2.5-5.4,4.2-1.7,1.9-4.1,1.7-6.2,1.2-2.3-.6-4.6-1.5-6.8-2.4-.7-.2-.8-.2-.8.5,0,3.1,0,6.1.7,9.2.5,1.8.6,3.7.9,5.6.3,1.9.7,3.7,1,5.6.1.8.2,1.6.4,2.3.2.8.4.8,1.3.7,1-.2,1.9-.3,2.9-.2.8,0,1.5.4,2,1.1.6.9,1.1,1.8,1.2,2.9.3,2.9.5,5.9.9,8.8.3,2.4.9,4.8,1.4,7.3.4,2.2.9,4.5,1.3,6.7.2.8.3,1.7.5,2.5.1.6.3,1.3.3,1.9,0,1.2-.2,2.5-.5,3.7-.4,1.4-1.6,2.2-2.6,3.1-.7.7-1.5,1.2-2.3,1.9-1.9,1.7-3.8,3.5-5.6,5.3-1.3,1.3-2.5,2.7-3.7,4.1-.9,1-1.7,2-2.6,2.9-2.4,2.4-4.6,4.8-6.7,7.5-1.1,1.3-2.2,2.6-3.4,3.8-.9.8-1.6,1.8-2.3,2.7,17.2,11.4,37.8,18.1,59.9,18.1Z"/>
</svg>