<?xml version="1.0" encoding="utf-8"?>
<!-- Generator: Adobe Illustrator 26.3.1, SVG Export Plug-In . SVG Version: 6.00 Build 0)  -->
<svg version="1.1" id="Layer_1" xmlns="http://www.w3.org/2000/svg" xmlns:xlink="http://www.w3.org/1999/xlink" x="0px" y="0px"
	 viewBox="0 0 533.1 560" style="enable-background:new 0 0 533.1 560;" xml:space="preserve">
<style type="text/css">
	.st0{fill:#333333;}
</style>
<g>
	<path class="st0" d="M502.5,312.5c-0.1-0.3-0.2-0.6-0.2-1c0-2.6-0.1-5.2,0-7.7c0-1.3-0.2-2.4-0.6-3.6c-0.3-0.9-0.8-1.8-0.7-2.9
		c0-0.2-0.1-0.5-0.2-0.6c-0.4-0.6-0.4-1.2-0.5-1.9c0-0.4-0.1-0.9-0.2-1.3c-0.2-0.6-0.5-1.2-0.8-1.8c-0.4-0.7-0.3-1.5-0.8-2.2
		c-0.5-0.8-1-1.7-0.9-2.8c0-0.2-0.1-0.4-0.2-0.6c-0.9-1.6-1.4-3.3-2.5-4.7c-0.4-0.6-0.6-1.2-0.6-1.9c-0.1-1.6,0.1-3.1,1.1-4.4
		c0.4-0.5,0.6-1.2,0.9-1.8c0.1-0.3,0.2-0.7,0.4-0.9c0.8-0.7,1.1-1.7,1-2.7c0-0.6,0.2-1.1,0.5-1.6c0.5-1,1-2,1.4-3
		c0-1.1,0.9-2,0.8-3.2c0-0.3,0.2-0.6,0.3-0.9c0.5-1,1-2,1.4-3c0-1.2,0.1-2.5,0.1-3.7c0-1,0-2,0-3c0-0.9,0-1.8,0.5-2.6
		c0.2-0.3,0.2-0.6,0.2-1c0-1.2,0-2.5,0-3.7c0-0.2,0-0.5-0.1-0.7c-0.8-1.1-0.6-2.4-0.7-3.6c0-0.4-0.3-0.8-0.4-1.3
		c-0.1-0.9-0.6-1.7-0.8-2.5c-0.1-0.9,0-1.8-0.1-2.7c0-0.9,0.1-1.8-0.1-2.7c-0.2-0.7-0.7-1.4-1-2.1c-0.1-0.2-0.2-0.4-0.2-0.6
		c-0.2-1.3-0.9-2.3-1.4-3.4c-0.5-1.1-1.1-2.2-1.8-3.2c-0.6-0.8-1.1-1.7-1.5-2.6c-3.6-7.2-7.2-14.4-10.7-21.5
		c-0.3-0.7-0.6-1.5-1.1-2.1c-0.7-0.9-1.1-1.9-1.8-2.8c-1.2-1.7-2-3.8-3.5-5.3c-0.2-0.2-0.4-0.6-0.4-0.9c-0.2-1.1-0.8-2.1-1.5-3
		c-0.9-1.2-1.8-2.5-2.5-3.9c-1.5-3.1-2.9-6.3-4.9-9.1c-0.6-1.4-1.6-2.7-2.4-4c-0.7-0.6-1-1.5-1.4-2.3c-0.6-1.3-1.4-2.5-2.2-3.7
		c-0.6-0.8-1.4-1.5-1.6-2.5c-0.9-1-1.3-2.3-2.4-3.2c-0.4-0.4-0.6-0.9-0.9-1.4c-0.7-1.3-1.2-2.7-2.2-3.7c-0.6-0.6-1-1.2-1-2
		c-0.8-1.5-1.3-3.1-2.6-4.3c-0.4-0.4-0.6-0.9-0.9-1.4c-1.3-2.4-2.3-4.8-3.9-7c-0.7-1.5-1.7-2.9-2.6-4.2c-1-1.5-1.8-3.1-3-4.4
		c-0.2-0.2-0.4-0.6-0.4-0.9c-0.1-0.9-0.6-1.7-1-2.5c-1-2.5-2.7-4.6-3.9-7c-0.4-0.9-1.2-1.6-1.7-2.5c-0.4-0.9-1.2-1.6-1.7-2.5
		c-0.5-0.8-0.8-1.6-1.3-2.3c-0.6-0.8-1.4-1.5-1.9-2.4c-0.4-0.8-1-1.5-1.6-2.1c-0.3-0.3-0.7-0.6-1-0.9c-2.8-2.8-5.5-5.6-8.3-8.4
		c-1.5-1.5-3-3.1-5-3.8c-0.1,0-0.2-0.1-0.3-0.2c-0.7-0.7-1.7-1-2.6-1.5s-1.8-0.9-2.7-1.4c-1-0.5-2-1-3-1.4c-0.9-0.4-2-0.5-2.8-0.9
		c-0.7-0.3-1.5-0.4-2.3-0.5c-0.8,0-1.6-0.1-2.3-0.1c-1-0.8-2.1-0.5-3.2-0.6c-1.1,0-2.2,0-3.4,0c-0.3,0-0.7,0-1-0.2
		c-0.8-0.5-1.7-0.5-2.6-0.5c-1.6,0-3.1,0-4.7,0c-1.4,0-2.6-0.5-3.6-1.5c-1-0.9-1.9-1.9-2.5-3.2c-0.5-1.2-1.3-2.1-2.2-2.9
		c-0.7-0.7-1.5-1.4-1.8-2.4c-1.9-2.6-3.7-5.3-6.1-7.5c-1.2-1.1-2.4-2.4-3.6-3.6c-0.4-0.4-0.8-0.8-1.3-1.1c-1.6-0.8-2.9-2.1-4.5-2.9
		c-1.6-0.8-3-2-4.6-2.6c-0.4-0.2-0.7-0.6-1-0.8s-0.6-0.4-0.9-0.4c-1.1,0-2.2-0.1-3.2-0.7c-1.2,0.2-2.2-0.5-3.2-0.8
		c-1.2-0.3-2.3-0.8-3.6-0.7c-0.4,0-0.9,0-1.3-0.3c-0.7-0.4-1.5-0.3-2.2-0.7s-1.5-0.2-2.3-0.3c-0.2,0-0.4-0.1-0.6-0.2
		c-0.5-0.3-1-0.4-1.6-0.4c-4.5,0-9,0-13.5,0c-0.5,0-0.9,0-1.3,0.3c-0.7,0.5-1.5,0.5-2.2,0c-0.5-0.3-1.1-0.3-1.6-0.3
		c-5.3,0-10.5,0-15.8,0c-1.6,0-3.1,0-4.7,0c-0.5,0-0.9,0.1-1.3,0.3c-1.2,0.6-2.3,0.5-3.5-0.1c-0.8-0.4-1.8-0.4-2.6,0.1
		c-0.6,0.3-1,0.2-1.5-0.1c-1.1-0.4-2.2-0.5-3.2,0.1c-0.3,0.2-0.7,0.3-0.9,0.1c-0.6-0.4-1.2-0.5-1.9-0.5c-1.6,0-3.1,0-4.7,0
		c-1.4,0.1-2.9-0.4-4.3,0.6c-0.1,0.1-0.2,0.1-0.3,0.1c-1.6,0-3.1,0-4.7,0c-0.3,0-0.7-0.1-1-0.2c-1.5-0.7-3-0.7-4.5,0
		c-0.4,0.2-0.9,0.2-1.3,0.2c-5.4,0-10.8,0-16.2,0c-0.5,0-0.9-0.1-1.3-0.4c-0.4-0.3-0.8-0.2-1.2,0c-0.2,0.1-0.4,0.3-0.6,0.3
		c-1.5,0-2.9,0-4.4,0c-0.1,0-0.2-0.1-0.3-0.1c-0.9-0.6-1.6-0.3-2.5,0c-1.1,0.4-2.2,0.4-3-0.8c-0.1-0.1-0.2-0.1-0.3-0.2
		c-0.2-0.1-0.3,0-0.4,0.3c-0.3,0.9-0.9,1-1.4,0.4c-0.3-0.3-0.5-0.7-0.8-1.1c-0.1-0.2-0.3-0.3-0.5-0.4c-0.2-0.1-0.4,0-0.7-0.1
		c-1-0.1-2-0.1-2.7,0.9c-0.2,0.3-0.5,0.4-0.9,0.4c-0.5,0-0.9,0.1-1.3,0.4c-0.6,0.4-1.3,0.3-1.9,0c-1.2-0.6-2.4-0.6-3.5,0
		c-0.7,0.3-1.3,0.3-1.9-0.1c-0.5-0.4-1-0.3-1.5,0.1c-0.3,0.2-0.6,0.2-0.9,0c-0.5-0.3-1-0.4-1.6-0.4c-3.1,0-6.3,0-9.4,0
		c-0.3,0-0.7,0-1,0.2c-0.8,0.5-1.7,0.5-2.6,0.5c-1,0-2,0-3,0c-0.4,0-0.9,0-1.3,0.2c-0.9,0.5-2,0.4-2.8,1c-1.1-0.1-2,1-3.2,0.8
		c-0.2,0-0.4,0.1-0.6,0.2c-2.1,1-4.2,2.1-6.3,3.1c-0.3,0.1-0.6,0.3-0.9,0.5c-2.4,1.8-5.2,3.1-7.3,5.2c-0.2,0.1-0.4,0.2-0.6,0.3
		c-0.4,0.2-0.8,0.5-1.1,0.8c-1.1,1.1-2.2,2.2-3.4,3.3c-0.3,0.3-0.7,0.7-0.8,1.1c-0.3,0.9-1,1.5-1.6,2.1c-0.7,0.7-1.4,1.5-2.1,2.1
		c-0.6,0.5-1,1.2-1.4,1.9c-0.8,1.8-2.1,3.4-3.2,5.1c-0.7,1.1-1.7,2-3,2.6c-1.2,0.5-2.4,1.2-3.6,1.7c-1.2,0-2.5,0-3.7,0
		c-0.8,0-1.6,0-2.4,0l0,0c-0.4,0-0.9,0-1.3,0c-1.1,0-2.3,0.1-3.4,0c-1.3-0.2-2.3,0.8-3.6,0.7c-0.5,0-0.8,0.2-1.3,0.4
		c-1.4,0.4-2.7,0.9-4,1.6c-0.8,0.4-1.6,0.8-2.5,0.7c-0.7-0.1-1.3,0.2-1.8,0.7c-0.7,0.7-1.6,1.3-2.5,1.7c-1.1,0.5-2.2,1-3.3,1.7
		c-1.1,0.7-2.2,1.5-3.4,2c-0.3,0.1-0.6,0.4-0.8,0.6c-3.3,3.2-6.6,6.4-9.8,9.7c-0.5,0.5-1,1-1.3,1.6s-0.7,1.1-1.2,1.6
		c-0.5,0.6-1.1,1.1-1.7,1.7s-1.2,1.3-1.5,2.2c-0.2,0.4-0.3,0.8-0.6,1.2c-1.1,1.3-1.8,2.8-2.5,4.3c-0.2,0.4-0.4,0.8-0.7,1.1
		c-1.3,1.2-2.2,2.8-3,4.4c-0.2,0.4-0.4,0.8-0.7,1.2c-0.7,0.9-1.2,1.9-1.7,2.9c-0.6,1.2-1.2,2.4-1.8,3.6c-0.2,0.4-0.4,0.8-0.7,1.2
		c-0.7,0.9-1.2,1.9-1.7,2.9c-0.4,1-0.9,2.1-1.6,3c-0.6,0.9-1.2,1.8-1.7,2.9c-0.1,0.3-0.3,0.6-0.5,0.9c-1,1.6-2.2,3.1-2.9,4.8
		c-0.1,0.2-0.2,0.4-0.4,0.5c-0.7,0.8-1.1,1.7-1.5,2.6c-0.5,1.1-1.2,2.2-1.7,3.3c-0.5,1.3-1.3,2.4-2.2,3.4c-0.9,1.1-1.7,2.3-2.3,3.7
		c-0.4,0.9-0.8,1.8-1.3,2.7c-0.8,1.3-1.3,2.8-2.3,4.1c-0.4,0.5-0.7,1.2-0.8,1.8c-0.1,0.6-0.3,1.1-0.7,1.5c-0.4,0.4-0.6,0.9-0.9,1.4
		c-0.6,1.3-1.2,2.6-1.9,3.9c-0.4,0.7-0.6,1.5-1.1,2c-0.7,0.7-1.1,1.7-1.5,2.6c-0.5,0.9-0.8,1.8-1.5,2.6c-0.6,0.8-0.6,1.9-1.2,2.7
		c-0.2,0.3-0.3,0.6-0.5,0.9c-1,1.6-2.2,3.1-2.9,4.9c-0.1,0.2-0.2,0.4-0.4,0.5c-0.6,0.5-0.9,1.3-1.3,2c-0.9,1.8-1.8,3.6-2.9,5.2
		c-0.8,1.1-1.3,2.3-1.9,3.5c-0.3,0.6-0.5,1.2-1.1,1.7c-0.8,0.7-1.2,1.6-1.6,2.5c-0.6,1.2-1.2,2.4-1.8,3.6c-1,0.9-1.4,2.3-2.1,3.4
		c-0.3,0.5-0.5,1-0.8,1.4c-0.6,0.7-1,1.5-1.4,2.3c-1.1,2.1-2,4.2-3.1,6.3c-0.6,1.1-0.9,2.3-1.4,3.4c-0.5,1.1-1.1,2.2-1.6,3.3
		c-0.1,0.2,0,0.5-0.1,0.7c-0.6,1.1-0.5,2.4-1.2,3.4c-0.2,1.2-0.7,2.3-1.1,3.5c-0.2,0.4-0.3,0.8-0.3,1.3c-0.1,1.3,0.2,2.7-0.6,3.9
		c-0.2,0.2-0.1,0.7-0.1,1c0,3.4,0,6.7,0,10.1c0,0.5,0.1,0.9,0.3,1.3c0.3,0.4,0.3,0.8,0.4,1.3c0,0.4,0.1,0.9,0.2,1.3
		c0.5,1.4,1.1,2.7,1.1,4.2c0.4,0.8,0.7,1.6,0.7,2.6c0,0.3,0.3,0.6,0.4,0.9c0.4,0.8,0.8,1.6,1.1,2.4c0.1,0.3,0.3,0.6,0.3,0.9
		c0,1.1,0.4,2,0.9,2.8c0.4,0.7,0.6,1.4,0.6,2.2c0,0.6,0.1,1.1,0.4,1.6c0.5,1,1.1,2,1.4,3c0.4,1.2,0.1,2.4,0.2,3.7c0,0.9,0,1.8,0,2.7
		c0,0.5-0.1,0.9-0.3,1.3c-0.5,1-1.1,2-1.4,3c-0.3,1.1-0.7,2.1-1.2,3.1c-0.1,0.3-0.3,0.6-0.3,0.9c0,0.8-0.6,1.4-0.8,2.2
		c-0.1,0.7-0.6,1.4-0.9,2.1c-0.1,0.3-0.3,0.6-0.3,0.9c0,0.9-0.7,1.6-0.8,2.5c-0.1,0.8-0.6,1.4-0.7,2.2c-0.6,0.8-0.5,1.7-0.6,2.6
		c0,0.1-0.1,0.2-0.1,0.3c-0.4,0.6-0.4,1.2-0.5,1.9c-0.1,1.5,0.3,3.1-0.4,4.6c0,0.1,0,0.2,0,0.3c0.6,0.9,0.4,2,0.4,3
		c0,1.6,0,3.1,0,4.7c0,0.8,0,1.6,0.5,2.3c0.1,0.2,0.2,0.4,0.2,0.6c0,0.4,0.1,0.9,0.1,1.3c0,0.8,0.2,1.5,0.5,2.2
		c0.5,0.9,0.8,1.8,0.7,2.9c0,0.3,0,0.7,0,1c0,1.3,0.2,2.4,1.2,3.4c0.1,0.1,0.2,0.4,0.3,0.6c0.2,0.3,0.5,0.6,0.5,0.9
		c0,0.9,0.6,1.7,0.8,2.5c0.2,0.6,0.5,1.2,0.6,1.9c0.1,0.9,0.8,1.3,1.1,2c0.4,0.7,0.8,1.3,0.9,2.1c0.1,0.6,0.4,1,0.7,1.5
		c0.2,0.3,0.5,0.5,0.5,0.8c0.2,1,0.7,1.9,1.2,2.8c0.5,1,1,2,1.5,3c0.2,0.5,0.5,1,0.9,1.4c0.9,0.9,1.4,2,2,3.1c0.3,0.6,0.6,1.2,1,1.8
		c0.8,1,1.3,2.1,1.8,3.2c0.7,1.4,1.4,2.8,2.1,4.2c0.4,0.8,0.8,1.6,1.4,2.3c0.5,0.7,1.1,1.4,1.6,2.1c1.1,1.5,2.2,3.1,3,4.8
		c1.5,1.6,2.1,3.7,3.2,5.5c0.3,0.5,0.5,1,0.8,1.4c1.4,2.2,3,4.1,4.1,6.5c0.3,0.6,0.9,1,1.2,1.6c0.3,0.6,0.3,1.3,0.6,1.9
		c0.2,0.4,0.4,0.8,0.7,1.1c0.8,0.8,1.7,1.5,1.7,2.8c0,0.2,0.2,0.4,0.3,0.6c1.9,2.8,3.7,5.6,5.6,8.3c0.5,0.7,1.1,1.5,1.2,2.3
		c0.1,0.9,0.5,1.5,1.1,2c1,0.9,1.7,2.1,2.3,3.3c0.5,1.1,1,2.3,1.7,3.3c1.1,1.5,1.8,3.1,2.6,4.7c0.7,1.3,1.2,2.7,2.2,3.8
		c0.3,0.3,0.5,0.8,0.7,1.2c0.4,0.7,0.7,1.4,1.1,2.1c0.4,0.8,1.2,1.3,1.4,2.2c0.7,0.9,1.3,1.8,1.3,3c0,0.3,0.2,0.6,0.4,0.9
		c0.8,1.7,1.7,3.4,2.5,5.1c0.5,1,1.1,1.9,1.9,2.7c0.4,0.4,0.9,0.8,1.1,1.3c0.3,0.8,1,1.3,1.3,1.9c0.4,0.7,0.9,1.3,1.3,2
		c0.5,0.8,1,1.7,1.6,2.5s1.3,1.5,2,2.3c0.2,0.3,0.5,0.5,0.6,0.8c0.3,0.7,0.9,1.3,1.4,1.9c0.3,0.3,0.5,0.7,0.7,1.1
		c0.5,1,1.1,2,1.9,2.7c0.2,0.2,0.5,0.5,0.6,0.8c0.4,1,1.1,1.7,1.8,2.4c0.8,0.8,1.6,1.6,2.4,2.4c0.3,0.3,0.6,0.7,1,0.8
		c0.8,0.3,1.3,0.8,1.9,1.4c1.2,1.2,2.4,2.3,4,3c0.4,0.2,0.7,0.6,1.1,0.8c0.3,0.2,0.6,0.2,0.9,0.4c0.3,0.1,0.7,0.1,0.9,0.3
		c1.9,1.6,4.3,2.3,6.4,3.5c0.6,0.3,1.3,0.2,2,0.3c0.5,0.1,1,0.4,1.6,0.5c0.6,0.2,1.2,0.5,1.9,0.6c0.8,0.2,1.6-0.2,2.3,0.3
		s1.5,0.3,2.3,0.5c0.5,0.1,1,0.4,1.5,0.6c1.2-0.2,2.1,0.7,3.2,0.8c0.8,0.5,1.7,0.6,2.6,0.5c2.5,0,4.9,0,7.4,0c0.6,0,1.1,0.2,1.6,0.5
		s0.9,0.5,1.2,1c0.4,0.7,1,1.2,1.5,1.8c0.5,0.6,1,1.2,1.3,1.9c0.8,1.7,1.8,3.3,3.2,4.7c0.5,0.5,0.8,1.3,1.3,1.9
		c0.6,0.7,1.2,1.3,1.6,2.1c0.3,0.7,0.9,1.2,1.6,1.7c0.5,0.4,1.2,0.7,1.7,1.1c0.6,0.5,1.1,1.1,1.7,1.6c0.5,0.5,1,0.9,1.6,1.2
		c0.4,0.2,0.8,0.5,1.1,0.8c0.8,0.8,1.7,1.4,2.8,1.9c0.5,0.2,0.9,0.6,1.4,0.9c2,1.2,3.8,2.7,6.2,3.2c0.7,0.2,1.4,0.7,2.1,1.1
		c0.5,0.3,0.9,0.6,1.4,0.9c0.7,0.4,1.4,0.7,2.2,0.6c0.7,0,1.3,0.1,1.9,0.5c0.5,0.3,1,0.6,1.5,0.7s1.1,0.1,1.7,0.1
		c0.3,0,0.7,0.1,1,0.2c0.8,0.5,1.7,0.5,2.6,0.5c0.3,0,0.7,0,1,0.2c0.6,0.4,1.3,0.4,1.9,0.4c0.3,0,0.8-0.1,1,0.1
		c1,0.7,2.2,0.4,3.2,0.9c0.6,0.3,1.3,0.3,2,0.4c1.1,0.1,2.3-0.3,3.2,0.5c0.7,0,1.3,0.1,2,0.1c9,0,17.9,0.1,26.9,0.1
		c0.9,0,1.8,0,2.6,0.5c0.3,0.2,0.6,0.1,1,0.2c1.3,0,2.7,0,4,0c0.9,0,1.8,0,2.6-0.6c0.3-0.2,0.9-0.2,1.3,0.1c0.9,0.6,1.9,0.6,2.9,0.2
		c1.4-0.5,1.8-0.5,3.8,0.1c0.2,0.1,0.5,0.1,0.6,0c0.7-0.5,1.4-0.4,2.1,0.1c0.1,0.1,0.2,0.1,0.3,0c1.6-0.1,3.4,0.5,4.9-0.5
		c0.3-0.2,0.7-0.1,1-0.1c0.9,0,1.8,0,2.7,0c8.1,0,16.2,0,24.2,0c0.8,0,1.6,0,2.3-0.4c0.4-0.3,0.9-0.2,1.3-0.2c0.7,0,1.3-0.1,2-0.1
		c1-0.6,2.2-0.5,3.3-0.5c5.8,0,11.7,0,17.5,0c0.9,0,1.8,0,2.7,0c0.5,0,0.9-0.1,1.3-0.3c0.4-0.3,0.8-0.3,1.3-0.3c0.8,0,1.6,0,2.4,0
		c3.1,0,6.3,0,9.4,0c0.7,0,1.4,0,1.9-0.5c0.3-0.2,0.6-0.2,1-0.2c0.8,0,1.6,0,2.4,0c0.3,0,0.7,0,1-0.2c0.6-0.3,1.2-0.4,1.9-0.5
		c0.7-0.1,1.3-0.4,1.9-0.5c0.7-0.1,1.3-0.1,1.9-0.5s1.4-0.1,1.9-0.4c1.2-0.6,2.7-0.6,3.5-1.7c0.7-0.3,1.3-0.8,2.1-0.9
		c0.3,0,0.7-0.2,0.9-0.4c0.6-0.7,1.5-1.1,2.3-1.4c0.8-0.4,1.6-0.9,2.2-1.5c1.4-1.6,3.3-2.6,4.8-4.2c0.2-0.2,0.5-0.4,0.8-0.6
		c0.4-0.2,0.8-0.5,1.1-0.8c1.1-0.9,1.9-2.2,3.3-2.8c0.1,0,0.2-0.1,0.2-0.2c0.7-1.6,2.1-2.6,3.3-3.8c0.2-0.2,0.5-0.5,0.7-0.8
		c1.4-2.3,3-4.4,3.6-7.1c0.2-0.7,0.7-1.4,1.1-2.1c0.3-0.5,0.8-0.7,1.4-0.7c0.3,0,0.7,0,1,0.1c0.2,0,0.4,0.2,0.5,0.4
		c0.5,0.7,0.5,0.7,0.8,0.4c0.6-0.6,1.2-0.9,2.1-0.9c1.5,0.1,2.9,0,4.4,0c1,0,2-0.1,2.9-0.6c1.2-0.2,2.3-0.8,3.6-0.7
		c0.3,0,0.7-0.1,1-0.3c0.6-0.4,1.3-0.4,1.9-0.4c0.8,0,1.6,0.1,2.3-0.1c0.7-0.2,1.4-0.5,2.2-0.7c0.6-0.1,1.2-0.5,1.9-0.6
		c0.5-0.1,1-0.5,1.5-0.7c1.8-0.9,3.5-2,5.3-2.9c1.6-0.8,3.1-1.8,4.6-2.8c0.6-0.4,1-0.9,1.7-1c1.1-1,2.4-1.6,3.5-2.6
		c3.2-3.3,6.5-6.5,9.7-9.8c0.3-0.3,0.5-0.7,0.7-1.1c1-2.1,2.2-4.2,3.2-6.3c0.3-0.5,0.5-1,0.9-1.4c1.3-1.1,2.1-2.6,2.8-4.1
		c0.6-1.2,1.2-2.4,2-3.5c0.8-1.2,1.3-2.6,2.1-3.8c0.5-0.7,1.1-1.4,1.5-2.2c1.3-1.2,1.9-2.7,2.7-4.2c0.3-0.6,0.7-1.1,1.1-1.7
		c1-1.6,2.2-3.1,3-4.8c0.3-0.7,0.7-1.4,1.2-2c0.5-0.7,0.9-1.5,1.2-2.4c0.1-0.3,0.2-0.7,0.4-0.9c0.8-0.8,1.1-2,2-2.7
		c0.6-0.5,1-1.2,1.3-1.9c0.5-1.1,1.2-2.2,1.7-3.3c0.6-1.2,1.4-2.3,2.2-3.3c1.2-1.6,1.7-2.4,3-5.1c0.2-0.4,0.3-0.9,0.6-1.2
		c0.8-0.9,1.3-2.1,1.9-3.2c1-1.9,1.7-3.9,3.1-5.5c0.3-0.4,0.5-1,0.8-1.5c1.5-2.9,2.9-5.8,4.4-8.7c0.2-0.4,0.3-0.8,0.6-1.2
		c1.2-1.7,2.4-3.5,3.3-5.4c1-1.1,1.5-2.5,2.2-3.7c0.8-1.6,1.4-3.3,2.4-4.8s1.9-3,2.7-4.6c0.2-0.4,0.4-0.8,0.8-1.1
		c0.8-0.7,1.1-1.7,1.7-2.5c0.8-0.9,1.2-1.9,1.7-2.9c0.5-0.9,0.9-1.8,1.7-2.5c0.8-0.8,1.4-1.7,1.5-2.9c0-0.3,0.2-0.7,0.4-0.9
		c0.6-0.7,1-1.5,1.4-2.3c0.8-1.6,1.6-3.2,2.4-4.8c0.3-0.6,0.6-1.2,1-1.8c1-1.5,1.7-3.1,2.5-4.7c0.2-0.3,0.2-0.6,0.4-0.9
		c0.1-0.3,0.2-0.6,0.3-0.9c0.1-0.3,0.2-0.6,0.3-0.9c0.1-0.3,0.2-0.6,0.3-1c0.1-0.3,0.4-0.6,0.4-0.9c0-1,0.4-1.9,0.7-2.9
		c0.3-1.1,0.8-2.1,0.7-3.2c0-0.4,0.1-0.9,0.3-1.3c0.3-0.4,0.3-0.8,0.3-1.3c0-1.3,0-2.7,0-4C502.9,313.5,502.7,313,502.5,312.5z
		 M355.9,107.3c1,0,2,0,3,0l0,0c0.9,0,1.8,0,2.7,0c1.4-0.1,2.6,0.6,3.7,1.4s1.7,2,2.2,3.3c0,1,0.8,1.8,0.8,2.9
		c0.7,0.8,0.7,1.9,1,2.8c0.3,1,0.6,1.9,1.4,2.6c0.6,0.6,0.9,1.3,0.9,2.1c0,0.3,0.1,0.7,0.2,1c0.3,0.6,0.6,1.2,0.9,1.8
		c0.3,0.6,0.1,1.3,0.6,1.9c0.1,0.2,0.2,0.4,0.2,0.6c0,1.2,0.5,2.1,1.4,2.9c0.5,0.5,0.7,1.1,0.7,1.8c0,0.2,0,0.5,0.1,0.7
		c0.6,0.8,0.5,1.9,1,2.8c0.5,0.9,0.9,1.8,0.9,2.8c0,0.5,0.3,0.8,0.6,1.2c0.4,0.5,0.8,1.1,0.7,1.8c0,0.6,0.3,1.1,0.5,1.6
		c0.5,1.1,1.2,2.1,1.5,3.4c0.2,1.1,1.1,2,1.3,3c0.2,1.3,0.9,2.3,1.4,3.4c0.2,0.5,0.5,1,0.7,1.5c0.2,0.4,0.5,0.8,0.6,1.2
		c0.2,0.5,0.2,1.1,0.5,1.6c0.2,0.4,0.3,0.8,0.4,1.3c0.2,0.5,0.5,1,0.6,1.6c0.1,0.4,0.2,0.9,0.4,1.2c0.2,0.4,0.2,0.9,0.2,1.3
		c0.1,0.6-0.2,1.1-0.7,1.5c-0.3,0.2-0.6,0.4-0.9,0.3c-0.5-0.2-1-0.5-1.6-0.6c-0.3,0-0.6-0.2-0.9-0.4c-0.2-0.1-0.4-0.3-0.5-0.4
		c-2.4-2.1-4.1-3.4-6.9-5.2c-0.4-0.2-0.7-0.5-1.1-0.8c-0.6-0.5-1.1-1.2-1.9-1.4c-0.1,0-0.2-0.1-0.3-0.2c-1.1-0.7-1.8-2-3.1-2.5
		c-1.3-0.5-2.1-1.6-3.4-2.1c-1.4-1.4-3.3-2.3-4.7-3.8c-0.7-0.7-1.6-1.2-2.6-1.4c-1.2-0.3-2.3-0.9-3.2-1.7c-1.5-1.3-3.1-2.5-5.1-3.1
		c-0.2-0.1-0.4-0.1-0.6-0.2c-1.2-1-2.7-1.6-4.1-2.3c-1.1-0.6-2-1.4-3.1-1.9c-1-0.4-2-1.1-3-1.5s-1.5-1.4-2.5-1.6
		c-0.7-0.5-1.6-0.8-2.3-1.4c-1.2-0.9-2.5-1.5-3.9-1.9s-2.7-1.1-3.9-1.9c-1.1-0.7-2.2-1.6-3.4-2.2c-2-1-4-2-6-3
		c-1.8-0.4-3.3-1.4-4.9-2.2c-0.3-0.2-0.6-0.2-0.9-0.4c-0.9-0.4-1.6-1.2-2.5-1.6s-1.9-0.7-2.8-1.1c-0.2-0.1-0.3-0.3-0.5-0.4
		c-0.2-0.2-0.2-0.6,0.1-0.8c0.2-0.1,0.4-0.3,0.5-0.4s0.2-0.1,0.3-0.1c1,0.1,1.6-0.8,2.5-0.8c0.6,0,1-0.5,1.5-0.6s1.1-0.1,1.7-0.2
		c0.2,0,0.4-0.2,0.6-0.3c0.7-0.3,1.4-0.6,2.2-0.7c0.8-0.2,1.5-0.1,2.3-0.2c0.2,0,0.5,0,0.7-0.1c1.3-0.8,2.8-0.5,4.3-0.6
		c0.3,0,0.7-0.1,1-0.2c0.6-0.4,1.2-0.5,1.9-0.5c0.8,0,1.6,0.1,2.3-0.1c0.8-0.1,1.5-0.5,2.2-0.7c0.8-0.2,1.5-0.5,2.3-0.4
		c1,0,2-0.1,3-0.1c0.5,0,0.9-0.1,1.3-0.3c0.3-0.1,0.6-0.3,0.9-0.3c1.2-0.1,2.5,0.2,3.6-0.7c0.9,0,1.8-0.1,2.7-0.1
		c0.9,0,1.8,0.1,2.6-0.5c0.7-0.1,1.3-0.2,2-0.2c0.9-0.1,1.8,0,2.6-0.4c0.5-0.2,1.1-0.1,1.6-0.2c0.8-0.1,1.6-0.1,2.3-0.5
		C355.2,107.3,355.6,107.3,355.9,107.3z M179.4,83.1c1.2-1.2,2.3-2.4,3.5-3.6c0.2-0.2,0.5-0.4,0.8-0.5c1.4-0.6,2.7-1.6,4-2.4
		c0.8-0.5,1.4-1,2.4-1c0.6,0,1.3-0.4,1.9-0.7c0.7-0.3,1.4-0.6,2.2-0.6c0.7,0,1.3-0.1,2-0.1c0.7-0.6,1.7-0.4,2.5-0.9
		c0.6-0.4,1.3-0.3,1.9,0.1c0.2,0.1,0.4,0.1,0.6,0c0.3-0.2,0.6-0.3,0.9-0.3c0.6-0.1,1.1,0,1.7-0.1c0.9,0,1.8,0.1,2.7-0.1
		c0.8-0.2,1.7-0.6,2.5-0.8c0.7-0.2,1.3-0.4,2-0.4c1.9,0,3.8,0,5.7,0c0.8,0,1.6,0,2.3-0.5c0.4-0.3,0.9-0.2,1.3-0.2c3.1,0,6.3,0,9.4,0
		c1,0,2,0,3,0c0.3,0,0.7,0.1,1-0.1c1.6-1,3.3-0.5,4.9-0.6c3.7-0.1,7.4,0,11.1,0c0.8,0,1.6-0.1,2.3-0.5c0.3-0.2,0.6-0.2,1-0.2
		c10.7,0,21.3,0,32,0c0.6,0,1.1,0,1.7,0s1.1,0.2,1.6,0.4c0.3,0.2,0.6,0.2,1,0.2c1.3,0,2.7,0,4,0c0.3,0,0.7-0.1,0.9-0.3
		c0.6-0.4,1.3-0.4,1.9-0.1c0.2,0.1,0.5,0.2,0.6,0.1c0.7-0.4,1.5-0.4,2.3-0.4c4.5,0,9,0,13.5,0c0.3,0,0.7,0,1,0.2
		c0.7,0.4,1.5,0.5,2.3,0.5c2.9,0,5.8,0,8.8,0c0.6,0,1.1,0.1,1.6,0.4c0.4,0.3,0.8,0.2,1.3-0.1c0.1-0.1,0.2-0.2,0.3-0.2
		c1,0.7,2.2,0.2,3.3,0.6c0.7,0.3,1.5,0.5,2.2,0.6c0.8,0.1,1.5,0.4,2.2,0.6c0.7,0.3,1.5,0.5,2.2,0.7s1.4,0.6,2.2,0.6
		c0.7,0,1.3,0.2,1.9,0.5c0.7,0.4,1.4,0.6,2.1,1c0.9,0.5,1.8,0.9,2.5,1.6s1.6,1.2,2.5,1.7c1,0.6,1.8,1.2,2.3,2.3
		c0.4,0.8,1.1,1.3,2,1.7c0.7,0.3,1.2,1,1.1,1.9c0,0.1,0,0.3,0,0.4c0,0.7-0.5,1.4-1,1.6c-0.7,0.2-1.5,0.4-2.2,0.7
		c-0.6,0.3-1.3,0.3-2-0.1c-0.4-0.3-0.8-0.2-1.2,0c-0.3,0.1-0.6,0.2-1,0.2c-1,0-2,0-3,0c-0.9,0-1.8,0.1-2.7,0.1
		c-0.7,0.5-1.5,0.5-2.2,0.8c-0.5,0.2-1,0.4-1.6,0.4c-0.9,0-1.8,0-2.7,0c-0.8,0-1.5,0.1-2.3,0.5c-0.4,0.2-0.9,0.2-1.3,0.2
		c-0.4,0.1-0.9,0.1-1.3,0.1c-0.9,0.7-1.9,0.6-2.9,0.6c-0.7,0-1.3,0.1-1.9,0.5c-0.2,0.1-0.4,0.2-0.6,0.2c-0.9-0.1-1.7,0.5-2.6,0.6
		c-1,0.1-2-0.1-2.9,0.6c-0.7,0-1.3,0.1-2,0.1s-1.3,0.1-1.9,0.5c-0.4,0.2-0.9,0.2-1.3,0.2c-0.7,0-1.3,0-1.9,0.4
		c-0.2,0.1-0.4,0.2-0.6,0.2c-1.4-0.1-2.6,0.5-3.9,0.6c-0.8,0.1-1.4,0.6-2.2,0.7c-0.8,0.1-1.6,0.1-2.4,0.1c-0.1,0-0.3,0-0.3,0
		c-1.1,0.8-2.4,0.5-3.6,0.7c-0.3,0-0.6,0.2-0.9,0.3c-0.8,0.4-1.6,0.7-2.4,1.1c-0.6,0.3-1.2,0.5-1.9,0.5c-0.2,0-0.5,0-0.7,0.1
		c-0.9,0.7-1.9,0.6-2.9,0.6c-0.7,0-1.3,0.1-1.9,0.4c-0.4,0.2-0.9,0.3-1.3,0.2c-1.4-0.2-2.6,0.6-3.9,0.8c-0.7,0.5-1.5,0.4-2.2,0.8
		c-0.6,0.3-1.3,0.3-1.9,0.6c-0.7,0.3-1.4,0.6-2.2,0.6c-0.6,0-1.1,0-1.7,0c-0.7,0.5-1.7,0.6-2.5,0.9c-0.5,0.2-1,0.4-1.5,0.7
		c-0.4,0.2-0.8,0.3-1.3,0.3c-0.9,0-1.8-0.1-2.7,0c-1.4,0.1-2.7-0.2-3.8-0.9c-0.7-0.4-1.6-0.3-2.2-0.7c-0.6-0.4-1.3-0.3-1.9-0.4
		c-0.7-0.1-1.2-0.7-1.9-0.6c-0.6,0-1.1,0-1.7,0c-0.2,0-0.5,0-0.7-0.1c-0.7-0.6-1.7-0.5-2.5-0.9c-0.5-0.2-1-0.4-1.5-0.7
		c-0.7-0.4-1.5-0.2-2.2-0.7c-0.6-0.4-1.3-0.2-2-0.3c-0.5,0-0.8-0.3-1.3-0.4c-1.1-0.3-2.1-0.9-3.2-1c-1-0.1-1.9-0.7-2.9-0.6
		c-0.5,0-0.9-0.1-1.3-0.4c-0.3-0.2-0.6-0.3-0.9-0.3c-1.7,0.1-3.3-0.4-4.8-1.2c-0.9-0.5-2-0.2-2.9-0.8c-0.9-0.1-1.8,0-2.6-0.6
		c-0.8,0-1.6-0.1-2.3-0.1c-0.8,0-1.6,0-2.3-0.5c-0.3-0.2-0.6-0.2-1-0.2c-0.7,0-1.3,0-2,0c-1.1,0-2.3,0.1-3.2-0.6
		c-1.3,0.1-2.4-0.7-3.6-0.7c-0.5,0-0.9-0.1-1.3-0.4c-0.4-0.3-0.8-0.3-1.3-0.3c-1.5,0-2.9,0-4.4,0c-0.7,0-1.3,0-1.9-0.4
		c-0.3-0.2-0.6-0.2-1-0.2c-0.8,0-1.6,0-2.4,0c-0.5,0-0.9-0.1-1.3-0.3c-0.4-0.2-0.8-0.3-1.3-0.3c-1.7,0-3.4-0.1-5-0.1
		c-1,0-2,0.1-2.9-0.5c-1,0-1.9-0.4-2.9-0.7c-2.2-0.7-2.2-0.8-4.2-0.7c-1.3,0-2.1-0.5-2.8-1.5C178.9,84.4,178.9,83.5,179.4,83.1z
		 M146.2,160c0.5-0.8,0.3-1.8,0.8-2.5c0.2-0.2,0.2-0.6,0.2-1c0-1,0.2-2,0.8-2.9s0.8-1.9,0.7-2.9s0.3-1.7,0.7-2.6
		c0.4-1,1.1-1.9,1.3-3c0.2-1,0.9-1.8,1.2-2.7c0.3-0.7,0.6-1.4,0.7-2.2c0.1-0.7,0.6-1.2,0.7-1.9c0.1-0.9,0.6-1.7,0.9-2.5
		c0.4-1,1-2,1.5-3c0.4-0.7,0.2-1.5,0.7-2.2c0.4-0.5,0.6-1.2,0.9-1.8c0.3-0.7,0.7-1.4,1-2.1c0.1-0.3,0.3-0.6,0.3-0.9
		c0-1.3,0.6-2.4,1.4-3.4c0.4-0.6,0.7-1.1,0.8-1.8c0.1-0.5,0.4-1,0.7-1.5c0.8-1.5,1.7-2.9,2-4.6c1.1-2.2,2.1-4.5,3.6-6.4
		c0.8-1,1.8-1.6,3.2-1.6c1.3,0,2.7,0,4,0c0.3,0,0.7,0,1,0.2c0.8,0.6,1.7,0.5,2.6,0.5c0.8,0,1.5,0.2,2.2,0.6c0.3,0.2,0.7,0.1,1,0.1
		c0.6,0,1.1,0,1.7,0c0.8,0,1.6-0.1,2.3,0.1s1.5,0.4,2.2,0.7c0.7,0.3,1.5,0.5,2.3,0.5c0.9,0,1.8,0,2.7,0c0.3,0,0.7,0,1,0.1
		c1.4,0.9,3.1,0.5,4.6,0.6c0.8,0.1,1.5,0,2.3,0.4c0.6,0.4,1.3,0.2,2,0.3c0.4,0,0.9,0.1,1.3,0.1c0.9,0.7,2,0.2,2.9,0.7
		c0.6,0.3,1.3,0.4,1.9,0.4c0.8,0,1.6,0,2.4,0c0.5,0,0.9,0,1.3,0.3c0.4,0.3,0.8,0.4,1.3,0.4c0.9,0,1.8,0,2.7,0c0.3,0,0.7,0,1,0.1
		c1,0.7,2.1,0.6,3.2,0.6c0.5,0,0.9,0.1,1.3,0.3c1.5,0.5,2.9,1.2,4.5,1.1c0.2,0,0.4,0.1,0.6,0.2c0.5,0.3,1,0.4,1.6,0.4
		c0.4,0,0.9,0,1.3,0.1c0.6,0.1,1,0.5,1.2,1c0.2,0.3-0.3,1.1-0.8,1.4c-0.2,0.1-0.4,0.2-0.6,0.3c-1,0.1-1.9,0.6-2.8,1.1
		c-1.9,1.1-4,2-6,3c-0.7,0.3-1.4,0.7-2.2,0.7c-0.3,0-0.6,0.2-0.9,0.3c-1.2,0.6-2.4,1.2-3.6,1.8c-1.1,0.5-2.1,1.3-3.4,1.3
		c-1.1,0.6-2.3,1-3.2,1.7c-0.8,0.6-1.7,1.1-2.6,1.5c-1.5,0.8-3,1.5-4.5,2.2c-0.4,0.2-0.8,0.5-1.2,0.5c-0.9,0.1-1.7,0.6-2.4,1.1
		c-0.7,0.4-1.2,0.8-2.1,1c-0.7,0.1-1.5,0.5-2.1,1c-1.1,0.9-2.5,1.5-3.8,2.2c-1.7,0.9-3.4,1.7-5.1,2.5c-0.6,0.3-1.2,0.5-1.7,1.1
		c-0.7,0.8-1.6,1.2-2.5,1.7c-1.4,0.7-2.8,1.4-4.2,2.1c-0.5,0.2-1,0.5-1.4,0.9c-1,1.1-2.3,1.7-3.5,2.5c-0.9,0.6-1.9,1.1-2.9,1.7
		c-0.4,0.3-1.1,0.3-1.5,0.6c-0.9,0.7-2,1.1-2.7,1.9c-0.7,0.7-1.6,1.3-2.5,1.7c-0.8,0.4-1.6,0.9-2.2,1.5c-0.8,0.9-1.9,1.6-3,2.1
		s-2.2,1.1-3,2c-0.4,0.4-0.9,0.7-1.4,0.9c-0.7,0.3-1.4,0.7-2.4,1.2c-0.2,0.1-0.7,0.3-1.2,0.5c-0.2,0.1-0.5,0-0.6-0.2
		c-0.2-0.3-0.3-0.6-0.4-0.9C146.2,160.9,146,160.5,146.2,160z M50.4,243.7c0-0.7,0.1-1.3,0.1-2c0.5-0.7,0.5-1.7,0.9-2.5
		c0.4-0.7,0.9-1.4,0.8-2.1c-0.1-1.1,0.6-1.9,0.8-2.9s0.5-1.9,0.9-2.8c0.3-0.6,0.2-1.3,0.6-1.9c0.7-1.3,1.3-2.6,1.9-3.9
		c0.2-0.3,0.4-0.6,0.6-0.8c0.6-0.7,1.2-1.5,1.2-2.3c0.1-1.2,1-1.7,1.6-2.5c0.5-0.7,0.8-1.6,1.2-2.4c0.5-1,1-2,1.5-3s1.2-1.8,1.8-2.8
		c0.5-0.9,0.8-1.8,1.6-2.6c0.2-0.2,0.4-0.6,0.5-0.9c0.3-1.8,1.5-3.2,2.2-4.9c0.1-0.3,0.4-0.6,0.6-0.8c0.7-0.7,1.3-1.5,1.8-2.4
		c0.2-0.5,0.7-0.8,1.1-1.3c0.2-0.3,0.4-0.6,0.4-0.9c0.2-1.2,0.7-2.1,1.5-3c0.4-0.4,0.6-0.9,0.6-1.5c0-0.2,0.1-0.5,0.2-0.6
		c0.9-1,1.4-2.2,2.1-3.4c0.4-0.7,0.6-1.4,1.2-2c1.3-1.2,1.9-2.8,2.5-4.3c0.2-0.4,0.1-0.9,0.5-1.2c0.6-0.6,1.1-1.4,1.4-2.3
		c0.3-0.9,1-1.5,1.4-2.3c0.1-1.1,0.8-1.8,1.5-2.6c0.3-0.3,0.5-0.7,0.7-1.1c0.7-1.3,1.3-2.6,2-3.9c0.3-0.6,0.5-1.3,0.9-1.8
		c1.3-1.6,2-3.5,3-5.2c0.6-1.2,1.3-2.3,2-3.5c0.9-1.4,1.5-3,2.3-4.4c0.5-1,1-2,1.7-2.9c0.4-0.5,0.6-1.2,1.1-1.7s0.3-1.3,0.6-1.9
		c0.2-0.5,0.5-1,0.8-1.5c0.6-1,1.2-1.9,1.8-2.8c0.5-0.9,0.9-1.8,1.5-2.6c0.1-0.1,0.1-0.2,0.2-0.3c0.8-1.3,1.4-2.8,2.2-4.1
		c0.8-1.2,1.7-2.4,2.3-3.7c0.2-0.4,0.3-0.9,0.7-1.2c1.6-1.4,2.1-3.4,3.3-5c1.1-1.5,2.1-3.1,3.2-4.7c0.2-0.4,0.4-0.8,0.8-1.1
		c0.7-0.7,1.3-1.5,1.8-2.4c0.9-1.5,2-3,3.3-4.2c0.3-0.3,0.6-0.6,0.8-1c0.5-0.9,1.2-1.6,1.9-2.3c0.4-0.4,0.7-0.9,1-1.3
		c0.5-0.9,1.2-1.5,2.2-2c1.5-0.7,3-1.5,4.5-2.2c0.3-0.1,0.6-0.3,0.9-0.3c1.4-0.1,2.6-0.6,3.8-1.1c0.9-0.4,1.8-0.2,2.6-0.2
		c0.3,0,0.6,0.3,0.9,0.5c0.7,0.6,1.2,1.3,1.1,2.3c-0.1,0.8-0.2,1.5-0.6,2.2c-1.2,2.4-2.3,4.8-3.5,7.2c-0.5,1.1-1.3,2.1-1.4,3.4
		c-0.6,1.1-1.2,2.1-1.4,3.4c-0.2,1-0.8,1.9-1.2,2.7c-0.4,0.7-0.7,1.4-0.7,2.2c0,0.3-0.1,0.7-0.3,0.9c-0.9,1.1-1.3,2.3-1.6,3.6
		c-0.2,1-0.9,1.8-0.8,2.9c0,0.2-0.1,0.4-0.2,0.6c-0.9,1.5-1.2,3.4-2.1,4.9c-0.2,0.4-0.4,0.8-0.3,1.3c0,0.7-0.2,1.3-0.5,1.9
		c-0.4,0.9-0.9,1.8-1.1,2.8c-0.1,0.5-0.3,1.1-0.4,1.6c-0.2,1.2-0.9,2.3-0.8,3.6c0,0.2-0.2,0.4-0.3,0.6c-0.3,0.6-0.7,1.2-1,1.8
		c-0.3,0.7-0.7,1.4-0.6,2.2c0.1,0.9-0.8,1.6-0.7,2.5c-0.6,1.1-0.6,2.4-1.3,3.4c0,1.1-0.5,2.2-0.8,3.2c-0.2,1-0.7,1.8-0.7,2.9
		c0,0.4-0.1,0.9-0.4,1.3c-0.2,0.3-0.2,0.6-0.3,0.9c-0.1,0.9,0,1.8-0.4,2.6c-0.3,0.7-0.2,1.6-0.5,2.3c-0.4,0.8-0.3,1.8-0.8,2.5
		c-0.2,0.2-0.2,0.6-0.2,1c0,1.1,0,2.2,0,3.4c0,0.6-0.1,1.1-0.4,1.6s-0.3,1.1-0.3,1.6c0.1,1.2-0.3,2.2-0.7,3.2
		c-0.2,0.4-0.5,0.8-0.5,1.2c0.1,1.3-0.6,2.1-1.4,2.9c-2.6,2.6-5.3,5.2-7.9,7.8c-0.2,0.2-0.3,0.4-0.5,0.4c-1.6,0.6-2.6,2.1-3.8,3.2
		c-1.5,1.5-3,3-4.5,4.5c-0.6,0.6-1.1,1.1-1.9,1.4c-0.6,0.3-1.1,0.8-1.4,1.4c-0.4,0.9-1.2,1.6-1.9,2.3c-1.7,1.7-3.5,3.5-5.2,5.2
		c-0.6,0.6-1.1,1.1-1.4,1.9c-0.2,0.4-0.6,0.8-0.9,0.9c-0.9,0.3-1.4,1-1.8,1.8c-0.6,1.1-1.7,1.8-2.1,3c-0.6,0.6-1.2,1.3-1.9,1.9
		c-0.7,0.7-1.5,1.4-1.9,2.3c-0.2,0.4-0.5,0.7-0.8,1c-0.7,0.7-1.4,1.4-1.8,2.4c-1.5,1.3-2.3,3.3-3.8,4.7c-0.8,0.7-1.4,1.4-2.1,2.2
		c-0.6,0.6-1.2,1.3-1.6,2.1c-0.2,0.5-0.7,0.9-1.1,1.3c-1.4,1.3-2.6,2.8-3.5,4.5c-0.4,0.8-1.3,1.3-1.4,2.2c-0.7,0.8-1.7,1.6-2.2,2.5
		c-0.6,1-1.3,1.8-2,2.6c-0.7,0.7-1.6,0.8-2.5,0.6c-0.1,0-0.2-0.1-0.3-0.2c-0.5-0.7-1.1-1.4-1.1-2.4c0.1-1.4-0.4-2.6-0.9-3.9
		c-0.2-0.6-0.4-1.3-0.4-1.9c0-1.1,0-2.2,0-3.4l0,0C50.4,245.4,50.4,244.5,50.4,243.7z M106.9,241.1L106.9,241.1c0,0.9,0,1.8,0,2.7
		c0,0.8,0.1,1.6-0.1,2.3s-0.4,1.5-0.7,2.2c-0.3,0.6-0.4,1.3-0.4,1.9c0,2-0.1,4-0.1,6c0,0.7-0.1,1.3-0.4,1.9c-0.2,0.3-0.2,0.6-0.2,1
		c0,1.9,0,3.8,0,5.7c0,0.5,0.1,0.9,0.4,1.3c0.4,0.6,0.4,1.3,0,1.9c-0.5,0.9-0.5,1.9-0.1,2.9c0,0.1,0.1,0.2,0.2,0.3
		c0.2,1,0.4,2-0.1,2.9c-0.5,0.8-0.4,1.7-0.3,2.6c0,0.6,0.6,1,0.5,1.6c-0.1,0.4-0.4,0.8-0.5,1.2c-0.1,0.4,0,0.9,0.2,1.3
		c0.4,0.5,0.3,1,0,1.5c-0.3,0.4-0.2,0.8,0.1,1.2c0.2,0.3,0.4,0.7,0.2,0.9c-0.6,0.9-0.5,1.9-0.5,2.9c0,1.2,0,2.5,0,3.7
		c0,0.3,0,0.7,0.2,1c0.5,0.8,0.5,1.7,0.5,2.6c0,5.2,0.1,10.3,0,15.5c0,1.2-0.2,2.5,0.5,3.6c0.2,0.3,0.1,0.7,0.1,1
		c0,0.4-0.1,1,0.1,1.3c0.6,1,0.5,2.2,0.5,3.3c0,0.8,0.1,1.6,0.1,2.4c0,0.6,0,1.1,0.1,1.7c0.1,0.4,0.3,0.8,0.4,1.2
		c0.1,0.2-0.1,0.4-0.3,0.6c-0.5,0.3-1.1,0.3-1.6-0.1c-1.6-1.6-3.2-3.1-4.8-4.7c-0.6-0.6-1.2-1.3-1.9-1.9c-1.4-1.3-2.8-2.5-3.8-4.2
		c-1-0.4-1.3-1.5-2-2.2s-1.4-1.4-2.1-2.2c-0.7-0.7-1.4-1.4-1.9-2.4c-0.3-0.7-1-1.2-1.5-1.8c-0.9-0.9-1.7-1.8-2.2-2.9
		c-0.2-0.5-0.5-1-0.9-1.4c-0.3-0.3-0.6-0.6-1-1c-0.6-0.7-1.3-1.3-1.8-2c-0.7-0.9-1.3-1.8-1.8-2.8c-0.2-0.4-0.4-0.9-0.8-1
		c-1.1-0.4-1.4-1.4-2-2.2c-1.2-1.6-2.3-3.3-3.5-4.9c-1.1-1.5-2.1-3.1-3.2-4.7c-2.5-3.8-2.1-3.3-2-7.2c0-0.2,0-0.4,0-0.7
		c-0.1-1.3,0.6-2.4,1.4-3.3c0.7-0.9,1.5-1.6,2.4-2.4c0.9-0.9,1.6-1.9,2.1-3c0.2-0.5,0.4-1,0.8-1.4c0.9-0.8,1.6-1.8,2.1-3
		c0.7-1.8,2-3.2,3.5-4.4c0.4-0.4,1-0.4,1.4-0.9c0.5-0.6,0.7-1.4,1.3-1.9c0.6-0.5,1.1-1.1,1.4-1.8c0.2-0.4,0.5-0.8,0.8-1
		c1.7-1.5,2.7-3.5,4.2-5.2c0.3-0.8,0.9-1.2,1.5-1.8c1.1-1.1,2.3-2.1,3-3.6c0.2-0.5,0.7-0.9,1.1-1.3c0.9-1,1.9-1.9,2.8-2.9
		c0.8-0.8,1.5-1.6,2.1-2.6c0.5-0.9,1.3-1.5,2.4-1.6c0.3,0,0.6-0.3,0.9-0.4c1.1-0.4,1.4-0.3,1.9,0.6c0.1,0.1,0.1,0.2,0.2,0.3
		c0.8,1.3,1.2,2.6,1.1,4.1C106.9,238.9,106.9,240,106.9,241.1z M141.1,449.8c-0.1,0.3-0.3,0.6-0.5,0.9c-0.1,0.3-0.3,0.6-0.7,0.7
		c-0.5,0.2-1.1,0.3-1.6,0.5c-0.3,0.1-0.6,0.2-1,0c-0.6-0.4-1.3-0.3-2-0.3s-1.3,0-2-0.3c-1.1-0.5-2.4-0.6-3.4-1.4
		c-1.3-0.9-2.6-1.7-3.9-2.6c-1.3-1-2.6-2.2-3.7-3.4c-1-1.2-1.9-2.5-2.6-3.9c-0.2-0.5-0.5-1-0.8-1.4c-0.6-0.8-1.1-1.7-1.7-2.5
		c-1.3-1.7-3.5-4.8-4.5-6.6c-0.6-1.1-1.3-2.1-2-3.1c-0.6-0.9-1.2-1.9-1.9-2.8c-0.6-0.8-0.9-1.8-1.4-2.7c-0.5-1.1-1.1-2.2-1.9-3.2
		c-0.7-0.9-1-2-1.6-2.9c-0.7-0.9-1.3-1.8-1.9-2.8s-1-2-1.5-3c-0.2-0.4-0.4-0.8-0.7-1.1c-0.9-0.9-1.5-1.9-2-3c-0.9-1.8-1.9-3.5-3.2-5
		c-1-1.2-1.9-2.5-2.6-3.9c-0.3-0.7-0.2-1.6-0.9-2.1c-0.5-0.4-0.7-1.1-1-1.7c-0.4-0.7-0.7-1.4-1-2.1c-0.2-0.3-0.4-0.6-0.6-0.8
		c-1-1.2-2.8-3.8-3.3-5c-0.6-1.2-1.2-2.4-2.2-3.3c-0.3-0.3-0.4-0.8-0.7-1.1c-0.7-1.1-1.1-2.4-1.9-3.5c-0.7-1-1.2-2.1-1.8-3.2
		c-0.6-1.2-1.2-2.4-1.8-3.6c-0.3-0.6-0.6-1.2-0.9-1.8c-0.1-0.3-0.2-0.7-0.4-0.9c-1.3-1.4-1.9-3.2-2.8-4.9c-0.4-0.8-0.8-1.6-1.5-2.2
		c-0.8-0.8-1.2-1.9-1.9-2.7c-0.2-0.2-0.2-0.6-0.3-0.9c-0.8-2.2-1.5-4.4-3-6.3c-0.2-0.2-0.3-0.6-0.4-0.9c-0.1-0.4-0.2-0.9-0.5-1.2
		c-0.6-0.8-1.1-1.6-1.7-2.5c-0.2-0.3-0.4-0.6-0.4-0.9c-0.3-1.8-1.7-3.1-2.6-4.6c-0.5-1-1.3-1.8-1.9-2.8c-0.2-0.3-0.2-0.6-0.3-0.9
		s-0.1-0.7-0.3-0.9c-1.1-1-1.5-2.5-2.2-3.7c-0.3-0.5-0.2-1.1-0.5-1.6s-0.8-0.8-1.1-1.3c-0.7-0.9-1.2-1.9-1.2-3
		c0-0.5-0.1-0.9-0.3-1.3c-0.6-1.1-1.2-2.2-1.2-3.4c0-0.2-0.2-0.4-0.2-0.6c-0.3-0.8-0.4-1.8-0.9-2.5c0-0.9,0-1.8-0.1-2.7
		c0-0.4,0-0.9-0.2-1.3c-0.5-0.8-0.5-1.7-0.5-2.6s0-1.8,0.5-2.6c0.1-0.2,0.2-0.4,0.2-0.6c0-0.8,0.2-1.5,0.6-2.2
		c0.3-0.6,0.1-1.3,0.4-2c0.3-0.6,0.3-1.3,0.4-2c0.1-0.8,0.6-1.2,1.1-1.6c0.5-0.3,1-0.5,1.5-0.7c0.2-0.1,0.5,0,0.6,0.1
		c1.6,1.4,3.2,2.7,4.3,4.7c0.2,0.4,0.5,0.7,0.8,1c1,1.1,2.1,2,2.7,3.4c0.2,0.4,0.6,0.7,0.9,1c0.8,0.8,1.6,1.6,2.4,2.4
		c0.7,0.6,1.2,1.3,1.6,2.2c0.4,0.8,0.9,1.5,1.5,2.2c0.7,0.7,1.4,1.5,2,2.3c0.1,0.1,1.2,1.6,1.8,2.3c0.7,0.7,1.5,1.3,1.8,2.4
		c0.7,0.7,1.3,1.5,2,2.2c0.5,0.5,1,0.9,1.4,1.5c0.4,0.5,0.7,1.1,1.1,1.7c0.7,1.1,1.6,2.2,2.5,3.1c1,0.9,1.9,1.9,2.8,2.9
		c1.1,1.1,2.3,2.1,3,3.6c0.3,0.6,0.9,1,1.4,1.5c1,1.1,2.2,1.9,2.7,3.3c0.8,0.8,1.5,1.6,2.5,2.2c1.4,0.9,2.6,2,3.5,3.6
		c0.2,0.4,0.6,0.7,0.9,1c2.2,1.6,2.2,1.6,3.7,3.7c0.7,1,1.5,1.9,2.7,2.5c0.8,0.4,1.5,1,1.9,1.9c0.3,0.8,0.9,1.3,1.5,1.8
		c0.5,0.4,1.1,0.7,1.5,1.3c0.3,0.5,1.2,0.6,1.3,1.4c0,0.2,0.3,0.3,0.4,0.5c0.6,0.5,1.3,0.8,1.6,1.6c0.3,0.7,1.1,1.2,1.5,1.8
		c0.4,0.6,1,1.3,0.9,2.1c-0.1,1.3,0.8,2.3,0.9,3.5c0.4,0.6,0.6,1.2,0.5,1.9c-0.2,1.4,0.6,2.6,0.7,3.9c0.6,0.7,0.5,1.7,0.9,2.5
		c0.1,0.2,0.2,0.4,0.3,0.6c0.1,0.6,0.1,1.1,0.2,1.7c0.1,0.5,0.6,1,0.6,1.6c0,1.2,0.6,2.4,0.9,3.5c0.1,0.4,0.4,0.8,0.4,1.3
		c0,1,0.2,2,0.8,2.9c0.6,0.9,0.5,1.9,1,2.8s0.9,1.8,1,2.8c0.1,0.5,0.6,1,0.5,1.6c-0.3,1.4,0.7,2.6,0.9,3.9c0.6,0.9,0.5,2,1.1,2.8
		c0,0.9,0.5,1.7,0.9,2.5c0.4,0.7,0.6,1.4,0.6,2.2c0,0.3,0.1,0.7,0.3,1c0.2,0.4,0.3,0.8,0.4,1.3c0,0.6,0,1.2,0.1,1.7
		c0.2,0.6,0.4,1.3,0.6,1.9c0.2,0.6,0.5,1.2,0.8,1.8c0.3,0.5,0.4,1,0.4,1.6c0,0.8,0.2,1.5,0.5,2.2c0.4,0.8,0.7,1.6,0.9,2.5
		c0.2,0.8,0.9,1.6,1.1,2.4c0.2,0.8,0.5,1.5,0.7,2.2s0.6,1.5,0.7,2.2c0.1,0.8,0.8,1.4,0.7,2.2c0,0.8,0.7,1.4,0.7,2.2
		c0,0.3,0.3,0.6,0.4,0.9c0.2,0.7,0.8,1.3,0.9,2.1c0.1,0.8,0.6,1.4,0.7,2.2c0.1,0.6,0.4,1.3,0.8,1.8c0.5,0.9,0.9,1.8,1.4,2.7
		c0.3,0.6,0.5,1.2,0.5,1.9c0,0.5,0.2,0.9,0.4,1.3C141.4,448.7,141.4,449.2,141.1,449.8z M137.3,355.4c-0.4-0.4-0.6-0.9-0.8-1.5
		c-0.2-1-0.6-1.9-1.3-2.7c-0.4-0.4-0.6-0.9-0.9-1.4c-0.3-0.5-0.4-1-0.4-1.6c0-1.9,0-3.8,0-5.7c0-0.9,0-1.8-0.5-2.6
		c-0.2-0.3-0.3-0.9-0.2-1.3c0.1-1.3-0.2-2.5-0.7-3.6c-0.5-1.2-0.7-2.3-0.6-3.6c0-0.4,0-0.9,0-1.3c0-0.6-0.2-1.1-0.4-1.6
		s-0.3-1.1-0.5-1.6s-0.4-1-0.4-1.6c0-1.8,0-3.6,0-5.4c0-0.8-0.1-1.6-0.5-2.3c-0.2-0.3,0-0.6,0.1-0.9c0.2-0.4,0.4-0.8,0.1-1.3
		c-0.3-0.5-0.4-1-0.4-1.6c0-2.2,0-4.5,0-6.7c0-0.8,0-1.5-0.4-2.3c-0.2-0.4-0.1-0.9-0.2-1.3c0-0.4,0.1-1-0.1-1.3
		c-0.6-0.9-0.5-1.9-0.5-2.9c0-4.2,0-8.3,0-12.5c0-0.8-0.1-1.5-0.5-2.3c-0.3-0.5-0.3-1.1-0.5-1.6c-0.2-0.4-0.3-0.8-0.3-1.3
		c0-1.5,0-2.9,0-4.4c0-0.3,0.1-0.7,0.2-1c0.2-0.5,0.3-1.1,0.3-1.6c0-0.9,0-1.8,0-2.7c0-0.5,0.2-0.9,0.4-1.3c0.5-0.8,0.4-1.7,0.1-2.6
		c-0.2-0.5-0.4-1-0.7-1.5c-0.4-0.6-0.3-1.3,0-1.9c0.2-0.4,0.2-0.9,0.4-1.3c0.5-1,0.6-2.1,0.6-3.2c0-5.4,0-10.8,0-16.2
		c0-0.8,0-1.6,0-2.4c0-0.8,0.1-1.6,0.6-2.2c0.3-1.4,0.8-2.8,0.7-4.3c-0.1-1.1,0-2.2,0-3.4c0-0.3,0-0.7,0.1-1
		c0.8-1.1,0.5-2.4,0.6-3.6c0-0.8,0-1.6,0-2.4c0-0.5,0.1-0.9,0.3-1.3c0.5-1,0.2-2.2,0.9-3.2c0.2-0.2,0.1-0.7,0.1-1c0-1.3,0-2.7,0-4
		c0-0.5,0.2-0.9,0.4-1.3c0.4-0.6,0.3-1.3-0.1-1.9c-0.2-0.4-0.3-0.8,0-1.2c0.7-1.1,1.1-2.2,1-3.5c0-0.4,0.1-0.9,0.3-1.3
		c0.2-0.3,0.3-0.6,0.3-0.9c0-0.8,0.1-1.5,0.6-2.2c0.2-0.3,0.1-0.9,0.2-1.3c0.3-1,0.4-2,1.5-2.4c0.7-0.6,1.3-1.2,2-1.8
		c1-0.9,3.2-2.5,4.7-3.2c0.5-0.2,0.7,0.5,1.2,0.1c0.3-0.2,0.5-0.5,0.8-0.6c0.5-0.3,0.9-0.6,1.4-0.9c1.3-0.8,2.6-1.8,3.6-2.9
		c0.7-0.7,1.4-1.4,2.2-2.1c0.5-0.5,0.9-1,1.5-1.4c0.5-0.4,1.1-0.7,1.7-1c0.6-0.3,1.1-0.7,1.6-1.2c0.8-0.9,1.9-1.6,3-2.1
		c1.7-0.9,3.3-1.9,4.6-3.3c0.7-0.7,1.4-1.4,2.2-2.1c0.3-0.3,0.7-0.6,1.1-0.8c1.1-0.5,2.1-1.2,3-2c0.2-0.2,0.5-0.5,0.8-0.6
		c1.1-0.3,1.7-1.4,2.8-1.8c0.8-0.3,1.6-0.8,2.2-1.5c0.9-1,2-1.8,3.1-2.5s2.3-1.4,3.5-2c1.4-0.7,2.8-1.3,3.9-2.5
		c0.2-0.2,0.5-0.4,0.8-0.5c1.1-0.6,2.1-1.3,3.1-2c1.1-0.8,2.3-1.4,3.5-2c0.9-0.4,1.5-1.3,2.5-1.6c0.8-0.3,1.6-0.8,2.4-1.2
		c0.4-0.2,0.8-0.4,1.1-0.8c0.7-0.8,1.6-1.2,2.5-1.7c0.1,0,0.2-0.1,0.3-0.2c3.2-1.3,6.1-3.2,8.9-5.2c0.6-0.5,1.3-0.9,2-1.2
		c1.6-0.8,3.2-1.6,4.8-2.4c1-0.5,2-1,2.9-1.7c1.1-0.8,2.3-1.3,3.6-1.7c1.2-0.4,2.2-1,3.3-1.5c0.4-0.2,0.8-0.5,1.2-0.5
		c1,0.1,1.7-0.4,2.5-0.8c2.8-1.4,5.6-2.8,8.4-4.2c0.7-0.3,1.4-0.8,2.1-1c0.6-0.2,1.3-0.4,1.9-0.6c0.7-0.3,1.3-0.9,2.2-0.9
		c0.7,0,1.2-0.6,1.9-0.6c0.3,0,0.6-0.2,0.9-0.3c0.5-0.2,1-0.5,1.5-0.8c0.9-0.5,1.8-0.9,2.7-1.3c0.9-0.4,1.9-0.6,2.8-0.9
		c0.8-0.2,1.6-0.9,2.5-0.8c0.7-0.3,1.4-0.7,2.1-1c1.1-0.4,2.2-0.5,3.2,0.1c0.9,0.5,1.8,0.9,2.7,1.3c0.4,0.2,0.8,0.3,1.3,0.3
		c0.4,0,0.9,0.1,1.3,0c1.5-0.1,2.9,0.2,4.2,1c0.8,0.5,1.8,0.1,2.6,0.6c0.7,0.4,1.4,0.8,2.1,1s1.5,0.2,2.2,0.6
		c0.7,0.3,1.5,0.4,2.2,0.8c1.6,0.2,2.9,1.1,4.2,1.9c0.7,0.4,1.3,0.8,2,1.2s1.6,0.3,2.2,0.8c1.1,0.1,2.1,0.7,3.1,1.1
		c0.3,0.1,0.6,0.3,0.9,0.3c1.2-0.1,2.1,0.6,3.1,1.1c1.4,0.6,2.7,1.6,4.3,1.8c1.4,0.6,2.8,1.5,4.3,1.9c0.3,0.1,0.6,0.2,0.9,0.4
		c1,0.7,2.1,1.2,3.2,1.8c1,0.5,1.9,1,3.1,1.3c0.8,0.2,1.6,0.8,2.4,1.2c1.2,0.5,2.3,1.4,3.7,1.5c0.8,0.5,1.9,0.7,2.5,1.6
		c0.3,0.4,0.6,0.6,1,1s0.9,0.6,1.4,0.8c1,0.2,1.9,0.6,2.7,1.3c0.5,0.4,1.1,0.8,1.7,1.1c1.7,0.7,3.1,1.7,4.6,2.7c2,1.3,3.9,2.6,6,3.7
		c1.8,0.9,3.4,2.1,5,3.3c0.6,0.4,1.1,0.8,1.7,1.1c0.9,0.4,1.8,1,2.5,1.7c0.1,0.1,0.2,0.2,0.3,0.2c0.8,0.6,1.8,0.9,2.6,1.5
		c0.7,0.5,1.2,1.3,2.1,1.7c0.8,0.3,1.3,0.9,1.9,1.4c0.5,0.5,0.9,1,1.5,1.4c0.5,0.4,1.1,0.7,1.7,1.1c1.6,1.1,3.1,2.2,4.7,3.2
		c0.8,0.5,1.5,1,2.1,1.6c0.7,0.7,1.4,1.4,2.2,2.1c0.6,0.5,1.1,1.1,1.9,1.4c0.5,0.2,0.9,0.6,1.3,1c1.1,1.2,2.4,2,3.7,2.8
		c0.5,0.3,1,0.6,1.3,1c1,1.1,2.1,2,3.5,2.5c0.8,0.3,1.2,1,1.8,1.5c0.3,0.3,0.7,0.5,1.2,0.5c0.3,0,0.6,0.2,0.9,0.3
		c0.3,0.2,0.5,0.5,0.7,0.7c0.7,0.7,1.4,1.4,2.4,1.8c0.5,0.2,0.9,0.7,1.3,1.1c1.4,1.3,2.7,2.7,4.1,4c0.6,0.6,1.3,1.2,2.1,1.7
		c0.8,0.5,1.5,1.3,2.2,2c0.5,0.5,0.8,1.1,0.8,1.8c0,0.8,0,1.6,0.5,2.3c0.3,0.4,0.2,0.9,0.2,1.3c0,0.3,0,0.7,0.2,1
		c0.4,0.6,0.5,1.2,0.5,1.9c0,0.4,0,0.9,0,1.3c0,0.7,0.2,1.3,0.4,2c0.3,0.9,0.3,2,0.5,2.9c0.2,0.6-0.2,0.7-0.6,0.9
		c-0.1,0.1-0.3,0.4-0.3,0.6c0,0.7,0.6,1.2,0.6,1.9c0.5,1,0.7,2.1,0.7,3.2c0,1.7,0,1.7,0.7,3.2c0.4,0.7,0.6,1.4,0.6,2.2s0,1.6,0,2.4
		c0,1-0.1,2,0.1,3s0.6,1.9,0.9,2.8c0.2,0.5,0.3,1.1,0.3,1.6c0,2.8,0,5.6,0,8.4c0,0.9,0,1.8,0,2.7c0,0.3,0,0.7,0.1,1
		c0.8,1.1,0.6,2.4,0.6,3.6c0,10.1,0,20.2,0,30.3c0,1,0,2-0.1,3c0,0.3,0,0.7-0.2,1c-0.5,0.7-0.5,1.5-0.5,2.3c0,4.4,0,8.8,0,13.1
		c0,1.6,0,3.1,0,4.7c0,0.7,0,1.3-0.3,2c-0.2,0.4-0.1,0.9-0.2,1.3s0.1,1-0.2,1.3c-0.8,1.1-0.6,2.4-0.6,3.6c0,2.4,0,4.7,0,7.1
		c0,0.5-0.1,0.9-0.3,1.3c-0.2,0.4-0.3,0.8-0.6,1.2c-0.3,0.5-0.4,1-0.4,1.6c0,1.1,0,2.2-0.1,3.4c0,0.2-0.8,6.3-0.8,6.6
		c0,0.7-0.5,1.2-0.5,1.9c0,0.6-0.1,1.1-0.2,1.7c0,0.1-0.1,0.2-0.2,0.3c-0.2,0.4-0.4,0.8-0.4,1.3c0.1,1.2-0.3,2.2-0.8,3.2
		c-0.3,0.6-0.5,1.2-0.5,1.9c0,0.7,0,1.3-0.1,2c0,0.2-1.3,3.3-1.3,3.3c-0.6,0.2-4.9,7.2-5.1,7.3c-0.7,0.5-1.5,1-2.2,1.5
		c-0.9,0.5-1.6,1.3-2.3,2c-0.7,0.6-1.3,1.3-1.9,1.9c-1,0.9-1.8,2-3.1,2.5c-0.6,0.6-1.3,1.3-1.9,1.9c-0.5,0.6-1,1.2-1.9,1.4
		c-0.9,0.8-2.1,1.3-3.1,2c-0.8,0.6-1.8,0.9-2.6,1.5c-0.8,0.6-1.5,1.4-2.2,2c-0.2,0.1-0.4,0.2-0.6,0.3c-2.6,1.7-2.6,1.7-4.5,3.5
		c-0.6,0.6-1.3,1.2-2.2,1.5c-1.6,1.6-3.7,2.4-5.7,3.5c-1,0.5-2.1,0.8-2.9,1.6c-0.8,0.7-1.9,1.2-2.7,2c-0.6,0.6-1.5,1-2.2,1.6
		s-1.4,1.1-2.2,1.5c-0.5,0.3-0.9,0.7-1.4,0.9c-1.7,0.8-3.2,2-4.9,2.8c-1.3,0.6-2.6,1.2-3.7,2.2c-0.6,0.6-1.5,0.9-2.4,1.1
		c-1,0.2-1.9,0.7-2.7,1.3c-1.6,1.2-3.3,2.2-5.1,3.1c-1.7,0.8-3.4,1.6-4.9,2.8c-0.4,0.4-1,0.6-1.5,0.8c-1,0.4-2.1,0.8-3.2,0.7
		c-1.2-0.1-2.5-0.1-3.7,0c-0.7,0-1.3-0.3-1.9-0.6c-0.4-0.2-0.7-0.5-1-0.9c-0.7-1-0.8-2.1-0.6-3.2c0.2-0.9,0.6-1.7,1.3-2.3
		c0.8-0.8,1.6-1.6,2.4-2.4c0.5-0.6,1.1-1.2,1.1-2c0.6-1.3,1.2-2.6,1.6-4c0.2-0.7,0.7-1.4,1.2-2c0.6-0.8,1.1-1.6,1.3-2.7
		c0.1-0.6,0.4-1.3,0.7-1.8c0.9-1.4,1.4-3,1.8-4.6c0.3-0.9,0.6-1.7,1.1-2.4c1.4-1.9,2.2-4.2,3.3-6.2c0.2-0.3,0.2-0.6,0.3-0.9
		c0.3-0.9,0.6-1.9,0.9-2.8c0.4-0.9,0.9-1.8,1.3-2.7c0.1-0.3,0.4-0.6,0.4-0.9c0-1.3,0.7-2.3,1.2-3.4c0.1-0.3,0.2-0.7,0.2-1
		c-0.1-0.8,0.6-1.5,0.7-2.2c0.1-0.8,0.1-1.6,0.2-2.3c0.6-1,0.4-2.2,0.4-3.3c0-0.7,0.1-1.3,0.5-1.9c0.2-0.4,0.2-0.9,0.3-1.3
		c0.1-0.9,0.1-1.8,0.1-2.7c0-0.2,0.5-0.6,0.8-0.5l-0.2-3.6c0-0.1,0-0.2,0-0.3c0.1-0.7,0.7-1.2,0.6-1.9c0-0.7,0-1.3,0-2
		c0-1.3,0-2.7,0-4c0-0.9,0.1-1.8,0.5-2.6c0.2-0.5,0.2-1.1,0.2-1.6c0-3.7,0-7.4,0-11.1c0-4.2,0-8.3,0-12.5c0-1.3,0.2-2.7-0.6-3.9
		c-0.2-0.3-0.1-0.9-0.1-1.3c0-3.1,0-6.3,0-9.4c0-0.6,0-1.1-0.3-1.6c-0.7-1.2-1-2.4-0.9-3.8c0.1-0.9,0-1.8-0.6-2.6
		c-0.2-0.3-0.2-0.9-0.2-1.3c-0.1-0.9,0.1-1.8-0.2-2.7c-0.2-0.8-0.4-1.5-0.5-2.3c-0.7-1.1-0.7-2.3-0.6-3.6c0-0.8-0.1-1.5-0.5-2.2
		c-0.5-1-0.9-2.1-0.8-3.2c0-0.5-0.2-0.9-0.4-1.3c-0.2-0.4-0.3-0.9-0.3-1.3c0-1-0.2-2-0.7-2.9c-0.4-0.7-0.7-1.4-0.6-2.2
		c0-0.2-0.1-0.4-0.2-0.6c-0.5-1-1.1-1.9-1.2-3.1c0-0.3-0.3-0.6-0.5-0.8c-0.7-0.8-1.2-1.6-1.4-2.6c-0.1-0.8-0.6-1.4-0.9-2.1
		c-1.2-1.1-1.7-2.6-2.4-4c-1-2-2.1-3.9-3.7-5.6c-0.6-0.7-1-1.5-1.1-2.4c-0.1-0.4-0.2-0.9-0.5-1.2c-0.4-0.4-0.7-0.9-1-1.4
		c-1-1.5-1.9-3-3.3-4.2c-1.6-1.5-1.6-1.6-2.7-3.8c-0.5-1.1-1.2-2.1-2-3.1c-0.7-0.7-1.3-1.6-1.7-2.5c-0.5-0.9-1.2-1.6-1.9-2.4
		c-0.3-0.3-0.6-0.7-1-0.9c-1.5-1.3-2.4-2.9-3.5-4.5c-0.2-0.3-0.2-0.6-0.5-0.9c-0.7-0.7-1.5-1.4-2.1-2.2c-0.5-0.8-1-1.5-1.6-2.1
		s-1.2-1.3-1.6-2.1c-0.3-0.7-1-1.2-1.7-1.5s-1.1-0.7-1.4-1.4c-0.5-1.4-1.5-2.5-2.5-3.5c-2.8-2.8-5.6-5.5-8.3-8.3
		c-1.3-1.3-2.7-2.3-4.1-3.4c-1.1-0.4-1.8-1.2-2.6-2c-0.2-0.2-0.5-0.5-0.7-0.7c-1.2-1.4-2.6-2.4-4.3-3.1c-1.1-0.5-1.4-0.5-2.2,0.7
		c-0.3,0.4-0.5,0.7-0.9,0.9c-0.8,0.4-1.5,1-2.2,1.5c-0.4,0.3-0.7,0.6-0.9,1c-0.4,0.7-0.9,1.3-1.5,1.8c-0.7,0.6-1.6,0.9-2,1.8
		c-0.3,0.8-1.1,1.3-1.5,2.2c-0.3,0.7-0.9,1.3-1.6,1.7c-0.9,0.4-1.5,1-2.1,1.6c-0.2,0.2-0.3,0.3-0.5,0.5c-0.8,1.1-2,1.8-3.2,2.5
		s-1.8,1.9-2.6,3s-1.8,2-2.7,3c-0.6,0.7-1.2,1.3-1.6,2.1c-0.3,0.7-0.9,1.3-1.5,1.8c-1.4,1.3-2.5,2.9-3.5,4.4
		c-0.2,0.3-0.3,0.6-0.5,0.9c-0.7,0.8-1.5,1.4-2,2.2s-0.9,1.5-1.6,2.2c-0.3,0.3-0.5,0.7-0.8,1.1c-1,1.2-1.7,2.6-2.7,3.8
		c-0.4,0.5-0.7,1.1-1,1.7c-0.7,1.4-1.5,2.7-2.5,3.9c-1.1,1.4-2,2.9-3,4.4c-0.2,0.4-0.4,0.8-0.7,1.1c-1.5,1.6-2.2,3.6-3.2,5.4
		c-0.1,0.9-0.5,1.7-0.8,2.5c-0.2,0.6-0.3,1.1-0.7,1.5c-1.2,1.1-1.8,2.5-2.5,3.9c-0.4,0.8-0.8,1.6-1.2,2.4c-0.2,0.4-0.4,0.8-0.4,1.3
		c0.1,0.8-0.4,1.5-0.5,2.3s-0.7,1.4-1.1,2c-0.9,1.5-1.8,3.1-2.3,4.8c-0.5,1.8-1.6,3.4-2.4,5.1c-0.4,0.8-1.3,1.3-1.1,2.3
		c-0.3,0.7-0.8,1.4-1,2.1c-0.3,0.9-0.6,1.7-0.9,2.5c-0.1,0.4-0.3,0.8-0.4,1.3c-0.3,1-0.8,1.6-1.9,1.5c-0.1,0-0.2,0.1-0.2,0.2
		c0.1,0.1,0.2,0.1,0.3,0.2c0.3,0.1,0.7,0.1,1,0.2c0.1,0,0.3,0.2,0.2,0.2c-0.2,0.7-0.4,1.5-0.7,2.2c-0.2,0.5-0.4,1-0.4,1.6
		c0,0.7,0,1.3,0,2c0,0.8-0.1,1.5-0.5,2.3c-0.5,0.9-0.1,2-0.8,2.9c0,0.6-0.1,1.1-0.1,1.7c0,0.9,0,1.8-0.1,2.7c0,0.3-0.1,0.7-0.2,1
		c-0.4,0.6-0.5,1.2-0.5,1.9c0,0.3,0,0.7,0,1c0.2,1.6-0.4,3.1-0.9,4.5c-0.2,0.5-0.4,1-0.4,1.6c0,2.1,0,4.3,0,6.4c0,0.8,0,1.6-0.1,2.3
		c-0.1,0.6-0.6,1.2-0.6,1.9c-0.1,0.4-0.4,0.8-0.5,1.2c-0.1,0.3,0,0.7,0,1c0,0.1,0.1,0.2,0.1,0.3c0.3,0.7,0.8,1.4,1,2.1
		c0.2,0.9,0.1,1.8,0.1,2.7c0,1.9,0,3.8,0,5.7c0,0.4,0.1,0.9,0.1,1.3c0.8,1,0.6,2.1,0.5,3.2c0,0.3,0,0.7,0.1,1
		c0.1,0.9,0.7,1.6,0.6,2.6c-0.1,0.9,0,1.8,0,2.7c0,0.2,0,0.5,0.1,0.7c0.7,1,0.7,2.1,0.6,3.2c-0.1,1.6,0.5,3.1,1,4.5
		c0.1,0.3,0.3,0.6,0.3,0.9c0.1,0.7,0,1.4,0.2,2s0.5,1.2,0.7,1.9c0.3,0.9,0.5,1.7,0.5,2.6c0,1.3-0.2,2.7,0.6,3.9
		c0.2,0.2,0.1,0.7,0.1,1c0,0.7,0,1.4,0.1,2s0.5,1.2,0.6,1.9c0.6,0.9,0.7,1.9,0.6,2.9c0,0.3,0,0.7,0,1c0,0.6,0.2,1.1,0.4,1.6
		c0.4,0.8,0.8,1.6,0.9,2.5c0.1,0.9,0.8,1.6,0.7,2.5c0.3,0.7,0.6,1.4,0.9,2.2c0.1,0.3,0.4,0.6,0.4,0.9c0,1.1,0.4,1.9,1.2,2.6
		c0.6,0.5,0.8,1.3,1,2.1c0.1,0.6,0.5,1.2,0.6,1.9c0.1,0.7,0.5,1.2,0.6,1.9c0.2,1,0.8,1.8,1.5,2.6c0.3,0.3,0.5,0.7,0.5,1.2
		c0.1,0.9,0.6,1.7,1.1,2.4c0.2,0.4,0.7,0.7,0.8,1.1c1.2,2.8,3.2,5.1,4.8,7.6c0.2,0.4,0.5,0.8,0.8,1.1c0.8,0.7,1.2,1.6,1.7,2.5
		c0.7,1.3,1.1,2.6,0.9,4.2c-0.1,1.1-0.9,1.7-1.8,2.3c-0.2,0.1-0.4,0.1-0.6,0.2c-0.7,0-1.3,0-2,0c-0.3,0-0.6-0.1-1-0.3
		c-1.8-0.7-3.2-1.9-4.9-2.9c-0.6-0.3-1.1-0.7-1.7-1c-1.1-0.5-2.2-1.1-3.4-1.4c-1-0.8-2.1-1.3-3.2-1.8c-1.2-0.6-2.4-1.3-3.6-1.9
		c-1.1-0.6-2.2-1-3.3-1.6c-1.1-0.5-2.2-1.1-3.3-1.7c-1.1-0.5-2.2-1-3.3-1.6c-1.8-1-3.9-1.8-5.5-3.2c-1-0.3-1.7-1.1-2.3-1.8
		c-0.8-1-1.9-1.6-3-2.1c-0.5-0.3-1-0.6-1.5-0.8c-1.3-0.5-2.4-1.2-3.3-2.2c-0.4-0.4-0.9-0.6-1.5-0.7c-0.2,0-0.5-0.1-0.6-0.3
		c-1.7-1.5-3.6-2.6-5.4-3.9c-0.9-0.6-1.9-1.2-2.6-2.1c-0.6-0.7-1.4-1.2-2.2-1.5c-0.8-0.4-1.5-0.9-2.2-1.6c-0.9-1-1.8-2-3-2.7
		c-0.5-0.3-0.9-0.6-1.1-1.1c-0.2-0.4-0.6-0.7-1-0.9c-0.8-0.3-1.3-0.9-1.9-1.4c-0.8-0.8-1.6-1.5-2.4-2.4c-0.7-0.8-1.7-1.1-2.4-1.8
		c-0.5-0.5-1-0.9-1.4-1.4c-0.7-0.7-1.4-1.4-2.3-1.9c-0.4-0.2-0.7-0.5-1-0.8C141.9,360,139.6,357.7,137.3,355.4z M221.4,332.5
		c0-0.7,0.1-1.3,0.4-1.9c0.2-0.3,0.2-0.6,0.2-1c0.1-0.8,0.1-1.6,0.1-2.4c0-1-0.1-2,0.5-2.9c0.1-0.9,0.1-1.8,0.7-2.6
		c0.3-1.3,0.8-2.5,1.2-3.8c0.1-0.4,0.2-0.9,0.2-1.3c0-0.7,0-1.3,0-2c0-0.8,0.1-1.5,0.5-2.3c0.3-0.7,0.4-1.5,0.7-2.2
		c0.3-0.6,0.3-1.3,0.7-1.9c0.1-0.2,0.2-0.4,0.1-0.6c-0.1-1,0.4-1.7,0.8-2.5c0.3-0.7,0.6-1.4,0.6-2.2c0-0.7,0.2-1.3,0.5-1.9
		c1-2,1.9-4,2.9-6c0.7-1.4,2-3.4,3.2-4.7c0.4-0.4,0.6-0.9,0.9-1.4c0.6-1.2,1.1-2.5,1.9-3.5c0.8-1.1,1.2-2.4,1.9-3.5
		c0.3-0.6,0.7-1.2,1.2-1.6c1.2-1.1,2-2.4,2.8-3.7c1.1-1.8,2.3-3.5,3.8-5c0.1-0.1,0.2-0.2,0.2-0.2c1.7-1.9,1.7-1.9,4.5-3.9
		c0.5-0.3,0.9-0.7,1.3-1.1c2.2-2.2,4.5-4.4,6.7-6.6c0.4-0.4,0.8-0.9,1.2-1.2c0.8-0.5,1.7-1.1,2.7-1.1c3.3,0.1,2.5-0.4,5,2.1
		c0.8,0.8,1.6,1.6,2.4,2.4c0.4,0.4,0.8,0.8,1.3,1c1.3,0.6,2.5,1.4,3.5,2.5c0.4,0.4,0.8,0.7,1.4,1c0.5,0.2,0.9,0.6,1.1,1.2
		s0.6,1,1.1,1.2c0.8,0.3,1.3,0.8,1.6,1.6c0.4,0.9,1.3,1.5,1.6,2.5c0.6,0.6,1.3,1.3,1.9,1.9c0.2,0.2,0.4,0.3,0.4,0.5
		c0.4,1.2,1.4,2,2.3,2.8c0.6,0.6,1.3,1.3,1.9,1.9c0.7,0.7,1.3,1.5,1.7,2.4c0.2,0.5,0.6,1,0.7,1.5c0.3,0.8,0.7,1.4,1.3,1.9
		c1.5,1.4,2.4,3.2,3.4,4.9c0.5,0.9,0.9,1.8,1.3,2.7c0.2,0.4,0.4,0.8,0.6,1.2c0.1,0.3,0.3,0.6,0.4,0.9c0.2,0.4,0.3,0.8,0.5,1.2
		c0.2,0.4,0.3,0.8,0.5,1.3c0.1,0.3,0.2,0.6,0.3,1c0.2,0.4,0.4,0.8,0.5,1.2c0.1,0.3,0.2,0.7,0.2,1c0,0.6,0.2,1.1,0.5,1.6
		c0.5,1,1,2,1.5,3c0.4,0.9,0.8,1.8,0.7,2.9c0,0.5,0.1,0.9,0.3,1.3c0.3,0.4,0.4,0.8,0.4,1.3c-0.2,1.2,0.5,2.2,0.7,3.2
		c0.1,0.3,0.2,0.7,0.4,0.9c0.9,0.8,0.9,2,1.4,3c0.2,0.5,0.1,1.1,0.2,1.6c0.1,0.8,0.1,1.6,0.2,2.3c0.6,0.8,0.5,1.7,0.6,2.6
		c0,0.7-0.1,1.4,0.1,2c0.1,0.6,0.5,1.2,0.5,1.9c0.6,1,0.7,2.1,0.7,3.2c0,1.2,0,2.5,0,3.7c0,0.8,0.1,1.5,0.5,2.2
		c0.2,0.3-0.1,0.7-0.6,1c-0.4,0.2-0.4,0.3,0,0.5c0.8,0.3,1.3,0.9,1.3,1.8c0,0.8,0,1.6,0,2.4c0,0.6-0.1,1.1-0.4,1.6
		c-0.2,0.3-0.2,0.6-0.4,0.9c-0.4,0.6-0.4,1.3-0.5,1.9c0,1.1,0,2.2,0,3.4c0,0.9,0,1.8-0.5,2.6c-0.1,0.1-0.1,0.2-0.1,0.3
		c-0.1,0.8,0,1.6-0.2,2.3c-0.2,0.6-0.5,1.2-0.4,1.9c0,0.8-0.1,1.6-0.5,2.2c-0.1,0.1-0.1,0.2-0.1,0.3c-0.2,1,0.2,2-0.5,2.9
		c-0.1,1-0.7,1.9-0.9,2.8c-0.2,1-0.5,1.9-1,2.8c-0.3,0.6-0.2,1.3-0.6,1.9c-0.3,0.6-0.6,1.2-0.9,1.8c-0.6,1.3-1.4,2.6-1.9,3.9
		c-0.5,1.5-1.1,2.9-2.1,4.1c-0.7,0.9-1.1,1.9-1.6,2.9c-0.9,1.8-1.8,3.6-2.7,5.4c-0.6,1.2-1.2,2.4-2.2,3.4c-0.4,0.4-0.6,0.9-0.8,1.4
		c-0.7,1.3-1.2,2.7-2.2,3.7c-0.1,0.1-0.1,0.2-0.2,0.3c-0.6,1.6-1.7,2.9-2.9,4c-0.7,0.6-1.1,1.4-1.5,2.2c-0.2,0.4-0.4,0.8-0.6,1.2
		c-0.5,0.9-0.9,1.8-1.7,2.5c-1,0.8-1.5,1.9-2.1,3c-0.2,0.4-0.4,0.8-0.7,1.1c-0.6,0.7-1.2,1.3-1.6,2.2c-0.1,0.3-0.4,0.6-0.7,0.7
		c-1,0.4-1.7,1.1-2.4,1.8c-0.7,0.7-1.5,1.4-2.2,2.1c-1,1.1-2.2,1.9-3.4,2.7c-1,0.7-2.1,1.1-3.4,1.1c-2.5,0-2.5,0-4.8-1.2
		c-0.7-0.4-1.4-0.8-1.9-1.3c-2.7-2.7-5.4-5.4-8.1-8.1c-0.5-0.6-1.2-1.1-1.3-1.9c-0.9-1.1-1.6-2.4-2.7-3.4c-0.9-0.8-1.7-1.7-2.2-2.9
		c-0.2-0.5-0.7-0.8-1.1-1.2c-0.4-0.4-0.8-0.8-1.2-1.2c-0.9-0.8-1.5-1.7-1.9-2.7c-0.6-1.3-1.3-2.5-2.2-3.7c-0.8-1.2-1.6-2.4-2.2-3.7
		c-0.6-1.3-1.5-2.5-2.3-3.7c-0.5-0.6-0.8-1.3-1.2-2c-0.5-0.6-0.9-1.3-1.3-1.9c-0.6-0.8-1.1-1.7-1.6-2.6c-0.4-0.8-0.9-1.5-1-2.5
		c0-0.4-0.3-0.8-0.5-1.2c-0.5-0.9-0.8-1.8-0.7-2.9c0-0.5-0.1-0.9-0.3-1.3c-1-1.9-1.7-3.9-2.6-5.8c-0.6-0.6-0.3-1.5-0.7-2.2
		c-0.3-0.6-0.6-1.2-0.9-1.8c-0.1-0.2-0.1-0.4-0.1-0.7c0-0.4,0-0.9,0-1.3c0-1-0.1-2-0.1-3c-0.5-0.8-0.5-1.7-0.9-2.5
		c-0.2-0.5-0.3-1.1-0.3-1.6c0-0.3,0-0.7-0.2-1c-0.5-0.7-0.5-1.5-0.5-2.3c0-2.7,0-5.4,0-8.1c0-0.6,0-1.1,0-1.7l0,0
		C221.4,338.8,221.4,335.7,221.4,332.5z M179.4,450.1c-0.7,0-1.3,0-1.9,0.4c-0.4,0.3-0.9,0.2-1.3,0.2c-1.3,0-2.7,0-4,0l0,0
		c-0.7,0-1.3,0-2,0c-1,0-2.1,0.3-3-0.3c-1.3-0.9-2.5-1.9-3.1-3.4c-0.5-1.1-1.2-2.2-1.7-3.3c-0.3-0.8-0.9-1.5-1-2.5
		c0-0.3-0.2-0.6-0.4-0.9c-0.5-1-1-2-1.5-3c-0.1-1.2-0.7-2.1-1.2-3.1c-0.1-0.3-0.2-0.6-0.3-0.9c-0.4-1.3-0.8-2.5-1.4-3.7
		c-0.3-0.6-0.6-1.2-0.6-1.9c-0.5-0.8-0.6-1.7-0.9-2.5c-0.3-0.7-0.7-1.4-1-2.1s-0.7-1.4-0.8-2.2c-0.2-0.7-0.6-1.4-0.6-2.2
		c0-0.5-0.3-0.8-0.5-1.2c-0.3-0.6-0.7-1.2-0.7-1.8c-0.1-0.9-0.1-1.8-0.7-2.5c0-1.4-0.7-2.6-1.3-3.7c-0.5-0.9-1-1.8-0.8-2.9
		c-0.3-0.9-0.7-1.9-1-2.8c-0.1-0.3-0.3-0.6-0.3-0.9c0-1.2-0.5-2.2-1-3.2s-1.1-2-1.2-3.1c-0.9-1.4-0.6-3-0.5-4.6
		c0-0.2,0.3-0.4,0.5-0.4c0.8-0.2,1.5-0.1,2.3,0.2c0.9,0.4,1.6,1.3,2.5,1.7c0.9,0.4,1.4,1.1,2,1.7c0.9,0.9,1.9,1.6,3,2.1
		c1.1,0.4,1.8,1.4,2.8,1.8c0.5,0.2,0.9,0.7,1.3,1c0.7,0.5,1.4,1.1,2.1,1.6c0.6,0.5,1.1,1.1,1.9,1.4c0.2,0.1,0.4,0.2,0.5,0.4
		c1.8,2,4.4,3.1,6.4,4.8c0.7,0.2,1.1,0.8,1.7,1.1c1.3,0.8,2.5,1.8,4,2.4c0.6,0.2,1.2,0.6,1.7,1c1.1,0.8,2.2,1.5,3.6,1.7
		c0.4,0.1,0.8,0.4,1.2,0.6c0.7,0.4,1.5,0.6,2,1.1c0.8,0.7,1.8,0.9,2.5,1.7c1,1,2.1,1.6,3.3,2.2c3,1.4,6,3,8.9,4.5
		c1,0.5,2,0.9,2.9,1.6c0.2,0.1,0.4,0.3,0.6,0.3c0.8,0.1,1.5,0.5,2,1.1c0.6,0.7,1.4,1,2.3,1.2c0.3,0,0.6,0.4,0.9,0.4
		c0.8,0.1,1.5,0.4,2.1,1c0.3,0.3,0.7,0.6,1,0.9c0.2,0.1,0.4,0.2,0.6,0.2c0.3,0.1,0.7,0.1,1,0.2c4.3,2.1,8.5,4.3,12.8,6.4
		c1,0.5,1.5,1.3,1.9,2.2c0.1,0.2,0.1,0.4-0.1,0.6c-0.6,0.7-1.5,1-2.3,1.3c-0.5,0.2-1.1,0.1-1.7,0.2c-0.4,0.1-0.8,0.5-1.2,0.5
		c-0.9,0.1-1.7,0.5-2.6,0.7c-1.2,0.3-2.3,0.9-3.6,0.7c-0.6-0.1-1,0.3-1.6,0.5c-0.5,0.2-1.1,0.2-1.6,0.4c-0.5,0.3-1.1,0.5-1.6,0.4
		c-1.4-0.2-2.6,0.5-3.9,0.8c-0.8,0.5-1.7,0.6-2.6,0.5c-1,0-2.1-0.2-3,0.2c-0.9,0.4-1.7,0.5-2.6,0.5c-0.1,0-0.2,0-0.3,0
		c-0.9,0-1.8-0.1-2.6,0.5c-0.7,0.1-1.3,0.2-2,0.2s-1.3,0.2-1.9,0.4c-1.2,0.4-2.5,1-3.9,0.9c-0.3,0-0.7,0-1,0.2
		c-0.7,0.5-1.5,0.5-2.3,0.5C183.2,450.1,181.3,450.1,179.4,450.1z M348.5,474.6c-0.5,0.7-1.1,1.4-2,1.8c-1,0.5-1.9,1.1-2.7,1.9
		c-1.1,1-2.4,1.6-3.5,2.6c-0.5,0.4-1.2,0.7-1.8,0.8c-0.7,0.1-1.3,0.4-1.9,0.6c-0.5,0.2-1.1,0.2-1.6,0.5c-0.3,0.1-0.6,0.2-1,0.2
		c-0.4,0.1-0.9,0-1.3,0.2c-0.6,0.3-1.2,0.5-1.9,0.5c-1.2,0-2.5,0-3.7,0c-0.3,0-0.7,0-1,0.2c-0.9,0.6-1.9,0.5-2.9,0.5
		c-1.3,0-2.7,0-4,0c-0.8,0-1.6,0-2.3,0.1c-0.6,0.1-1.2,0.5-1.8,0.8c-0.4,0.2-0.8,0.3-1.3,0.3c-3.1,0-6.3,0-9.4,0l0,0
		c-2.6,0-5.2,0-7.7,0c-1.2,0-2.5-0.2-3.6,0.6c-0.6,0-1.1,0.1-1.7,0.1c-5.3,0-10.5,0-15.8,0c-1.2,0-2.5,0-3.7,0
		c-0.5,0-0.9,0.2-1.3,0.4c-0.8,0.4-1.7,0.4-2.6,0c-0.3-0.2-0.6-0.3-0.9-0.3c-1,0-2,0-3,0c-0.3,0-0.7,0.1-0.9,0.3
		c-0.3,0.2-0.7,0.3-0.9,0.2c-0.7-0.4-1.5-0.5-2.3-0.5c-3.5,0-7,0-10.4,0c-8.4,0-16.8,0-25.2,0c-1.1,0-2.3,0.2-3.2-0.5
		c-0.7-0.1-1.3-0.2-2-0.2c-2.9,0.1-5.8-0.1-8.7,0c-0.9,0-1.8,0.1-2.6-0.4c-1-0.1-2-0.2-3-0.2c-0.4,0-1.6-0.7-1.9-0.6
		c-0.7,0.1-1.3,0.2-2-0.1c-0.5-0.3-1-0.5-1.6-0.5c-1.5,0.1-2.9-0.3-4.1-1.1c-0.8-0.4-1.6-0.8-2.4-1.2c-0.3-0.1-0.6-0.4-0.9-0.4
		c-1.5-0.2-2.7-1.1-3.7-2.1c-0.4-0.4-0.9-0.6-1.5-0.6c-0.4,0-0.6-0.2-0.9-0.4c-0.5-0.4-1-0.9-1.5-1.4c-0.7-0.7-0.7-2.4,0-3
		c0.4-0.4,0.8-0.7,1.2-1.1c1,0.1,1.9-0.7,2.9-0.7c0.7,0,1.3-0.1,2-0.1c1.8-1,3.7-0.5,5.6-0.6c0.5,0,1.1-0.1,1.7,0.1
		c0.7,0.3,0.8,0.2,1.1-0.1c0.3-0.2,0.5-0.5,0.8-0.6c0.2-0.1,0.4-0.1,0.6,0c0.1,0,0.2,0.1,0.3,0.2c0.5,0.4,1,0.4,1.5,0
		c0.4-0.3,0.8-0.2,1.2,0c0.2,0.1,0.4,0.3,0.6,0.3c0.4,0.1,0.9,0.2,1.3-0.1c0.3-0.2,0.5-0.4,0.8-0.6c0.4-0.3,0.8-0.5,1.2-0.5
		c0.2,0,0.4,0,0.7,0c1.6,0.1,3-0.7,4.6-0.8c0.5-0.1,1-0.5,1.6-0.5c1.1,0,2.2,0.1,3.3-0.6c0.2-0.2,0.6-0.1,1-0.1c0.8,0,1.6,0,2.4,0
		c0.7,0,1.3-0.1,1.9-0.4c0.7-0.4,1.5-0.3,2.2-0.7c0.6-0.3,1.3-0.3,1.9-0.6c0.2-0.1,0.4-0.1,0.6-0.1c0.4-0.1,0.9-0.1,1.3-0.2
		c0.7-0.7,1.7-0.4,2.5-0.9c0.3-0.2,0.6-0.2,0.9-0.4c1.1-0.5,2.4-0.6,3.5-1.2c0.4-0.2,0.9-0.1,1.3-0.2c0.6-0.2,1.2-0.5,1.9-0.6
		c0.5-0.1,1.2,0,1.6-0.4c0.6-0.5,1.3-0.3,1.9-0.6c0.7-0.3,1.4-0.8,2.1-1c0.7-0.2,1.6-0.1,2.3-0.1c0.5,0,0.8-0.2,1.3-0.4
		c2.2-0.8,4.4-1.4,6.6-2.2c1.4,0.1,2.5-0.7,3.8-1.2c0.8-0.3,1.7-0.6,2.5-0.8c0.8-0.2,1.4-0.7,2.2-0.7c0.6,0,1-0.5,1.5-0.6
		s1.1-0.1,1.7-0.1c0.2,0,0.5,0,0.7-0.1c1.2-0.9,2.6-0.5,3.9-0.5c0.5,0,0.9,0.1,1.3,0.4c0.7,0.4,1.5,0.2,2.2,0.7
		c0.6,0.4,1.3,0.2,2,0.3c0.3,0,0.7,0,1,0.2c0.9,0.5,2,0.3,2.8,1c1.2,0,2.1,0.9,3.2,0.9c0.8,0.6,1.9,0.5,2.8,1.1c1,0,1.8,0.8,2.9,0.8
		c0.3,0,0.6,0.2,0.9,0.4c1.2,0.8,2.5,1,3.8,0.9c0.6,0,1.1,0.2,1.6,0.4c0.6,0.3,1.2,0.7,1.8,0.8c0.7,0.1,1.2,0.5,1.9,0.7
		c0.9,0.2,1.8,0.1,2.5,0.7c0.8,0.1,1.5,0.5,2.2,0.7c1.2,0.2,2.3,0.9,3.6,0.7c0.8-0.1,1.4,0.7,2.2,0.7c0.7,0,1.4-0.1,2,0.2
		c0.6,0.4,1.2,0.5,1.9,0.6c0.8,0.7,2,0.4,2.9,0.8c1,0.4,2,0.3,3,0.4c0.8,0.1,1.6,0.1,2.3,0.5c0.3,0.2,0.6,0.2,1,0.2
		c0.9,0,1.8,0,2.7,0c0.9,0,1.8-0.1,2.6,0.5c0.2,0.2,0.6,0.2,1,0.2c0.8,0,1.6,0,2.3,0.5c0.3,0.2,0.6,0.2,1,0.2c0.6,0,1.1,0,1.7,0.1
		c0.4,0,0.9,0,1.3,0.1c0.8,0.7,2,0.3,2.9,0.8c0.6,0.4,1.3,0.4,1.9,0.4c1.6,0,3.1,0,4.7,0c1.2,0,2.1,0.6,3.1,1.1
		c0.3,0.2,0.5,0.5,0.6,0.8c0.1,0.7,0.2,1.3,0.6,1.9C348.7,474.1,348.7,474.5,348.5,474.6z M388.1,394.7c-0.4,0.8-0.2,1.8-0.9,2.5
		c-0.1,0.1-0.1,0.2-0.1,0.3c0.1,1.2-0.5,2.2-0.9,3.2c-0.5,1.1-1.3,2.1-1.2,3.4c0,0.1,0,0.2-0.1,0.3c-0.4,0.7-0.7,1.4-1.1,2.1
		c-0.3,0.6-0.2,1.3-0.6,1.9c-0.6,0.9-0.8,2.1-1.2,3.1c-0.4,1-1,2-1.5,3c-0.4,0.8-0.6,1.7-0.9,2.5c0.1,1.2-0.5,2.1-1,3.2
		c-0.6,1.3-0.9,2.7-1.6,4c-0.2,0.3-0.1,0.7-0.2,1c0,0.2,0,0.5-0.1,0.7c-0.4,0.9-1,1.8-1.2,2.7c-0.2,0.9-0.6,1.7-1,2.5
		c-0.1,0.3-0.3,0.6-0.5,0.9c-0.4,0.6-0.9,1-1.2,1.6c-0.3,0.6-0.2,1.3-0.6,1.9c-0.2,0.4-0.4,0.8-0.6,1.2c-0.4,0.9-0.9,1.8-1.3,2.7
		c-0.4,0.9-0.9,1.8-1.1,2.8c-0.3,1.1-0.9,2-1.4,3c-0.3,0.5-0.5,1-0.5,1.6s-0.2,1.1-0.6,1.5c-0.7,0.7-1.4,1.4-2.1,2.2
		c-0.7,0.8-1.5,1.3-2.7,1.1c-0.5-0.1-1.2,0-1.6-0.3c-0.7-0.4-1.5-0.4-2.3-0.4s-1.6,0-2.4,0c-0.3,0-0.7-0.1-1-0.2
		c-0.5-0.3-1-0.4-1.6-0.4c-0.7,0-1.3,0-2,0c-0.8,0-1.6,0-2.4,0s-1.4-0.7-2.2-0.7c-0.7,0-1.2-0.6-1.9-0.6c-0.7,0.1-1.3-0.3-1.9-0.5
		c-0.5-0.2-1.1-0.1-1.7-0.2c-0.6,0-1.1-0.1-1.6-0.4c-0.2-0.1-0.4-0.2-0.6-0.2c-1-0.2-2,0-2.9-0.6c-0.7-0.5-1.8-0.1-2.6-0.6
		c-0.6-0.4-1.3-0.2-2-0.2s-1.3-0.1-1.9-0.4c-0.4-0.2-0.9-0.2-1.3-0.2c-0.8,0-1.5-0.1-2.2-0.5c-0.3-0.2-0.6-0.2-1-0.2
		c-1.1-0.1-2.2,0.1-3.2-0.6c-0.2-0.2-0.7-0.1-1-0.1c-0.8-0.1-1.6,0.1-2.3-0.3c-0.6-0.3-1.3-0.3-1.9-0.6c-0.7-0.4-1.5-0.5-2.3-0.5
		c-0.9,0-1.8,0-2.7,0c-0.6,0-1.1-0.1-1.6-0.4c-0.4-0.3-0.8-0.2-1.3-0.3c-0.4,0-1,0.1-1.3-0.1c-0.8-0.5-1.7-0.5-2.5-0.9
		c-0.3-0.2-0.5-0.4-0.7-0.7c-0.1-0.2-0.1-0.5,0-0.6c0.5-0.9,1.3-1.6,2.1-2.1c0.2-0.1,0.4-0.2,0.6-0.2c0.4-0.1,0.9-0.1,1.3-0.4
		c2.3-1.4,4.9-2.2,7.1-3.7c0.5-0.4,1.2-0.5,1.9-0.7c0.4-0.1,0.8-0.3,1.2-0.5c0.7-0.5,1.5-1,2.3-1.3c0.7-0.3,1.3-0.9,2.1-0.9
		c0.6,0,1-0.5,1.4-0.8s0.8-0.4,1.2-0.5c0.6,0,1.1-0.1,1.6-0.4c1.1-0.6,2.2-1.1,3.3-1.6c0.9-0.4,1.8-0.9,2.6-1.5
		c1.1-0.8,2.3-1.5,3.6-1.8c0.7-0.2,1.2-0.5,1.8-0.9c1.1-0.7,2.2-1.5,3.4-2.1c1.3-0.6,2.6-1.3,3.7-2.2c0.5-0.4,1.2-0.7,1.8-0.9
		c0.7-0.3,1.4-0.6,2.2-0.8c0.7-0.2,1.3-0.9,2-1.2c1.2-0.6,2.3-1.3,3.4-2.1c1-0.7,2-1.4,3.1-2c0.5-0.3,1-0.5,1.4-0.9
		c0.7-0.6,1.3-1.2,2.3-1.2c0.6-0.3,1.3-0.6,1.7-1c1-1.1,2.4-1.6,3.5-2.6c0.9-0.4,1.7-1,2.4-1.7c0.2-0.2,0.5-0.5,0.8-0.6
		c1.4-0.4,2.4-1.7,3.7-2.2c0.4-0.2,0.7-0.5,1-0.8c0.5-0.5,0.9-1,1.6-1.2c0.2-0.1,0.4-0.3,0.5-0.4c0.9-0.6,1.6-1.6,2.6-2.2
		c0.9-0.5,1.8-0.9,2.7-1.4c0.4-0.2,0.8-0.5,1.1-0.8c0.7-0.6,1.3-1.2,1.9-1.9c0.7-0.7,1.5-0.9,2.4-0.7c0.3,0.1,0.6,0.4,0.7,0.7
		C388.6,393,388.6,393.9,388.1,394.7z M480,314.8c-0.5,0.8-0.6,1.7-0.6,2.6c0.1,1.4-0.2,2.7-0.9,3.8c-0.4,0.6-0.3,1.3-0.6,1.9
		c-0.3,0.6-0.4,1.3-0.5,1.9s-0.5,1.2-0.6,1.9c-0.1,0.7-0.6,1.2-0.9,1.8c-1,1.6-2,3.2-2.8,4.9c-1,2-2,4-3,6c-0.3,0.7-0.8,1.4-0.8,2.2
		c-0.6,1.4-1.6,2.7-2.4,4c-0.4,0.6-0.7,1.1-1,1.7c-0.5,1.1-1.2,2.1-1.7,3.3c-0.4,1-1.2,1.6-1.6,2.5s-0.8,1.8-1.5,2.6
		c-0.4,0.4-0.6,0.9-0.9,1.4c-0.3,0.7-0.8,1.4-1.3,1.9s-0.8,1.1-1.1,1.7c-0.7,1.3-1.2,2.7-2.2,3.7c-0.1,0.1-0.1,0.2-0.2,0.3
		c-0.2,1.7-1.4,2.7-2.2,4c-0.7,1.1-1.2,2.4-1.9,3.5c0,1-0.6,1.6-1.1,2.4c-0.4,0.6-0.7,1.4-1.1,2.1c-0.8,1.3-1.3,2.8-2.3,4.1
		c-0.4,0.5-0.7,1.2-0.9,1.8c-0.6,1.8-1.4,3.5-2.6,5c-0.2,0.8-0.9,1.3-1.3,2c-0.3,0.6-0.7,1.1-1.1,1.7c-0.2,0.2-0.3,0.6-0.4,0.9
		c-0.4,1.8-1.4,3.2-2.2,4.9c-0.2,0.5-0.7,0.9-1.1,1.3c-0.7,0.6-1,1.5-1.4,2.3c0,1.2-0.8,2.1-1.2,3.1c-1.2,2.5-2.4,5-3.7,7.5
		c-0.4,0.9-0.9,1.8-1.4,2.7c-0.4,0.8-1.2,1.4-1.5,2.2c-1.2,1.5-2,3.2-3.2,4.7c-0.3,0.4-0.5,0.8-0.7,1.2c-0.5,1.1-1.1,2.2-2.1,3
		c-0.7,0.6-1.3,1.2-1.3,2.2c-0.5,0.8-1,1.8-1.6,2.5c-1.1,1.1-1.8,2.5-2.8,3.7c-0.9,1-1.6,2.1-2.2,3.3c-0.6,1.2-1.6,2.1-2.1,3.4
		c-1.2,1.5-2.4,2.9-4.1,3.9c-0.5,0.3-0.9,0.7-1.1,1.2c-0.8,1.5-2.1,2.6-3.4,3.7c-0.6,0.5-1.3,0.9-2.1,1.1c-1.2,0.3-2.2,1-3.4,1.3
		c-1.1,0.3-2.1,0.8-3.2,1c-1.4,0.8-2.6,0.3-3.8-0.4c-0.1-0.1-0.2-0.2-0.2-0.3c-0.1-0.1-0.1-0.2-0.1-0.3c0-0.6-0.2-1.1-0.1-1.7
		s0.5-1.2,0.6-1.9c0.1-0.6,0.1-1.3,0.4-1.9s0.4-1.3,0.7-1.9c0.4-0.9,0.9-1.8,1.3-2.7c0.4-0.8,0.2-1.8,0.9-2.5
		c0.2-0.8,0.7-1.4,0.8-2.2c0.2-0.8,0.9-1.6,1-2.4c0.2-1,0.8-1.8,0.9-2.9c0-0.7,0.3-1.3,0.6-1.9c0.4-0.8,0.8-1.6,1.2-2.4
		c0.3-0.8,0.3-1.8,0.9-2.5c0-0.9,0.6-1.7,0.8-2.5c0.3-1.3,0.7-2.6,1.4-3.7c0.5-0.8,0.5-1.7,0.9-2.5c0.3-0.5,0.3-1.1,0.5-1.6
		c0.1-0.4,0.4-0.8,0.5-1.2c0.1-0.6,0.3-1.1,0.5-1.6c0.1-0.2,0.2-0.4,0.1-0.6c-0.2-1.2,0.8-2.1,0.8-3.2c0.6-1,0.7-2.1,1.2-3.1
		c0.4-0.8,0.8-1.6,0.7-2.5c0-0.3,0.1-0.7,0.3-0.9c0.2-0.4,0.4-0.8,0.4-1.3c-0.1-1.2,0.4-2.2,0.9-3.2c0.2-0.5,0.5-1,0.8-1.5
		c0.2-0.4,0.4-0.8,0.4-1.3c0-0.7,0.2-1.3,0.5-1.9c0.2-0.4,0.2-0.9,0.2-1.3c0-0.7,0-1.3,0.4-1.9c0.3-0.4,0.3-0.9,0.3-1.3
		c-0.1-1.4,0.2-2.7,0.9-3.8c0.4-0.7,0.2-1.5,0.7-2.2c0.4-0.6,0.3-1.3,0.3-2c0-0.6,0.3-1.1,0.5-1.6s0.3-1.1,0.4-1.6
		c0.1-0.4,0.4-0.8,0.4-1.3c0.1-1.4,0.3-2.7,1.1-3.8c0.1-0.2,0.1-0.4-0.1-0.6c-0.2-0.3-0.3-0.7-0.1-0.9c0.4-0.6,0.4-1.3,0.6-1.9
		c0.2-0.5,0.4-1,0.6-1.6c0.4-1.6,1.1-2.9,2.7-3.6c0.3-0.1,0.6-0.3,0.8-0.6c1.1-1.3,2.7-2,3.9-3.1c1.1-0.4,1.9-1.2,2.7-2
		c0.5-0.5,1-0.8,1.6-1.2c0.8-0.5,1.5-1.3,2.3-2c1.1-1,2-2.2,3.3-2.9c0.4-0.2,0.7-0.6,1-0.9c2.1-2.1,4.1-4.1,6.2-6.2
		c0.5-0.5,0.9-1,1.3-1.6c0.5-0.7,1.1-1.4,1.9-1.8c1.1-0.6,2-1.5,2.6-2.6c0.9-1.5,2.1-2.6,3.5-3.5c0.5-0.3,0.9-0.7,1.2-1.2
		c0.9-1.5,1.9-3,3.2-4.3c0.3-0.3,0.7-0.6,0.8-1c0.2-0.6,0.7-0.8,1.1-1.2c0.3-0.3,0.6-0.6,0.9-1c0.2-0.3,0.3-0.6,0.5-0.8
		c0.8-0.8,1.6-1.6,2.3-2.4c0.7-0.8,1-1.8,1.8-2.4c0.5-0.4,0.9-1,1.1-1.6c0.5-1,1.2-1.9,2-2.7c0.8-0.8,1.7-1.5,2-2.6
		c0.1-0.2,0.2-0.4,0.4-0.5c1.2-1.2,2.3-2.5,2.9-4.1c0.7-0.7,1.3-1.5,2-2.2c0.5-0.5,0.9-1,1.2-1.6c0.2-0.5,0.7-0.9,1.1-1.3
		c0.6-0.7,1.4-0.7,2.2-0.6c0.2,0,0.5,0.1,0.6,0.2c0.8,0.6,1.5,1.3,1.5,2.5c0,0.8,0,1.6,0.5,2.3c0.2,0.3,0.2,0.6,0.2,1
		c0,0.9,0,1.8,0,2.7c0,0.9,0,1.8,0,2.7C480.1,314.2,480.1,314.6,480,314.8z M426.2,293.8c0-0.3,0-0.7,0-1c0-0.7,0.7-1.2,0.5-1.9
		c-0.1-0.5-0.5-1-0.5-1.6c0-0.4,0-0.9,0.2-1.3c0.3-0.6,0.4-1.3,0.4-1.9c0-5.6,0-11.2,0-16.8c0-0.7,0-1.3-0.3-2
		c-0.3-0.6-0.3-1.3-0.3-2s0-1.3-0.4-1.9c-0.2-0.4-0.2-0.9-0.2-1.3c0-1,0-2,0-3c0-0.7-0.2-1.3-0.5-1.9c-0.4-0.7-0.4-1.5,0.1-2.2
		c0.3-0.5,0.3-1-0.1-1.6c-0.3-0.4-0.3-0.8-0.3-1.3c0-2.4,0-4.7,0-7.1c0-0.8,0-1.6,0-2.4c0-0.3,0-0.7-0.2-1c-0.4-0.6-0.4-1.3-0.4-1.9
		c0-2.4,0-4.7,0-7.1c0-0.4,0.4-0.8,0.9-0.8c0.8-0.1,1.5,0,2.2,0.6c2.3,2.3,4.6,4.6,6.9,6.9c0.2,0.2,0.5,0.5,0.6,0.8
		c0.5,1.2,1.4,2,2.3,2.9c0.6,0.6,1.2,1.3,1.6,2.1c0.2,0.4,0.5,0.7,0.9,1c0.6,0.6,1.2,1.3,1.9,1.9c0.9,0.8,1.6,1.8,2.3,2.9
		c0.7,1,1.3,2,2.2,2.9c0.8,0.8,1.1,1.9,2,2.7c0.8,0.7,1.4,1.4,2.1,2.1c0.8,0.8,1.7,1.5,2,2.6c1.4,1.3,2.2,3.1,3.6,4.4
		c0.3,0.2,0.6,0.5,0.7,0.7c0.4,1.2,1.5,1.9,2.1,3c1.1,1.9,2.6,3.6,3.5,5.6c0.1,0.2,0.2,0.4,0.4,0.5c1.5,1.2,2,2.9,2.5,4.6
		c0.1,0.4,0.2,0.6-0.1,0.9c-1,1-1.6,2.1-2.2,3.3c-0.5,1.2-1.3,2.3-2.3,3.2c-0.7,0.7-1.4,1.5-2.1,2.2c-0.5,1.3-1.5,2.2-2.5,3.1
		c-0.9,0.8-1.2,2.1-2.2,3c-0.5,1.2-1.6,1.9-2.2,3c-0.5,1-1.4,1.7-2.1,2.6c-0.3,0.3-0.5,0.7-0.8,1.1s-0.5,0.8-0.8,1.1
		c-0.8,0.9-1.8,1.7-2.3,2.9c-0.7,0.7-1.4,1.5-2.1,2.2s-1.5,1.4-1.9,2.3c-0.1,0.2-0.2,0.4-0.4,0.5c-0.7,0.7-1.4,1.4-2.1,2.1
		s-1,1.7-1.8,2.4c-3.1,3-6.1,6-9.1,9c-0.6,0.6-1.2,1-1.9,1.3c-0.2,0.1-0.4,0.2-0.6,0c-0.3-0.3-0.7-0.6-1-0.9
		c-0.2-0.2-0.4-0.6-0.4-0.9c0-1.2,0-2.5,0-3.7l0,0c0-1,0-2,0-3c0-0.3,0-0.7,0.2-1c0.5-0.8,0.5-1.7,0.5-2.6c0-1.6,0-3.1,0-4.7
		c0-0.7,0.1-1.3,0.4-1.9c0.2-0.4,0.3-0.9,0.3-1.3c0-2.1,0-4.3,0-6.4c0-0.8,0-1.6,0-2.4c0-0.3,0-0.7,0.2-1
		C426.2,295.8,426.3,294.8,426.2,293.8z M482,248c-0.1,0.7-0.6,1.2-0.6,1.9c-0.5,1-0.6,2.1-1.1,3.1c0,1.2-0.9,2-0.9,3.2
		c0,0.3-0.3,0.6-0.5,0.8c-0.4,0.5-1.4,0.6-1.8,0.3c-0.7-0.5-1.4-1.1-2.1-1.6c-0.5-1.1-1.6-1.6-2-2.7c-0.3-0.7-0.8-1.3-1.4-1.9
		c-0.6-0.6-1.3-1.2-1.6-2.1c0-0.1-0.1-0.2-0.2-0.3c-1.5-1.2-2.4-3-3.6-4.3c-1-1.1-1.7-2.4-2.8-3.4c-1.1-1-2.1-2.1-3.1-3.1
		c-0.7-0.7-1.4-1.4-1.8-2.4c-0.2-0.4-0.6-0.7-0.9-1c-1.2-1.3-2.6-2.4-3.5-4.1c-0.2-0.5-0.7-0.8-1.1-1.2c-0.5-0.5-0.9-0.9-1.2-1.6
		c-0.1-0.3-0.4-0.6-0.6-0.8c-0.7-0.7-1.4-1.5-2.1-2.2c-0.6-0.6-0.9-1.5-1.6-2.1c-0.7-0.7-1.4-1.4-1.8-2.4c-0.2-0.4-0.6-0.7-0.9-1
		c-1.2-1.2-2.4-2.4-3.6-3.6c-1.6-1.6-3.3-3.1-4.5-5c-1.2-0.4-1.3-1.8-2.2-2.4c-0.8-0.6-1.4-1.4-2.2-2.1c-0.8-0.8-1.6-1.6-2.4-2.4
		c-0.7-0.7-1.4-1.4-2.2-2.1c-0.2-0.2-0.5-0.4-0.8-0.6c-0.7-0.3-1.1-0.8-1.4-1.3c-1-1.6-1.7-2.2-3.6-3.4c-1.5-1-2.8-2.3-3.5-3.9
		c-0.5-1-1-2-1-3.2c0-0.3-0.1-0.7-0.3-0.9c-0.6-1.1-1.2-2.1-1.2-3.4c0-0.2-0.2-0.4-0.3-0.6c-0.3-0.5-0.4-1.1-0.4-1.6
		c0.1-1.3-0.5-2.4-0.9-3.5c-0.2-0.6-0.6-1.2-0.9-1.8s-0.1-1.3-0.6-1.9c-0.2-0.3-0.3-0.6-0.3-0.9c0-0.8-0.3-1.5-0.5-2.3
		c-0.2-0.7-0.6-1.4-0.7-2.2c-0.1-0.7-0.1-1.3-0.1-2c0-0.5-0.2-0.9-0.4-1.3c-0.4-0.8-0.9-1.5-1.1-2.4c-0.1-0.9-0.7-1.6-1-2.5
		c-0.2-0.4-0.2-0.9-0.2-1.3c0-0.7-0.1-1.3-0.1-2c-0.7-0.9-0.6-2.1-1.2-3.1s-1.1-2.2-1.6-3.3c-0.1-0.3-0.4-0.6-0.4-0.9
		c0-1.2-0.5-2.2-1-3.2c-0.5-0.9-0.6-1.9-1.1-2.8c-0.4-0.6-0.8-1.4-0.8-2.2c-0.5-0.7-0.6-1.7-0.9-2.5s-0.7-1.6-1.1-2.4
		c-0.4-0.8-1-1.6-1.2-2.4c-0.2-0.9-0.6-1.7-0.8-2.5c-0.4-1.4-0.8-2.8-1.5-4c-0.5-0.9-0.4-2-1-2.8c-0.2-1.1-0.7-2.1-1.4-3
		c-0.4-0.6-0.8-1.1-0.8-1.8c-0.6-1.1-0.7-2.3-1.4-3.4c-0.4-0.7-0.5-1.5-0.8-2.2c-0.3-0.8-0.9-1.6-1.1-2.4s-0.7-1.4-0.7-2.2
		c-0.1-0.8-0.7-1.4-0.7-2.2c-0.1-0.4-0.3-0.8-0.4-1.2c-0.1-0.4-0.2-0.9-0.2-1.3c0-1,0.7-1.8,1.6-1.8c0.2,0,0.4,0,0.7,0
		c1.3,0,2.7,0,4,0c0.6,0,1.1-0.1,1.6,0.2c0.7,0.5,1.7,0.4,2.4,1c0.8,0.8,1.8,1.4,2.9,1.5c0.4,0,0.6,0.2,0.9,0.5
		c0.6,0.5,1.2,1.1,1.7,1.6c0.9,0.8,1.8,1.7,2.8,2.4c1.3,0.8,2.5,1.9,3.1,3.4c0.2,0.4,0.6,0.7,1,0.9c1.1,0.5,1.9,1.3,2.4,2.2
		c0.5,0.8,1.1,1.4,1.5,2.2c0.7,1.3,1.4,2.5,2.2,3.7c0.7,1.1,1.3,2.3,1.9,3.6c0.3,0.7,0.8,1.4,1.4,1.9c0.9,0.7,1.5,1.7,1.9,2.7
		c1,2.1,2,4.2,3.1,6.3c0.7,1.4,1.2,2.9,2.3,4.1c0.4,0.5,0.6,1.2,0.9,1.8c0.5,0.9,0.8,1.8,1.9,2.2c0.3,0.4,0.5,0.7,0.7,1.1
		c0.5,0.9,0.9,1.8,1.6,2.6c0.5,0.7,0.9,1.6,1.3,2.3c0.3,0.6,0.6,1.2,1,1.7c0.4,0.6,1.1,1.2,1.5,1.8c0.3,0.6,0.4,1.2,0.7,1.9
		c0.5,1.1,1.3,2.1,1.9,3.1s1.3,1.8,1.9,2.7c0.2,0.3,0.3,0.6,0.4,0.9c0.4,1.4,1.1,2.7,1.9,3.9c0.6,0.8,1,1.7,1.5,2.6
		c0.8,1.6,1.6,3.2,2.4,4.8c0.5,1.1,1.1,2.2,1.8,3.2c0.9,1.3,1.5,2.7,2.4,4c0.1,0.2,0.2,0.4,0.3,0.6c1.9,2.2,3.1,4.9,4.4,7.4
		c0.1,0.1,0.1,0.2,0.1,0.3c0.7,1.3,1.2,2.6,2,3.9s1.6,2.4,2.4,3.6c1.1,1.7,2.1,3.4,2.9,5.2c0.5,1,1,2,1.8,2.8
		c0.4,0.4,0.7,0.8,0.9,1.4c0.4,0.8,0.9,1.6,1.2,2.4c0.5,1.1,1.1,2.2,2,3.1c0.8,0.8,1.1,1.9,1.9,2.7c0.1,0.1,0.1,0.4,0.2,0.6
		c0.5,1.6,1.2,3.1,2.3,4.4c0.2,0.2,0.4,0.6,0.4,0.9c0,0.8,0.6,1.4,0.9,2.2c1.2,1.4,1.8,3,2.6,4.6c0.3,0.6,0.6,1.2,0.9,1.8
		c0.2,0.4,0.3,0.8,0.3,1.3c-0.1,1.1,0.2,2,1,2.8c0.1,0.2,0.3,0.4,0.3,0.6c0,0.8,0.5,1.5,0.7,2.2c0.1,0.4,0.2,0.9,0.4,1.3
		c0.2,0.4,0.3,0.8,0.3,1.3c0,1.1,0,2.2,0,3.4l0,0c0,0.7,0,1.3,0,2C482,246.7,482.1,247.3,482,248z"/>
	<path class="st0" d="M249.2,357.3c0.8,0.8,0.5,1.9,0.6,2.9c0,0.7,0.1,1.3,0.2,2c0.5,0.8,0.4,1.7,0.9,2.5c0.2,0.4,0.4,0.8,0.6,1.2
		c0.1,0.3,0.4,0.6,0.3,0.9c-0.1,1.1,0.5,2,0.9,2.8c0.3,0.6,0.5,1.2,0.5,1.9c0,0.8,0.2,1.5,0.6,2.2c0.8,1.5,1.5,3,2.2,4.5
		c0.6,1.3,1.6,2.4,2.3,3.7c1.2,1,1.9,2.5,2.5,3.9c0.4,0.9,1,1.8,1.7,2.4s1.2,1.3,1.6,2.1c0.4,0.8,1.1,1.4,1.8,2
		c0.5,0.5,1.6,0.5,2.1-0.1c0.7-0.7,1.5-1.4,2.2-2.1c0.4-0.4,0.8-0.8,1.1-1.3c0.4-0.9,1-1.5,1.6-2.1c0.6-0.7,1.3-1.3,1.9-1.9
		c0.6-0.7,1-1.4,1.3-2.3c0.1-0.3,0.1-0.7,0.3-0.9c0.7-1,1.2-2.1,2.2-3c0.6-0.5,1-1.2,1-2.1c0.5-1.1,1.1-2.2,1.6-3.3
		c0.2-0.4,0.3-0.8,0.4-1.3c0-0.4,0-0.9,0.1-1.3c0.1-0.3,0.2-0.6,0.3-0.9c0.1-0.3,0.1-0.7,0.3-1c0.2-0.4,0.4-0.8,0.5-1.2
		c0.1-0.3,0.1-0.7,0.2-1s0.2-0.6,0.4-0.9c0.9-1.3,0.7-3,1.5-4.4c0.1-0.9,0-1.8,0.2-2.7c0.1-0.9,0.7-1.7,0.6-2.6c0-0.1,0-0.2,0-0.5
		c0-0.2,0.1-0.8-0.2-1.1c-0.7-1-0.7-2.1-0.7-3.2c0-0.2-0.1-0.4-0.2-0.6c-0.3-0.5-0.4-1-0.4-1.6c0-1.1-0.1-2.2,0-3.4
		c0-0.9-0.2-1.8-0.6-2.6c-0.4-0.8-0.8-1.6-0.7-2.5c0.2-1.3-0.3-2.4-1.1-3.4c-0.7-1-1.3-2.1-2.2-2.9c-0.5-0.4-1-1-1.3-1.6
		c-0.4-0.7-0.8-1.3-1.4-1.9c-0.9-0.8-1.4-1.7-1.9-2.7c-0.2-0.4-0.4-0.8-0.7-1.1c-1.3-1.3-2.5-2.9-4.2-3.8c-1-0.9-2.3-1.3-3.5-1.9
		c-0.2-0.1-0.6,0-0.8,0.3c-0.3,0.3-0.6,0.7-0.8,1.1c-0.3,0.5-0.6,0.9-1.2,1.1c-0.3,0.1-0.6,0.4-0.9,0.5c-0.8,0.3-1.2,0.9-1.6,1.6
		c-0.5,0.9-0.9,1.8-1.7,2.5c-0.8,0.7-1.6,1.6-2,2.6c-1.4,1.6-2.5,3.4-3.7,5.1c-0.3,0.5-0.6,1-0.6,1.5c0,0.6-0.1,1.1-0.5,1.6
		c-0.3,0.5-0.5,1-0.8,1.5c-0.4,0.9-1,1.8-0.9,2.8c-0.5,1.1-0.6,2.4-1,3.5c-0.2,0.4-0.3,0.8-0.3,1.3c0,0.8-0.1,1.6-0.1,2.4
		c-0.6,0.7-0.5,1.7-0.9,2.5c-0.1,0.2-0.2,0.4-0.2,0.6s-0.1,0.5,0,0.7C248.9,355.3,249.1,356.3,249.2,357.3z"/>
</g>
</svg>
