<?xml version="1.0" encoding="utf-8"?>
<!-- Generator: Adobe Illustrator 26.3.1, SVG Export Plug-In . SVG Version: 6.00 Build 0)  -->
<svg version="1.1" id="Layer_1" xmlns="http://www.w3.org/2000/svg" xmlns:xlink="http://www.w3.org/1999/xlink" x="0px" y="0px"
	 viewBox="0 0 533.1 560" style="enable-background:new 0 0 533.1 560;" xml:space="preserve">
<style type="text/css">
	.st0{fill:#333333;}
</style>
<path class="st0" d="M76.3,162.9c0,12.5-7.5,20.9-20.8,20.9s-20.8-8.4-20.8-20.9c0-12.3,7.5-20.8,20.8-20.8
	C68.9,142.1,76.3,150.5,76.3,162.9 M71.6,188l-42,14.7c-1.5,0.5-1.9,2.5-0.7,3.5l7.2,6.2c0.5,0.4,0.7,1,0.7,1.6v68.3
	c0,1.1,0.9,2.1,2.1,2.1h33.3c1.1,0,2.1-0.9,2.1-2.1V190C74.3,188.5,72.9,187.5,71.6,188 M137.7,226.9l-14-7.5c-11-5.8-14-10.5-14-17
	c0-5.2,4.1-9.9,12.3-9.9c0.9,0,2.2,0.2,3.2,0.6l21.7,30.9h0.2l6.8-27.7c0.3-1-0.3-2.1-1.3-2.4c-8.7-3-17.9-4.8-29.3-4.8
	c-24.9,0-40.2,12.3-40.2,31.2c0,14.2,7.5,23,23,31.2l12.3,6.5c7.9,4.1,11.2,7.3,11.2,12.9c0,7.7-5.6,12-13.8,12
	c-2,0-3.3-0.2-5.5-0.7c-0.4-0.1-0.8-0.4-1.1-0.8l-22.8-30.5h-0.2l-6,31.1c-0.2,1.3,0.7,2.4,2,2.4c13.4,0.2,24.2,1.9,32.5,1.9
	c23,0,42.6-12,42.6-31.4C157.3,243.1,150.6,233.8,137.7,226.9 M196.5,145l-42,14.7c-1.5,0.5-1.9,2.5-0.7,3.5l7.2,6.2
	c0.5,0.4,0.7,1,0.7,1.6v108.6c0,1.1,0.9,2.1,2.1,2.1l33.3-12.1c1.1-0.4,2.1-0.9,2.1-2.1V146.9C199.2,145.5,197.8,144.5,196.5,145
	 M291.5,229.5v52.7c0,1.1-0.9,2.1-2.1,2.1h-33.3c-1.1,0-2.1-0.9-2.1-2.1v-4.3c0-1.7-1.9-2.6-3.3-1.6c-7.9,6-16.7,9.9-25.7,9.9
	c-12.2,0-20.4-6.9-20.4-18.7c0-16.9,17.6-28.2,47.5-31.8c1-0.1,1.9-1,1.8-2.1c-0.5-19.3-8.6-29-22.4-29c-8.4,0-14.2,2.2-20.6,7.1
	l-0.9-0.9c12.7-14.2,26.6-21.9,45.3-21.9C279,188.9,291.5,202.4,291.5,229.5 M254.1,240.7c0-1.4-1.5-2.4-2.8-1.9
	c-9.1,3.5-12.7,10.2-12.7,19.3c0,8.8,3.7,13.5,11.2,13.5c0.7,0,1.6-0.1,2.6-0.2c1-0.2,1.8-1,1.8-2v-28.7H254.1z M373.7,188
	c-11.5,0-21.5,6-32.4,14.9c-1.3,1.1-3.4,0.2-3.4-1.6v-11.4c0-1.4-1.4-2.4-2.7-1.9l-42,14.7c-1.5,0.5-1.9,2.5-0.7,3.5l7.2,6.2
	c0.5,0.4,0.7,1,0.7,1.6v68.3c0,1.1,0.9,2.1,2.1,2.1h33.3c1.1,0,2.1-0.9,2.1-2.1v-72.5c0-0.8,0.5-1.6,1.3-1.9c3.3-1.4,6.6-2.3,10-2.3
	c7.7,0,11.2,4.9,11.2,19.4v57.2c0,1.1,0.9,2.1,2.1,2.1h33.3c1.1,0,2.1-0.9,2.1-2.1v-65.3C397.8,197.9,389.6,188,373.7,188
	 M417.2,397l0.2,0.2c-7.9,12-20.4,18.7-37.8,18.7c-26.4,0-48.1-18.3-48.1-47.3c0-2.6,0.2-5.2,0.6-7.7l-28,54.8
	c-0.4,0.7-1.1,1.1-1.8,1.1h-1.8c-0.8,0-1.6-0.5-1.9-1.3l-22.7-56.9c-0.7-1.6-2.9-1.7-3.7-0.2l-28.6,57.2c-0.3,0.7-1.1,1.1-1.8,1.1
	h-2.1c-0.8,0-1.5-0.5-1.9-1.2l-37.4-83.6c-0.1-0.3-0.4-0.6-0.7-0.8l-0.5-0.4V412c0,1.1-0.9,2.1-2.1,2.1h-33.3
	c-1.1,0-2.1-0.9-2.1-2.1v-7.9c0-1.8-2.1-2.7-3.4-1.5c-9.1,8.2-19.3,13.4-29.1,13.4c-19.1,0-33.3-15.5-33.3-44.3
	c0-31,17.8-52.9,43.4-52.9c8.2,0,14.2,2.1,19.4,5c1.4,0.8,3.1-0.2,3.1-1.8v-19.8c0-0.6-0.3-1.2-0.7-1.6l-7.3-6.2
	c-1.2-1-0.8-3,0.7-3.5l42-14.7c1.3-0.5,2.7,0.5,2.7,1.9v44.4h47.2c2,0,2.8,2.5,1.2,3.7l-6.2,4.6c-0.7,0.5-1,1.5-0.7,2.3l14.8,43.6
	c0.6,1.8,3.2,1.9,3.9,0l11-30.1c0.2-0.5,0.2-1,0-1.5l-6.7-16.8c-0.5-1.2,0.2-2.5,1.5-2.8l31.7-6.4c1-0.2,2.1,0.4,2.4,1.4l17.3,56.5
	c0.6,1.8,3.1,2,3.8,0.2l13.8-31.6c0.1-0.1,0.1-0.3,0.2-0.4c3.6-5.3,8-10.4,13.2-14.7c8.1-7.3,19.1-11.8,32.3-11.8
	c17.6,0,29.7,10.3,29.7,23.9c0,14.8-10.9,27.9-31.4,36.4c-1.4,0.6-1.7,2.4-0.6,3.5c10.2,9.2,22.6,15.1,34.2,15.1
	C413.7,397.6,415.6,397.4,417.2,397 M161.8,329.9c0-0.7-0.3-1.4-1-1.8c-2.5-1.5-5.4-2.2-8.2-2.2c-9.7,0-16.6,11.8-16.6,35
	c0,25.1,5.4,37.6,18,37.6c2.3,0,4.4-0.5,6.6-1.3c0.8-0.3,1.3-1.1,1.3-1.9v-65.4H161.8z M375.5,377.1c4.2-6.2,5.8-13.1,5.8-21.7
	c0-16.3-10.8-30.1-18.9-30.1c-4.9,0-7.7,4.1-7.7,11c0,14.7,7.2,29.6,17.6,41C373.2,378.2,374.8,378.1,375.5,377.1 M456.7,291.4
	l-42,14.7c-1.5,0.5-1.9,2.5-0.7,3.5l7.3,6.2c0.5,0.4,0.7,1,0.7,1.6v97.4c0,1.1,0.9,2.1,2.1,2.1h33.3c1.1,0,2.1-0.9,2.1-2.1V293.3
	C459.4,291.9,458,290.9,456.7,291.4 M504.6,414.8c0,1.1-0.9,2.1-2.1,2.1h-33.3c-1.1,0-2.1-0.9-2.1-2.1V274.3c0-1.8-2.1-2.7-3.4-1.5
	c-9.1,8.2-19.3,13.4-29.1,13.4c-19.1,0-33.3-15.5-33.3-44.3c0-31,17.8-52.9,43.4-52.9c8.2,0,14.2,2.1,19.4,5
	c1.4,0.8,3.1-0.2,3.1-1.8V171c0-0.6-0.3-1.2-0.7-1.6l-7.2-6.2c-1.2-1-0.8-3,0.7-3.5l42-14.7c1.3-0.5,2.7,0.5,2.7,1.9L504.6,414.8z
	 M467.2,200.1c0-0.7-0.3-1.4-1-1.8c-2.5-1.5-5.4-2.2-8.2-2.2c-9.7,0-16.6,11.8-16.6,35c0,25.1,5.4,37.6,18,37.6
	c2.3,0,4.4-0.5,6.6-1.3c0.8-0.3,1.3-1.1,1.3-1.9L467.2,200.1L467.2,200.1z"/>
</svg>
