<?xml version="1.0" encoding="utf-8"?>
<!-- Generator: Adobe Illustrator 26.3.1, SVG Export Plug-In . SVG Version: 6.00 Build 0)  -->
<svg version="1.1" id="Layer_1" xmlns="http://www.w3.org/2000/svg" xmlns:xlink="http://www.w3.org/1999/xlink" x="0px" y="0px"
	 viewBox="0 0 533.1 560" style="enable-background:new 0 0 533.1 560;" xml:space="preserve">
<style type="text/css">
	.st0{fill:#333333;}
</style>
<g>
	<path class="st0" d="M122.1,428L38,447.9c-1.4,0.3-2.5-1.2-1.7-2.5l179.9-267.2c0.2-0.3,0.6-0.6,0.9-0.6l84.1-19.8
		c1.4-0.3,2.5,1.2,1.7,2.5L123.1,427.4C122.9,427.6,122.6,427.9,122.1,428z"/>
	<path class="st0" d="M316,382.4l-84.1,19.8c-1.4,0.3-2.5-1.2-1.7-2.5L410,132.6c0.2-0.3,0.6-0.6,0.9-0.6l84.1-19.8
		c1.4-0.3,2.5,1.2,1.7,2.5L316.9,381.8C316.6,382.1,316.3,382.2,316,382.4z"/>
	<path class="st0" d="M258.2,346.7l-84.1,19.8c-1.4,0.3-2.5-1.2-1.7-2.5l140-208.3c0.2-0.3,0.6-0.6,0.9-0.6l84.1-19.8
		c1.4-0.3,2.5,1.2,1.7,2.5l-140,208.3C258.8,346.4,258.5,346.6,258.2,346.7z"/>
</g>
</svg>
