<?xml version="1.0" encoding="utf-8"?>
<!-- Generator: Adobe Illustrator 26.5.0, SVG Export Plug-In . SVG Version: 6.00 Build 0)  -->
<svg version="1.1" id="Layer_1" xmlns="http://www.w3.org/2000/svg" xmlns:xlink="http://www.w3.org/1999/xlink" x="0px" y="0px"
	 viewBox="0 0 533.1 560" style="enable-background:new 0 0 533.1 560;" xml:space="preserve">
<style type="text/css">
	.st0{fill:#333333;}
</style>
<path class="st0" d="M289,260.6h174.5c0.9,0,1.6,0.7,1.6,1.6l-0.8,20.3c-0.9,24.5-1.9,49.9-9.1,75.1c-7.5,27.1-21.6,51.5-40.7,70.5
	c-19,19.1-43.4,33.2-70.5,40.7c-25.1,7.2-50.5,8.2-75.1,9.1l-1.6,0.1c0,0-0.1,0-0.1,0l-1.6-0.1c-24.5-0.9-49.9-1.9-75-9.1
	c-27.1-7.5-51.5-21.6-70.5-40.7c-19.1-19-33.2-43.4-40.8-70.5c-7.2-25.1-8.2-50.5-9.1-75l-0.1-1.6c0,0,0-0.1,0-0.1l0.1-1.6
	c0.9-24.5,1.9-49.9,9.1-75.1c7.5-27.1,21.6-51.5,40.7-70.5c19-19.1,43.4-33.2,70.5-40.7c25.1-7.2,50.5-8.2,75.1-9.1l20.3-0.8
	c0.9,0,1.6,0.7,1.6,1.6V259C287.4,259.9,288.1,260.6,289,260.6z M246.9,189.4C246.9,189.4,246.9,189.4,246.9,189.4L246.9,189.4
	L246.9,189.4z M246.9,254.8L246.9,254.8L246.9,254.8C246.9,254.8,246.9,254.8,246.9,254.8z M201.5,429.9c14.3,4.1,29.8,5.8,45.4,6.7
	c0-0.2,0-0.3,0-0.5l0-112.7c0-1.3-1.5-2-2.5-1.3c-15.8,12-38,24.3-69.3,34.6c-0.8,0.3-1.7-0.2-2-1l-11.5-35.5c-0.3-0.8,0.2-1.7,1-2
	c22.9-7.5,40-16.2,52.7-25c18.8-13,26.6-26.2,29.7-33.2c0.6-1.5-1.1-2.9-2.4-1.9c-15.7,11.5-37.4,23.4-67.5,33.3
	c-0.8,0.3-1.7-0.2-2-1l-11.5-35.5c-0.3-0.8,0.2-1.7,1-2c22.9-7.5,40-16.2,52.7-25c18.8-13,26.6-26.2,29.7-33.2
	c0.6-1.5-1.1-2.9-2.4-1.9c-15.7,11.5-37.4,23.4-67.5,33.3c-0.8,0.3-1.7-0.2-2-1l-11.5-35.5c-0.3-0.8,0.2-1.7,1-2
	c22.9-7.5,40-16.2,52.7-25c27.5-19,31.5-36.6,31.5-36.6l0.1,0v-0.7c-15.6,0.9-31.1,2.6-45.4,6.7l-0.2,0.1
	c-20.4,5.6-38.6,16.1-52.7,30.3l-0.1,0.1c-14.2,14.1-24.7,32.3-30.3,52.7l-0.1,0.2c-5.9,20.4-6.8,43.3-7.6,65.5l0,0.1l0,0.2
	c0.8,22.1,1.7,45,7.6,65.4l0.1,0.2c5.6,20.4,16.1,38.6,30.3,52.7l0.1,0.1c14.1,14.2,32.3,24.7,52.7,30.3L201.5,429.9z M422.7,302.8
	c0.1-0.9-0.7-1.7-1.6-1.7H289c-0.9,0-1.6,0.7-1.6,1.6v133.4c0,0.2,0,0.3,0,0.5c15.6-0.9,31.1-2.6,45.4-6.7l0.2-0.1
	c20.4-5.6,38.6-16.1,52.7-30.3l0.1-0.1c14.2-14.1,24.7-32.3,30.3-52.7l0.1-0.2C420.1,332.7,421.8,317.8,422.7,302.8z M374.9,174.5
	c-23.6-16.5-34.5-44.5-30.4-71.1c0.3-1.8-1.8-3-3.3-1.9c-7.2,5.4-13.6,12.2-18.7,20.3c-19.7,31.7-12,73.7,17.5,96.5
	c33.3,25.7,81,18.1,104.8-16c4.6-6.6,8-13.8,10.2-21.1c0.5-1.8-1.3-3.3-2.9-2.4C428.5,191.7,398.5,191,374.9,174.5z"/>
</svg>
