<?xml version="1.0" encoding="utf-8"?>
<!-- Generator: Adobe Illustrator 26.3.1, SVG Export Plug-In . SVG Version: 6.00 Build 0)  -->
<svg version="1.1" id="Layer_1" xmlns="http://www.w3.org/2000/svg" xmlns:xlink="http://www.w3.org/1999/xlink" x="0px" y="0px"
	 viewBox="0 0 533.1 560" style="enable-background:new 0 0 533.1 560;" xml:space="preserve">
<style type="text/css">
	.st0{fill:#333333;}
</style>
<path class="st0" d="M447.3,393.2c34.9,41.3-15.5,93-57.2,60.2l-0.5-0.4c-36.2-40.7,15.1-95.2,57.2-60.2L447.3,393.2 M393.6,192.8
	c0-65.1-43.9-96.7-117.3-96.7H139.9c-1.3,0-2.3,0.9-2.5,2.1l-63.3,357c-0.3,1.4,0.7,2.8,2.1,3c0.2,0,0.3,0,0.5,0h48
	c1.3,0,2.4-0.9,2.6-2.2l24.4-139c0.2-1.2,1.3-2.2,2.5-2.2h86.1c18.1,57.7,39.4,113.3,84.9,135.3c5.2,2.5,10.7,4.5,16.3,6
	c1.4,0.3,2.8-0.5,3.1-1.9c0-0.1,0.1-0.3,0.1-0.4l4.1-50.9c0.1-1-0.4-2-1.3-2.4c-22.6-12.2-37.7-48.2-51-88.5
	c-0.5-1.4,0.3-2.9,1.7-3.3h0.1C341.8,298.2,393.6,269.2,393.6,192.8 M262.3,263.6h-97.7c-1.4,0-2.6-1.1-2.6-2.5c0-0.2,0-0.3,0-0.5
	l19.2-111.1c0.2-1.3,1.3-2.2,2.6-2.2h88.3c45,0,65.1,18.6,65.1,49.1C337.3,241.9,308.8,263.6,262.3,263.6"/>
</svg>
