<?xml version="1.0" encoding="utf-8"?>
<!-- Generator: Adobe Illustrator 26.3.1, SVG Export Plug-In . SVG Version: 6.00 Build 0)  -->
<svg version="1.1" id="Layer_1" xmlns="http://www.w3.org/2000/svg" xmlns:xlink="http://www.w3.org/1999/xlink" x="0px" y="0px"
	 viewBox="0 0 533.1 560" style="enable-background:new 0 0 533.1 560;" xml:space="preserve">
<style type="text/css">
	.st0{fill:#333333;}
</style>
<g id="lotus">
	<g>
		<g>
			<path class="st0" d="M249.8,353.5c-13.8,0-22.3-11.2-24.7-14.8c-2.8-3.6-5.3-7.6-7.3-12c0-0.1-0.1-0.2-0.1-0.3
				c-0.4-1.1-0.2-2.3,0.5-3.2c0.7-0.9,1.7-1.5,2.9-1.5c0.8,0,1.5,0.2,1.9,0.4c0.1,0,0.2,0.1,0.2,0.1c0.1,0,0.2,0.1,0.4,0.1
				c6.8,2.4,11.2,6.6,15,10.3c1.5,1.4,2.9,2.8,4.3,3.9c-0.4-2.5-0.7-4.8-0.7-6.3c0-7.4,1.5-14.7,4.5-21.7
				c3.2-7.5,7.8-14.5,13.8-20.7c6.5-6.8,14.3-12.7,23.2-17.5c8.9-5,19-9.1,30.1-12.2c0.3-0.1,0.5-0.1,0.8-0.1c1.3,0,2.7,0.9,3.3,2.1
				c0.1,0.2,0.2,0.4,0.2,0.6c0.7,2.6,1.3,5.2,1.8,7.6c0,0.2,0.1,0.4,0.1,0.6c0,1.3-0.9,2.7-2.1,3.3c-0.2,0.1-0.3,0.1-0.5,0.2
				c-19.8,5.7-35.8,14.6-46.3,25.8c-9.3,9.7-14.2,20.9-14.2,32.3c0,4.7,0.7,9.6,2.1,14.4l0.2,0.6c0.3,1.1,0.6,2,0.8,3
				c0,0.2,0.1,0.4,0.1,0.6c0,1.3-0.8,2.7-2.1,3.3c-0.2,0.1-0.3,0.2-0.5,0.2C254.9,353.1,252.3,353.5,249.8,353.5L249.8,353.5z"/>
		</g>
		<g>
			<path class="st0" d="M195.3,391.9c-21.2,0-41-5-58.6-14.9c-15.2-8.3-29-20.5-40.9-36.1c-0.1-0.1-0.1-0.2-0.2-0.3
				c-0.4-0.7-0.9-1.5-1.1-2.5c0-0.2-0.1-0.4-0.1-0.6c0-1.3,0.9-2.7,2.1-3.3c0.2-0.1,0.3-0.1,0.5-0.2c0.4-0.1,0.8-0.2,1.2-0.3
				c0.4-0.1,0.7-0.2,1.1-0.3h0.1c0.9-0.2,1.7-0.4,2.6-0.7c0.8-0.2,1.7-0.4,2.5-0.6c0.3-0.1,0.7-0.2,1.1-0.2c0.9,0,1.9,0.4,2.5,1
				c0.1,0.1,0.2,0.2,0.2,0.3c10.5,13.4,22.4,23.9,35.4,31.1c15.6,8.6,32.9,13,51.5,13c7.8,0,15.4-0.5,22.8-1.6c0.1,0,0.3,0,0.4,0
				c0.5,0,0.9,0.1,1.2,0.2s0.5,0.2,0.8,0.3c1.2,0.7,2.6,1.5,3.8,2.1l0.2,0.1c2.3,1.1,4.6,2.1,6.8,3c0.2,0.1,0.3,0.1,0.4,0.2
				c1.3,0.8,2,2.3,1.8,3.8c-0.2,1.4-1.3,2.5-2.7,2.8C220.6,390.6,208.7,391.9,195.3,391.9z"/>
		</g>
		<g>
			<path class="st0" d="M354.1,322.1c-1.2,0-2.2-0.5-2.9-1.4c-0.6-0.8-0.9-1.8-0.6-2.8c0.2-1,0.4-2,0.5-3c0.3-1.5,0.5-3,0.8-4.6
				c0-0.2,0.1-0.3,0.1-0.5c0.5-1.5,1.7-2.4,3.1-2.5c11-1.5,23.7-2.3,37.5-2.3c10.8,0,21.8,1,32.6,2.9c1.2,0.1,2.2,0.8,2.7,1.9
				c0.6,1.2,0.4,2.5-0.4,3.6c-0.6,1.2-1.3,2.3-2,3.5c-0.3,0.6-0.7,1.1-1,1.7l-0.2,0.4c-0.2,0.4-0.5,1-0.9,1.5
				c-0.4,0.6-1.3,1.5-3,1.5c-0.2,0-0.3,0-0.5,0c-8.7-1.5-17.8-2.2-27.3-2.2c-13.8,0-26.5,0.8-37.9,2.4
				C354.4,322.1,354.3,322.1,354.1,322.1z"/>
		</g>
		<g>
			<g>
				<path class="st0" d="M79.5,306.6c-1.3,0-2.5-0.8-3.1-1.9C57.8,266.6,53.6,231.9,51.9,200l-1.1-20.8c0-0.1,0-0.1,0-0.2
					c0-2,1.6-3.5,3.5-3.5c1.5,0,2.7,0.9,3.3,2.2l8.3,19c1.5,3.4,8.3,14.6,20.8,25.2c8.9,7.5,19.3,13.6,31,18.2
					c14.2,5.8,30.8,9.2,49.4,10.1c20.8,0.9,39.8,4,56.4,9.2c12.1,3.8,23.1,8.8,32.7,15c0.1,0,0.1,0.1,0.2,0.1
					c1.2,0.9,1.7,2.2,1.4,3.6c-0.1,0.4-0.5,1.6-1.8,2.2c-0.1,0.1-0.3,0.3-0.4,0.4c-0.5,0.5-1,0.9-1.3,1.3c0,0.1-0.1,0.1-0.1,0.2
					c-0.7,0.8-1.3,1.4-1.9,2.1l-0.8,0.8c-0.6,0.8-1.6,1.3-2.7,1.3l0,0c-0.6,0-1.1-0.1-1.6-0.4c-0.1,0-0.2-0.1-0.3-0.1
					c-19.3-12.3-47.3-19.5-80.7-21.1c-20.3-1.1-38.6-4.9-54.4-11.2c-13-5.3-24.8-12.3-35-20.9c-2.9-2.4-5.6-5-8.1-7.7
					c2.5,20.5,7.6,46.3,21.5,74.4c0.1,0.2,0.2,0.5,0.3,0.7c0.1,0.3,0.2,0.6,0.2,1c0,1.3-0.9,2.5-2.2,2.9c-2.4,0.7-4.6,1.4-7.2,2.3
					C80.5,306.4,80,306.6,79.5,306.6z"/>
			</g>
		</g>
		<g>
			<g>
				<path class="st0" d="M337.9,391.3c-17.8,0-36-7.4-48-12.3c-1-0.4-1.9-0.8-2.9-1.1c-0.7-0.3-1.5-0.6-2.2-0.8
					c-0.4-0.2-0.7-0.4-1-0.7c-1.2-1.2-1.6-3.5-0.2-5c0.3-0.4,0.6-0.7,1-1c0.2-0.2,0.4-0.4,0.6-0.7l0.1-0.1c2.6-2.8,4.6-5.5,6.2-8.4
					c0.4-0.9,1.2-1.7,2.2-1.9c7.9-2.9,15.2-8.4,21.1-16c7.1-9.2,15.6-25.7,15.6-51.9c0-17.6-2.9-32.5-9.2-47.1
					c-5.7-13.1-13.4-24.5-21.6-36.5l-0.1-0.1c-9.2-13.3-19.5-28.5-27.4-48c-2.3-5.6-4.2-11.2-5.8-16.8c-1.6,5.7-3.5,11.2-5.7,16.8
					c-7.5,18.7-17.2,33-26.5,46.8l-0.9,1.3l-1.4,2.1c-7.6,11.4-14.8,22.1-20.2,34.5c-0.2,0.3-0.4,0.7-0.6,0.9
					c-0.8,0.8-1.9,1.1-2.7,1.1c-0.2,0-0.3,0-0.5,0l-1.5-0.2c-2.1-0.3-4.2-0.7-6.3-1.1c-0.1,0-0.2-0.1-0.3-0.1
					c-1-0.3-1.8-1.1-2.2-2.1c-0.4-0.9-0.4-1.8,0-2.7c6-14.7,14.2-26.7,22.9-39.5l0.7-1c14.5-21.3,36.3-53.4,41-114.7
					c0.1-0.8,0.4-1.6,1.1-2.1c1.5-1.2,2.4-1.4,3.1-1.4c1.2,0,2,0.7,2.2,0.9c0.9,0.5,1.4,1.4,1.5,2.4c4.5,60.7,25.8,92,41.4,114.9
					c16.4,24,33.4,48.8,33.4,92c0,30.6-10.2,50-18.7,60.9c-5.9,7.4-12.8,13.3-20.3,17.4c9.8,3.6,21.3,7,31.8,7
					c40,0,71.6-18.3,94-54.3c15.4-24.7,26.3-58.2,31.9-97.2c-2.3,2.4-4.8,4.7-7.5,7c-10.2,8.6-22,15.6-35,20.9
					c-16.2,6.5-34.5,10.3-54.4,11.2c-1.2,0.1-2.6,0.2-3.9,0.3c-2.9,0.2-5.6,0.4-8.3,0.6c-0.1,0-0.2,0-0.3,0c-1.8,0-3.3-1.3-3.5-3
					c-0.6-2.7-1-5-1.6-7.1c-0.1-0.2-0.1-0.5-0.1-0.7c0-1.9,1.4-3.5,3.3-3.6c4.1-0.5,8.6-0.8,13.9-1c18-0.9,34.7-4.3,49.4-10.1
					c11.5-4.5,21.9-10.6,31-18.2c14.6-12.2,20.5-24.4,20.8-25.1c0,0,0-0.1,0.1-0.1l8.9-19.9c0-0.1,0.1-0.2,0.2-0.3
					c0.7-1.1,1.8-1.8,3.2-1.8c0.1,0,0.2,0,0.3,0c0.1,0,0.1,0,0.2,0c0.4,0,0.9,0.1,1.3,0.3c1.1,0.5,1.8,1.7,1.7,3l-1.8,21.8
					c-2.9,36.8-11.7,89.4-37,130.4c-11.8,19.1-26.3,34-43.1,44.3C382.7,385.6,361.4,391.3,337.9,391.3z"/>
			</g>
		</g>
		<g>
			<g>
				<path class="st0" d="M177.9,438.3c-19,0-34.8-4.5-48.1-13.8c-11.5-8-19.6-18.4-27.4-28.5l-0.6-0.8
					c-15.6-20.1-29.1-37.4-66.1-37.5h-8.9c-1.5,0-2.8-0.9-3.3-2.2c-0.5-1.3-0.2-2.8,0.8-3.9l6.1-6.4c1.1-1.1,10.9-10.7,28.6-20.3
					c10.3-5.6,21.8-10.1,34.3-13.6c14.7-4.2,30.5-6.3,47.1-6.3c12.4,0,25.1,1.2,37.8,3.6c0.6,0.1,1.1,0.4,1.6,0.8l0.4,0.4
					c0.6,0.6,0.9,1.3,0.9,2.1c0,0.4,0.1,0.9,0.2,1.4c0,0.1,0,0.2,0,0.3c0.2,0.8,0.3,1.6,0.4,2.4c0.2,1.2,0.4,2.2,0.6,3.2
					c0.2,1-0.1,2-0.8,2.8l-0.6,0.6c-0.6,0.6-1.3,0.9-2.1,0.9c-0.2,0-0.4,0-0.6-0.1c-12.1-2.6-24.9-3.8-38-3.8
					c-15.2,0-29.7,1.9-43.2,5.7c-11,3-21.5,7.3-31.3,12.5c-4.6,2.4-8.5,4.8-11.5,6.9c11.5,2.1,21.6,6.2,30.7,12.4
					c12,8.4,20.3,19.1,28.3,29.5c14.7,19.1,28.5,37,64.3,37c21.6,0,38-4.1,50-12.4c9.7-6.8,16.1-16.1,21.1-24.3
					c0.6-1.2,1.9-1.9,3.1-1.9c3-0.1,6.1-0.4,10.3-1.1c0.2,0,0.3,0,0.5,0c0.7,0,1.4,0.2,1.9,0.7c0.7,0.6,1.1,1.4,1.1,2.3
					c0,0.4-0.1,1-0.5,1.7l0,0c-6.7,11.7-15,25-28.7,34.6C221.8,433.3,202.7,438.3,177.9,438.3z"/>
			</g>
		</g>
		<g>
			<g>
				<path class="st0" d="M355.6,438.1c-23.3,0-43.1-4.2-58.9-12.4c-11.6-5.9-20.9-14-27.7-24.2c-0.1-0.1-0.1-0.2-0.2-0.3
					c-0.3-0.5-0.5-1.1-0.5-1.8c0-0.7,0.2-1.4,0.6-1.9c0.4-0.6,0.7-1.3,1.1-1.9c0.6-1.1,1.2-2.2,1.9-3.2c0.1-0.2,0.2-0.3,0.2-0.4
					c0.1-0.1,0.1-0.2,0.2-0.3l0.5-1c0.1-0.1,0.1-0.2,0.2-0.3c0.7-1,1.8-1.6,3-1.6c1,0,1.9,0.4,2.5,1c0.1,0.1,0.2,0.2,0.2,0.3
					c0.5,0.6,1,1.3,1.6,2.1l0.9,1.2c6.3,8.6,13.6,14.9,22.3,19.4c13.6,7.1,31.1,10.7,52.1,10.7c15.9,0,28.1-3.5,38.6-11
					c9.8-6.9,17.3-16.4,24.5-25.7c7.8-9.9,16.7-21.2,28.9-29.7c9-6.3,19.3-10.4,31.2-12.6c-5.1-3.4-12.5-7.8-21.7-11.9
					c0,0-0.1,0-0.1-0.1c-0.8-0.4-1.4-1.1-1.7-2c-0.3-0.9-0.2-1.9,0.2-2.7c0,0,0-0.1,0.1-0.1c1.1-2.1,2.3-4.3,3.4-6.5
					c0.6-1.2,1.8-1.9,3.1-1.9c0.5,0,1,0.1,1.4,0.3c24.4,10.9,37.6,23.8,39.3,25.5l0,0l6.3,6.3c0.2,0.2,0.4,0.5,0.6,0.8
					c0.6,1.2,0.5,2.6-0.1,3.6s-1.7,1.6-3,1.6h-8.9c-37.4,0-52,18.6-67.4,38.3l-0.2,0.2C413.7,416.8,396.9,438.1,355.6,438.1z"/>
			</g>
		</g>
		<g>
			<g>
				<path class="st0" d="M251.1,376.4c-7.6,0-15.1-1.9-22.6-5.7c-7.4-3.7-14.2-9.2-20.2-16.4c-9.2-10.8-20.2-30.4-20.2-62.4
					c0-4,0.2-7.9,0.4-11.6c0-0.1,0-0.2,0-0.3c0.1-0.9,0.4-1.6,0.6-2.1c0.4-1.3,1.8-2.2,3.4-2.2c0.1,0,0.2,0,0.4,0
					c2.4,0.3,4.7,0.7,7.4,1.3c0.2,0.1,0.5,0.1,0.7,0.2c1.3,0.6,2.1,1.9,2.1,3.2v0.9c0,0.1,0,0.2,0,0.3c-0.3,2.8-0.4,6.3-0.4,10.3
					c0,27.4,9.1,44,16.7,53.1c4.6,5.6,9.8,9.8,15.6,12.7c5.3,2.7,10.8,4.1,16,4.1c7.1,0,13-2.5,17.6-7.3c5.1-5.4,7.7-13.8,7.7-24.2
					c0-5.7-1.4-11.8-4.1-17.6c-0.6-1.1-0.5-2.6,0.2-3.7c1.1-1.5,2.5-3.5,4.4-5.4c0.4-0.5,0.9-0.9,1.4-1.3l0.3-0.3
					c0.7-0.6,1.5-0.9,2.4-0.9c1.4,0,2.6,0.8,3.2,1.9c4.5,8.6,6.9,17.9,6.9,27c0,14.1-4,25.9-11.7,34.3
					C272.4,372.1,262.3,376.4,251.1,376.4z"/>
			</g>
		</g>
	</g>
</g>
</svg>
