<?xml version="1.0" encoding="utf-8"?>
<!-- Generator: Adobe Illustrator 28.0.0, SVG Export Plug-In . SVG Version: 6.00 Build 0)  -->
<svg version="1.1" id="Layer_1" xmlns="http://www.w3.org/2000/svg" xmlns:xlink="http://www.w3.org/1999/xlink" x="0px" y="0px"
	 viewBox="0 0 488 191.2" style="enable-background:new 0 0 488 191.2;" xml:space="preserve">
<style type="text/css">
	.st0{fill:#0A0B0D;}
</style>
<path class="st0" d="M66.4,43.5c0,1.3-1.3,2.7-2.7,2.7l-17.5,1.7c-1.3,0-2.7-1.3-2.7-2.7V26c0-1.6-1.6-3.2-3.2-3.2H26
	c-1.6,0-3.2,1.6-3.2,3.2v139.1c0,1.6,1.6,3.2,3.2,3.2h14.3c1.6,0,3.2-1.6,3.2-3.2v-20.9c0-1.3,1.3-2.7,2.7-2.7l17.5-1.9
	c1.3,0,2.7,1.3,2.7,2.7v22.8c0,14.3-11.7,26-26,26H26c-14.3,0-26-11.7-26-26V26C0,11.7,11.7,0,26,0h14.3c14.3,0,26,11.7,26,26V43.5z
	 M122.7,0h-14.3c-14.3,0-26,11.7-26,26v162.5c0,1.3,1.3,2.7,2.7,2.7h17.5c1.3,0,2.7-1.3,2.7-2.7v-53l20.7-2.6v55.6
	c0,1.3,1.3,2.7,2.7,2.7H146c1.3,0,2.7-1.3,2.7-2.7V26C148.7,11.7,137,0,122.7,0z M126.3,112.8l-21.3,2.3V26c0-3.2,2.7-5.8,5.8-5.8
	h9.6c3.2,0,5.8,2.7,5.8,5.8V112.8z M217.7,2.7c0-1.3,1.3-2.7,2.7-2.7h17.5c1.3,0,2.7,1.3,2.7,2.7v185.9c0,1.3-1.3,2.7-2.7,2.7h-17.5
	c-1.3,0-2.7-1.3-2.7-2.7v-27.1c-11.9-14.6-22-30.3-30.3-47.3v74.3c0,1.3-1.3,2.7-2.7,2.7h-17.5c-1.3,0-2.7-1.3-2.7-2.7V2.7
	c0-1.3,1.3-2.7,2.7-2.7h17.5c1.3,0,2.7,1.3,2.7,2.7c0,44.6,7.2,82,30.3,119.5V2.7z M405.7,188l-14.6-84.1
	c8.8-4.5,14.3-10.2,14.3-20.1V26c0-14.3-11.7-26-26-26h-37.7c-1.3,0-2.7,1.3-2.7,2.7v185.9c0,1.3,1.3,2.7,2.7,2.7h17.5
	c1.3,0,2.7-1.3,2.7-2.7v-81.3l6.9-0.8l13.8,82.6c0.3,1.1,1.6,2.1,2.7,2.1H403C404.9,191.2,406,189.8,405.7,188z M382.8,79.7
	c0,2.9-2.1,5.3-5.3,5.8l-15.5,1.6v-67h15c3.2,0,5.8,2.7,5.8,5.8V79.7z M485.4,0c1.3,0,2.7,1.3,2.7,2.7v48.1
	c0,15.1-2.4,26.8-6.4,38.2c-4,11.2-9.3,21.8-15.4,34.8v64.8c0,1.3-1.3,2.7-2.7,2.7h-17.5c-1.3,0-2.7-1.3-2.7-2.7v-64.8
	c-6.1-13-11.4-23.6-15.4-34.8c-4-11.4-6.4-23.1-6.4-38.2V2.7c0-1.3,1.3-2.7,2.7-2.7h17.5c1.3,0,2.7,1.3,2.7,2.7
	c0,19.9-1.1,35.6,0,50.7c1.1,13.3,3.7,26,10.4,40.9c6.6-14.9,9.3-27.6,10.4-40.9c1.1-15.1,0-30.8,0-50.7c0-1.3,1.3-2.7,2.7-2.7
	H485.4z M297,0h-14.3c-14.3,0-26,11.7-26,26v162.5c0,1.3,1.3,2.7,2.7,2.7h17.5c1.3,0,2.7-1.3,2.7-2.7v-72l20.7-2.6v74.6
	c0,1.3,1.3,2.7,2.7,2.7h17.5c1.3,0,2.7-1.3,2.7-2.7V26C323,11.7,311.3,0,297,0z M300.6,93.8l-21.3,2.3V26c0-3.2,2.7-5.8,5.8-5.8h9.6
	c3.2,0,5.8,2.7,5.8,5.8V93.8z"/>
</svg>
