<?xml version="1.0" encoding="utf-8"?>
<!-- Generator: Adobe Illustrator 28.0.0, SVG Export Plug-In . SVG Version: 6.00 Build 0)  -->
<svg version="1.1" id="Layer_1" xmlns="http://www.w3.org/2000/svg" xmlns:xlink="http://www.w3.org/1999/xlink" x="0px" y="0px"
	 viewBox="0 0 256.8 256.8" style="enable-background:new 0 0 256.8 256.8;" xml:space="preserve">
<style type="text/css">
	.st0{fill:#0A0B0D;}
	.st1{clip-path:url(#SVGID_00000008847748869761076780000016258288187717053081_);}
	.st2{clip-path:url(#SVGID_00000104698903475719522560000007923498577472229819_);fill:#F2F2F0;}
</style>
<path class="st0" d="M145.3,93.3c6.7,0,12.2-3.4,12.2-7.6s-5.4-7.6-12.2-7.6c-6.7,0-18.1,3.7-16,11.8
	C130.3,93.9,138.6,93.3,145.3,93.3z"/>
<path class="st0" d="M180.4,129.7c2.3,1.9,4.8,3.6,6.9,5.8c0.9,0.9,1.8,1.5,3.1,1.9c2.1,0.6,4.7-1.5,4.4-3.6c0.2-1-0.4-1.9-0.9-2.7
	c-1.5-2-3.1-3.9-5.1-5.4c-0.8-0.6-1.4-1.4-2.2-2c-1.2-1.1-2.4-2.3-3.7-3.2c-1-0.7-2.2-1.4-3.5-1.7c-2.6-0.7-5.4,1.7-5.3,4.2
	c0,0.9,0.5,1.6,1.1,2.2C176.9,126.7,178.6,128.3,180.4,129.7z"/>
<path class="st0" d="M173.8,143.5c2.3,1.5,3.9,3.7,5.6,5.7c2.7,3,5.2,6.2,7.7,9.4c1.9,2.4,3.5,5,5.4,7.5c0.6,0.8,1.4,1.4,2.2,1.9
	c2.5,1.4,5.1-0.3,5.2-3.1c0-0.1,0-0.3,0-0.6c0.2-1.5-0.6-2.8-1.5-4c-2-2.9-4.2-5.7-6.4-8.5c-2.1-2.6-4.1-5.3-6.3-7.8
	c-1.9-2.1-3.9-4.2-6-6c-1.4-1.1-3-2-5-1.4c-3.1,0.9-3.3,4.2-1.6,6.1C173.3,143.1,173.6,143.3,173.8,143.5z"/>
<path d="M128.4,0C57.6,0,0,57.6,0,128.4s57.6,128.4,128.4,128.4s128.4-57.6,128.4-128.4S199.2,0,128.4,0z M19.9,128.4
	c0-59.8,48.7-108.5,108.5-108.5s108.5,48.7,108.5,108.5c0,4.9-0.3,9.6-0.9,14.3c-0.5-0.7-1-1.4-1.5-2.2c-2.3-3.5-4.5-7.2-6.9-10.7
	s-5-6.9-7.5-10.3c-1.2-1.6-2.4-3.1-3.4-4.8c-1.6-2.5-3.6-4.8-5.6-7.1c-2.7-3.1-5.5-6.1-8.3-9c-0.5-0.5-0.3-0.8,0.1-1.1
	c0.2-0.1,0.3-0.2,0.5-0.4c1.6-1.3,1.9-3.5,0.8-5.2c-0.2-0.4-0.5-0.8-0.8-1.1c-2.3-2.3-4.3-4.8-6.4-7.2c-2.7-3-5.5-5.9-8.3-8.8
	c-0.4-0.4-0.8-0.7-1.1-1.1c-2.8-3.2-6.2-5.6-9.7-8.1c-2.2-1.6-4.4-3.1-6.6-4.6c-3.9-2.7-8.1-4.7-12.5-6.5c-1.8-0.7-3.4-1.6-5.1-2.5
	c-2.1-1-4.3-1.5-6.5-1.8c-1.9-0.3-3.7-0.6-5.6-0.9c-1.9-0.3-3.7-0.5-5.6-0.7c-4-0.6-8-0.3-12-0.4c-2.3,0-4.5,0.5-6.8,0.7
	c-2.6,0.2-5,0.7-7.5,1.3c-2.8,0.6-5.7,1.3-8.5,2c-1,0.3-1.9,0.7-2.9,1.1c-1.4,0.5-2.5,1.6-3.3,2.8c-0.6,0.8-1.2,1.3-2.1,1.7
	c-4.7,1.8-9.3,4-13.7,6.4c-2,1.1-3.9,2.4-5.9,3.6c-0.4,0.2-0.8,0.5-1.2,0.7c-2.6,1.2-4.5,3.3-6.3,5.5c-1.7,2.1-3.5,4.3-4.9,6.6
	c-1,1.5-1.6,3.1-2.1,4.8c-0.9,2.9-1.8,5.8-2.8,8.7c-0.2,0.6-0.6,1.2-1.1,1.6c-3,2.9-4.5,6.6-5.8,10.3c-1.2,3.4-2.2,6.8-2.6,10.4
	c-0.2,2.1-0.8,4.2-1.1,6.3c-0.5,3.3,2.4,5.5,5.2,4.4c3.7-1.5,7.7-2,11.4-3.5c1.2-0.5,2.3-0.4,3.3,0.5c0.8,0.8,1.7,1.5,2.4,2.3
	c0.3,0.3,0.4,0.8,0.4,1.3c0.1,2.5,0.3,5,0.8,7.4c0,0.3,0,0.5,0,0.8c0.1,2.6,0.2,5.1,0.5,7.7c0.6,5.4,1.5,10.8,2.8,16.1
	c0.5,2,0.8,4,1.1,5.9c0.3,1.7,0.6,3.5,0.9,5.2c0.1,0.6,0.2,1.1,0.3,1.7c0.1,0.8,0.2,1.7,0.4,2.5c0.7,2.2,2.8,3.1,5,2.4
	c0.6-0.2,1.3-1.1,1.9-0.6c0.3,0.3,0.1,1.2,0.2,1.9c0,0.3-0.1,0.7,0.1,1c0.7,1.2,0,1.8-0.8,2.5c-1,0.9-2.1,1.8-3.1,2.8
	c-2.5,2.5-5.1,5-7.6,7.6c-2.2,2.2-4.3,4.4-6.4,6.8c-2,2.4-4,4.9-5.9,7.3c-0.7,0.8-1.3,1.7-2,2.6C33.8,189.3,19.9,160.5,19.9,128.4z
	 M102.5,104.1c-0.5-1.4-1.5-2.3-3-2.5c-0.4-0.1-0.9-0.2-1.3-0.3c-2.8-0.6-5.5-1.5-8.5-1.3c-1.7,0.1-3.4,0.2-5.1,0.4
	c-2.1,0.3-4.3,0.5-6.4,0.8c-3.6,0.5-6.8,1.9-9.7,3.8c-0.9,0.6-1.8,1.1-2.7,1.5c-0.6,0.3-1.2,0.3-1.8,0.5c0.1-0.6,0.2-1.3,0.5-1.8
	c0.6-1,1.2-2.1,2.1-2.8c1.8-1.6,3.8-2.9,5.8-4.4c1.5-1.1,2.9-2.2,4.3-3.4c1.6-1.4,3.1-2.7,5.3-3c2.5-0.4,4.9-1.3,7.4-1.7
	c1.9-0.3,3.8-0.5,5.7-1.2c1.1-0.4,2.3-0.4,3.5-0.6c1.6-0.2,2.8,0.6,3.9,1.6c0.7,0.6,1.5,1.3,2.4,1.7c0.5,0.2,0.8,0.8,1.1,1.3
	c1,1.6,1.6,3.3,2,5.1c0.7,3.3,1.9,6.4,4,9c0.4,0.6,0.8,1.2,1.2,1.8c0.5,0.8,1,1.5,1.5,2.3c-0.6,1-1.8,0.6-2.7,0.9
	c-2.3,0.8-4.7,1.6-7.1,2.1c-3.5,0.8-6.5,2.2-9.2,4.6c-0.6,0.5-1.2,1.2-1.9,1.3c-0.8,0.1-1.6-0.4-2.4-0.6c-0.4-0.1-0.7-0.3-1.1-0.4
	c-4.2-0.8-8.1-2.5-11.7-4.8c-0.7-0.4-1.3-1-2-1.6c0.5-0.9,1.4-0.7,2.2-0.9c0.4-0.1,0.9-0.2,1.3-0.3c1.5-0.2,3-0.2,4.5-0.4
	c2.1-0.4,4.2-0.6,6.3-0.4c0.6,0.1,1.3-0.2,1.9-0.2c1,0,2-0.3,2.9,0c2.2,0.6,4,0.2,5.4-1.6c0.2-0.2,0.4-0.4,0.5-0.6
	C102.9,106.8,103,105.4,102.5,104.1z M68.5,218.9c0.7-0.9,1.5-1.9,2.3-2.7c1.2-1.2,2.4-2.5,3.4-3.8c2.1-2.6,4.3-5.1,6.7-7.5
	c0.9-0.9,1.7-2,2.6-2.9c1.2-1.4,2.4-2.8,3.7-4.1c1.8-1.8,3.7-3.5,5.6-5.3c0.7-0.7,1.5-1.2,2.3-1.9c1-0.9,2.2-1.8,2.6-3.1
	c0.3-1.2,0.5-2.4,0.5-3.7c0-0.6-0.2-1.3-0.3-1.9c-0.2-0.8-0.3-1.7-0.5-2.5c-0.4-2.2-0.9-4.5-1.3-6.7c-0.5-2.4-1.1-4.8-1.4-7.3
	c-0.4-2.9-0.6-5.8-0.9-8.8c-0.1-1.1-0.6-2-1.2-2.9c-0.5-0.7-1.2-1.1-2-1.1c-1,0-2,0.1-2.9,0.2c-0.9,0.1-1.1,0.2-1.3-0.7
	c-0.2-0.8-0.2-1.5-0.4-2.3c-0.3-1.9-0.7-3.7-1-5.6c-0.3-1.9-0.4-3.8-0.9-5.6c-0.8-3-0.7-6.1-0.7-9.2c0-0.7,0.2-0.8,0.8-0.5
	c2.3,0.8,4.5,1.8,6.8,2.4c2.2,0.5,4.5,0.7,6.2-1.2c1.6-1.7,3.5-2.9,5.4-4.2c2.6-1.7,5.4-2.6,8.4-3.1c2.8-0.4,5.6-0.4,8.4-0.4
	c2.3,0,4.4-0.5,6.5-1.2c1.2-0.5,2.3-1.3,2.6-2.5c0.3-1.4,0.2-2.8-0.7-4.1c-1.4-1.9-2.7-3.9-3.9-5.9c-1.2-2.1-2.5-4.1-3.5-6.4
	c-1.3-3.3-2.7-6.5-4.3-9.7c-0.6-1.2-1.1-2.5-1.8-3.7c-1.7-2.9-4.1-5-6.8-7c-3.1-2.2-6.7-2.9-10.3-3.2c-1.5-0.2-3,0-4.5,0.3
	c-2.4,0.5-4.8,0.8-7.2,1.5c-1.9,0.5-3.8,0.6-5.7,0.9c1-0.8,1.9-1.8,3.1-2.3c2.1-0.9,4.3-1.7,6.4-2.8c4.4-2.4,9.1-4.1,14.1-5.2
	c1.5-0.3,2.7-1,3.1-2.8c0.3-1.4,1.1-1.8,2.6-1.9c1,0,2,0,3,0c1.6-0.1,3.1-0.2,4.7-0.4c2.5-0.4,4.7-0.5,7.4,0c0.3,0.1,0.7,0.1,1,0
	c2.4-1.2,5-0.6,7.6-0.7c0.5,0,1,0.1,1.5,0.2c4.1,1,8.1,2.3,12.1,3.7c1,0.3,1.9,0.8,2.9,1.2c2.2,0.9,4.4,1.8,6.5,2.8
	c1.8,0.9,3.5,2,5.3,3c1.9,1.2,3.8,2.4,5.6,3.7c1.9,1.4,3.7,2.9,5.6,4.4c1.2,1,2.3,2,3.4,3c0.3,0.3,0.4,0.6,0.1,1
	c-0.6,1-1.2,2.2-1.8,3.2c-0.5,0.8-0.5,1.7-0.2,2.5c0.4,1.1,1,2.1,2,2.9c0.6,0.4,1.1,0.9,1.7,1.3c1.3,1.1,2.7,2.1,3.9,3.3
	c1.4,1.4,3.3,2.4,4.4,4.2c0.5,0.9,1.4,1.5,2.2,2.3c0.7,0.6,1.4,1.2,2.1,1.8c2.4,2.3,4.6,4.7,7.1,7c2.2,2,3.7,4.6,5.8,6.7
	c0.8,0.8,1.4,1.7,2.1,2.6c1.3,1.8,2.5,3.7,4.1,5.3c2.6,2.6,4.4,5.8,6.7,8.8c1,1.3,0.7,2.2-0.7,2.9c-0.2,0.1-0.5,0.1-0.8,0.2
	c-2.4,1-3.1,3.8-1.5,5.8c0.8,1,1.5,2,2.2,3c3.9,5.2,7.1,10.8,10.1,16.5c0.8,1.4,1.5,2.9,2.1,4.4c-1.8,3.9-3.8,7.7-6,11.4
	c-0.5-1.4-1.1-2.8-1.6-4.1c-1.1-2.8-2.3-5.5-3.5-8.3c-0.9-2-1.8-3.9-2.8-5.8c-0.8-1.5-1.9-2-3.8-2c-2.3,0-3.7,1.1-4.4,3.2
	c-0.2,0.6-0.2,1.1,0,1.7c0.4,0.8,0.6,1.7,1.1,2.5c3.1,5.6,6.1,11.3,7.9,17.4c0.3,0.9,0.5,1.8,0.9,2.6c0.2,0.4,0.4,0.7,0.6,1
	c-2.5,3.4-5.1,6.6-8,9.6c-0.5-3.9-1.3-7.8-2.8-11.5c-0.8-2-2.1-3.8-4-5c-0.9-0.6-1.9-0.9-2.9-0.7c-2.4,0.5-3.5,2.2-2.9,4.5
	c0.1,0.4,0.2,1,0.4,1.3c1.5,1.9,1.7,4.2,2.3,6.4c0.7,2.6,1.3,5.3,1.9,7.9c0.3,1.4,0.5,2.8,0.7,4.2c-10.5,9.4-22.8,16.7-36.4,21.4
	c0.1-0.5,0.2-1,0.1-1.5c-0.3-1.9-0.6-3.7-0.9-5.6c-0.5-3.4-2.1-6.4-3.4-9.5c-1.5-3.5-3.2-7-4.8-10.5c-0.1-0.2-0.1-0.4-0.1-0.6
	c0.2,0.1,0.4,0.1,0.5,0.2c1.2,1.1,2.5,2.1,3.7,3.3c0.9,0.9,1.9,1.3,3.2,1.3c2.6-0.1,4.2-2.5,3.2-5c-0.9-2.2-2.1-4-4.1-5.4
	c-1.9-1.4-3.6-3.1-5.4-4.5c-4.3-3.3-8.7-6.3-13.4-8.9c-5-2.8-10.1-5.5-15.2-8.1c-2.3-1.1-4.6-2.3-7.1-2.8c-0.9-0.2-1.8-0.3-2.7-0.4
	v0.1c-0.5,0-0.9,0-1.4,0c-2.7,0.2-4.3,2.8-3.1,5.2c0.9,1.9,2.3,3.1,4.5,3.2c1.5,0.1,2.9,0.5,4.1,1.6c2.1,1.9,4.4,3.5,6.5,5.4
	c2.7,2.5,5.4,5,8,7.7c1.3,1.3,2.3,2.9,3.2,4.4c2.8,4.4,4.6,9.2,5.4,14.3c0.3,1.8,0.9,3.5,1.1,5.3c0.3,2.3,0.2,4.6-0.5,6.8
	c-0.7,2.6-1.6,5.1-2.4,7.6c-0.2,0.5-0.2,1-0.2,1.4c-4.7,0.6-9.5,0.9-14.3,0.9C106.3,237,85.7,230.3,68.5,218.9z"/>
<g id="Icon_Light_00000083052644325745915580000001598638978983298222_">
	<g>
		<defs>
			<rect id="SVGID_1_" x="19.9" y="19.9" width="217.1" height="217.1"/>
		</defs>
		<clipPath id="SVGID_00000088822811610308481430000000889747045354791296_">
			<use xlink:href="#SVGID_1_"  style="overflow:visible;"/>
		</clipPath>
		<g style="clip-path:url(#SVGID_00000088822811610308481430000000889747045354791296_);">
			<defs>
				<rect id="SVGID_00000000921446130253061920000018097531808131435952_" x="19.9" y="19.9" width="217.1" height="217.1"/>
			</defs>
			<clipPath id="SVGID_00000150789602931304308030000008437150754452892341_">
				<use xlink:href="#SVGID_00000000921446130253061920000018097531808131435952_"  style="overflow:visible;"/>
			</clipPath>
			<path style="clip-path:url(#SVGID_00000150789602931304308030000008437150754452892341_);fill:#F2F2F0;" d="M128.4,19.9
				c-59.8,0-108.5,48.7-108.5,108.5c0,32,14,60.9,36.1,80.8c0.7-0.9,1.3-1.7,2-2.6c2-2.5,3.9-4.9,5.9-7.3c2-2.4,4.2-4.6,6.4-6.8
				c2.5-2.6,5-5.1,7.6-7.6c1-1,2.1-1.8,3.1-2.8c0.8-0.7,1.5-1.3,0.8-2.5c-0.2-0.2,0-0.6-0.1-1c0-0.7,0.2-1.6-0.2-1.9
				c-0.6-0.6-1.2,0.4-1.9,0.6c-2.2,0.7-4.3-0.2-5-2.4c-0.3-0.8-0.3-1.7-0.4-2.5c-0.1-0.6-0.2-1.1-0.3-1.7c-0.3-1.7-0.6-3.5-0.9-5.2
				c-0.4-2-0.6-4-1.1-5.9c-1.3-5.3-2.2-10.7-2.8-16.1c-0.3-2.5-0.3-5.1-0.5-7.7c0-0.3,0-0.5,0-0.8c-0.5-2.4-0.6-4.9-0.8-7.4
				c0-0.4-0.1-1-0.4-1.3c-0.8-0.8-1.6-1.5-2.4-2.3c-1-0.9-2.1-1-3.3-0.5c-3.7,1.5-7.7,2-11.4,3.5c-2.7,1.1-5.7-1.1-5.2-4.4
				c0.3-2.1,0.9-4.2,1.1-6.3c0.4-3.6,1.4-7,2.6-10.4c1.3-3.8,2.8-7.5,5.8-10.3c0.5-0.4,0.9-1,1.1-1.6c1-2.9,2-5.8,2.8-8.7
				c0.5-1.7,1.2-3.3,2.1-4.8c1.5-2.3,3.2-4.5,4.9-6.6c1.8-2.2,3.7-4.2,6.3-5.5c0.4-0.2,0.8-0.5,1.2-0.7c2-1.2,3.9-2.5,5.9-3.6
				c4.4-2.4,9-4.6,13.7-6.4c0.9-0.3,1.6-0.8,2.1-1.6c0.8-1.2,1.8-2.2,3.3-2.8c1-0.4,1.9-0.8,2.9-1.1c2.8-0.7,5.7-1.4,8.5-2
				c2.5-0.6,4.9-1.1,7.5-1.3c2.3-0.2,4.5-0.7,6.8-0.7c4,0,8-0.3,12,0.4c1.9,0.3,3.7,0.5,5.6,0.7c1.9,0.3,3.7,0.5,5.6,0.9
				c2.2,0.4,4.5,0.8,6.5,1.8c1.7,0.9,3.4,1.8,5.1,2.5c4.4,1.8,8.6,3.8,12.5,6.5c2.2,1.5,4.4,3.1,6.6,4.6c3.4,2.4,6.8,4.9,9.7,8.1
				c0.4,0.4,0.8,0.7,1.1,1.1c2.8,2.9,5.6,5.8,8.3,8.8c2.1,2.4,4.1,4.9,6.4,7.2c0.3,0.3,0.5,0.7,0.8,1.1c1.1,1.8,0.8,3.9-0.8,5.2
				c-0.2,0.1-0.3,0.2-0.5,0.4c-0.4,0.3-0.6,0.6-0.1,1.1c2.8,3,5.6,6,8.3,9c2,2.3,4,4.5,5.6,7.1c1.1,1.6,2.3,3.2,3.4,4.8
				c2.5,3.4,5.1,6.8,7.5,10.3c2.4,3.5,4.6,7.2,6.9,10.7c0.5,0.7,1,1.4,1.5,2.2c0.6-4.7,0.9-9.5,0.9-14.3
				C236.9,68.6,188.2,19.9,128.4,19.9"/>
			<path style="clip-path:url(#SVGID_00000150789602931304308030000008437150754452892341_);fill:#F2F2F0;" d="M215,152.2
				c-0.7-1-1.5-2-2.2-3c-1.6-2-0.9-4.8,1.5-5.8c0.2-0.1,0.5-0.1,0.8-0.2c1.5-0.7,1.7-1.6,0.7-2.9c-2.2-2.9-4-6.1-6.7-8.8
				c-1.5-1.6-2.7-3.5-4.1-5.3c-0.7-0.9-1.3-1.8-2.1-2.6c-2-2.2-3.5-4.7-5.8-6.7c-2.4-2.2-4.7-4.7-7.1-7c-0.7-0.6-1.4-1.2-2.1-1.8
				c-0.8-0.7-1.7-1.4-2.2-2.3c-1.1-1.8-3-2.8-4.4-4.2c-1.2-1.2-2.6-2.2-3.9-3.3c-0.6-0.5-1.1-0.9-1.7-1.3c-1-0.7-1.6-1.7-2-2.9
				c-0.3-0.8-0.3-1.7,0.2-2.5c0.6-1.1,1.1-2.2,1.8-3.2c0.3-0.4,0.2-0.7-0.1-1c-1.1-1-2.2-2-3.4-3c-1.8-1.5-3.6-3-5.6-4.4
				c-1.8-1.3-3.7-2.5-5.6-3.7c-1.7-1.1-3.4-2.1-5.3-3c-2.1-1-4.3-1.9-6.5-2.8c-1-0.4-1.9-0.9-2.9-1.2c-4-1.4-8-2.8-12.1-3.7
				c-0.5-0.1-1-0.2-1.5-0.2c-2.5,0.1-5.1-0.5-7.6,0.7c-0.3,0.1-0.7,0.1-1,0c-2.6-0.5-4.9-0.4-7.4,0c-1.5,0.3-3.1,0.3-4.7,0.4
				c-1,0.1-2,0-3,0c-1.5,0-2.3,0.5-2.6,1.9c-0.4,1.8-1.6,2.5-3.1,2.8c-4.9,1.1-9.6,2.8-14.1,5.2c-2.1,1.1-4.3,1.9-6.4,2.8
				c-1.1,0.5-2.1,1.5-3.1,2.3c1.9-0.3,3.9-0.4,5.7-0.9c2.4-0.7,4.8-0.9,7.2-1.5c1.5-0.3,3-0.5,4.5-0.3c3.6,0.4,7.1,1,10.3,3.2
				c2.7,1.9,5.1,4.1,6.8,7c0.7,1.2,1.2,2.5,1.8,3.7c1.6,3.2,2.9,6.4,4.3,9.7c0.9,2.2,2.2,4.3,3.5,6.4c1.2,2,2.5,4,3.9,5.9
				c1,1.3,1.1,2.8,0.7,4.1c-0.3,1.2-1.3,2.1-2.6,2.5c-2.1,0.8-4.2,1.2-6.5,1.2c-2.8,0-5.7,0-8.5,0.4c-2.9,0.5-5.8,1.4-8.4,3.1
				c-1.9,1.3-3.9,2.5-5.4,4.2c-1.7,1.9-4.1,1.7-6.2,1.2c-2.3-0.6-4.6-1.5-6.8-2.4c-0.7-0.2-0.8-0.2-0.8,0.5c0,3.1-0.1,6.1,0.7,9.2
				c0.5,1.8,0.6,3.7,0.9,5.6c0.3,1.9,0.7,3.7,1,5.6c0.1,0.8,0.2,1.6,0.4,2.3c0.2,0.8,0.4,0.8,1.3,0.7c1-0.2,1.9-0.3,2.9-0.2
				c0.8,0,1.5,0.4,2,1.1c0.6,0.9,1.1,1.8,1.2,2.9c0.3,2.9,0.5,5.9,0.9,8.8c0.3,2.4,0.9,4.8,1.4,7.2c0.4,2.2,0.9,4.5,1.3,6.7
				c0.2,0.8,0.3,1.7,0.5,2.5c0.1,0.6,0.3,1.3,0.3,1.9c-0.1,1.2-0.2,2.5-0.5,3.7c-0.4,1.4-1.6,2.2-2.6,3.1c-0.7,0.7-1.5,1.2-2.3,1.9
				c-1.9,1.7-3.8,3.5-5.6,5.3c-1.3,1.3-2.5,2.7-3.7,4.1c-0.9,1-1.7,2-2.6,2.9c-2.4,2.4-4.6,4.8-6.7,7.5c-1.1,1.3-2.2,2.6-3.4,3.8
				c-0.9,0.8-1.6,1.8-2.3,2.7c17.2,11.4,37.8,18.1,59.9,18.1c4.8,0,9.6-0.3,14.3-0.9c0-0.5,0.1-0.9,0.2-1.4c0.8-2.5,1.7-5.1,2.4-7.6
				c0.7-2.2,0.8-4.5,0.5-6.8c-0.2-1.8-0.8-3.5-1.1-5.3c-0.8-5.2-2.6-9.9-5.4-14.3c-1-1.5-2-3.1-3.2-4.4c-2.6-2.7-5.3-5.2-8-7.7
				c-2.1-1.9-4.4-3.5-6.5-5.4c-1.2-1.1-2.6-1.5-4.1-1.6c-2.2-0.1-3.6-1.3-4.5-3.2c-1.1-2.4,0.4-5.1,3.1-5.2c0.5,0,0.9,0,1.4,0
				c0,0,0-0.1,0-0.1c0.9,0.1,1.8,0.2,2.7,0.4c2.5,0.5,4.8,1.6,7.1,2.8c5.1,2.6,10.2,5.3,15.2,8.1c4.7,2.6,9.1,5.7,13.4,8.9
				c1.9,1.4,3.5,3.2,5.4,4.5c2,1.4,3.2,3.2,4.1,5.4c1,2.5-0.5,4.9-3.2,5c-1.3,0-2.3-0.4-3.2-1.3c-1.2-1.1-2.4-2.2-3.7-3.3
				c-0.1-0.1-0.3-0.2-0.5-0.2c0,0.2,0,0.4,0.1,0.6c1.6,3.5,3.3,7,4.8,10.5c1.3,3.1,2.9,6.1,3.4,9.5c0.3,1.9,0.7,3.7,0.9,5.6
				c0.1,0.5,0,1-0.1,1.5c13.6-4.7,25.9-12.1,36.4-21.4c-0.2-1.4-0.4-2.8-0.7-4.2c-0.6-2.7-1.2-5.3-1.9-7.9c-0.6-2.2-0.8-4.5-2.3-6.4
				c-0.3-0.3-0.3-0.8-0.4-1.3c-0.5-2.3,0.6-4,2.9-4.5c1.1-0.2,2,0.1,2.9,0.7c1.9,1.2,3.2,3,4,5c1.5,3.7,2.3,7.5,2.8,11.5
				c2.8-3.1,5.5-6.3,8-9.6c-0.2-0.3-0.4-0.6-0.6-1c-0.4-0.8-0.7-1.7-0.9-2.6c-1.8-6.2-4.8-11.9-7.9-17.4c-0.4-0.8-0.7-1.7-1.1-2.5
				c-0.3-0.6-0.2-1.1,0-1.7c0.7-2.1,2.1-3.2,4.4-3.2c1.8,0,3,0.5,3.8,2c1,1.9,1.9,3.9,2.8,5.8c1.2,2.7,2.4,5.5,3.5,8.3
				c0.5,1.4,1.1,2.8,1.6,4.1c2.2-3.6,4.2-7.4,6-11.4c-0.7-1.5-1.4-3-2.1-4.4C222.1,163,218.9,157.4,215,152.2 M145.3,93.2
				c-6.7,0-15,0.7-16-3.4c-2-8.1,9.3-11.8,16-11.8c6.7,0,12.2,3.4,12.2,7.6C157.4,89.8,152,93.2,145.3,93.2 M179.4,118.7
				c1.2,0.3,2.4,1,3.5,1.7c1.3,1,2.5,2.1,3.7,3.2c0.7,0.7,1.4,1.4,2.2,2c2,1.5,3.7,3.4,5.1,5.4c0.6,0.8,1.1,1.6,0.9,2.7
				c0.3,2.1-2.3,4.2-4.4,3.6c-1.3-0.3-2.3-1-3.1-1.9c-2.1-2.2-4.6-3.9-6.9-5.8c-1.8-1.4-3.4-3-5.1-4.6c-0.6-0.6-1.1-1.3-1.1-2.2
				C174,120.3,176.8,118,179.4,118.7 M199.9,164.9c-0.1,2.9-2.7,4.5-5.2,3.1c-0.8-0.5-1.6-1.1-2.2-1.9c-1.8-2.4-3.5-5-5.4-7.5
				c-2.5-3.2-5-6.4-7.7-9.4c-1.8-2-3.4-4.2-5.6-5.7c-0.3-0.2-0.5-0.4-0.7-0.7c-1.6-1.9-1.5-5.2,1.7-6.1c2-0.6,3.7,0.2,5,1.4
				c2.2,1.8,4.1,3.9,6,6c2.2,2.5,4.2,5.1,6.3,7.8c2.2,2.8,4.3,5.6,6.4,8.5c0.8,1.2,1.7,2.5,1.5,4
				C199.9,164.6,199.9,164.8,199.9,164.9"/>
			<path style="clip-path:url(#SVGID_00000150789602931304308030000008437150754452892341_);fill:#F2F2F0;" d="M101.2,108.4
				c-1.4,1.8-3.2,2.3-5.4,1.6c-0.9-0.3-1.9,0-2.9,0c-0.6,0-1.3,0.2-1.9,0.2c-2.1-0.2-4.2,0-6.3,0.4c-1.5,0.3-3,0.3-4.5,0.4
				c-0.4,0-0.9,0.1-1.3,0.3c-0.8,0.2-1.7,0-2.2,0.9c0.7,0.5,1.3,1.1,2,1.6c3.6,2.3,7.5,4,11.7,4.8c0.4,0.1,0.7,0.3,1.1,0.4
				c0.8,0.2,1.6,0.8,2.4,0.6c0.7-0.1,1.3-0.8,1.9-1.3c2.7-2.3,5.7-3.8,9.2-4.6c2.4-0.5,4.7-1.4,7.1-2.1c0.9-0.3,2,0.1,2.7-0.9
				c-0.5-0.8-1-1.5-1.5-2.3c-0.4-0.6-0.8-1.2-1.2-1.8c-2.1-2.7-3.2-5.8-4-9.1c-0.4-1.8-1-3.5-2-5.1c-0.3-0.5-0.7-1-1.1-1.3
				c-0.9-0.4-1.6-1.1-2.4-1.7c-1.1-1-2.3-1.7-3.9-1.6c-1.2,0.2-2.4,0.2-3.5,0.6c-1.9,0.6-3.8,0.9-5.7,1.2c-2.5,0.4-4.9,1.3-7.4,1.7
				c-2.2,0.4-3.8,1.6-5.3,3c-1.4,1.2-2.8,2.3-4.3,3.4c-1.9,1.5-3.9,2.8-5.8,4.4c-0.9,0.7-1.5,1.8-2.1,2.8c-0.3,0.5-0.3,1.2-0.5,1.8
				c0.6-0.2,1.2-0.2,1.8-0.5c0.9-0.4,1.9-0.9,2.7-1.5c3-2,6.2-3.3,9.7-3.8c2.1-0.3,4.3-0.6,6.4-0.8c1.7-0.2,3.4-0.3,5.1-0.4
				c2.9-0.2,5.7,0.8,8.5,1.3c0.4,0.1,0.9,0.2,1.3,0.3c1.5,0.2,2.5,1.1,3,2.5c0.5,1.4,0.3,2.7-0.8,3.8
				C101.5,108,101.3,108.2,101.2,108.4"/>
		</g>
	</g>
</g>
</svg>
