<?xml version="1.0" encoding="utf-8"?>
<!-- Generator: Adobe Illustrator 28.0.0, SVG Export Plug-In . SVG Version: 6.00 Build 0)  -->
<svg version="1.1" id="Layer_1" xmlns="http://www.w3.org/2000/svg" xmlns:xlink="http://www.w3.org/1999/xlink" x="0px" y="0px"
	 viewBox="0 0 719.5 358.5" style="enable-background:new 0 0 719.5 358.5;" xml:space="preserve">
<style type="text/css">
	.st0{fill:#87FFB9;}
	.st1{fill:#F2F2F0;}
</style>
<path class="st0" d="M297.9,116.9c0,1.3-1.3,2.7-2.7,2.7l-17.5,1.7c-1.3,0-2.7-1.3-2.7-2.7V99.4c0-1.6-1.6-3.2-3.2-3.2h-14.3
	c-1.6,0-3.2,1.6-3.2,3.2v139.1c0,1.6,1.6,3.2,3.2,3.2h14.3c1.6,0,3.2-1.6,3.2-3.2v-20.9c0-1.3,1.3-2.7,2.7-2.7l17.5-1.9
	c1.3,0,2.7,1.3,2.7,2.7v22.8c0,14.3-11.7,26-26,26h-14.3c-14.3,0-26-11.7-26-26V99.4c0-14.3,11.7-26,26-26h14.3
	c14.3,0,26,11.7,26,26V116.9z M354.2,73.4h-14.3c-14.3,0-26,11.7-26,26v162.5c0,1.3,1.3,2.7,2.7,2.7H334c1.3,0,2.7-1.3,2.7-2.7v-53
	l20.7-2.6v55.6c0,1.3,1.3,2.7,2.7,2.7h17.5c1.3,0,2.7-1.3,2.7-2.7V99.4C380.2,85,368.5,73.4,354.2,73.4z M357.8,186.2l-21.3,2.3
	V99.4c0-3.2,2.7-5.8,5.8-5.8h9.6c3.2,0,5.8,2.7,5.8,5.8V186.2z M449.2,76c0-1.3,1.3-2.7,2.7-2.7h17.5c1.3,0,2.7,1.3,2.7,2.7v185.9
	c0,1.3-1.3,2.7-2.7,2.7h-17.5c-1.3,0-2.7-1.3-2.7-2.7v-27.1c-11.9-14.6-22-30.3-30.3-47.3v74.3c0,1.3-1.3,2.7-2.7,2.7h-17.5
	c-1.3,0-2.7-1.3-2.7-2.7V76c0-1.3,1.3-2.7,2.7-2.7h17.5c1.3,0,2.7,1.3,2.7,2.7c0,44.6,7.2,82,30.3,119.5V76z M637.2,261.3
	l-14.6-84.1c8.8-4.5,14.3-10.2,14.3-20.1V99.4c0-14.3-11.7-26-26-26h-37.7c-1.3,0-2.7,1.3-2.7,2.7v185.9c0,1.3,1.3,2.7,2.7,2.7h17.5
	c1.3,0,2.7-1.3,2.7-2.7v-81.3l6.9-0.8l13.8,82.6c0.3,1.1,1.6,2.1,2.7,2.1h17.8C636.4,264.5,637.5,263.2,637.2,261.3z M614.3,153.1
	c0,2.9-2.1,5.3-5.3,5.8l-15.5,1.6v-67h15c3.2,0,5.8,2.7,5.8,5.8V153.1z M716.9,73.4c1.3,0,2.7,1.3,2.7,2.7v48.1
	c0,15.1-2.4,26.8-6.4,38.2c-4,11.2-9.3,21.8-15.4,34.8v64.8c0,1.3-1.3,2.7-2.7,2.7h-17.5c-1.3,0-2.7-1.3-2.7-2.7v-64.8
	c-6.1-13-11.4-23.6-15.4-34.8c-4-11.4-6.4-23.1-6.4-38.2V76c0-1.3,1.3-2.7,2.7-2.7h17.5c1.3,0,2.7,1.3,2.7,2.7
	c0,19.9-1.1,35.6,0,50.7c1.1,13.3,3.7,26,10.4,40.9c6.6-14.9,9.3-27.6,10.4-40.9c1.1-15.1,0-30.8,0-50.7c0-1.3,1.3-2.7,2.7-2.7
	H716.9z M528.5,73.4h-14.3c-14.3,0-26,11.7-26,26v162.5c0,1.3,1.3,2.7,2.7,2.7h17.5c1.3,0,2.7-1.3,2.7-2.7v-72l20.7-2.6v74.6
	c0,1.3,1.3,2.7,2.7,2.7h17.5c1.3,0,2.7-1.3,2.7-2.7V99.4C554.5,85,542.8,73.4,528.5,73.4z M532.1,167.2l-21.3,2.3V99.4
	c0-3.2,2.7-5.8,5.8-5.8h9.6c3.2,0,5.8,2.7,5.8,5.8V167.2z"/>
<path class="st1" d="M100.4,9.4c1.5-0.4,3-0.6,4.4-0.9c0.9-0.2,1.8-0.3,2.7-0.2c2.2,0.2,4.4,0.6,6.3,2c1.7,1.2,3.1,2.5,4.2,4.3
	c0.4,0.7,0.7,1.5,1.1,2.3c1,1.9,1.8,3.9,2.6,5.9c0.6,1.4,1.4,2.6,2.1,3.9c0.7,1.2,1.5,2.4,2.4,3.6c0.6,0.8,0.7,1.7,0.5,2.5
	c-0.2,0.7-0.8,1.3-1.6,1.5c-1.3,0.5-2.6,0.7-4,0.8c-1.7,0-3.5,0-5.2,0.3c-1.8,0.3-3.6,0.9-5.1,1.9c-1.2,0.8-2.4,1.5-3.3,2.6
	c-1.1,1.2-2.5,1.1-3.8,0.7c-1.4-0.4-2.8-0.9-4.2-1.4c-0.4-0.1-0.5-0.1-0.5,0.3c0,1.9,0,3.8,0.4,5.6c0.3,1.1,0.3,2.3,0.5,3.4
	c0.2,1.1,0.4,2.3,0.6,3.4c0.1,0.5,0.1,1,0.2,1.4c0.1,0.5,0.3,0.5,0.8,0.4c0.6-0.1,1.2-0.2,1.8-0.1c0.5,0,0.9,0.2,1.2,0.7
	c0.4,0.5,0.7,1.1,0.7,1.7c0.2,1.8,0.3,3.6,0.5,5.4c0.2,1.5,0.6,3,0.9,4.4c0.3,1.4,0.5,2.7,0.8,4.1c0.1,0.5,0.2,1,0.3,1.5
	c0.1,0.4,0.2,0.8,0.2,1.2c-0.1,0.8-0.1,1.5-0.3,2.2c-0.2,0.8-1,1.3-1.6,1.9c-0.4,0.4-0.9,0.8-1.4,1.2c-1.2,1.1-2.3,2.1-3.4,3.2
	c-0.8,0.8-1.5,1.7-2.3,2.5c-0.5,0.6-1,1.2-1.6,1.8c-1.5,1.4-2.8,3-4.1,4.6c-0.6,0.8-1.3,1.6-2.1,2.3c-1.3,1.3-2.3,2.8-3.2,4.3
	c-1.2,2-2.3,4-3.5,6c-1.2,2.1-2.4,4.2-3.6,6.4c-0.9,1.7-1.6,3.4-2.3,5.1c-0.9,2.1-1.6,4.3-2.4,6.5c0,0.1-0.2,0.2-0.2,0.3
	c0,2-1.4,3.4-2.1,5.1c-0.3,0.7-0.7,1.3-1,1.9c-0.7,1.2-1.3,2.4-2,3.6c-0.3,0.5-0.6,0.9-0.8,1.3c-1.7,3.2-3.5,6.4-5.1,9.7
	c-1,2-1.7,4-2.4,6.1c-0.6,1.6-0.9,3.4-1.4,5c-0.5,1.7-0.9,3.4-1.8,4.9c-3.2,5.5-5.8,11.3-8.7,17c-0.9,1.8-1.6,3.7-2.3,5.6
	c-0.6,1.6-1.3,3.3-1.9,4.9c-0.3,0.8-0.6,1.6-0.8,2.4c-0.3,1-0.4,1.9-0.8,2.9c-0.2,0.6-0.1,1,0,1.5c0.1,0.5,0.5,0.6,0.8,0.5
	c0.6-0.1,1.2-0.3,1.7-0.8c0.1-0.1,0.3-0.3,0.4-0.4c1.5-1.6,3.2-3.1,4.7-4.7c1-1.1,1.9-2.3,2.9-3.4c0.5-0.7,1-1.3,1.5-2
	c0.7-1.1,1.4-2.2,2-3.3c0.6-1.1,1.3-2.2,1.8-3.4c0.8-1.6,1.8-3,3-4.4c1.2-1.3,2.4-2.6,3.6-3.9c1.3-1.4,2.6-2.8,3.9-4.1
	c0.5-0.5,1.1-1,1.8-1.4c1.8-1.2,3.4-2.6,4.8-4.4c0.7-0.9,1.6-1.7,2.3-2.6c0.5-0.5,0.9-1.1,1.3-1.5c0.9-0.9,1.9-1.8,2.9-2.6
	c1.2-1,2.4-2,3.6-2.9c1.5-1.2,3.1-2.4,4.6-3.7c1-0.8,1.8-1.8,2.6-2.9c0.7-1,1.8-1.6,3-1.7c0.9-0.1,1.7-0.3,2.5-0.7
	c1.7-1,3.3-2.1,5.1-2.9c0.1-0.1,0.3-0.1,0.4-0.3c0.8-0.9,1.8-1.5,2.8-2.1c1.3-0.8,2.5-1.9,3.7-2.9c1.7-1.4,3.1-3.1,4.5-4.8
	c0.4-0.5,0.7-1,1-1.5c0.8-1.5,1.5-3,2.3-4.5c1.6-3.1,2.7-6.4,3.7-9.7c0.2-0.5,0.1-1,0.1-1.6c0-0.5,0-1.1,0.4-1.5
	c0.4-0.5,0.5-1,0.6-1.5c0.2-0.8,0.6-1.5,1.2-2.1c0.7-0.7,1.6-0.6,2.3-0.3c0.7,0.3,1.2,0.9,1.2,1.7c0,0.9,0,1.7-0.2,2.6
	c-0.5,2.7-1.1,5.3-2,7.8c-0.8,2.3-1.8,4.5-2.7,6.8c-0.9,2.3-1.9,4.6-2.9,7c-1,2.3-2.1,4.5-3.4,6.6c-1,1.8-2.3,3.4-3.6,5
	c-0.4,0.6-1,1.1-1.5,1.6c-1.4,1.2-2.9,2.3-4.4,3.4c-0.5,0.4-1,0.7-1.4,1.1c-0.8,0.7-1.7,1.1-2.6,1.4c-2.5,0.7-4.7,2.1-6.6,3.7
	c-2.2,1.8-4.3,3.7-6.5,5.5c-0.6,0.5-1.2,1-1.8,1.6c-2.4,2.3-4.7,4.7-7,7c-1.5,1.5-2.9,3.2-4.3,4.7c-0.2,0.2-0.4,0.4-0.6,0.6
	c-1.9,1.8-3.5,3.9-5.2,5.9c-1.2,1.5-2.6,3-3.9,4.4c-0.9,1-1.8,2.1-2.6,3.1c-1,1.2-2,2.5-3,3.7c-1.8,2.3-3.9,4.2-6,6.2
	c-1.4,1.3-2.9,2.5-4.4,3.7c-1.1,0.9-2.1,2-3.2,2.7c-2.2,1.4-3.1,3.6-4.1,5.8c-0.9,2.1-1.7,4.3-2.5,6.5c-0.3,0.7-0.4,1.5-0.7,2.3
	c-0.8,2.5-1.7,5-2.5,7.5c-0.6,1.8-1.2,3.6-1.9,5.4c-0.5,1.3-0.7,2.6-1,3.9c-0.6,2.8-1.5,5.5-2.5,8.2c-1.1,3.2-2,6.5-2.9,9.7
	c-0.6,2-1.2,4-1.8,6c-0.2,0.8-0.6,1.5-0.8,2.2c-0.5,1.7-1,3.4-1.5,5.2c-0.3,1-0.5,1.9-1,2.8c-0.7,1.3-1,2.6-1.4,3.9
	c-0.6,1.7-1,3.5-1.6,5.3c-0.8,2.5-1.5,4.9-2.1,7.4c-0.1,0.5-0.3,1-0.5,1.5c-0.8,2.5-1.6,5-2.4,7.5c-1.3,3.6-2.6,7.3-4,10.9
	c-1.4,3.8-3.2,7.5-4.3,11.4c-0.3,1.1-0.9,2.1-1.3,3.1c-1.1,2.8-2.2,5.6-3.2,8.4c-0.5,1.3-1,2.6-1.5,3.9c-0.4,1.3-0.8,2.7-1.2,4
	c-0.5,1.7-1.1,3.3-1.6,5c-0.4,1.3-0.7,2.6-1,3.9c-0.2,1-0.5,1.9-0.7,2.9c-0.2,0.8,0.2,1.6,0.5,2.3c0.9,1.9,1.9,3.7,2.9,5.5
	c0.9,1.6,1.9,3.1,2.8,4.6c0.2,0.3,0.3,0.5,0.5,0.8c0.1-0.3,0.4-0.6,0.4-0.9c0.3-1.4,0.7-2.9,1-4.3c0.2-0.8,0.2-1.6,0.3-2.4
	c0.2-1.9,0.4-3.8,0.9-5.6c0.4-1.5,0.7-3.1,1-4.7c0.1-0.5,0.2-1.1,0.2-1.7c0.1-1.8,0.7-3.5,1-5.3c0.1-0.4,0.1-0.9-0.1-1.3
	c-0.2-0.5-0.2-1,0.1-1.5c1.2-2.2,1.8-4.7,2.4-7.1c0.6-2.1,1.1-4.2,1.7-6.3c0.5-1.7,1.1-3.4,1.5-5.2c0.3-1.2,0.7-2.3,1.2-3.4
	c0.5-1.4,0.8-2.8,1.3-4.2c0.7-2,1.6-3.9,2.3-5.9c1.7-4.6,4-8.9,6.2-13.3c0.5-1,0.9-2,1.5-2.9c0.9-1.3,1.8-2.5,2.8-3.8
	c0.4-0.5,1.4-0.7,2-0.4c0.6,0.3,1.1,1.2,1,1.9c-0.1,0.5-0.2,1-0.4,1.5c-1.8,4.4-3.6,8.8-5.3,13.2c-0.7,1.8-1.2,3.7-2,5.5
	c-0.6,1.3-1.2,2.6-1.8,3.9c-1.2,2.6-2.3,5.1-3.2,7.8c-0.9,2.8-2,5.5-2.9,8.2c-0.7,2.1-1.3,4.3-1.9,6.4c-0.6,2.1-1.1,4.2-1.6,6.2
	c-0.4,1.9-0.8,3.8-1.1,5.7c-0.2,1.2-0.5,2.5-0.7,3.7c-0.1,0.8,0,1.7,0.5,2.4c0.7,1,1.3,2.1,2,3.1c0.4,0.6,0.5,0.5,1.2,0.3
	c0.8-0.3,1.1-0.7,1.2-1.6c0.1-1.4,0.5-2.7,0.8-4.1c0.2-1.2,0.4-2.3,0.7-3.5c0.2-0.9,0.4-1.7,0.5-2.6c0.5-2.2,0.9-4.4,1.4-6.5
	c0.4-1.7,0.9-3.3,1.3-5c0.1-0.4,0.2-0.8,0.4-1.3c0.2-0.6,0.4-1.2,0.8-1.7c0.3-0.3,0.5-0.8,0.7-1.3c0.6-1.1,1.1-2.3,1.7-3.4
	c0.7-1.5,1.5-2.9,2.1-4.4c0.6-1.3,1.1-2.7,1.7-4.1c1.5-3.7,3.4-7.3,5.2-10.8c0.2-0.4,0.5-0.7,0.7-1.1c0.2-0.3,0.5-0.6,0.7-1
	c0.6-1.1,1.1-2.2,1.7-3.3c1-2.1,2.3-4.1,3.4-6.1c1.2-2,2.3-4,3.4-6c1-1.8,2-3.5,3.1-5.3c0.8-1.3,1.5-2.6,2.3-3.9
	c0.3-0.5,0.6-1,1-1.5c0.8-1.2,1.5-2.4,2.1-3.6c0.4-0.9,1-1.7,1.5-2.5c1.1-1.9,2.2-3.8,3.4-5.6c1.4-2.1,3-4.1,4.3-6.2
	c1.4-2.2,3.3-4.1,4.7-6.3c0.2-0.3,0.4-0.5,0.7-0.7c0.9-1,1.8-2,2.7-2.9c0.3-0.3,0.6-0.7,1-0.9c0.6-0.3,0.7-0.8,0.7-1.4
	c0-0.6-0.3-1.1-0.8-1.5c-1-0.8-2.1-0.9-3.3-0.9c-0.3,0-0.7,0.2-1,0.3c-1,0.4-1.9,1-2.9,1.4c-1.6,0.6-3,0.2-4.3-0.8
	c-0.7-0.5-1.2-1.2-1.7-1.9c-1.9-2.8-3.6-5.7-5-8.8c-0.9-2-1.6-4.1-2-6.4c-0.4-2.2-0.2-4.3-0.2-6.5c0-0.7,0.3-1.5,0.5-2.2
	c0.7-2.4,1.5-4.7,2.5-6.9c0.5-1,1.2-2,1.7-3c0.8-1.6,2-2.9,2.9-4.4c0.8-1.3,1.5-2.6,1.8-4.2c0.3-1.5,1.5-2.3,2.9-2.3
	c0.9,0,2.3,1.2,2.2,2.2c-0.1,0.8-0.2,1.7-0.4,2.5c-0.5,2-1.4,3.7-2.5,5.4c-0.9,1.4-1.9,2.8-2.7,4.2c-0.3,0.5-0.6,1.2-0.7,1.8
	c-0.2,1.3-0.2,2.6-0.3,4c-0.1,1.1,0.2,2.1,0.5,3.2c0.3,0.9,0.7,1.9,1,2.8c0.5,1.6,1.4,2.9,2.4,4.1c1.3,1.5,2.6,3,3.5,4.7
	c0.1,0.1,0.1,0.2,0.2,0.3c0.8,1.1,1,1.1,2.1,0.3c0.4-0.3,0.8-0.5,1.2-0.7c0.2-0.1,0.4-0.3,0.2-0.6c-0.9-1.2-1.2-2.8-1.8-4.1
	c-0.7-1.3,0.1-3.3,2-3.4c0.7-0.1,1.5,0,2.2,0c1.5,0.1,2.9-0.3,4.3-0.6c1.9-0.4,3.7-1,5.5-1.5c2.3-0.6,4.6-1.2,6.9-1.8
	c2-0.5,3.8-1.3,5.8-2c0.8-0.3,1.6-0.6,2.4-1.1c1.4-0.8,2.9-1.3,4.5-1.6c0.4-0.1,0.8-0.3,1.1-0.5c1-0.8,2.1-1.5,3-2.5
	c0.5-0.6,1.1-0.8,1.8-0.7c1,0.1,1.9,0.6,2.7,1.2c0.5,0.4,0.5,1.1,0.4,1.8c-0.3,1.2-1,2.3-2.1,3c-2,1.5-4,3-6.1,4.4
	c-1.4,1-2.9,1.8-4.4,2.7c-1,0.6-2,1.3-3.1,1.8c-2.4,1.1-4.7,2.6-7.4,3.1c-1.9,0.3-3.6,0.8-5.4,1.4c-1,0.3-2,0.6-3,0.8
	c-0.2,0.1-0.4,0.1-0.3,0.4c0.5,1.4-0.1,2.4-0.9,3.5c-0.7,0.9-0.6,1.8-0.1,2.3c0.1,0.1,0.3,0.3,0.5,0.3c0.8,0,1.7,0.3,2.5-0.2
	c1.3-0.8,2.5-1.6,3.7-2.4c2.2-1.5,4.3-3.1,6.6-4.4c1.7-0.9,3.4-1.9,5.2-2.8c1.1-0.6,2.4-1,3.4-1.8c0.3-0.2,0.7-0.2,1-0.4
	c0.8-0.4,1.7-0.7,2.3-1.2c1.4-1.2,3.1-1.9,4.9-2.5c1.8-0.6,3.5-1.3,5.2-2c0.5-0.2,1-0.2,1.5-0.3c0.8-0.2,1.7-0.5,2.5-0.7
	c0.8-0.2,1.5-0.4,2.3-0.7c0.7-0.3,1.4-0.6,2-1c1.8-1.2,3.4-2.5,5.2-3.7c1.5-1,3-2,4.5-3c0.2-0.2,0.5-0.3,0.7-0.5
	c1.1-1.3,2.6-2.2,3.9-3.1c0.3-0.2,0.5-0.4,0.8-0.6c3.1-3,6.2-6.1,9.3-9c1-1,1.9-2,3-3c0.8-0.8,1.7-1.5,2.5-2.3
	c0.9-0.9,1.7-1.8,2.5-2.8c0.7-0.8,1.4-1.8,2.2-2.6c2.3-2.3,4.5-4.6,6.3-7.3c1.5-2.3,3.3-4.4,4.9-6.7c1-1.4,1.9-3,2.7-4.5
	c1.2-2.3,2.5-4.5,3.8-6.8c0.5-0.9,0.9-1.8,1.2-2.7c0.9-2.3,2-4.5,3.1-6.8c0.5-0.9,0.8-1.9,1.2-2.9c0.8-2.2,1.6-4.3,2.4-6.5
	c1.1-3.1,2.1-6.2,2.9-9.5c0.3-1.1,0.4-2.2,0.6-3.3c0.1-0.6,0.2-1.3,0.3-1.9c0.4-1.9,0.8-3.7,1.2-5.6c0.2-0.9,0.2-1.9,0.3-2.9
	c0.1-0.9,0.2-1.7,0.3-2.6c0.1-1.1,0.3-2.1,0.4-3.2c0.3-1.9,0.2-3.8,0.2-5.7c0-0.9-0.1-1.8-0.2-2.8c-0.1-0.9,0.1-1.8-0.2-2.6
	c-0.1-0.1,0-0.3,0-0.5c-0.1-1.6-0.1-3.3-0.3-4.9c-0.1-1-0.2-2-0.2-3c0.1-1,0.4-1.9,1.4-2.3c0.6-0.3,1.2-0.6,1.8-0.9
	c0.3-0.1,0.4-0.3,0.4-0.7c0-0.2,0-0.3,0-0.5c-0.5-2.2-1.1-4.4-1.6-6.6c-0.2-0.9-0.4-1.9-0.5-2.8c-0.2-1.2-0.5-2.4-1-3.5
	c-1.3-3-2.4-6-3.9-8.9c-1.9-3.5-3.8-6.9-6.2-10.1c-0.5-0.6-0.9-1.2-1.4-1.8c-1-1.2-0.5-2.9,0.9-3.6c0.1-0.1,0.3-0.1,0.5-0.1
	c0.9-0.4,1.1-1,0.5-1.8c-1.3-1.8-2.5-3.7-4.1-5.4c-0.9-1-1.7-2.2-2.5-3.2c-0.4-0.5-0.8-1.1-1.3-1.6c-1.2-1.3-2.2-2.9-3.5-4.1
	c-1.5-1.4-2.9-2.8-4.3-4.3c-0.4-0.4-0.9-0.7-1.3-1.1c-0.5-0.4-1-0.8-1.4-1.4c-0.7-1.1-1.8-1.7-2.7-2.6c-0.7-0.7-1.6-1.3-2.4-2
	c-0.3-0.3-0.7-0.6-1-0.8c-0.6-0.4-1-1.1-1.2-1.8c-0.2-0.5-0.2-1,0.1-1.5c0.4-0.6,0.7-1.3,1.1-2c0.2-0.3,0.2-0.4-0.1-0.6
	c-0.7-0.6-1.4-1.2-2.1-1.8c-1.1-0.9-2.2-1.8-3.4-2.7c-1.1-0.8-2.3-1.5-3.4-2.2c-1.1-0.7-2.1-1.3-3.2-1.9c-1.3-0.6-2.6-1.2-4-1.7
	c-0.6-0.3-1.2-0.5-1.8-0.7c-2.4-0.9-4.9-1.7-7.4-2.3c-0.3-0.1-0.6-0.2-0.9-0.1c-1.6,0.1-3.1-0.3-4.6,0.4c-0.2,0.1-0.4,0-0.6,0
	c-1.6-0.3-3-0.3-4.5,0c-0.9,0.2-1.9,0.2-2.9,0.3c-0.6,0-1.2,0-1.8,0c-0.9,0-1.4,0.3-1.6,1.1c-0.2,1.1-1,1.5-1.9,1.7
	c-3,0.7-5.9,1.7-8.6,3.2c-1.3,0.7-2.6,1.2-3.9,1.7c-0.7,0.3-1.3,0.9-1.9,1.4c-0.1,0-0.1,0.1-0.2,0.1c0.1,0,0.1-0.1,0.2-0.1
	C98.1,9.8,99.3,9.7,100.4,9.4z M106,14.2c-1.1,0.4-2.3,0.5-3.5,0.7c-1.5,0.2-3,0.8-4.5,1.1c-1.3,0.2-2.3,1-3.3,1.9
	c-0.8,0.8-1.7,1.4-2.6,2.1c-1.2,0.9-2.4,1.7-3.5,2.7c-0.5,0.5-0.9,1.1-1.3,1.7c-0.2,0.3-0.2,0.7-0.3,1.1c0.4-0.1,0.8-0.1,1.1-0.3
	c0.6-0.3,1.1-0.6,1.7-0.9c1.8-1.2,3.8-2,6-2.4c1.3-0.2,2.6-0.3,3.9-0.5c1-0.1,2.1-0.2,3.1-0.2c1.8-0.1,3.5,0.5,5.2,0.8
	c0.3,0.1,0.5,0.1,0.8,0.2c0.9,0.1,1.6,0.7,1.9,1.5c0.3,0.8,0.2,1.7-0.5,2.3c-0.1,0.1-0.2,0.2-0.3,0.4c-0.9,1.1-2,1.4-3.3,1
	c-0.6-0.2-1.2,0-1.8,0c-0.4,0-0.8,0.2-1.2,0.1c-1.3-0.1-2.6,0-3.9,0.2c-0.9,0.2-1.8,0.2-2.7,0.3c-0.3,0-0.6,0.1-0.8,0.2
	c-0.5,0.2-1.1,0-1.3,0.6c0.4,0.3,0.8,0.7,1.2,1c2.2,1.4,4.6,2.4,7.2,2.9c0.2,0,0.5,0.2,0.7,0.2c0.5,0.2,1,0.5,1.5,0.4
	c0.4-0.1,0.8-0.5,1.2-0.8c1.6-1.4,3.5-2.3,5.6-2.8c1.5-0.3,2.9-0.8,4.3-1.3c0.5-0.2,1.2,0.1,1.6-0.5c-0.3-0.5-0.6-0.9-0.9-1.4
	c-0.2-0.4-0.5-0.7-0.8-1.1c-1.3-1.6-2-3.5-2.4-5.5c-0.2-1.1-0.6-2.2-1.2-3.1c-0.2-0.3-0.4-0.6-0.7-0.8c-0.6-0.3-1-0.7-1.4-1.1
	c-0.7-0.6-1.4-1.1-2.4-1C107.5,13.9,106.7,14,106,14.2z M114.2,226.4c2,1.3,4.2,2.4,6.4,3.2c0.6,0.2,1.1,0.4,1.6,0.8
	c1.1,0.7,2.3,1.1,3.5,1.5c0.2,0.1,0.4,0.1,0.5,0c0.5-0.4,0.9-0.8,1.4-1.1c0.3-0.3,0.4-0.6,0.1-0.9c-0.9-1.2-1.8-2.4-2.7-3.7
	c-0.6-0.8-1.2-1.6-1.7-2.5c-0.4-0.6-0.9-0.8-1.5-1.1c-1.3-0.5-2.5-0.4-3.8,0.2c-0.6,0.3-1.3,0.5-1.9,0.7c-0.8,0.3-1.4,0.9-2,1.6
	c-0.2,0.3-0.3,0.6-0.5,1C114,226.2,114.1,226.3,114.2,226.4z M82.8,239.2c0.4-0.4,1.1-0.3,1.5,0c0.5,0.5,5.2,6.1,6.4,7.3
	c0.5,0.5,1.1,1,1.5,1.6c0.5,0.9,1.3,1.3,2.2,1.5c1.2,0.4,2.5,0.8,3.8,1.2c1.2,0.4,2.4,0.9,3.7,1c1.9,0.2,3.9,0.2,5.8,0.3
	c0.7,0,1.5,0,2.2,0c0,0,0,0,0,0c1.3,0,2.7,0,4,0c0.4,0,1,0.1,1.4,0.1c1.1,0.2,2.2,0.4,3.2,0.6c2.5,0.3,4.8,1.1,6.8,2.6
	c1.1,0.8,1.5,2.6,0.8,3.8c-0.1,0.2-0.3,0.4-0.5,0.5c-0.8,0.4-1.5,0.8-2.5,0.5c-1.5-0.4-3-0.7-4.5-0.6c-0.1,0-0.3,0-0.4,0
	c-1.6-0.4-3.2-0.3-4.8-0.4c-2.3-0.1-4.6-0.1-6.9,0.1c-1.7,0.2-3.4,0.1-5.1-0.1c-1.7-0.2-3.4-0.1-5.1,0.1c-1.4,0.2-2.9,0.4-4.3,0.7
	c-1.2,0.2-2.5,0.4-3.7,0.7c-0.4,0.1-0.8,0.2-1.2,0.3c-1.2,0.2-2.5,0.2-3.8,0.6c-1.6,0.6-3.1,0.1-4.7-0.4c-0.6-0.2-0.9-0.6-1.2-1.1
	c-0.7-1.1,0.4-3,1.4-3.4c1.4-0.5,2.8-1,4.2-1.5c0.8-0.3,1.6-0.7,2.4-1.1c0.8-0.4,0.9-0.9,0.4-1.6c-0.6-0.7-1.2-1.4-1.7-2.2
	c-0.3-0.4-5.3-6.1-5.4-6.3c-0.4-0.5-0.4-1.2,0.1-1.6L82.8,239.2z M134.7,234.1c0.4-0.5,1.2-0.6,1.8-0.2c0.9,0.6,5.9,3.6,6.8,4.2
	c1.9,1.4,3.6,2.1,5.5,3.5c2.1,1.6,4.1,3.2,6.1,4.9c1.5,1.2,3,2.3,4.6,3.3c1.4,0.8,2.9,1.6,4.2,2.5c1,0.6,2,0.9,3.1,0.9
	c0.4,0,0.8,0,1.1,0.1c2,0.4,3.9,0.8,5.8,1.4c1.2,0.4,2.5,0.5,3.7,0.9c2,0.6,4,1.5,5.8,2.6c1.1,0.7,2,1.6,2.6,2.8
	c0.7,1.3,0.3,2.8-1,3.5c-0.7,0.4-1.3,0.6-2.1,0.3c-1.3-0.4-2.7-0.4-3.9-1.2c-1.6-1-3.4-1.3-5.3-1.3c-0.4,0-1-0.1-1.4-0.2
	c-1.6-0.4-3.2-0.3-4.8-0.5c-1.3-0.2-2.7-0.2-4.1-0.3c-0.1,0-0.2,0-0.2,0c-1.1-0.1-2.2-0.3-3.3-0.4c-1.4-0.1-2.7-0.1-4.1-0.2
	c-2-0.2-4,0-6-0.3c-0.9-0.1-1.9,0.2-2.9,0.2c-3.1,0.1-6.2,0.1-9.3-0.4c-1.4-0.2-2.2-0.8-2.5-2c-0.4-1.5-0.2-3,1.9-3.7
	c1.5-0.4,3-0.5,4.5-0.7c0.4-0.1,0.9,0,1.3,0c1-0.1,2-0.3,3.1-0.4c1.6-0.1,3.3-0.2,4.9-0.2c0,0,0.1,0,0.1,0c0.1,0,0.1-0.1,0.2-0.1
	c-0.1-0.1-0.1-0.2-0.2-0.3c-1-0.4-1.7-1.1-2.3-2.1c-0.1-0.2-0.3-0.2-0.5-0.3c-0.9-0.6-1.9-1.1-2.7-1.8c-1.5-1.3-3-3.3-4.7-4.3
	c-1.9-1.1-6.3-4.7-8-5.9c-0.5-0.3-0.6-1-0.2-1.4L134.7,234.1z M145.9,103.4c-0.9-0.1-1.8-0.5-2-1.5c-0.3-1.3-0.9-2.4-1.1-3.8
	c-0.1-0.6-0.3-1.2-0.5-1.7c0,0-0.1-0.1-0.1-0.1c0,0-0.1,0.1-0.1,0.1c0.1,0.5-0.4,1-0.1,1.5c0.1,0.2,0.1,0.6,0.1,0.8
	c-0.1,0.9-0.2,1.7-0.5,2.6c-0.4,1.4-0.7,2.8-1.4,4.1c-0.5,1-2.5,1.6-3.6,1.1c-1.1-0.6-1.6-1.7-1.2-2.9c0.5-1.6,1-3.1,1.5-4.7
	c0.4-1.4,0.5-2.8,0.3-4.2c-0.1-1.1-0.5-2.2-0.7-3.3c-0.5-3.2-1.6-6.1-3.3-8.8c-0.6-0.9-1.2-1.9-2-2.7c-1.6-1.6-3.2-3.2-4.9-4.7
	c-1.3-1.2-2.7-2.2-4-3.3c-0.7-0.7-1.6-0.9-2.5-1c-1.4-0.1-2.2-0.8-2.8-2c-0.7-1.5,0.3-3.1,1.9-3.2c0.3,0,0.6,0,0.8,0
	c0,0,0-0.1,0-0.1c0.6,0.1,1.1,0.1,1.7,0.2c1.5,0.3,3,1,4.3,1.7c3.1,1.6,6.2,3.3,9.3,5c2.9,1.6,5.6,3.5,8.2,5.5
	c1.1,0.9,2.2,1.9,3.3,2.8c1.2,0.9,2,2,2.5,3.3c0.6,1.5-0.3,3-1.9,3.1c-0.8,0-1.4-0.2-1.9-0.8c-0.7-0.7-1.5-1.3-2.2-2
	c-0.1-0.1-0.2-0.1-0.3-0.1c0,0.1,0,0.3,0.1,0.4c1,2.1,2,4.3,2.9,6.4c0.8,1.9,1.8,3.8,2.1,5.8c0.2,1.1,0.4,2.3,0.6,3.4
	c0.1,0.7-0.2,1.4-0.6,2C147.4,103.2,146.6,103.5,145.9,103.4z M116.9,100.1c0.4,0.6,0.7,1.2,0.7,1.9c-0.1,0.7-0.3,1.5-0.5,2.2
	c-0.3,1.2-0.8,2.4-1,3.7c-0.6,2.7-1.9,5.2-3.3,7.5c-0.6,1-1.2,2.1-2.2,2.9c-0.8,0.7-1.5,1.6-2.1,2.5c-0.5,0.7-1.1,1.4-1.7,2
	c-1.1,1-2.2,2-3.3,3.1c-0.5,0.5-1,1-1.6,1.5c-1.3,1.2-2.6,2.3-3.9,3.4c-0.6,0.6-1.3,1.1-1.9,1.6c-0.6,0.6-1.4,1-1.8,1.7
	c-0.9,1.5-2.2,2.5-3.5,3.6c-0.7,0.6-2,0.6-2.7,0.1c-0.9-0.6-1.2-1.5-0.8-2.5c0.2-0.4,0.4-0.9,0.6-1.3c1.1-1.9,2.8-3.3,4.2-4.9
	c1.6-1.9,3.5-3.5,5.5-5.1c0.7-0.5,1.3-1.1,1.9-1.7c2.1-2.1,4.2-4.3,6.4-6.3c1.5-1.4,2.6-3.1,3.5-4.9c1.6-3,2.9-6.2,3.2-9.7
	c0.1-1.1,0.7-1.7,1.5-2.1C115,99.1,116.4,99.4,116.9,100.1z M88.4,127.6c-1.7,1.9-3.2,4-4.7,6.1c-1.6,2-3,4.2-4.4,6.3
	c-2.3,3.3-4.4,6.6-6.5,10.1c-0.5,0.8-0.9,1.6-1.5,2.3c-0.8,0.9-1.7,1-2.8,0.4c-0.8-0.5-1.3-1.6-1.1-2.5c0.2-0.9,0.7-1.6,1.1-2.4
	c0.7-1.3,1.4-2.6,2.2-3.8c2-2.8,4-5.6,5.5-8.7c0.3-0.6,0.6-1.2,1.1-1.7c1.5-1.8,2.9-3.6,4.2-5.6c0.9-1.3,1.7-2.7,2.6-3.9
	c1.4-1.7,3-3.4,4.5-5c0.2-0.3,0.5-0.5,0.7-0.8c0.5-0.6,1-1.2,1.6-1.8c0.5-0.5,1.2-0.8,2-0.9c0.4,0.2,0.9,0.3,1.3,0.5
	c1,0.5,1.3,2.4,1.1,3.2c-0.1,0.7-0.5,1.3-1,1.8C92.2,123.1,90.4,125.4,88.4,127.6z M168.4,154.8c-0.8,2.1-1.9,4.2-2.9,6.3
	c-0.4,0.8-0.9,1.6-1.4,2.4c-1,1.7-2,3.5-3.1,5.1c-1.8,2.8-3.7,5.6-5.9,8.2c-0.6,0.7-1.2,1.5-1.8,2.2c-0.8,1-1.7,1.9-2.6,2.9
	c-0.5,0.6-1.2,0.9-1.9,1.2c-1.5,0.4-2.9-0.6-2.9-2.2c-0.1-0.7,0.3-1.2,0.8-1.7c0.8-0.8,1.5-1.6,2.2-2.4c1.4-1.8,2.8-3.7,4.2-5.6
	c1.2-1.6,2.2-3.3,3.3-5c1.5-2.3,2.9-4.6,4.1-7c0.6-1.2,1.2-2.4,1.8-3.6c0.4-0.8,0.6-1.6,1-2.4c0.4-0.9,1-1.8,2.2-1.9
	C167.6,150.9,169.2,152.8,168.4,154.8z M183.4,110.7c0,1.2,0.1,2.5-0.1,3.6c-0.3,1.4,0,2.9-0.4,4.3c-0.3,1.3-0.4,2.6-0.7,3.9
	c-0.4,2-1.1,4-1.8,5.9c-0.2,0.6-0.6,1.2-1,1.6c-0.7,0.8-2.2,1-3,0.4c-1.1-0.8-1.3-2-1-3.1c0.1-0.5,0.3-1.1,0.4-1.6
	c1-2.8,1.3-5.7,1.9-8.6c0.3-1.8,0.6-3.7,0.7-5.6c0.2-2.2,0.2-4.5,0.3-6.8c0-0.3-0.1-0.6-0.2-0.9c0-0.8-0.2-1.8,0.1-2.5
	c0.4-1.2,1.7-1.6,2.6-1.6c1,0.1,1.8,0.7,2.1,1.8c0.1,0.5,0.2,0.9,0.2,1.4c0,0.7,0,1.5,0,2.2c0,0,0,0,0.1,0
	C183.6,107.1,183.5,108.9,183.4,110.7z M50,227.6c0.1,0.6-0.2,1.2-0.5,1.9c-0.7,1.8-1.5,3.7-2.1,5.6c-0.5,1.5-0.8,3.1-1.3,4.6
	c-0.6,1.8-1.4,3.5-2.1,5.2c-0.5,1.4-1.2,2.8-1.6,4.3c-0.3,1-0.7,2-1.2,2.9c-0.9,1.6-3,1.6-3.9,0.3c-0.5-0.8-0.6-1.7-0.4-2.5
	c0.3-1.2,0.6-2.4,1-3.5c1.4-3.9,2.8-7.8,4.1-11.7c0.9-2.7,1.9-5.4,3.1-8c0.4-0.8,0.9-1.6,2-1.7C48.8,224.6,50.1,225.8,50,227.6z
	 M175.7,98c-0.5,0.9-1.2,1.4-2.1,1.3c-0.9,0-1.6-0.5-1.9-1.4c-0.1-0.4-0.2-0.8-0.3-1.3c0-1,0.1-2.1,0-3.2c-0.2-1.5-0.4-3-0.7-4.5
	c-0.2-1.1-0.3-2.3-0.6-3.4c-0.3-1.6-0.7-3.2-1.1-4.9c-0.4-1.3-0.5-2.8-1.4-3.9c-0.2-0.2-0.2-0.5-0.3-0.8c-0.3-1.4,0.4-2.4,1.8-2.7
	c0.6-0.1,1.3,0.1,1.8,0.4c1.1,0.7,1.9,1.8,2.4,3c0.9,2.3,1.4,4.6,1.7,7c0.2,1.4,0.3,2.8,0.5,4.3c0.1,0.6,0.2,1.3,0.3,1.9
	c0.2,1.3,0.4,2.6,0.6,3.9c0,0-0.1,0-0.1,0c0,0.4,0.1,0.9,0,1.3C176.2,96.1,176.2,97.1,175.7,98z M153.9,47.4c-1-1.2-0.9-3.2,1-3.7
	c1.2-0.4,2.3,0.1,3.1,0.8c1.3,1.1,2.5,2.4,3.7,3.7c1.3,1.5,2.6,3.1,3.9,4.8c1.3,1.7,2.7,3.4,3.9,5.2c0.5,0.7,1,1.6,0.9,2.5
	c0,0.2,0,0.3,0,0.3c0,1.7-1.7,2.7-3.2,1.9c-0.5-0.3-1-0.7-1.4-1.2c-1.1-1.5-2.1-3.1-3.3-4.6c-1.5-2-3.1-3.9-4.7-5.8
	c-1.1-1.2-2.1-2.6-3.5-3.5C154.1,47.7,154,47.5,153.9,47.4z M182.6,78.6c-1.4,0.5-2.2,0.3-3-1.3c-0.3-0.5-0.4-1-0.6-1.6
	c-1.1-3.8-2.9-7.3-4.8-10.7c-0.3-0.5-0.4-1-0.7-1.5c-0.2-0.4-0.1-0.7,0-1c0.4-1.3,1.3-1.9,2.7-1.9c1.1,0,1.8,0.3,2.3,1.2
	c0.6,1.2,1.2,2.4,1.7,3.6c0.7,1.7,1.5,3.4,2.1,5.1c0.7,1.7,1.3,3.3,1.9,5C184.7,76.8,184,78.1,182.6,78.6z M155.1,36.5
	c-0.4-0.4-0.6-0.8-0.7-1.4c-0.1-1.5,1.6-3,3.2-2.6c0.8,0.2,1.5,0.6,2.1,1.1c0.8,0.6,1.5,1.3,2.3,2c0.4,0.4,0.8,0.9,1.3,1.2
	c1.2,0.9,2.2,2.1,3.1,3.3c0.3,0.5,0.7,1,0.6,1.6c0.2,1.3-1.4,2.6-2.7,2.2c-0.8-0.2-1.4-0.6-1.9-1.1c-1.3-1.3-2.8-2.4-4.2-3.6
	C157.2,38.5,156.2,37.5,155.1,36.5z M127,14.9c-1.2-5,5.7-7.2,9.8-7.2s7.4,2.1,7.4,4.7c0,2.6-3.3,4.7-7.4,4.7S127.6,17.4,127,14.9z
	 M39.1,257.8c0,0.1-0.1,0.4-0.2,0.7c-0.6,1.9-1.2,3.8-1.8,5.7c-0.2,0.6-0.4,1.1-0.8,1.6c-0.6,0.8-2.2,1.5-3.4,0.3
	c-0.8-0.8-0.9-1.7-0.7-2.7c0.6-2.1,1.2-4.1,1.9-6.1c0.2-0.5,0.4-1.1,0.8-1.4c0.5-0.6,1.2-0.9,2.1-0.8
	C38.4,255.3,39.1,256.3,39.1,257.8z"/>
</svg>
