<?xml version="1.0" encoding="utf-8"?>
<!-- Generator: Adobe Illustrator 28.0.0, SVG Export Plug-In . SVG Version: 6.00 Build 0)  -->
<svg version="1.1" id="Layer_1" xmlns="http://www.w3.org/2000/svg" xmlns:xlink="http://www.w3.org/1999/xlink" x="0px" y="0px"
	 viewBox="0 0 179.6 223.8" style="enable-background:new 0 0 179.6 223.8;" xml:space="preserve">
<style type="text/css">
	.st0{fill:#FFFFFF;}
</style>
<g>
	<g id="A13aRg_00000098181714207879909720000012674423816006437760_">
		<path class="st0" d="M95.6,221.5c-0.5,0-0.9,0-1.4,0s-1,0-1.5,0c-0.3,0-0.6,0-0.9,0l0,0c-0.2,0-0.4,0-0.7-0.1H91
			c-0.2,0-0.3,0-0.5-0.1c-0.2,0-0.4,0-0.6,0c-0.3,0-0.5,0-0.7-0.1c-0.8-0.2-1.6-0.2-2.3-0.2h-0.2c-0.4,0-0.8,0-1.3,0s-0.9,0-1.4,0
			h-0.4c-1.2,0-2.3-0.1-3.3-0.3l-0.5-0.1h-0.9c-0.2,0-0.4,0-0.5,0c-1.3,0-2.6-0.1-4.1-0.3H74h-0.8c-0.6,0-1.3-0.1-1.9-0.2l-0.5-0.1
			h-0.6c-1,0-1.9-0.2-2.9-0.5c-0.5-0.1-1.1-0.2-1.7-0.4c-0.6-0.1-1.1-0.2-1.6-0.4c-0.9-0.2-1.7-0.5-2.6-0.7l-1.1-0.3
			c-0.1,0-0.1,0-0.2-0.1c-2.3-1.2-4.8-2.1-7.2-2.9l-0.2-0.1c-0.6-0.2-1.2-0.5-1.7-0.7l-1.3-0.6c-1-0.5-2-1-3-1.5
			c-0.8-0.4-1.5-0.8-2.2-1.3c-0.4-0.2-0.8-0.5-1.2-0.7c-0.2-0.1-0.4-0.2-0.6-0.3l-0.4-0.2c-1.3-0.7-2.4-1.2-3.4-2
			c-0.6-0.4-1.2-0.8-1.8-1.1c-0.2-0.1-0.5-0.2-0.7-0.4c-0.7-0.4-1.3-0.7-1.6-1.1c-0.2-0.2-0.4-0.5-0.6-0.7l-1.1-1.5l-1.8-0.5
			c-0.1,0-0.3-0.2-0.5-0.3c-0.4-0.3-0.7-0.6-1.1-0.9l-0.5-0.4l-0.6-0.5c-0.4-0.3-0.8-0.6-1.2-1c-0.8-0.7-1.4-1.5-1.8-2.2l-0.3-0.6
			l-0.5-0.5c-0.3-0.3-0.6-0.6-0.8-0.9c-0.5-0.6-1.1-1.3-1.8-1.9c-0.4-0.3-0.8-0.8-1.2-1.2c-0.2-0.2-0.4-0.4-0.5-0.6
			c-0.2-0.3-0.5-0.5-0.7-0.8c-0.3-0.3-0.5-0.6-0.7-0.8c-0.4-0.4-1.2-1.3-1.2-1.3c-0.4-0.4-0.8-0.8-1.2-1.3c-0.3-0.3-0.5-0.6-0.7-0.9
			l-0.5-0.6c-0.7-0.9-1.4-1.8-2-2.8c-0.4-0.8-0.8-1.7-1.1-2.8l-0.2-0.6l-0.2-0.5c-0.3-0.6-0.7-1.2-1-1.9c-0.4-0.6-0.7-1.3-1.2-1.9
			l-0.1-0.1c-0.6-1-0.9-2.3-1.1-3.3c-0.4-1.8-0.8-3.5-1.4-5.1c-0.4-1.1-0.7-2.3-0.9-3.8c-0.1-0.6-0.2-1.3-0.3-2l-0.1-0.8
			c-0.1-0.9-0.3-1.8-0.5-2.6c-0.1-0.3-0.2-0.6-0.2-0.9l-0.2-1c-0.1-0.6-0.3-1.2-0.4-1.8c-0.1-0.4-0.2-0.8-0.2-1.2l-0.1-0.7
			c0-0.2-0.1-0.4-0.1-0.6c-0.1-0.3-0.1-0.6-0.2-1c-0.1-0.6-0.2-1.2-0.2-1.8c-0.1-0.8-0.2-1.6-0.3-2.4c-0.1-0.6-0.2-1.3-0.3-2
			c-0.1-0.6-0.2-1.2-0.3-1.8c-0.1-0.4-0.1-0.8-0.1-1.1c0-0.4-0.1-0.7-0.1-1c-0.1-0.4-0.1-0.9-0.2-1.3c-0.1-0.4-0.1-0.7-0.1-1
			c0-0.1,0-0.2,0-0.4v-2.4c0-3.9,0-7.8,0-11.8c0-0.2,0-0.4,0.1-0.7c0-0.2,0.1-0.4,0.1-0.6c0-0.2,0-0.4,0-0.6c0-0.2,0-0.3,0-0.4
			l0.1-0.3V120c0-0.2,0.1-0.7,0.1-1c0-0.2,0-0.3,0-0.5l0.4-2.9v-0.5c0-1.5,0.3-3.3,0.9-5.4c0.6-2.1,1.3-4.3,2-6.4
			c0.8-2.3,1.6-4.6,2.5-6.6c0.4-0.9,0.9-1.8,1.5-2.8l0.6-1.1c0.9-1.5,1.8-3.1,2.4-4.8c0.3-0.8,0.7-1.6,1.1-2.4l0.3-0.7
			c0.5-1.2,1.3-2.2,2.2-3.4c1.1-1.4,2-2.8,2.8-4.1c0.4-0.7,0.8-1.2,1.2-1.6c1.1-1.1,2.3-2.3,3.4-3.3l0.9-0.8c0.8-0.7,1.5-1.4,2.1-2
			c0.4-0.4,0.8-0.7,1.2-1c0,0,0.6-0.5,0.9-0.7c0.2-0.2,0.4-0.4,0.7-0.6c0.3-0.3,0.6-0.5,0.8-0.7c0.4-0.3,0.8-0.7,1.2-1
			c0.7-0.6,1.4-1.1,2-1.7c1-0.8,1.9-1.6,2.9-2.2c0.6-0.4,1.3-0.9,1.9-1.3c0.9-0.6,1.8-1.2,2.7-1.8c0.7-0.5,1.5-0.9,2.3-1.2
			c2.1-0.9,4.2-2,6.2-3.1c0.7-0.4,1.5-0.8,2.3-1.2c0.5-0.2,0.9-0.4,1.3-0.6c1.3-0.7,2.7-1.2,4.2-1.7l1.5-0.5c1.5-0.5,3-0.9,4.5-1.3
			c0.6-0.2,1.2-0.3,1.8-0.4h0.1c0.3-0.1,0.6-0.1,0.9-0.2l1.1-0.2c0.8-0.2,1.5-0.3,2.3-0.4c0.3-0.1,0.6-0.1,0.9-0.1
			c0.3,0,0.5-0.1,0.7-0.1l3.2-0.5c0.5-0.1,1-0.1,1.5-0.2c0.2,0,0.4,0,0.6,0c0.2,0,0.4,0,0.7,0h0.6c1,0,2.1-0.1,3.5-0.4
			c0.6-0.1,1.3-0.1,2-0.2c0.3,0,0.6,0,0.9,0H86c0.9,0,1.9,0.1,2.8,0.3c0.6,0.1,1.1,0.1,1.6,0.2c0.2,0,0.4,0,0.7,0.1
			c1.8,0.2,3.5,0.2,4.8,0.2c0.7,0,1.4,0,2.2,0h0.1c0.7,0,1.3,0,2,0s1.4,0,1.9,0s0.7,0.1,0.9,0.1l7.3,1.9l-1.1-7.5
			c0-0.2,0-0.3-0.1-0.5c-0.1-0.6-0.2-1.1-0.3-1.6c-0.1-0.6-0.2-1.2-0.3-1.8c-0.1-0.3-0.1-0.6-0.1-0.9c0,0-0.1-0.5-0.1-0.7
			c-0.1-0.4-0.1-0.8-0.2-1.1c-0.3-1.4-0.3-3-0.3-4.5v-1.9v-2.5l-1.9-1.5c-0.2-0.2-0.5-0.4-0.8-0.7l-2.4-2.4l-3.1,1.3
			c-0.2,0.1-0.4,0.2-0.5,0.2c0,0-0.1-0.1-0.1-0.3c-0.1-1,0-1.9,0.3-2.7c0.3-0.9,0.7-1.7,1.3-2.4c0.1-0.2,0.3-0.3,0.6-0.5L103,16
			l0.3-2.1c0.1-0.8,0.3-1.5,0.6-2.1c0.5-1.1,1.2-2,2.4-2.9c0.2-0.1,0.3-0.3,0.5-0.4c0.1-0.1,0.2-0.2,0.3-0.2c0.7-0.6,1.5-1,2.5-1.4
			l0.2-0.1l0.2-0.1c0.1-0.1,0.3-0.1,0.4-0.2l0.1-0.1c1.6-0.9,3.2-1.5,4.7-2l1.5-0.5l1-1.2c0.1-0.1,0.2-0.2,0.4-0.3
			c0.2-0.1,0.4-0.2,0.5-0.3c0.2-0.1,0.3-0.2,0.5-0.2c0.6-0.2,1-0.4,1.5-0.4c0.4,0,0.7,0,1,0c1.1,0,1.9-0.1,2.7-0.4l0,0
			c2-0.1,3.7-0.2,5.3-0.2c0.6,0,1.3,0,1.9,0c0.3,0,0.6,0.1,1,0.2l0.5,0.1c1,0.3,2.1,0.6,3.1,1c1.3,0.4,2.5,1,3.7,1.5l0.2,0.1
			c2.4,1,4.6,2.4,6.9,3.9c0.3,0.2,0.7,0.5,1.1,0.8c0.4,0.3,0.7,0.6,1,0.8c1.2,0.9,2.4,2,3.3,2.9c0.2,0.2,0.5,0.4,0.8,0.7
			c0.2,0.2,0.5,0.4,0.6,0.6s0.2,0.3,0.2,0.4l-0.9,2.9l2.5,2.4c0.6,0.6,1.3,1.2,1.9,1.8c1,1,2.1,2,3.2,3c0.5,0.4,0.9,1,1.3,1.5
			c0.3,0.4,0.6,0.8,0.9,1.1c0.5,0.5,0.9,1.2,1.4,1.8c0.6,0.9,1.3,1.8,2.1,2.6c0.2,0.2,0.5,0.6,0.7,1l1,1.3c0.9,1.3,1.9,2.7,2.8,4.1
			l0.1,0.2c0.4,0.6,0.6,0.9,0.7,1.2l-1.9,2.6l1.7,2.8c0.6,1,1.2,2.1,1.7,3.2l0.4,0.7c0.5,1,1.1,2.2,1.5,3.5c0.2,0.6,0.5,1.2,0.7,1.7
			l0.3,0.6c0.2,0.5,0.4,1.1,0.5,1.9c0.1,0.9,0.4,1.8,0.6,2.7c0.1,0.3,0.1,0.6,0.2,0.9c0.1,0.4,0.2,0.8,0.3,1.2v0.1
			c0.2,0.9,0.4,1.7,0.6,2.6c0.1,0.7,0.2,1.4,0.4,2c0.1,0.5,0.2,1,0.3,1.5c0,0.2,0.1,0.5,0.1,0.7c-0.1,0.1-0.1,0.1-0.1,0.1L176,69
			l0.1,3.2c0,0.6,0.1,1.4,0.2,2.1c0.2,1.4,0.1,2.7,0.1,4.2v0.4c0,0.8-0.1,2.1-0.4,3.3c-0.2,0.7-0.3,1.4-0.3,2c0,1.3-0.2,2.6-0.6,4
			c-0.2,0.6-0.3,1.3-0.3,1.9c0,0.3-0.1,0.5-0.1,0.7c-0.4,2.6-0.9,4.7-1.5,6.7l-0.5,1.6c-0.5,1.7-1.1,3.4-1.8,4.9l-0.6,1.5l0.3,1.5
			c0.1,0.3,0.1,0.6,0.2,0.8c0.1,0.7,0.3,1.5,0.5,2.3c0.6,1.7,1.1,3.5,1.5,5.2c0.1,0.6,0.3,1.2,0.5,1.8c0.1,0.4,0.1,0.9,0.2,1.4
			c0,0.5,0.1,1,0.1,1.4c0,0.8,0.1,1.5,0.1,2.2c0.1,0.5,0.1,1.1,0.1,1.6v0.1c0.1,0.8,0.1,1.6,0.2,2.4c0.1,0.8,0.1,1.6,0.1,2.4
			c0,0.6,0,1.1,0,1.6c0,0.4,0,0.9,0.1,1.3c0.1,0.8,0.1,1.6,0.1,2.4c-0.1,1.2-0.1,2.4-0.1,3.5c0,0.9,0,1.7,0,2.5
			c0,0.4-0.1,0.9-0.2,1.4v0.1c0,0.3-0.1,0.6-0.1,0.9c-0.1,0.7-0.1,1.4-0.2,2c0,0.4-0.1,0.7-0.1,1c0,0.5-0.1,1-0.1,1.6
			c0,0.3-0.1,0.6-0.1,0.8v0.1c0,0.2-0.1,0.4-0.1,0.7c0,0.2-0.1,0.6-0.1,1.1c0,1.5-0.1,2.9-0.3,4.2c-0.1,0.5-0.1,1-0.2,1.5
			s-0.1,1-0.2,1.5s-0.2,1-0.3,1.5c-0.1,0.3-0.1,0.6-0.2,0.9c-0.1,0.5-0.2,1-0.3,1.5c-0.2,1-0.4,2.1-0.7,3.1
			c-0.3,1.3-0.7,2.6-1.1,3.8l-0.1,0.3c-0.6,1.8-1.2,3.4-1.9,4.9c-0.5,1.1-1,2.2-1.5,3.3l-0.5,1.1l-0.1,0.9c0,0.1-0.1,0.2-0.1,0.3
			c-0.7,1.4-1.6,3-2.8,4.4c-0.5,0.6-1,1.3-1.4,1.9c-0.2,0.3-0.4,0.6-0.6,0.9l-0.7,0.9c-0.9,1.2-1.8,2.5-2.7,3.7
			c-0.2,0.3-0.5,0.6-0.8,0.9c0,0-0.4,0.4-0.5,0.6l-2,2.3c-0.1,0.1-0.1,0.1-0.2,0.2l-1.3,1.3c-1,1-2,2-2.9,2.9
			c-0.1,0.1-0.2,0.2-0.3,0.2c-0.1,0.1-0.2,0.2-0.3,0.2l-0.3,0.3l-0.3,0.3c-1.3,1.5-2.9,2.6-4.5,3.6c-1.4,0.9-2.8,1.7-4.2,2.5h-0.1
			c-1.5,0.9-3.2,1.9-4.9,2.8c-1.2,0.7-2.5,1.3-3.8,1.9l-0.7,0.3c-1.3,0.7-2.7,1.3-4,1.9c-0.5,0.2-1.1,0.4-1.5,0.6
			c-1.1,0.3-2.1,0.8-3.1,1.3c-0.8,0.4-1.6,0.7-2.4,1.1c-0.4,0.2-0.9,0.4-1.3,0.6c-1,0.4-2.1,0.9-3.2,1.4c-1.8,0.8-3.4,1.4-5.1,1.8
			c-1.1,0.2-2.1,0.5-2.9,0.8c-0.8,0.2-1.9,0.5-3.1,0.5c-1.4,0-2.9,0-4.4,0.2C97.5,221.5,96.7,221.5,95.6,221.5z"/>
	</g>
	<g id="A13aRg_00000026125064077670343410000014773953822475973822_">
		<g>
			<path d="M170.3,40.7c0.3,0.5,0.6,1.1,0.9,1.6c1.1,1.7,2,3.5,2.9,5.3c0.6,1.2,1.2,2.5,1.6,3.8c0.3,0.8,0.6,1.5,0.9,2.2
				s0.5,1.5,0.6,2.3c0.2,1.1,0.5,2.3,0.7,3.4c0.3,1.4,0.7,2.7,0.9,4.1c0.2,1.2,0.5,2.3,0.7,3.5c0.1,0.7,0.2,1.5-0.3,2.1
				c-0.6,0.6-1.2,0.9-2.1,0.4c-0.1-0.1-0.2-0.2-0.4-0.2c-0.1,0-0.1-0.1-0.2-0.1c0,0.1,0,0.2,0,0.3c0,0.4,0.1,0.7,0.2,1.1
				c0.1,1.4,0,2.7,0.2,4.1c0.2,1.6,0.2,3.2,0.1,4.8c0,1.2-0.1,2.5-0.4,3.7c-0.1,0.5-0.2,1.1-0.2,1.6c0,1.5-0.3,2.9-0.7,4.4
				c-0.2,0.8-0.3,1.6-0.4,2.4c-0.4,2.4-0.8,4.7-1.6,7c-0.8,2.4-1.5,4.8-2.5,7.2c-0.1,0.3-0.2,0.7,0,1.1c0.3,1.1,0.4,2.2,0.7,3.2
				c0.9,2.3,1.4,4.8,2,7.1c0.2,0.6,0.2,1.2,0.2,1.8c0.1,1.2,0.1,2.4,0.2,3.5c0.1,1.4,0.2,2.7,0.4,4.1c0.2,1.4,0.1,2.8,0.1,4.1
				c0.1,1.3,0.3,2.6,0.1,3.9c-0.2,2,0,4-0.2,6c0,0.8-0.2,1.6-0.3,2.5c-0.1,0.7-0.1,1.3-0.2,2c-0.1,0.9-0.1,1.8-0.2,2.7
				c-0.1,0.6-0.2,1.1-0.3,1.7c0,0.3,0,0.6-0.1,0.9c0,1.5-0.1,3-0.3,4.5c-0.2,1-0.2,2-0.4,3.1c-0.1,0.8-0.4,1.7-0.5,2.5
				c-0.3,1.6-0.6,3.1-1,4.7c-0.4,1.4-0.8,2.8-1.3,4.3c-0.6,1.8-1.2,3.5-2,5.2c-0.6,1.2-1.2,2.5-1.7,3.7c-0.1,0.2-0.2,0.4-0.2,0.7
				c0,0.5-0.1,0.8-0.3,1.2c-0.9,1.7-1.8,3.3-3,4.7c-0.7,0.8-1.3,1.8-1.9,2.7c-1.1,1.6-2.2,3.1-3.4,4.7c-0.4,0.6-0.9,1-1.4,1.6
				c-0.7,0.8-1.3,1.5-2,2.3c-0.1,0.1-0.2,0.3-0.4,0.4c-1.4,1.4-2.7,2.8-4.1,4.1c-0.3,0.3-0.7,0.6-1,0.9c-1.4,1.6-3.1,2.8-4.9,4
				c-1.4,0.9-2.8,1.7-4.3,2.6c-1.7,1-3.3,1.9-5,2.8c-1.5,0.8-3,1.5-4.5,2.3c-1.3,0.7-2.7,1.3-4,1.9c-0.6,0.3-1.2,0.5-1.8,0.7
				c-1,0.3-1.9,0.7-2.8,1.2c-1.2,0.6-2.5,1.1-3.8,1.6c-1.1,0.5-2.1,0.9-3.1,1.4c-1.8,0.8-3.6,1.5-5.5,1.9c-0.9,0.2-1.9,0.5-2.8,0.8
				c-1.2,0.4-2.4,0.6-3.6,0.6c-1.4,0-2.8,0-4.1,0.2c-2.2,0.3-4.4,0.1-6.6,0.1c-0.5,0-1-0.1-1.5-0.2c-0.5,0-1,0-1.5-0.1
				c-0.7-0.2-1.5-0.2-2.2-0.2c-0.9,0-1.7,0-2.6,0c-1.4,0-2.8-0.1-4.1-0.3c-0.3-0.1-0.6,0-1,0c-1.7,0-3.3-0.1-5-0.3
				c-0.3,0-0.5,0-0.8,0c-0.9,0-1.7-0.1-2.5-0.3c-0.1,0-0.2,0-0.3,0c-1.2,0-2.3-0.2-3.5-0.5c-1.1-0.3-2.2-0.4-3.3-0.7
				c-1.2-0.3-2.5-0.7-3.7-1c-0.2-0.1-0.4-0.1-0.6-0.2c-2.3-1.2-4.8-2.1-7.2-2.9c-0.7-0.2-1.3-0.5-2-0.8c-1.4-0.7-2.9-1.4-4.3-2.2
				c-1.2-0.6-2.3-1.3-3.5-2c-0.3-0.2-0.6-0.3-0.9-0.5c-1.2-0.6-2.5-1.3-3.6-2.1c-0.7-0.5-1.5-0.9-2.3-1.3c-0.7-0.4-1.5-0.9-2.1-1.5
				c-0.3-0.3-0.6-0.7-0.8-1c-0.4-0.6-1-1-1.7-1.2c-0.4-0.1-0.8-0.4-1.1-0.6c-0.6-0.4-1.1-0.9-1.7-1.3c-0.6-0.5-1.3-1-1.9-1.5
				c-0.9-0.7-1.5-1.6-2.2-2.6c-0.1-0.2-0.2-0.5-0.4-0.6c-1-0.9-1.6-2-2.7-2.8c-0.7-0.6-1.3-1.4-2-2.1c-0.5-0.5-0.9-1.1-1.4-1.6
				c-0.8-0.9-1.6-1.7-2.4-2.5c-0.3-0.3-0.6-0.7-0.8-1c-0.9-1.2-1.9-2.3-2.6-3.6c-0.6-1-1-2.1-1.3-3.2c-0.1-0.2-0.1-0.4-0.2-0.6
				c-0.3-0.7-0.7-1.3-1.1-2c-0.4-0.7-0.8-1.3-1.2-2c-0.7-1.2-1.1-2.5-1.4-3.9c-0.3-1.7-0.8-3.3-1.3-5c-0.4-1.3-0.7-2.7-1-4.1
				c-0.2-1-0.3-1.9-0.4-2.9c-0.1-1.1-0.5-2.2-0.7-3.3c-0.2-0.9-0.4-1.9-0.6-2.8c-0.1-0.6-0.2-1.3-0.4-1.9c-0.1-0.6-0.2-1.1-0.3-1.7
				c-0.2-1.4-0.3-2.8-0.6-4.2c-0.2-1.3-0.5-2.5-0.7-3.8c-0.1-0.7-0.1-1.4-0.2-2.1c-0.1-0.8-0.2-1.5-0.3-2.3c0-0.2,0-0.5,0-0.7
				c0-4.7,0-9.4,0-14.1c0-0.5,0.1-1,0.2-1.4c0-0.5,0-0.9,0.1-1.4c0.2-0.5,0.1-1.1,0.2-1.7c0.1-0.9,0.2-1.8,0.3-2.7
				c0-0.1,0-0.3,0-0.4c0-2,0.4-4,0.9-5.9c0.6-2.2,1.3-4.4,2-6.5c0.8-2.3,1.6-4.5,2.5-6.7c0.5-1.2,1.1-2.3,1.8-3.4
				c1-1.7,2-3.4,2.8-5.3c0.4-1.1,1-2.2,1.5-3.3c0.6-1.4,1.5-2.6,2.4-3.8c1-1.3,1.9-2.5,2.7-3.9c0.4-0.7,0.9-1.4,1.4-1.9
				c1.4-1.4,2.9-2.8,4.4-4.2c0.7-0.7,1.4-1.3,2.2-2c0.7-0.6,1.4-1.2,2.1-1.8c0.5-0.4,1-0.9,1.5-1.3c1.1-0.9,2.1-1.8,3.2-2.7
				c1-0.9,2-1.6,3.1-2.4c1.5-1,3.1-2.1,4.6-3.1c0.8-0.5,1.7-1,2.6-1.4c2-0.9,4-1.9,6-3c1.2-0.7,2.5-1.3,3.7-1.9
				c1.4-0.7,2.9-1.3,4.5-1.8c2-0.6,4-1.2,6.1-1.8c1-0.3,2-0.4,2.9-0.6c1.1-0.2,2.2-0.4,3.3-0.7c0.5-0.1,1.1-0.1,1.6-0.2
				c0.9-0.1,1.9-0.3,2.8-0.4c0.7-0.1,1.4-0.2,2-0.3c0.6,0,1.2,0,1.7,0c1.2,0,2.3-0.1,3.4-0.3c0.8-0.1,1.5-0.2,2.3-0.2s1.6,0,2.3,0
				c1.1,0,2.1,0.2,3.2,0.3c0.7,0.1,1.4,0.1,2.1,0.2c3.6,0.3,7.3,0.1,10.9,0.2c0.5,0,0.9,0.1,1.4,0.2c0.8,0.2,1.7,0.1,2.5,0.2
				c1,0.1,2,0.1,2.9,0.2c0.1,0,0.2,0,0.2,0c-0.1,0-0.1-0.1-0.2-0.1c-0.9-0.4-1.1-1.2-1.3-2c-0.2-0.7-0.2-1.5-0.4-2.2
				c-0.2-1.1-0.4-2.2-0.6-3.3c-0.1-0.6-0.2-1.1-0.2-1.7c0-0.3-0.1-0.6-0.2-0.9c-0.4-1.7-0.4-3.4-0.4-5.1c0-1,0-2,0-3
				c0-0.4-0.1-0.6-0.5-0.8c-1-0.5-1.8-1.4-2.5-2.2l-0.1-0.1c-0.2-0.2-0.3-0.6-0.5-0.6c-0.3,0-0.6,0.2-0.9,0.3
				c-0.6,0.2-1.2,0.5-1.7,0.7c-1.1,0.5-2.5-0.2-2.7-1.8c-0.1-1.1,0-2.3,0.4-3.4c0.4-1.2,0.9-2.2,1.7-3c0.4-0.5,1-0.8,1.5-1.2
				c0.4-0.3,0.6-0.6,0.6-1.1c0.1-1.1,0.3-2.2,0.8-3.2c0.7-1.5,1.7-2.6,3-3.6c0.3-0.2,0.5-0.4,0.7-0.6c0.9-0.8,1.9-1.3,3.1-1.7
				c0.2-0.1,0.5-0.2,0.7-0.3c1.8-0.9,3.6-1.7,5.5-2.3c0.4-0.1,0.7-0.3,0.9-0.7c0.3-0.5,0.7-0.8,1.2-1.1c0.4-0.2,0.7-0.4,1.1-0.5
				c0.7-0.3,1.5-0.6,2.3-0.5c1.1,0.1,2.2,0,3.2-0.3c0.1,0,0.1,0,0.2,0c2.5-0.2,4.9-0.2,7.4-0.2c0.5,0,1,0.2,1.4,0.3
				c1.2,0.4,2.5,0.7,3.7,1.1c1.3,0.5,2.7,1,4,1.5c2.6,1,4.9,2.5,7.2,4c0.8,0.5,1.4,1.2,2.1,1.7c1.2,0.9,2.4,2,3.5,3.1
				c0.5,0.5,1,0.8,1.5,1.3c0.3,0.3,0.5,0.8,0.6,1.2c0.2,0.9-0.2,1.4-1.1,1.8c-0.3,0.1-0.3,0.2-0.1,0.5c0.7,0.7,1.5,1.4,2.2,2.1
				c1.7,1.6,3.3,3.2,5,4.8c0.9,0.9,1.6,1.9,2.4,2.8c1.2,1.4,2.1,3,3.4,4.3c0.4,0.4,0.8,0.9,1.1,1.4c1.2,1.7,2.5,3.4,3.6,5.2
				c0.5,0.7,1,1.4,1.1,2.3c0.1,0.6-0.2,1.2-0.7,1.5C171.3,40.7,170.8,40.8,170.3,40.7c0,0-0.1,0-0.1-0.1
				C170.2,40.7,170.3,40.7,170.3,40.7z M108.3,178.1L108.3,178.1C108.4,178.1,108.4,178.1,108.3,178.1c0-0.1,0-0.2-0.1-0.3
				c-0.7-1.1-1.8-1.9-2.8-2.8c-0.5-0.1-0.8-0.6-1.3-0.7c-0.4-0.1-0.8-0.2-1.2-0.4c-0.7-0.3-1.6-0.3-2.3-0.5c-0.2-0.1-0.5,0-0.8,0.1
				c-1,0.2-1.9,0.1-2.9-0.2s-1.7-1-2.4-1.6c-0.5-0.4-0.9-0.9-1.2-1.3c-0.7-1-1.7-1.8-2.4-2.8c-0.2-0.2-0.3-0.3-0.6-0.1
				c-0.1,0.1-0.2,0.1-0.3,0.2c-0.4,0.3-0.4,0.5-0.1,0.9c0.2,0.2,0.5,0.4,0.7,0.7c1.1,1.3,2.1,2.7,3.2,4.1c0.6,0.8,0.9,1.8,0.8,2.8
				c-0.1,0.6-0.2,1.1-0.4,1.7c-0.2,0.5-0.1,1,0.2,1.5c0.3,0.4,0.6,0.8,0.9,1.1c0.7,0.7,1.2,1.5,1.4,2.5c0,0.1,0,0.1,0,0.2
				c0.1,0.1,0.1,0.2,0.2,0.3c0-0.1,0.1-0.2,0.1-0.3c0-0.5,0-0.9,0-1.4c0-0.3-0.1-0.7,0-1c0.2-0.6,0.1-1.1-0.1-1.7
				c-0.3-0.8,0.2-1.8,1-2.1c0.7-0.3,1-0.3,1.7,0.1c0.4,0.2,0.8,0.5,1.1,0.8c1,0.9,1.8,1.9,2.4,3.2c0.5,1.1,1,2.3,1.5,3.4
				c0,0.1,0.1,0.2,0.1,0.3c0-0.1,0.1-0.2,0.1-0.3c0-0.6,0-1.3,0-1.9c0-0.2,0-0.4-0.1-0.6c-0.3-1-0.5-2-1.1-2.8
				c-0.2-0.3-0.3-0.7-0.4-1c0-0.1-0.1-0.2-0.1-0.2c0.2-1.1,1.1-1.9,2.3-1.5c0.3,0.1,0.5,0.2,0.8,0.4
				C107,176.8,107.6,177.5,108.3,178.1z M113.7,9L113.7,9c0.6,0,1.3,0,1.9,0c1.4,0,2.5,0.5,3.3,1.6c0.1,0.1,0.1,0.2,0.2,0.2
				c0.8,0.5,1.3,1.2,1.8,1.9c0.7,1,1.2,2.1,1.4,3.3c0.2,0.8,0.4,1.7,0.9,2.4c0.6,0.8,1.2,1.6,1.7,2.5c0.4,0.7,0.9,1.3,1.1,2.1
				c0.2,0.9-0.3,2.2-1.3,2.4c-0.4,0.1-0.8,0.2-1.3,0.2c-0.4,0-0.7,0.1-1.1,0.3c-0.4,0.3-0.9,0.4-1.5,0.5c-0.4,0-0.7,0.2-1,0.4
				c-0.5,0.3-1.1,0.6-1.6,0.9c-0.9,0.5-1.7,1-2.5,1.6c-0.7,0.5-1.4,1-2.1,1.6c-0.4,0.3-0.8,0.4-1.3,0.4c-0.9,0.1-1.8-0.2-2.7-0.6
				c-0.3-0.1-0.7-0.3-1-0.4s-0.4,0-0.4,0.3c0,0.9,0,1.7,0,2.6c0,0.1,0,0.2,0.1,0.3c0.1,0.8,0.3,1.7,0.4,2.5c0.1,0.6,0.2,1.2,0.3,1.8
				c0.1,0.8,0.3,1.7,0.4,2.5c0,0.2,0.1,0.5,0.2,0.6c0.1,0.1,0.4-0.1,0.5-0.1s0.2,0,0.3,0c1.1-0.2,2.1,0.4,2.2,1.5
				c0.1,0.7,0.1,1.3,0.2,2c0.1,0.6,0.1,1.3,0.2,1.9c0.1,1,0.3,2,0.5,3s0.5,2,0.7,3.1c0.2,0.8,0.3,1.5,0.4,2.3c0,1-0.2,2-1.1,2.7
				c-0.4,0.3-0.8,0.6-1.1,0.9c-1.2,1.2-2.5,2.3-3.6,3.6c-0.3,0.4-0.6,0.8-1,1.1c-1.7,1.5-3,3.3-4.6,5c-0.4,0.5-0.9,0.9-1.2,1.4
				c-1,1.4-2.1,2.8-2.9,4.4c-0.8,1.6-1.8,3.1-2.6,4.6c-1.8,3.3-3.3,6.8-4.6,10.4c-0.1,0.2-0.2,0.4-0.2,0.7c0,0.7-0.3,1.2-0.6,1.8
				c-1.1,2.1-2.2,4.2-3.4,6.2c-1,1.7-1.8,3.6-2.8,5.3c-0.8,1.4-1.5,3-2.1,4.5c-0.3,0.7-0.6,1.4-0.8,2.1c-0.3,1.6-0.8,3.1-1.3,4.6
				c-0.3,1-0.7,2.1-1.2,3c-0.4,0.7-0.9,1.4-1.2,2.2c-1,2.1-2,4.1-3,6.2c-0.2,0.5-0.4,0.9-0.7,1.4c-0.7,1.2-1.3,2.4-1.8,3.7
				c-0.6,1.4-1.1,2.8-1.6,4.2c-0.3,0.9-0.7,1.7-1,2.6c-0.3,0.9-0.5,1.8-0.7,2.7c-0.2,0.7-0.4,1.4-0.6,2.1c-0.1,0.5,0,0.7,0.4,0.9
				c0.2,0.1,0.4,0.1,0.6,0c0.4-0.3,0.9-0.6,1.2-1c0.5-0.6,1-1.1,1.6-1.6s1.1-1.2,1.6-1.8c0.4-0.5,0.8-1,1.2-1.5
				c0.8-1.4,1.7-2.8,2.7-4.1c0.2-0.2,0.4-0.5,0.5-0.8c0.5-1,1-2,1.6-3c0.4-0.7,0.8-1.4,1.2-2.1c0.9-1.4,1.9-2.7,3.1-3.8
				c0.6-0.5,1.1-1.1,1.6-1.7c0.3-0.4,0.7-0.8,1-1.2c0.5-0.5,1-0.9,1.5-1.4c0.3-0.3,0.7-0.6,1.1-0.8c0.7-0.4,1.4-0.9,2-1.5
				c0.8-0.8,1.5-1.6,2.2-2.4c0.3-0.4,0.7-0.8,1-1.2c0.6-0.7,1.3-1.4,2-2.1c0.9-0.8,1.8-1.5,2.7-2.2c1-0.8,2-1.5,3-2.4
				c1-0.8,2-1.6,2.7-2.7c0.5-0.8,1.3-1.3,2.2-1.3c0.8,0,1.5-0.3,2.2-0.7c0.9-0.5,1.7-1,2.6-1.5c0.6-0.3,1.1-0.6,1.6-1.1
				c0.2-0.2,0.4-0.3,0.5-0.4c0.8-0.5,1.6-1,2.3-1.6c1.2-1,2.3-2.1,3.4-3.2c0.7-0.7,1.4-1.4,1.9-2.4c0.3-0.6,0.6-1.2,0.9-1.8
				c1.4-2.6,2.3-5.3,3.3-8.1c0.2-0.4,0.3-0.9,0.1-1.3c0-0.1,0-0.3,0-0.4c0.3-0.9,0.8-1.7,1-2.6c0-0.2,0.3-0.3,0.4-0.5
				c0.5-0.6,1.2-0.8,1.9-0.5s1.1,1.2,0.9,1.9c-0.1,0.5-0.3,1-0.2,1.6c0,0.1,0,0.3-0.1,0.4c-0.3,1.1-0.6,2.2-1,3.3
				c-0.8,2.4-1.7,4.8-2.8,7.1c-0.3,0.7-0.7,1.4-1.1,2c-0.8,1.4-1.5,2.8-2.3,4.2c-0.9,1.6-1.9,3.1-3.3,4.4c-0.3,0.3-0.7,0.6-1,0.8
				c-1.1,0.8-2.1,1.7-3.2,2.5c-1.5,1.1-3.1,1.9-5,2.2c-1.4,0.3-2.7,1-3.8,1.9c-1.5,1.2-2.9,2.4-4.2,3.8c-0.4,0.5-0.9,0.9-1.4,1.3
				c-0.6,0.6-1.3,1.1-1.9,1.6c-0.9,0.8-1.5,1.8-2.2,2.6c-0.5,0.6-0.9,1.2-1.5,1.7c-1,0.8-2,1.6-2.7,2.6c-1.1,1.5-2.2,2.9-3.3,4.3
				c-0.9,1.2-1.9,2.4-2.8,3.6c-0.5,0.7-1,1.3-1.5,2c-1.8,2.6-3.6,5.3-6,7.5c-0.1,0.1-0.2,0.2-0.4,0.4c-0.5,0.6-0.9,1.2-1.4,1.7
				c-1.5,1.6-3.2,3.1-5.1,4.2c-0.4,0.2-0.7,0.6-0.9,1c-0.2,0.5-0.5,1-0.8,1.4c-0.9,1.4-1.6,2.8-2.1,4.4c-0.2,0.8-0.5,1.6-0.8,2.3
				c-0.4,1.2-0.8,2.4-1.1,3.7c-0.3,1.2-0.5,2.3-1,3.4c-0.4,0.9-0.8,1.8-1.1,2.8c-0.2,0.5-0.3,0.9-0.7,1.3c-0.1,0.1-0.2,0.3-0.3,0.5
				c-0.4,1.2-0.7,2.4-1,3.6c-0.4,1.5-0.7,3.1-1,4.6c0,0.1,0,0.2,0,0.2c0.4,0.4,0.6,1,1.5,1c6.3-0.1,12.5,0,18.8,0
				c1.5,0,2.9-0.1,4.4,0.4c0.1,0,0.3,0,0.4-0.1c0.6-0.1,1.2-0.3,1.8-0.3c0.4,0,0.6-0.2,0.8-0.5c0.2-0.4,0.5-0.8,0.7-1.2
				c0.3-0.5,0.3-0.5,0-1c-0.1-0.1-0.2-0.2-0.2-0.3c-0.6-0.8-1.3-1.5-1.9-2.3c-0.7-0.9-1.3-2-2.4-2.6c-0.1,0-0.2-0.2-0.3-0.2
				c-0.6-0.6-1.1-1.3-1.6-2c-0.4-0.5-0.7-1.1-1.2-1.6c-1-1-1.8-2.2-2.4-3.4c-0.7-1.3-1-2.7-1.6-4.1c-0.3-0.7-0.4-1.5-0.4-2.4
				c0.1-0.9,0.1-1.9,0.2-2.8c0-0.6,0.1-1.2,0.3-1.8c0.4-1.3,1.2-2.3,1.9-3.4c0.8-1.2,1.6-2.4,2.1-3.8c0.2-0.6,0.3-1.2,0.5-1.8
				c0.2-0.7,1-1.1,1.8-1c0.7,0.1,1.3,0.8,1.3,1.5c0,0.4-0.1,0.8-0.2,1.2c-0.1,1.5-0.8,2.7-1.6,4c-0.7,1.2-1.5,2.3-2.2,3.5
				c-0.4,0.6-0.6,1.2-0.6,1.9c0,0.5-0.1,1-0.1,1.5c-0.1,1-0.2,2.1,0.3,3c0.2,0.5,0.5,1,0.6,1.5c0.2,0.8,0.5,1.5,0.9,2.1
				c0.4,0.5,0.7,1.1,1.1,1.6c0.8,0.9,1.6,1.8,2.2,2.9c0.2,0.4,0.5,0.7,0.8,1c0.2,0.2,0.4,0.2,0.6,0.1c0.4-0.3,0.8-0.5,1.2-0.8
				c0.3-0.2,0.4-0.2,0.2-0.6c-0.1-0.2-0.2-0.3-0.3-0.4c-0.4-0.7-0.7-1.3-0.6-2.1c0.1-0.7,0.4-1.3,1.1-1.5c0.3-0.1,0.6-0.2,0.9-0.2
				c0.7,0,1.4-0.1,2.1,0c0.7,0.1,1.3-0.3,2-0.4c0.5,0,1-0.1,1.5-0.2c1.4-0.3,2.9-0.7,4.3-1.2c1.4-0.5,2.9-1,4.3-1.5
				c1.4-0.5,2.7-1,4.1-1.6c2.2-1,4.3-2.3,6-4.1c0.1-0.1,0.2-0.3,0.4-0.4c0.6-0.5,1.2-0.6,1.8-0.3c0.2,0.1,0.5,0.2,0.7,0.3
				c0.8,0.3,1.1,0.9,0.9,1.7c-0.2,0.8-0.6,1.5-1.3,2c-1.4,1.1-2.9,2.1-4.3,3.1c-0.9,0.7-1.9,1-2.9,1.6c-0.5,0.3-1.1,0.4-1.7,0.5
				c-0.8,0.1-1.6,0.3-2.4,0.8c-1.2,0.7-2.5,1.3-4,1.3c-0.5,0-1,0.2-1.4,0.3c-0.8,0.3-1.6,0.5-2.4,0.5c-0.2,0-0.5,0-0.7,0.1
				c-0.6,0.1-1.2,0.3-1.9,0.3c-0.8,0-1.5,0.4-2.3,0.7c-0.1,0-0.3,0.3-0.2,0.4c0.3,0.7,0.5,1.5,1.1,2s1,1.2,1.6,1.7
				c0.3,0.3,0.5,0.7,0.8,1c0.1,0.1,0.2,0.2,0.3,0c0.5-0.4,1.1-0.9,1.6-1.3c0.7-0.5,1.4-0.9,2.2-0.6c0.4,0.1,0.7,0,1-0.2
				c0.2-0.2,0.5-0.3,0.7-0.4c1.3-0.9,2.6-1.8,4-2.7c1.5-1,3.5-2.1,5.5-2.9c0.3-0.1,0.6-0.4,0.9-0.6c0.7-0.5,1.5-1,2.3-1.4
				c1-0.4,2.1-0.8,3.1-1.1c0.3-0.1,0.6-0.2,0.9-0.3c0.7-0.3,1.3-0.6,2.1-0.7c0.6-0.1,1.2-0.3,1.7-0.5c0.7-0.2,1.3-0.4,2-0.6
				c0.3-0.1,0.6-0.2,0.9-0.4c1.2-0.8,2.4-1.6,3.5-2.4c0.4-0.3,0.9-0.6,1.3-0.9c1.3-0.9,2.8-1.6,3.9-2.9c0.2-0.2,0.4-0.4,0.7-0.5
				c0.6-0.4,1.2-0.8,1.8-1.2c1.3-1.2,2.6-2.4,3.8-3.7c0.3-0.3,0.6-0.8,1-1.1c0.8-0.8,1.7-1.6,2.5-2.4c1-1,2-2.1,3-3
				c0.7-0.6,1.4-1.3,2-2.1c0.9-1.2,2-2.3,3.1-3.4c0.4-0.5,1-0.9,1.3-1.4c1.1-1.5,2.2-3,3.3-4.4c0.6-0.8,1.2-1.7,1.8-2.5
				c0.9-1.1,1.5-2.3,2.2-3.5c0.6-1.2,1.3-2.3,1.9-3.5c0.5-0.9,1-1.7,1.4-2.6c0.6-1.4,1.2-2.9,1.9-4.2c0.5-1,1-2,1.4-3
				c0.9-2.3,1.7-4.7,2.5-7.1c0.5-1.6,1-3.1,1.4-4.7c0.2-0.8,0.3-1.6,0.5-2.3c0.1-0.7,0.2-1.3,0.4-2c0.1-0.6,0.2-1.1,0.3-1.7
				c0.3-1.2,0.5-2.3,0.6-3.5c0-0.7,0-1.5,0.2-2.1c0.4-1.6,0.3-3.2,0.5-4.9c0.1-0.7,0-1.4-0.1-2.1c-0.1-1.3,0-2.6-0.2-4
				c-0.1-1-0.1-2.1-0.2-3.1v-0.1c-0.3-0.7-0.1-1.4-0.2-2.1c0-0.8,0.4-1.3,1-1.7c0.4-0.3,0.9-0.5,1.3-0.6c0.3-0.1,0.4-0.3,0.3-0.5
				c-0.3-1.5-0.7-3-1.1-4.5c-0.2-0.6-0.4-1.3-0.5-1.9c-0.1-0.8-0.2-1.6-0.5-2.4c-0.2-0.6-0.5-1.2-0.7-1.8c-0.6-1.4-1.1-2.8-1.8-4.2
				c-0.7-1.5-1.5-3-2.4-4.4c-0.6-1-1.3-2-1.9-2.9c-0.5-0.8-1.1-1.6-1.7-2.4c-0.6-0.9-0.4-1.8,0.6-2.4c0.3-0.2,0.6-0.4,0.8-0.6
				c0.3-0.3,0.4-0.3,0.1-0.7c-0.6-0.9-1.3-1.8-2-2.7c-0.9-1.2-1.9-2.3-2.8-3.5c-0.5-0.8-1.2-1.4-1.8-2.2c-0.5-0.6-0.9-1.2-1.5-1.8
				c-1.5-1.4-2.9-2.8-4.4-4.2c-1.4-1.4-2.8-2.8-4.4-4c-0.3-0.2-0.6-0.5-0.9-0.8c-1-0.9-1.1-1.8-0.5-2.7c0.2-0.3,0.3-0.7,0.5-1
				s0.1-0.5-0.1-0.6c-1-0.9-2.1-1.8-3.1-2.6c-2-1.6-4.2-2.9-6.5-3.9c-1.1-0.5-2.3-1-3.4-1.4c-0.9-0.4-1.9-0.6-2.8-0.9
				c-1.3-0.5-2.6-0.8-4-0.7c-0.2,0-0.3,0-0.5,0c-0.4,0-0.7,0-1.1,0.2c-0.3,0.2-0.6,0.1-0.9,0.1c-0.9-0.1-1.8-0.2-2.7-0.1
				S121.9,3,121,3c-0.4,0-0.8,0-1.1,0c-0.4,0-0.8,0.1-0.9,0.7c-0.2,0.7-0.7,1.2-1.5,1.4c-0.5,0.1-0.9,0.2-1.4,0.3
				c-1.6,0.5-3.2,1.1-4.7,2c-0.5,0.3-1.1,0.6-1.6,0.7c-0.8,0.3-1.6,0.7-2.3,1.1c-0.4,0.2-0.7,0.5-1,0.8c-0.2,0.1-0.3,0.3-0.4,0.5
				c0.2,0,0.4-0.1,0.6-0.1c0.1,0,0.2,0,0.3,0c0.6-0.2,1.2-0.2,1.8-0.5c1.1-0.7,2.3-1,3.6-1C112.6,9,113.2,9,113.7,9z M21.9,180.8
				c-2,0-3.9,0-5.9,0c-0.2,0-0.5,0-0.7,0s-0.2,0.1-0.1,0.2c0.6,0.9,1.3,1.7,2.1,2.4c0.4,0.4,0.8,0.9,1.1,1.3
				c0.6,0.7,0.8,0.9,1.7,0.6c0.8-0.3,1.6-0.3,2.5-0.3c0.7,0,1.3,0.2,1.8,0.6c0.1,0.1,0.3,0.2,0.5,0.2c1,0,2.1,0,3.1,0.2
				c1,0.1,2,0.1,3,0.2c0.6,0.1,1.2,0,1.7,0.2c0.4,0.1,0.7,0.1,1-0.2c0.9-0.9,2.1-0.5,2.6,0.7c0.1,0.2,0.1,0.4,0.2,0.6
				c0.4,1.2-0.5,2.4-1.8,2.4c-0.8,0-1.6,0-2.4-0.1c-1.1-0.2-2.3-0.3-3.4-0.4c-1.5-0.1-2.9-0.1-4.4-0.2c-0.6,0-1.3,0-1.9,0
				c-0.3,0-0.6,0-0.9,0c0.2,0.3,0.3,0.5,0.5,0.8c0.8,0.9,1.5,1.9,2.3,2.8c0.4,0.5,0.8,1,1.2,1.3c1.8,1.4,3.6,2.8,5.4,4.2
				c0.6,0.4,1.2,0.9,1.8,1.1c1.1,0.3,2.3,0.3,3.5,0.1c0.5-0.1,1-0.1,1.4,0.1c0.6,0.2,1.2,0.3,1.8,0.2c1.2,0,2.4,0,3.6,0
				c2.6,0,5.1,0,7.7,0c0.2,0,0.6,0,0.7-0.1c0.2-0.4,0.5-0.3,0.8-0.3c0.7,0,1.3,0,2,0c0.2,0,0.4,0,0.5,0.1c0.3,0.4,0.7,0.3,1.1,0.3
				c1.2,0,2.4,0,3.7,0c1.2,0,2.4-0.1,3.6-0.2c0.4,0,0.8,0,1.1-0.1c0.5-0.2,0.6,0.3,1,0.3c0.1,0,0.2,0,0.3,0c2.3,0,4.6,0,6.9,0
				c0.3,0,0.6,0,0.8-0.4c0.1-0.1,0.3-0.3,0.5-0.3c0.9,0,1.7-0.1,2.6,0.1c0.7,0.2,1.4,0.2,2.1,0.2c2.2-0.1,4.4,0.2,6.7,0.2
				c0.1,0,0.2,0,0.3,0c1.2,0.3,2.4,0.2,3.6,0.3c1.2,0.1,2.4,0,3.6,0.1c1.2,0.2,2.5,0.1,3.7,0.2c1.4,0.1,2.9,0,4.3,0
				c0.2,0,0.5-0.1,0.7-0.2c0.7-0.3,1.3-0.3,1.9,0.2c0.1,0.1,0.2,0.2,0.4,0.2c0.7,0,1.4,0.1,2.1,0.1c2,0.1,4.1,0,6.1,0.2
				c1.1,0.1,2.3,0.1,3.4,0.2c0.1,0,0.1,0,0.2,0c0.5,0.3,1,0.1,1.4,0.2c0.5,0.1,1,0.1,1.5,0.2c1.1,0.1,2.2,0.1,3.3,0.2h0.1
				c0.9,0.3,1.9,0.1,2.8,0.3c1.2,0.2,2.5,0.1,3.8,0.2c1.6,0.2,3.2,0,4.8,0.2c1.7,0.2,3.3,0,5,0.2c0.7,0.1,1.5,0,2.3,0
				c0.5,0,1-0.2,1.4-0.4c0.6-0.3,1.1-0.7,1.7-1c0.6-0.3,1.1-0.6,1.6-1.1c0.6-0.5,1.2-0.9,1.7-1.4c0.2-0.2,0.4-0.4,0.6-0.6
				c-0.3,0-0.6,0-0.9,0h-0.1c-0.6,0.4-1.2,0.4-1.9,0.2c-0.1,0-0.3,0-0.4,0c-1.3,0-2.6,0-3.9,0c-0.9,0-1.8,0.1-2.8,0.2
				c-1.2,0.1-2.4,0.4-3.6,0.5c-1.6,0.1-3.1,0.1-4.7,0.2c-0.6,0-1.2-0.2-1.7-0.5c-0.8-0.5-0.8-1.9,0-2.5c0.5-0.4,1-0.5,1.6-0.5
				c0.3,0,0.7,0,1,0c1.6,0,3.3,0,4.9-0.2c0.6-0.1,1.1-0.1,1.7-0.2c0.8-0.1,1.6-0.2,2.5-0.3c0.5,0,1.1,0,1.7,0c0.3,0,0.6-0.1,1-0.1
				c-0.3,0-0.6,0-0.9-0.1c-3.9-0.1-7.8,0.2-11.6-0.2c-0.9-0.1-1.6-0.7-1.8-1.5c0-0.1,0-0.3,0-0.4c0.2-0.9,1-1.4,1.8-1.4
				s1.6,0.1,2.4,0.2c3.5,0,6.9,0,10.4,0c0.5,0,0.9,0.1,1.3,0.3c0.9,0.5,1.1,1.3,0.7,2.3c-0.2,0.3-0.4,0.5-0.7,0.7
				c-0.1,0-0.1,0.1-0.2,0.1c0.1,0,0.1,0.1,0.2,0.1c0.7,0,1.4,0.1,2.1,0c0.9-0.1,1.7-0.2,2.6,0c0.6,0.1,1.3,0.1,1.9,0.2
				c0.7,0.1,1.1-0.3,1.5-0.7c0.7-0.9,1.5-1.7,2.2-2.5c0.7-0.8,1.4-1.6,2-2.5c0.7-0.9,1.3-1.8,1.9-2.7c0.8-1.1,1.6-2.2,2.5-3.3
				c0.2-0.3,0.4-0.5,0.6-0.8c0.4-0.6,0.9-1.2,1.3-1.8c0.3-0.4,0.2-0.4-0.2-0.5c-1.5,0-3,0-4.5-0.1c-1.1-0.1-2.2,0-3.3,0.1
				c-0.8,0.1-1.6,0-2.4,0.3c-0.3,0.1-0.4,0.2-0.4,0.5c0,1.5,0,3.1,0,4.6c0,0.3-0.1,0.7-0.2,1c-0.2,1.1-0.9,2-1.5,3
				c-0.7,1.3-2.5,1.2-3.2-0.1s-1.1-2.8-1.6-4.2c-0.3-0.9-0.4-1.8-0.6-2.8c-0.1-0.5-0.3-1-0.5-1.4c-0.1-0.2-0.3-0.4-0.5-0.5
				c-0.1-0.1-0.3,0-0.3,0.2c0.1,0.5,0.2,1.1,0.3,1.6c0.1,0.4,0.1,0.8,0.2,1.2c0.1,0.5,0.1,1.1,0.2,1.6c0.2,1,0.4,2.1,0.3,3.2
				c-0.1,1.1-0.8,1.9-1.7,2c-1.7,0.2-3.1-0.5-4.2-1.8c-1.3-1.7-2.2-3.7-2.9-5.8c-0.3-0.8-0.3-1.7-0.5-2.6c-0.1-0.5-0.1-0.6-0.6-0.6
				c-2.1,0-4.1,0-6.1-0.1c-2.3-0.2-4.6,0.1-6.8-0.2c-0.9-0.1-1.8-0.1-2.7-0.2c-1.9-0.1-3.7,0-5.6,0c-0.2,0-0.3,0.1-0.2,0.3
				c0.3,0.9,0.5,1.7,0.7,2.6c0.2,1.1,0.1,2.2-0.2,3.2c-0.1,0.5-0.5,0.9-0.9,1.2c-0.5,0.4-1.1,0.5-1.8,0.2c-0.6-0.2-1.1-0.7-1.6-1.2
				c-0.1-0.1-0.1-0.1-0.2-0.1c0,0.1-0.1,0.2-0.1,0.2c0.1,0.6,0.2,1.2,0.1,1.8c-0.1,0.8-0.1,1.6-0.2,2.4c-0.1,0.8-0.4,1.5-1.1,1.9
				c-1,0.5-2.1,1.1-3.3,1s-2.1-1.2-1.8-2.4c0-0.1,0.1-0.3,0.1-0.4c0.3-0.5,0.2-1.1,0.1-1.6c-0.4-1.9-1-3.7-1.8-5.4
				c0-0.1-0.1-0.1-0.1-0.2c0,0.1-0.1,0.1-0.1,0.2c-0.2,0.9-0.3,1.9-0.5,2.8c-0.2,0.9-0.6,1.7-0.9,2.6c-0.1,0.3-0.2,0.6-0.4,0.9
				c-0.4,0.6-1,1.1-1.9,1c-0.8-0.1-1.3-0.5-1.6-1.2c-0.2-0.4-0.3-0.9-0.4-1.3c-0.2-1-0.4-2-0.9-2.9c-0.1-0.2-0.2-0.4-0.2-0.6
				c0-0.8-0.5-1.4-1.1-1.9c-0.2-0.2-0.4-0.6-0.6-0.7c-0.3-0.1-0.6-0.1-0.9-0.1c-0.1,0-0.2-0.1-0.3-0.1c-0.6-0.1-1.3-0.2-1.7,0.5
				c-0.2,0.3-0.5,0.4-0.9,0.4c-0.6-0.1-1.2-0.1-1.7-0.7c-0.2-0.3-0.6-0.4-1-0.5c-0.6-0.1-1.1-0.1-1.7-0.2c-0.4,0-0.8-0.1-1.2-0.1
				c-1.1,0-2.2-0.2-3.2,0.2c-0.3,0.1-0.6,0.2-0.9,0.2c-1.7,0-3.5,0-5.2,0.2c-2.3,0.2-4.6,0-6.8,0.2c-1.5,0.1-3.1,0.1-4.6,0.2
				c-0.5,0-1,0-1.5,0.1c-0.2,0.1-0.5,0-0.8,0c-0.2,0-0.4-0.1-0.6-0.1c-1.9-0.1-3.7,0-5.6-0.1c-3.5-0.2-7.1,0.1-10.7-0.2
				c-2.2-0.2-4.5,0.1-6.7-0.2c-3.4,0.1-6.9-0.1-10.3-0.2C24.4,180.8,23.1,180.8,21.9,180.8z M110.9,17.6v0.1c0.5,0,1-0.1,1.5,0
				c1.1,0.2,2.1,0.4,3.2,0.7c0.6,0.1,1,0.5,1.2,1s0.2,1.2-0.3,1.6c-0.3,0.3-0.6,0.6-0.9,0.9c-0.2,0.2-0.5,0.3-0.7,0.3
				c-0.4,0-0.9-0.1-1.3-0.1c-0.3,0-0.6-0.1-0.9,0c-0.4,0.2-0.9,0.1-1.3,0.1c-1.3,0.1-2.5,0.1-3.8,0.2c-0.7,0.1-1.4,0.3-2.1,0.4
				c-0.3,0.1-0.4,0.1-0.1,0.4c1,0.9,2.2,1.5,3.4,1.9s2.4,0.8,3.7,1.1c0.2,0.1,0.3,0,0.5-0.1c0.4-0.4,0.8-0.7,1.3-1
				c0.7-0.5,1.6-0.9,2.5-1.2c1.4-0.4,2.7-0.8,4.1-1.2c0.3-0.1,0.6-0.1,0.9-0.2c0.2,0,0.2-0.1,0.1-0.3c-0.3-0.5-0.7-1-1-1.5
				c-0.5-0.7-1-1.5-1.3-2.4s-0.5-1.9-0.9-2.8c-0.3-0.8-0.5-1.6-1.5-1.9c-0.2-0.1-0.3-0.3-0.5-0.4c-0.8-0.7-1.6-1-2.7-0.7
				c-0.6,0.2-1.2,0.3-1.8,0.4c-0.9,0.2-1.9,0.3-2.8,0.5c-0.6,0.1-1.2,0.4-1.8,0.5c-0.9,0.1-1.6,0.6-2.2,1.2
				c-0.2,0.2-0.4,0.4-0.6,0.6c-1.2,0.9-2.5,1.8-3.7,2.8c-0.5,0.4-0.8,0.9-1.1,1.4c-0.1,0.2-0.1,0.5-0.1,0.8c0.2-0.1,0.4-0.1,0.6-0.2
				c0.4-0.2,0.8-0.3,1.1-0.6c1.1-0.8,2.3-1.3,3.6-1.6c0.8-0.2,1.5-0.3,2.3-0.4C108.7,18,109.8,17.8,110.9,17.6z M69.2,204.6
				c-0.1-0.9-0.3-1.2-1.1-1.2s-1.5-0.1-2.3,0.1c-0.5,0.1-1.1,0.2-1.7,0.1c-1.1-0.3-1.6,0.1-2,1.2c-0.3,0.7-0.4,1.5-0.8,2.2
				c-0.9,1.8-1.4,3.7-2.4,5.5c-0.3,0.6-0.6,1.2-0.5,1.9c0.1,0.5,0.1,0.5,0.5,0.6c0.5,0.1,1.1,0.2,1.6,0.3c0.9,0.2,1.8,0.5,2.7,0.8
				c0.5,0.1,1.1,0,1.4-0.4c0.2-0.4,0.4-0.7,0.6-1.1c0.5-1.1,1-2.2,1.4-3.3c0.4-1,1-2.1,1.3-3.2c0.3-0.9,0.6-1.7,0.9-2.6
				C69.1,205.3,69.1,205,69.2,204.6z M154.1,175.3c0.1,0,0.2,0,0.3,0c0-0.1,0-0.3-0.1-0.4c-0.2-0.3-0.6-0.5-1-0.4
				c-0.8,0-1.7,0.1-2.5,0.2c-0.9,0-1.8,0.1-2.7,0.3c-0.2,0-0.5,0-0.7,0c-0.4-0.1-0.8-0.3-1.2-0.5c-0.7-0.4-1.3-0.9-1.9-1.3
				c-0.7-0.5-1.4-1-2.2-1.4c-1-0.4-1.9-0.9-2.9-1.3c-1.1-0.4-2.1-0.8-3.3-0.8c-0.6,0-1.2-0.1-1.8-0.3c-1.3-0.3-2.6-0.8-3.7-1.4
				c-0.6-0.3-0.6-0.3-1.1,0.2c-0.2,0.2-0.1,0.3,0.1,0.3c1,0.3,1.9,0.7,2.9,1c0.8,0.2,1.5,0.5,2.2,0.9c0.4,0.2,0.7,0.5,1.1,0.6
				c1.6,0.4,2.8,1.5,4.3,2.2c0.7,0.3,0.9,1.2,0.7,1.9s-0.8,1.1-1.4,1.4c-0.4,0.2-0.9,0.3-1.3,0.5c-0.6,0.2-0.7,0.5-0.5,1.3
				c0.2,0.7,0.3,1.4,0.5,2.2c0.1,0.6,0.2,1.2,0.4,1.8c0.1,0.4,0.4,0.7,0.5,1.1c0.2,1,0.9,1.9,1.3,2.8c0,0.1,0.1,0.1,0.2,0.2
				c0-0.1,0.1-0.2,0.1-0.2c-0.2-1-0.3-2-0.5-2.9c-0.2-1-0.3-2-0.6-3s0.1-1.7,1-2.2c0.4-0.2,0.9-0.3,1.4-0.3c0.6,0,1.3,0,1.9,0
				c0.2,0,0.5,0,0.7,0.1c1.3,0.4,2,1.5,2.6,2.6c0.6,1.2,0.7,2.5,0.9,3.7c0,0.1,0,0.2,0.1,0.2c0-0.1,0.1-0.2,0.1-0.3c0-1.5,0-3,0-4.5
				c0-0.1,0-0.3,0-0.4c-0.2-0.7,0.1-1.3,0.5-1.9c0.4-0.4,0.9-0.7,1.4-0.9c0.6-0.2,1.2-0.5,1.8-0.7s1.2-0.3,1.8-0.4
				C153.3,175.1,153.7,175.2,154.1,175.3z M59.6,204.3c0-0.6-0.7-1.3-1.4-1.4c-0.7,0-1.4,0.1-2.1,0.1c-0.7,0-1.1,0.4-1.4,1
				c-0.1,0.3-0.2,0.6-0.4,1c-0.6,1.2-1.2,2.4-1.8,3.7c-0.2,0.3-0.3,0.6-0.6,0.8c-0.7,0.6-0.8,1.3-0.3,2.1c0.3,0.4,0.7,0.6,1.2,0.7
				c0.6,0.2,1.3,0.3,1.9,0.4c0.5,0.1,0.6,0.2,0.7-0.3c0.1-0.5,0.4-0.8,0.7-1.2s0.6-0.9,1-1.2c0.2-0.1,0.3-0.4,0.4-0.6
				c0.6-1.4,1.2-2.7,1.7-4.1C59.4,205,59.4,204.7,59.6,204.3z M125.9,168c0.6,0.2,0.9-0.2,1.2-0.7c0.2-0.4,0.5-0.8,0.7-1.2
				c0.3-0.5,0.3-0.7-0.1-1.1c-0.8-0.8-1.1-1.8-1.4-2.9c-0.1-0.3-0.1-0.5-0.4-0.7c-0.3-0.1-0.5-0.3-0.9-0.2c-0.9,0.3-1.8,0.6-2.7,0.9
				c-1.1,0.4-2.2,0.9-3.3,1.3c-0.3,0.1-0.5,0.1-0.5,0.5c0,0.3,0.1,0.5,0.4,0.6c0.9,0.5,1.9,1.1,2.8,1.6c1,0.5,2,1,3,1.5
				C125,167.9,125.4,168,125.9,168z"/>
			<path d="M141.7,75.6c-0.9,0-1.4-0.5-1.7-1.4c-0.2-0.7-0.4-1.5-0.5-2.2c0-0.1-0.1-0.2-0.1-0.3c0,0.1,0,0.2-0.1,0.2
				c0,0.1-0.1,0.2-0.1,0.2c0,0.9-0.3,1.8-0.4,2.7c-0.2,1.4-0.6,2.7-1.6,3.7c-0.5,0.5-1.3,0.8-2.1,0.2c-0.4-0.2-0.5-0.6-0.6-1
				s-0.1-0.9,0.1-1.4c0.6-1.3,0.8-2.7,1.2-4c0-0.1,0-0.3,0-0.4c0-1.2,0-2.4,0-3.6c0-0.8-0.2-1.5-0.4-2.2c-0.3-1-0.6-2.1-0.9-3.1
				c-0.1-0.4-0.3-0.9-0.5-1.3c-0.7-1.3-1.4-2.6-2.6-3.5c-1.8-1.5-3.5-3-5.6-4.1c-0.5-0.3-1.1-0.5-1.8-0.6c-0.4,0-0.8-0.1-1.3-0.2
				c-0.9-0.2-1.4-0.9-1.6-1.7c-0.2-0.6,0.2-1.4,0.9-1.7c0.4-0.2,0.9-0.3,1.4-0.2c1,0.1,2,0.5,2.9,0.9c1.4,0.7,2.9,1.3,4.3,2.1
				c2.1,1.1,4.2,2.2,6.2,3.6c1.2,0.8,2.4,1.6,3.6,2.5c0.5,0.4,1,0.9,1.5,1.3s1,0.9,1.5,1.3c0.2,0.2,0.4,0.5,0.5,0.8
				c0.3,0.6,0.2,1.3-0.3,1.8s-1.2,0.6-1.8,0.3c-0.2-0.1-0.5-0.3-0.6-0.4c-0.7-0.6-1.3-1.2-2-1.8c-0.1-0.1-0.1-0.1-0.2-0.1
				c0,0.1,0,0.2,0,0.3c0.5,1,1,2,1.4,3c1.1,2.4,2,5,2.6,7.6c0.1,0.4,0.2,0.8,0.2,1.3C143.3,74.9,142.6,75.6,141.7,75.6z"/>
			<path d="M121.6,76.1c-0.1,0.7-0.2,1.5-0.4,2.2c-0.3,1.2-0.7,2.4-1.1,3.6c-0.4,1.2-1.1,2.2-1.7,3.3c-0.5,1-1.3,1.8-2.1,2.6
				c-0.3,0.3-0.5,0.6-0.7,0.9c-0.5,0.9-1.2,1.7-2.1,2.3c-0.2,0.1-0.3,0.3-0.4,0.4c-0.6,0.8-1.4,1.4-2.1,2.1c-0.8,0.7-1.6,1.4-2.3,2
				c-0.1,0.1-0.2,0.2-0.3,0.2c-0.8,0.9-1.7,1.6-2.7,2.3c-1.1,0.8-1.9,1.7-2.7,2.8c-0.3,0.5-0.8,0.8-1.4,0.9
				c-1.2,0.2-2.2-1.4-1.5-2.4c0.4-0.6,0.8-1.3,1.3-1.9c0.9-1.1,2-1.9,3.1-2.7c0.5-0.4,1-0.7,1.4-1.1c1-0.9,2-1.9,3-2.8
				c0.6-0.5,1.2-1.1,1.7-1.7c0.2-0.3,0.6-0.5,0.9-0.8c0.8-0.6,1.2-1.5,1.8-2.3c0.1-0.2,0.3-0.4,0.4-0.5c0.7-0.7,1.3-1.4,1.7-2.2
				c0.9-1.5,1.6-3.2,2-4.9c0.2-0.8,0.3-1.5,0.4-2.3c0.1-0.8,0.3-1.5,1.2-1.8c1.1-0.3,2.1,0.3,2.2,1.4
				C121.6,75.8,121.6,76,121.6,76.1L121.6,76.1z"/>
			<path d="M85.9,110.6c-0.1-0.7,0.3-1.3,0.6-1.9c0.7-1.5,1.6-2.8,2.5-4.1c0.7-1,1.4-2.1,2.1-3.1c0.2-0.4,0.5-0.8,0.7-1.2
				c0.4-1.1,1.1-1.9,1.8-2.8c0.5-0.6,0.9-1.2,1.4-1.8c0.9-1.2,1.7-2.5,2.6-3.8c0.4-0.6,0.8-1.1,1.3-1.6c0.9-1,1.8-2.1,2.8-3.1
				c0.6-0.6,1.1-1.3,1.9-1.6c1.4-0.5,2.5,0.7,2.3,1.6c-0.1,0.3-0.2,0.6-0.4,0.8c-0.7,0.8-1.5,1.6-2.2,2.4c-1.5,1.5-2.9,3.1-4,4.9
				c-0.8,1.3-1.7,2.6-2.7,3.8c-0.9,1-1.5,2.2-2.2,3.4c-0.8,1.4-1.7,2.7-2.6,4c-0.8,1.2-1.6,2.3-2.2,3.6c-0.2,0.4-0.4,0.8-0.6,1.2
				c-0.5,0.9-1.5,1.1-2.4,0.5C85.9,111.6,85.9,111.1,85.9,110.6z"/>
			<path d="M144.3,133.5c-1.3,0-2.1-1.2-1.5-2.3c0.4-0.7,0.9-1.3,1.4-2c0.9-1.2,1.9-2.5,2.8-3.7c1-1.5,2-3,3-4.5
				c0.5-0.8,1-1.6,1.4-2.4c0.8-1.5,1.6-2.9,2.3-4.4c0.3-0.6,0.6-1.3,0.8-1.9c0.4-1.1,1.1-1.4,1.8-1.4c0.7,0,1.4,0.7,1.5,1.4
				c0,0.6,0,1.1-0.3,1.6c-0.6,1.3-1.2,2.6-1.9,3.9c-0.9,1.7-2,3.4-3,5.1c-0.6,1-1.2,2-1.9,3c-0.9,1.3-1.9,2.7-2.8,4
				c-0.7,1-1.5,2-2.2,2.9C145.3,133.2,144.9,133.6,144.3,133.5z"/>
			<path d="M128.3,18.2c0.1-0.5,0.2-1,0.4-1.5c0.3-0.8,0.5-1.7,0.8-2.5c0.2-0.5,0.1-0.8-0.3-1.1c-1-0.8-1.9-1.5-2.9-2.3
				c-0.5-0.4-0.9-0.8-1.1-1.4c-0.1-0.3-0.1-0.7,0-1c0.3-0.6,0.7-1,1.4-1.1c0.5-0.1,1.1,0.2,1.5,0.5c0.8,0.7,1.7,1.5,2.5,2.2
				c0.2,0.2,0.3,0.2,0.4-0.1c0.2-0.6,0.5-1.3,0.7-1.9c0.2-0.7,0.8-1.3,1.4-1.3c0.8-0.1,1.5,0.3,1.8,1.1c0.2,0.5,0.2,1,0,1.4
				c-0.3,0.9-0.6,1.8-1,2.6c-0.2,0.5-0.1,0.8,0.2,1.1c0.8,0.7,1.6,1.4,2.4,2c0.7,0.6,1.2,1.8,0.3,2.7c-0.7,0.6-1.7,0.5-2.3,0
				s-1.1-1-1.7-1.5c-0.2-0.2-0.3-0.2-0.4,0.1c-0.2,0.8-0.6,1.5-0.7,2.4c-0.1,0.8-0.5,1.4-1.4,1.6c-0.5,0.1-1.3-0.2-1.6-0.6
				C128.4,19,128.3,18.8,128.3,18.2z"/>
			<path d="M169,79c-0.1,1.2-0.1,2.5-0.2,3.7c-0.1,1.4-0.3,2.8-0.5,4.2c-0.4,2.3-0.7,4.6-1.5,6.8c-0.1,0.3-0.1,0.7-0.2,1
				c-0.3,0.7-0.7,1.2-1.5,1.3c-1,0.2-2.1-0.8-1.7-2.2c0.2-0.6,0.3-1.3,0.5-1.9c0.5-1.6,0.7-3.2,1-4.8c0.2-1.4,0.4-2.7,0.5-4.1
				c0.2-1.6,0.3-3.3,0.3-4.9c0-0.7-0.2-1.3-0.2-2c-0.1-1,0.6-1.8,1.4-2c0.7-0.1,1.4,0.3,1.7,1.1c0.2,0.6,0.3,1.3,0.4,2
				C169,77.9,168.9,78.4,169,79C168.9,79,168.9,79,169,79z"/>
			<path d="M163.7,70.6c-0.1,0.8,0.1,1.5-0.2,2.1c-0.4,1.2-1.8,1.6-2.6,0.7c-0.3-0.3-0.4-0.7-0.5-1.2c-0.1-0.4,0-0.8,0-1.2
				c0-1-0.1-2-0.3-3.1c-0.1-0.8-0.2-1.7-0.4-2.5c-0.4-2.2-0.8-4.4-1.5-6.6c-0.1-0.4-0.3-0.7-0.5-1.1c-0.2-0.3-0.3-0.6-0.3-1
				c0-0.9,0.5-1.6,1.4-1.7c0.5,0,0.9,0.2,1.3,0.5c0.6,0.5,0.9,1.1,1.1,1.8c0.4,1.3,0.7,2.6,1,3.9s0.5,2.6,0.7,3.9
				c0.2,0.9,0.4,1.7,0.5,2.6C163.6,68.7,163.7,69.7,163.7,70.6z"/>
			<path d="M159.5,46.3c0.1,0.7-0.4,1.1-0.9,1.4c-0.6,0.3-1.1,0.1-1.6-0.2c-0.3-0.2-0.5-0.5-0.7-0.7c-1-1.3-1.9-2.7-2.9-4
				c-0.6-0.8-1.3-1.6-2-2.4s-1.4-1.6-2.1-2.4c-0.2-0.3-0.5-0.5-0.8-0.7c-0.3-0.3-0.6-0.5-0.8-0.8c-0.5-0.5-0.5-1.5-0.1-2.1
				c0.5-0.7,1.2-0.8,2-0.5c0.3,0.2,0.6,0.4,0.8,0.6c0.8,0.8,1.6,1.6,2.4,2.4c1,1.1,1.9,2.3,2.8,3.5c1.1,1.4,2.2,2.9,3.3,4.4
				C159.3,45.2,159.6,45.7,159.5,46.3z"/>
			<path d="M104.3,75.4c-0.1,0.4-0.2,0.8-0.4,1.1c-1.1,2.4-2.6,4.6-4.1,6.9c-0.7,1-1.3,2-1.9,3.1c-0.3,0.6-0.7,1.1-1.4,1.2
				c-1.1,0.2-2.2-1-1.7-2.1c0.3-0.8,0.7-1.6,1.1-2.3c1-1.7,2.2-3.3,3.2-5c0.7-1,1.3-2.1,1.7-3.3c0.2-0.5,0.6-0.9,1.1-1.2
				c0.9-0.5,2.1,0.2,2.2,1.2C104.2,75.2,104.2,75.3,104.3,75.4C104.2,75.4,104.2,75.4,104.3,75.4z"/>
			<path d="M169.6,56.9c0.1,1-0.3,1.5-1,1.8c-0.6,0.3-1.2,0.2-1.7-0.4c-0.3-0.3-0.5-0.7-0.7-1.1c-1-2.3-2-4.6-3.1-6.8
				c-0.3-0.7-0.7-1.3-1.1-2c-0.5-0.8-0.1-2.2,1.1-2.5c0.6-0.1,1.2,0.1,1.6,0.5c0.4,0.5,0.8,1,1,1.7c0,0.2,0.1,0.3,0.2,0.5
				c0.7,1.4,1.4,2.8,2.1,4.2c0.5,1.2,1,2.4,1.5,3.5C169.6,56.7,169.6,56.9,169.6,56.9z"/>
			<path d="M103.3,152.7c0-0.7,0.4-1.1,0.9-1.5c0.9-0.6,1.8-1.1,2.7-1.7c1.2-0.8,2.5-1.6,3.7-2.3c0.6-0.3,1.1-0.7,1.8-0.7
				c0.7,0.1,1.5,0.8,1.7,1.4c0.1,0.5-0.2,1.4-0.7,1.6c-1.4,0.6-2.5,1.5-3.7,2.2s-2.4,1.5-3.7,2.2c-0.5,0.3-1,0.6-1.6,0.3
				C103.6,153.9,103.3,153.5,103.3,152.7z"/>
			<path d="M155.4,33.8c-0.8,0.1-1.2-0.4-1.8-0.8c-1.2-1-2.4-1.9-3.6-2.9c-0.5-0.4-1-0.9-1.4-1.4s-0.5-1.1-0.3-1.6
				c0.3-0.6,0.7-1,1.5-1c0.5,0,0.9,0.2,1.3,0.5c1.1,0.9,2.2,1.7,3.2,2.6c0.8,0.6,1.5,1.3,2.3,2c0.7,0.7,0.6,2.2-0.4,2.5
				C155.8,33.7,155.6,33.8,155.4,33.8z"/>
			<path d="M95.8,121.5c0.9,0,1.7,0.8,1.7,1.6c0,0.3-0.1,0.7-0.4,1c-1.3,1.3-2.4,2.8-3.4,4.3c-0.4,0.5-0.9,0.7-1.5,0.7
				s-1.2-0.3-1.4-1c-0.2-0.6-0.2-1.2,0.2-1.7c0.8-1,1.5-2.1,2.3-3.1c0.3-0.4,0.7-0.9,1.1-1.2C94.8,121.7,95.3,121.5,95.8,121.5z"/>
			<path d="M107.8,111.3c-0.1-0.8,0.3-1.3,1-1.6c0.7-0.2,1.5,0.1,1.9,0.8c0.6,0.9,0.5,2-0.3,2.6c-0.7,0.6-2,0.4-2.4-0.5
				C107.8,111.9,107.8,111.9,107.8,111.3z"/>
			<path d="M141.2,29.7c0-1.3,1.2-2,2.3-1.5c0.6,0.3,0.9,0.8,1.1,1.3c0.2,0.6-0.2,1.5-0.8,1.9c-0.5,0.3-1.3,0.2-1.8-0.2
				C141.6,30.8,141.1,30.3,141.2,29.7z"/>
			<path d="M103.6,114.2c0.9,0,1.6,0.7,1.6,1.6c0,0.9-0.7,1.7-1.5,1.7c-0.9,0-1.6-0.7-1.6-1.7S102.7,114.2,103.6,114.2z"/>
			<path d="M120,198.1c-0.1-0.1-0.5-0.2-0.7-0.4c-0.3-0.4-0.7-0.4-1.2-0.4c-2,0-4-0.1-6,0c-2.6,0.2-5.3,0.2-7.9,0.1
				c-3.4-0.2-6.8,0-10.1-0.2c-2-0.1-4,0-6.1-0.1c-0.5,0-1.1-0.2-1.6-0.4s-0.9-1.1-0.8-1.6c0-0.1,0.1-0.3,0.2-0.4
				c0.2-0.3,0.5-0.5,0.7-0.7c0.3-0.3,0.7-0.5,1.2-0.3c0.2,0.1,0.4,0.1,0.6,0.1c4,0.1,8,0.1,12,0.2c0.9,0,1.9-0.1,2.8,0
				c2.4,0.2,4.9,0.3,7.3,0.1c2.9-0.2,5.8-0.1,8.7-0.1c0.8,0,1.6,0.1,2.3,0.7c0.6,0.5,0.8,1.6,0.5,2.3
				C121.6,197.7,120.9,198.1,120,198.1z"/>
			<path d="M84.3,190.2c-0.5-0.1-1.2-0.2-2-0.3c-0.5-0.1-1-0.1-1.5-0.2c-0.8-0.1-1.6-0.1-2.4-0.2c-0.5,0-1.1-0.1-1.6-0.2
				c-0.5,0-1,0.1-1.5-0.2c0,0-0.1,0-0.2,0c-1.6-0.1-3.2-0.1-4.7-0.2c-1.6-0.1-3.2-0.1-4.8-0.2c-1-0.1-2-0.2-2.9-0.5
				c-1.1-0.3-1.5-1.4-1-2.3c0.3-0.6,1.1-1,1.8-0.8c1.2,0.2,2.4,0.4,3.6,0.4c2,0,4,0,6,0.2c0.9,0.1,1.7,0.1,2.6,0.2
				c1.3,0.1,2.7,0.2,4,0.3c1,0.1,2,0.2,3,0.3c0.4,0,0.8,0.1,1.2,0.2c0.4,0.1,0.7,0,1-0.3c0.5-0.4,1.1-0.4,1.6-0.1
				c0.5,0.3,0.9,0.7,0.9,1.4C87.2,189.3,86.2,190.2,84.3,190.2z"/>
			<path d="M53.1,191.3c1.5,0,3,0,4.5,0c2.2,0,4.5,0,6.7,0.2c1.2,0.1,2.5,0.1,3.6,0.7c0.4,0.2,0.8,0.4,1.1,0.7
				c0.6,0.6,0.8,1.7-0.2,2.4c-0.6,0.4-1.2,0.3-1.7,0.1c-0.7-0.3-1.4-0.3-2.1-0.4c-1.7-0.2-3.4,0-5.1-0.2c-4.5-0.3-9.1-0.1-13.6-0.2
				c-0.6,0-1.2-0.1-1.6-0.6c-1-1-0.3-2.2,0.6-2.6c0.3-0.1,0.7-0.2,1.1-0.2C48.6,191.3,50.8,191.3,53.1,191.3L53.1,191.3z"/>
			<path d="M123.5,189.4c-0.5,0-1,0-1.5,0c-0.7,0-1.4-0.1-2.1-0.2c-0.7-0.1-1.3-0.6-1.5-1.3c-0.3-0.9,0.3-1.9,1.3-2
				c0.5-0.1,1,0,1.5,0c0.3,0,0.6,0.1,0.8,0.1c0.8,0,1.7,0,2.5,0c0.3,0,0.7-0.1,1-0.1c1.1-0.2,2.3,0.6,2.3,1.7c0,0.5-0.2,1-0.7,1.3
				s-1,0.5-1.6,0.5S124.2,189.4,123.5,189.4L123.5,189.4z"/>
			<path d="M48.9,188.9c-0.9-0.1-1.6-0.3-2.1-1.1c-0.7-1.2,0-2.3,1.1-2.4c0.7-0.1,1.4,0.1,2.1,0.4c0.5,0.2,1,1.1,0.8,1.6
				c-0.2,0.8-0.8,1.4-1.6,1.4C49.1,188.9,49,188.9,48.9,188.9z"/>
		</g>
	</g>
</g>
</svg>
