<?xml version="1.0" encoding="utf-8"?>
<!-- Generator: Adobe Illustrator 28.0.0, SVG Export Plug-In . SVG Version: 6.00 Build 0)  -->
<svg version="1.1" id="Layer_1" xmlns="http://www.w3.org/2000/svg" xmlns:xlink="http://www.w3.org/1999/xlink" x="0px" y="0px"
	 viewBox="0 0 1920 1080" style="enable-background:new 0 0 1920 1080;" xml:space="preserve">
<style type="text/css">
	.st0{fill:#FFFFFF;}
</style>
<g>
	<g id="A13aRg_00000098181714207879909720000012674423816006437760_">
		<path class="st0" d="M965.7,650.2c-0.5,0-0.9,0-1.4,0c-0.5,0-1,0-1.5,0c-0.3,0-0.6,0-0.9,0c0,0,0,0,0,0c-0.2,0-0.4,0-0.7-0.1
			l-0.1,0c-0.2,0-0.3,0-0.5-0.1c-0.2,0-0.4,0-0.6,0c-0.3,0-0.5,0-0.7-0.1c-0.8-0.2-1.6-0.2-2.3-0.2l-0.2,0c-0.4,0-0.8,0-1.3,0
			c-0.5,0-0.9,0-1.4,0l-0.4,0c-1.2,0-2.3-0.1-3.3-0.3l-0.5-0.1l-0.9,0c-0.2,0-0.4,0-0.5,0c-1.3,0-2.6-0.1-4.1-0.3l-0.3,0l-0.8,0
			c-0.6,0-1.3-0.1-1.9-0.2l-0.5-0.1h-0.6c-1,0-1.9-0.2-2.9-0.5c-0.5-0.1-1.1-0.2-1.7-0.4c-0.6-0.1-1.1-0.2-1.6-0.4
			c-0.9-0.2-1.7-0.5-2.6-0.7l-1.1-0.3c-0.1,0-0.1,0-0.2-0.1c-2.3-1.2-4.8-2.1-7.2-2.9l-0.2-0.1c-0.6-0.2-1.2-0.5-1.7-0.7l-1.3-0.6
			c-1-0.5-2-1-3-1.5c-0.8-0.4-1.5-0.8-2.2-1.3c-0.4-0.2-0.8-0.5-1.2-0.7c-0.2-0.1-0.4-0.2-0.6-0.3l-0.4-0.2c-1.3-0.7-2.4-1.2-3.4-2
			c-0.6-0.4-1.2-0.8-1.8-1.1c-0.2-0.1-0.5-0.2-0.7-0.4c-0.7-0.4-1.3-0.7-1.6-1.1c-0.2-0.2-0.4-0.5-0.6-0.7l-1.1-1.5l-1.8-0.5
			c-0.1,0-0.3-0.2-0.5-0.3c-0.4-0.3-0.7-0.6-1.1-0.9l-0.5-0.4l-0.6-0.5c-0.4-0.3-0.8-0.6-1.2-1c-0.8-0.7-1.4-1.5-1.8-2.2l-0.3-0.6
			l-0.5-0.5c-0.3-0.3-0.6-0.6-0.8-0.9c-0.5-0.6-1.1-1.3-1.8-1.9c-0.4-0.3-0.8-0.8-1.2-1.2c-0.2-0.2-0.4-0.4-0.5-0.6
			c-0.2-0.3-0.5-0.5-0.7-0.8c-0.3-0.3-0.5-0.6-0.7-0.8c-0.4-0.4-1.2-1.3-1.2-1.3c-0.4-0.4-0.8-0.8-1.2-1.3c-0.3-0.3-0.5-0.6-0.7-0.9
			l-0.5-0.6c-0.7-0.9-1.4-1.8-2-2.8c-0.4-0.8-0.8-1.7-1.1-2.8l-0.2-0.6l-0.2-0.5c-0.3-0.6-0.7-1.2-1-1.9c-0.4-0.6-0.7-1.3-1.2-1.9
			l-0.1-0.1c-0.6-1-0.9-2.3-1.1-3.3c-0.4-1.8-0.8-3.5-1.4-5.1c-0.4-1.1-0.7-2.3-0.9-3.8c-0.1-0.6-0.2-1.3-0.3-2l-0.1-0.8
			c-0.1-0.9-0.3-1.8-0.5-2.6c-0.1-0.3-0.2-0.6-0.2-0.9l-0.2-1c-0.1-0.6-0.3-1.2-0.4-1.8c-0.1-0.4-0.2-0.8-0.2-1.2l-0.1-0.7
			c0-0.2-0.1-0.4-0.1-0.6c-0.1-0.3-0.1-0.6-0.2-1c-0.1-0.6-0.2-1.2-0.2-1.8c-0.1-0.8-0.2-1.6-0.3-2.4c-0.1-0.6-0.2-1.3-0.3-2
			c-0.1-0.6-0.2-1.2-0.3-1.8c-0.1-0.4-0.1-0.8-0.1-1.1c0-0.4-0.1-0.7-0.1-1c-0.1-0.4-0.1-0.9-0.2-1.3c-0.1-0.4-0.1-0.7-0.1-1
			c0-0.1,0-0.2,0-0.4l0-2.4c0-3.9,0-7.8,0-11.8c0-0.2,0-0.4,0.1-0.7c0-0.2,0.1-0.4,0.1-0.6c0-0.2,0-0.4,0-0.6c0-0.2,0-0.3,0-0.4
			l0.1-0.3l0-0.3c0-0.2,0.1-0.7,0.1-1c0-0.2,0-0.3,0-0.5l0.4-2.9v-0.5c0-1.5,0.3-3.3,0.9-5.4c0.6-2.1,1.3-4.3,2-6.4
			c0.8-2.3,1.6-4.6,2.5-6.6c0.4-0.9,0.9-1.8,1.5-2.8l0.6-1.1c0.9-1.5,1.8-3.1,2.4-4.8c0.3-0.8,0.7-1.6,1.1-2.4l0.3-0.7
			c0.5-1.2,1.3-2.2,2.2-3.4c1.1-1.4,2-2.8,2.8-4.1c0.4-0.7,0.8-1.2,1.2-1.6c1.1-1.1,2.3-2.3,3.4-3.3l0.9-0.8c0.8-0.7,1.5-1.4,2.1-2
			c0.4-0.4,0.8-0.7,1.2-1c0,0,0.6-0.5,0.9-0.7c0.2-0.2,0.4-0.4,0.7-0.6c0.3-0.3,0.6-0.5,0.8-0.7c0.4-0.3,0.8-0.7,1.2-1
			c0.7-0.6,1.4-1.1,2-1.7c1-0.8,1.9-1.6,2.9-2.2c0.6-0.4,1.3-0.9,1.9-1.3c0.9-0.6,1.8-1.2,2.7-1.8c0.7-0.5,1.5-0.9,2.3-1.2
			c2.1-0.9,4.2-2,6.2-3.1c0.7-0.4,1.5-0.8,2.3-1.2c0.5-0.2,0.9-0.4,1.3-0.6c1.3-0.7,2.7-1.2,4.2-1.7l1.5-0.5c1.5-0.5,3-0.9,4.5-1.3
			c0.6-0.2,1.2-0.3,1.8-0.4l0.1,0c0.3-0.1,0.6-0.1,0.9-0.2l1.1-0.2c0.8-0.2,1.5-0.3,2.3-0.4c0.3-0.1,0.6-0.1,0.9-0.1
			c0.3,0,0.5-0.1,0.7-0.1l3.2-0.5c0.5-0.1,1-0.1,1.5-0.2c0.2,0,0.4,0,0.6,0c0.2,0,0.4,0,0.7,0l0.6,0c1,0,2.1-0.1,3.5-0.4
			c0.6-0.1,1.3-0.1,2-0.2c0.3,0,0.6,0,0.9,0l1.5,0c0.9,0,1.9,0.1,2.8,0.3c0.6,0.1,1.1,0.1,1.6,0.2c0.2,0,0.4,0,0.7,0.1
			c1.8,0.2,3.5,0.2,4.8,0.2c0.7,0,1.4,0,2.2,0l0.1,0c0.7,0,1.3,0,2,0c0.7,0,1.4,0,1.9,0c0.5,0,0.7,0.1,0.9,0.1l7.3,1.9l-1.1-7.5
			c0-0.2,0-0.3-0.1-0.5c-0.1-0.6-0.2-1.1-0.3-1.6c-0.1-0.6-0.2-1.2-0.3-1.8c-0.1-0.3-0.1-0.6-0.1-0.9c0,0-0.1-0.5-0.1-0.7
			c-0.1-0.4-0.1-0.8-0.2-1.1c-0.3-1.4-0.3-3-0.3-4.5l0-1.9l0-2.5l-1.9-1.5c-0.2-0.2-0.5-0.4-0.8-0.7l-2.4-2.4l-3.1,1.3
			c-0.2,0.1-0.4,0.2-0.5,0.2c0,0-0.1-0.1-0.1-0.3c-0.1-1,0-1.9,0.3-2.7c0.3-0.9,0.7-1.7,1.3-2.4c0.1-0.2,0.3-0.3,0.6-0.5l1.8-1.2
			l0.3-2.1c0.1-0.8,0.3-1.5,0.6-2.1c0.5-1.1,1.2-2,2.4-2.9c0.2-0.1,0.3-0.3,0.5-0.4c0.1-0.1,0.2-0.2,0.3-0.2c0.7-0.6,1.5-1,2.5-1.4
			l0.2-0.1l0.2-0.1c0.1-0.1,0.3-0.1,0.4-0.2l0.1-0.1c1.6-0.9,3.2-1.5,4.7-2l1.5-0.5l1-1.2c0.1-0.1,0.2-0.2,0.4-0.3
			c0.2-0.1,0.4-0.2,0.5-0.3c0.2-0.1,0.3-0.2,0.5-0.2c0.6-0.2,1-0.4,1.5-0.4c0.4,0,0.7,0,1,0c1.1,0,1.9-0.1,2.7-0.4l0,0
			c2-0.1,3.7-0.2,5.3-0.2c0.6,0,1.3,0,1.9,0c0.3,0,0.6,0.1,1,0.2l0.5,0.1c1,0.3,2.1,0.6,3.1,1c1.3,0.4,2.5,1,3.7,1.5l0.2,0.1
			c2.4,1,4.6,2.4,6.9,3.9c0.3,0.2,0.7,0.5,1.1,0.8c0.4,0.3,0.7,0.6,1,0.8c1.2,0.9,2.4,2,3.3,2.9c0.2,0.2,0.5,0.4,0.8,0.7
			c0.2,0.2,0.5,0.4,0.6,0.6c0.1,0.2,0.2,0.3,0.2,0.4l-0.9,2.9l2.5,2.4c0.6,0.6,1.3,1.2,1.9,1.8c1,1,2.1,2,3.2,3
			c0.5,0.4,0.9,1,1.3,1.5c0.3,0.4,0.6,0.8,0.9,1.1c0.5,0.5,0.9,1.2,1.4,1.8c0.6,0.9,1.3,1.8,2.1,2.6c0.2,0.2,0.5,0.6,0.7,1l1,1.3
			c0.9,1.3,1.9,2.7,2.8,4.1l0.1,0.2c0.4,0.6,0.6,0.9,0.7,1.2l-1.9,2.6l1.7,2.8c0.6,1,1.2,2.1,1.7,3.2l0.4,0.7c0.5,1,1.1,2.2,1.5,3.5
			c0.2,0.6,0.5,1.2,0.7,1.7l0.3,0.6c0.2,0.5,0.4,1.1,0.5,1.9c0.1,0.9,0.4,1.8,0.6,2.7c0.1,0.3,0.1,0.6,0.2,0.9
			c0.1,0.4,0.2,0.8,0.3,1.2l0,0.1c0.2,0.9,0.4,1.7,0.6,2.6c0.1,0.7,0.2,1.4,0.4,2c0.1,0.5,0.2,1,0.3,1.5c0,0.2,0.1,0.5,0.1,0.7
			c-0.1,0.1-0.1,0.1-0.1,0.1l-2.9,1.4l0.1,3.2c0,0.6,0.1,1.4,0.2,2.1c0.2,1.4,0.1,2.7,0.1,4.2l0,0.4c0,0.8-0.1,2.1-0.4,3.3
			c-0.2,0.7-0.3,1.4-0.3,2c0,1.3-0.2,2.6-0.6,4c-0.2,0.6-0.3,1.3-0.3,1.9c0,0.3-0.1,0.5-0.1,0.7c-0.4,2.6-0.9,4.7-1.5,6.7l-0.5,1.6
			c-0.5,1.7-1.1,3.4-1.8,4.9l-0.6,1.5l0.3,1.5c0.1,0.3,0.1,0.6,0.2,0.8c0.1,0.7,0.3,1.5,0.5,2.3c0.6,1.7,1.1,3.5,1.5,5.2
			c0.1,0.6,0.3,1.2,0.5,1.8c0.1,0.4,0.1,0.9,0.2,1.4c0,0.5,0.1,1,0.1,1.4c0,0.8,0.1,1.5,0.1,2.2c0.1,0.5,0.1,1.1,0.1,1.6l0,0.1
			c0.1,0.8,0.1,1.6,0.2,2.4c0.1,0.8,0.1,1.6,0.1,2.4c0,0.6,0,1.1,0,1.6c0,0.4,0,0.9,0.1,1.3c0.1,0.8,0.1,1.6,0.1,2.4
			c-0.1,1.2-0.1,2.4-0.1,3.5c0,0.9,0,1.7,0,2.5c0,0.4-0.1,0.9-0.2,1.4l0,0.1c0,0.3-0.1,0.6-0.1,0.9c-0.1,0.7-0.1,1.4-0.2,2
			c0,0.4-0.1,0.7-0.1,1c0,0.5-0.1,1-0.1,1.6c0,0.3-0.1,0.6-0.1,0.8l0,0.1c0,0.2-0.1,0.4-0.1,0.7c0,0.2-0.1,0.6-0.1,1.1
			c0,1.5-0.1,2.9-0.3,4.2c-0.1,0.5-0.1,1-0.2,1.5c-0.1,0.5-0.1,1-0.2,1.5c-0.1,0.5-0.2,1-0.3,1.5c-0.1,0.3-0.1,0.6-0.2,0.9
			c-0.1,0.5-0.2,1-0.3,1.5c-0.2,1-0.4,2.1-0.7,3.1c-0.3,1.3-0.7,2.6-1.1,3.8l-0.1,0.3c-0.6,1.8-1.2,3.4-1.9,4.9
			c-0.5,1.1-1,2.2-1.5,3.3l-0.5,1.1l-0.1,0.9c0,0.1-0.1,0.2-0.1,0.3c-0.7,1.4-1.6,3-2.8,4.4c-0.5,0.6-1,1.3-1.4,1.9
			c-0.2,0.3-0.4,0.6-0.6,0.9l-0.7,0.9c-0.9,1.2-1.8,2.5-2.7,3.7c-0.2,0.3-0.5,0.6-0.8,0.9c0,0-0.4,0.4-0.5,0.6l-2,2.3
			c-0.1,0.1-0.1,0.1-0.2,0.2l-1.3,1.3c-1,1-2,2-2.9,2.9c-0.1,0.1-0.2,0.2-0.3,0.2c-0.1,0.1-0.2,0.2-0.3,0.2l-0.3,0.3l-0.3,0.3
			c-1.3,1.5-2.9,2.6-4.5,3.6c-1.4,0.9-2.8,1.7-4.2,2.5l-0.1,0c-1.5,0.9-3.2,1.9-4.9,2.8c-1.2,0.7-2.5,1.3-3.8,1.9l-0.7,0.3
			c-1.3,0.7-2.7,1.3-4,1.9c-0.5,0.2-1.1,0.4-1.5,0.6c-1.1,0.3-2.1,0.8-3.1,1.3c-0.8,0.4-1.6,0.7-2.4,1.1c-0.4,0.2-0.9,0.4-1.3,0.6
			c-1,0.4-2.1,0.9-3.2,1.4c-1.8,0.8-3.4,1.4-5.1,1.8c-1.1,0.2-2.1,0.5-2.9,0.8c-0.8,0.2-1.9,0.5-3.1,0.5c-1.4,0-2.9,0-4.4,0.2
			C967.6,650.2,966.8,650.2,965.7,650.2z"/>
	</g>
	<g id="A13aRg_00000026125064077670343410000014773953822475973822_">
		<g>
			<path d="M1040.4,469.4c0.3,0.5,0.6,1.1,0.9,1.6c1.1,1.7,2,3.5,2.9,5.3c0.6,1.2,1.2,2.5,1.6,3.8c0.3,0.8,0.6,1.5,0.9,2.2
				c0.3,0.7,0.5,1.5,0.6,2.3c0.2,1.1,0.5,2.3,0.7,3.4c0.3,1.4,0.7,2.7,0.9,4.1c0.2,1.2,0.5,2.3,0.7,3.5c0.1,0.7,0.2,1.5-0.3,2.1
				c-0.6,0.6-1.2,0.9-2.1,0.4c-0.1-0.1-0.2-0.2-0.4-0.2c-0.1,0-0.1-0.1-0.2-0.1c0,0.1,0,0.2,0,0.3c0,0.4,0.1,0.7,0.2,1.1
				c0.1,1.4,0,2.7,0.2,4.1c0.2,1.6,0.2,3.2,0.1,4.8c0,1.2-0.1,2.5-0.4,3.7c-0.1,0.5-0.2,1.1-0.2,1.6c0,1.5-0.3,2.9-0.7,4.4
				c-0.2,0.8-0.3,1.6-0.4,2.4c-0.4,2.4-0.8,4.7-1.6,7c-0.8,2.4-1.5,4.8-2.5,7.2c-0.1,0.3-0.2,0.7,0,1.1c0.3,1.1,0.4,2.2,0.7,3.2
				c0.9,2.3,1.4,4.8,2,7.1c0.2,0.6,0.2,1.2,0.2,1.8c0.1,1.2,0.1,2.4,0.2,3.5c0.1,1.4,0.2,2.7,0.4,4.1c0.2,1.4,0.1,2.8,0.1,4.1
				c0.1,1.3,0.3,2.6,0.1,3.9c-0.2,2,0,4-0.2,6c0,0.8-0.2,1.6-0.3,2.5c-0.1,0.7-0.1,1.3-0.2,2c-0.1,0.9-0.1,1.8-0.2,2.7
				c-0.1,0.6-0.2,1.1-0.3,1.7c0,0.3,0,0.6-0.1,0.9c0,1.5-0.1,3-0.3,4.5c-0.2,1-0.2,2-0.4,3.1c-0.1,0.8-0.4,1.7-0.5,2.5
				c-0.3,1.6-0.6,3.1-1,4.7c-0.4,1.4-0.8,2.8-1.3,4.3c-0.6,1.8-1.2,3.5-2,5.2c-0.6,1.2-1.2,2.5-1.7,3.7c-0.1,0.2-0.2,0.4-0.2,0.7
				c0,0.5-0.1,0.8-0.3,1.2c-0.9,1.7-1.8,3.3-3,4.7c-0.7,0.8-1.3,1.8-1.9,2.7c-1.1,1.6-2.2,3.1-3.4,4.7c-0.4,0.6-0.9,1-1.4,1.6
				c-0.7,0.8-1.3,1.5-2,2.3c-0.1,0.1-0.2,0.3-0.4,0.4c-1.4,1.4-2.7,2.8-4.1,4.1c-0.3,0.3-0.7,0.6-1,0.9c-1.4,1.6-3.1,2.8-4.9,4
				c-1.4,0.9-2.8,1.7-4.3,2.6c-1.7,1-3.3,1.9-5,2.8c-1.5,0.8-3,1.5-4.5,2.3c-1.3,0.7-2.7,1.3-4,1.9c-0.6,0.3-1.2,0.5-1.8,0.7
				c-1,0.3-1.9,0.7-2.8,1.2c-1.2,0.6-2.5,1.1-3.8,1.6c-1.1,0.5-2.1,0.9-3.1,1.4c-1.8,0.8-3.6,1.5-5.5,1.9c-0.9,0.2-1.9,0.5-2.8,0.8
				c-1.2,0.4-2.4,0.6-3.6,0.6c-1.4,0-2.8,0-4.1,0.2c-2.2,0.3-4.4,0.1-6.6,0.1c-0.5,0-1-0.1-1.5-0.2c-0.5,0-1,0-1.5-0.1
				c-0.7-0.2-1.5-0.2-2.2-0.2c-0.9,0-1.7,0-2.6,0c-1.4,0-2.8-0.1-4.1-0.3c-0.3-0.1-0.6,0-1,0c-1.7,0-3.3-0.1-5-0.3
				c-0.3,0-0.5,0-0.8,0c-0.9,0-1.7-0.1-2.5-0.3c-0.1,0-0.2,0-0.3,0c-1.2,0-2.3-0.2-3.5-0.5c-1.1-0.3-2.2-0.4-3.3-0.7
				c-1.2-0.3-2.5-0.7-3.7-1c-0.2-0.1-0.4-0.1-0.6-0.2c-2.3-1.2-4.8-2.1-7.2-2.9c-0.7-0.2-1.3-0.5-2-0.8c-1.4-0.7-2.9-1.4-4.3-2.2
				c-1.2-0.6-2.3-1.3-3.5-2c-0.3-0.2-0.6-0.3-0.9-0.5c-1.2-0.6-2.5-1.3-3.6-2.1c-0.7-0.5-1.5-0.9-2.3-1.3c-0.7-0.4-1.5-0.9-2.1-1.5
				c-0.3-0.3-0.6-0.7-0.8-1c-0.4-0.6-1-1-1.7-1.2c-0.4-0.1-0.8-0.4-1.1-0.6c-0.6-0.4-1.1-0.9-1.7-1.3c-0.6-0.5-1.3-1-1.9-1.5
				c-0.9-0.7-1.5-1.6-2.2-2.6c-0.1-0.2-0.2-0.5-0.4-0.6c-1-0.9-1.6-2-2.7-2.8c-0.7-0.6-1.3-1.4-2-2.1c-0.5-0.5-0.9-1.1-1.4-1.6
				c-0.8-0.9-1.6-1.7-2.4-2.5c-0.3-0.3-0.6-0.7-0.8-1c-0.9-1.2-1.9-2.3-2.6-3.6c-0.6-1-1-2.1-1.3-3.2c-0.1-0.2-0.1-0.4-0.2-0.6
				c-0.3-0.7-0.7-1.3-1.1-2c-0.4-0.7-0.8-1.3-1.2-2c-0.7-1.2-1.1-2.5-1.4-3.9c-0.3-1.7-0.8-3.3-1.3-5c-0.4-1.3-0.7-2.7-1-4.1
				c-0.2-1-0.3-1.9-0.4-2.9c-0.1-1.1-0.5-2.2-0.7-3.3c-0.2-0.9-0.4-1.9-0.6-2.8c-0.1-0.6-0.2-1.3-0.4-1.9c-0.1-0.6-0.2-1.1-0.3-1.7
				c-0.2-1.4-0.3-2.8-0.6-4.2c-0.2-1.3-0.5-2.5-0.7-3.8c-0.1-0.7-0.1-1.4-0.2-2.1c-0.1-0.8-0.2-1.5-0.3-2.3c0-0.2,0-0.5,0-0.7
				c0-4.7,0-9.4,0-14.1c0-0.5,0.1-1,0.2-1.4c0-0.5,0-0.9,0.1-1.4c0.2-0.5,0.1-1.1,0.2-1.7c0.1-0.9,0.2-1.8,0.3-2.7
				c0-0.1,0-0.3,0-0.4c0-2,0.4-4,0.9-5.9c0.6-2.2,1.3-4.4,2-6.5c0.8-2.3,1.6-4.5,2.5-6.7c0.5-1.2,1.1-2.3,1.8-3.4
				c1-1.7,2-3.4,2.8-5.3c0.4-1.1,1-2.2,1.5-3.3c0.6-1.4,1.5-2.6,2.4-3.8c1-1.3,1.9-2.5,2.7-3.9c0.4-0.7,0.9-1.4,1.4-1.9
				c1.4-1.4,2.9-2.8,4.4-4.2c0.7-0.7,1.4-1.3,2.2-2c0.7-0.6,1.4-1.2,2.1-1.8c0.5-0.4,1-0.9,1.5-1.3c1.1-0.9,2.1-1.8,3.2-2.7
				c1-0.9,2-1.6,3.1-2.4c1.5-1,3.1-2.1,4.6-3.1c0.8-0.5,1.7-1,2.6-1.4c2-0.9,4-1.9,6-3c1.2-0.7,2.5-1.3,3.7-1.9
				c1.4-0.7,2.9-1.3,4.5-1.8c2-0.6,4-1.2,6.1-1.8c1-0.3,2-0.4,2.9-0.6c1.1-0.2,2.2-0.4,3.3-0.7c0.5-0.1,1.1-0.1,1.6-0.2
				c0.9-0.1,1.9-0.3,2.8-0.4c0.7-0.1,1.4-0.2,2-0.3c0.6,0,1.2,0,1.7,0c1.2,0,2.3-0.1,3.4-0.3c0.8-0.1,1.5-0.2,2.3-0.2
				c0.8,0,1.6,0,2.3,0c1.1,0,2.1,0.2,3.2,0.3c0.7,0.1,1.4,0.1,2.1,0.2c3.6,0.3,7.3,0.1,10.9,0.2c0.5,0,0.9,0.1,1.4,0.2
				c0.8,0.2,1.7,0.1,2.5,0.2c1,0.1,2,0.1,2.9,0.2c0.1,0,0.2,0,0.2,0c-0.1,0-0.1-0.1-0.2-0.1c-0.9-0.4-1.1-1.2-1.3-2
				c-0.2-0.7-0.2-1.5-0.4-2.2c-0.2-1.1-0.4-2.2-0.6-3.3c-0.1-0.6-0.2-1.1-0.2-1.7c0-0.3-0.1-0.6-0.2-0.9c-0.4-1.7-0.4-3.4-0.4-5.1
				c0-1,0-2,0-3c0-0.4-0.1-0.6-0.5-0.8c-1-0.5-1.8-1.4-2.5-2.2c0,0-0.1-0.1-0.1-0.1c-0.2-0.2-0.3-0.6-0.5-0.6
				c-0.3,0-0.6,0.2-0.9,0.3c-0.6,0.2-1.2,0.5-1.7,0.7c-1.1,0.5-2.5-0.2-2.7-1.8c-0.1-1.1,0-2.3,0.4-3.4c0.4-1.2,0.9-2.2,1.7-3
				c0.4-0.5,1-0.8,1.5-1.2c0.4-0.3,0.6-0.6,0.6-1.1c0.1-1.1,0.3-2.2,0.8-3.2c0.7-1.5,1.7-2.6,3-3.6c0.3-0.2,0.5-0.4,0.7-0.6
				c0.9-0.8,1.9-1.3,3.1-1.7c0.2-0.1,0.5-0.2,0.7-0.3c1.8-0.9,3.6-1.7,5.5-2.3c0.4-0.1,0.7-0.3,0.9-0.7c0.3-0.5,0.7-0.8,1.2-1.1
				c0.4-0.2,0.7-0.4,1.1-0.5c0.7-0.3,1.5-0.6,2.3-0.5c1.1,0.1,2.2,0,3.2-0.3c0.1,0,0.1,0,0.2,0c2.5-0.2,4.9-0.2,7.4-0.2
				c0.5,0,1,0.2,1.4,0.3c1.2,0.4,2.5,0.7,3.7,1.1c1.3,0.5,2.7,1,4,1.5c2.6,1,4.9,2.5,7.2,4c0.8,0.5,1.4,1.2,2.1,1.7
				c1.2,0.9,2.4,2,3.5,3.1c0.5,0.5,1,0.8,1.5,1.3c0.3,0.3,0.5,0.8,0.6,1.2c0.2,0.9-0.2,1.4-1.1,1.8c-0.3,0.1-0.3,0.2-0.1,0.5
				c0.7,0.7,1.5,1.4,2.2,2.1c1.7,1.6,3.3,3.2,5,4.8c0.9,0.9,1.6,1.9,2.4,2.8c1.2,1.4,2.1,3,3.4,4.3c0.4,0.4,0.8,0.9,1.1,1.4
				c1.2,1.7,2.5,3.4,3.6,5.2c0.5,0.7,1,1.4,1.1,2.3c0.1,0.6-0.2,1.2-0.7,1.5C1041.4,469.4,1040.9,469.5,1040.4,469.4
				c0,0-0.1,0-0.1-0.1C1040.3,469.4,1040.4,469.4,1040.4,469.4z M978.4,606.8c0,0,0.1,0.1,0.1,0.1
				C978.5,606.8,978.5,606.8,978.4,606.8c0-0.1,0-0.2-0.1-0.3c-0.7-1.1-1.8-1.9-2.8-2.8c-0.5-0.1-0.8-0.6-1.3-0.7
				c-0.4-0.1-0.8-0.2-1.2-0.4c-0.7-0.3-1.6-0.3-2.3-0.5c-0.2-0.1-0.5,0-0.8,0.1c-1,0.2-1.9,0.1-2.9-0.2c-1-0.3-1.7-1-2.4-1.6
				c-0.5-0.4-0.9-0.9-1.2-1.3c-0.7-1-1.7-1.8-2.4-2.8c-0.2-0.2-0.3-0.3-0.6-0.1c-0.1,0.1-0.2,0.1-0.3,0.2c-0.4,0.3-0.4,0.5-0.1,0.9
				c0.2,0.2,0.5,0.4,0.7,0.7c1.1,1.3,2.1,2.7,3.2,4.1c0.6,0.8,0.9,1.8,0.8,2.8c-0.1,0.6-0.2,1.1-0.4,1.7c-0.2,0.5-0.1,1,0.2,1.5
				c0.3,0.4,0.6,0.8,0.9,1.1c0.7,0.7,1.2,1.5,1.4,2.5c0,0.1,0,0.1,0,0.2c0.1,0.1,0.1,0.2,0.2,0.3c0-0.1,0.1-0.2,0.1-0.3
				c0-0.5,0-0.9,0-1.4c0-0.3-0.1-0.7,0-1c0.2-0.6,0.1-1.1-0.1-1.7c-0.3-0.8,0.2-1.8,1-2.1c0.7-0.3,1-0.3,1.7,0.1
				c0.4,0.2,0.8,0.5,1.1,0.8c1,0.9,1.8,1.9,2.4,3.2c0.5,1.1,1,2.3,1.5,3.4c0,0.1,0.1,0.2,0.1,0.3c0-0.1,0.1-0.2,0.1-0.3
				c0-0.6,0-1.3,0-1.9c0-0.2,0-0.4-0.1-0.6c-0.3-1-0.5-2-1.1-2.8c-0.2-0.3-0.3-0.7-0.4-1c0-0.1-0.1-0.2-0.1-0.2
				c0.2-1.1,1.1-1.9,2.3-1.5c0.3,0.1,0.5,0.2,0.8,0.4C977.1,605.5,977.7,606.2,978.4,606.8z M983.8,437.7
				C983.8,437.7,983.8,437.7,983.8,437.7c0.6,0,1.3,0,1.9,0c1.4,0,2.5,0.5,3.3,1.6c0.1,0.1,0.1,0.2,0.2,0.2c0.8,0.5,1.3,1.2,1.8,1.9
				c0.7,1,1.2,2.1,1.4,3.3c0.2,0.8,0.4,1.7,0.9,2.4c0.6,0.8,1.2,1.6,1.7,2.5c0.4,0.7,0.9,1.3,1.1,2.1c0.2,0.9-0.3,2.2-1.3,2.4
				c-0.4,0.1-0.8,0.2-1.3,0.2c-0.4,0-0.7,0.1-1.1,0.3c-0.4,0.3-0.9,0.4-1.5,0.5c-0.4,0-0.7,0.2-1,0.4c-0.5,0.3-1.1,0.6-1.6,0.9
				c-0.9,0.5-1.7,1-2.5,1.6c-0.7,0.5-1.4,1-2.1,1.6c-0.4,0.3-0.8,0.4-1.3,0.4c-0.9,0.1-1.8-0.2-2.7-0.6c-0.3-0.1-0.7-0.3-1-0.4
				c-0.3-0.1-0.4,0-0.4,0.3c0,0.9,0,1.7,0,2.6c0,0.1,0,0.2,0.1,0.3c0.1,0.8,0.3,1.7,0.4,2.5c0.1,0.6,0.2,1.2,0.3,1.8
				c0.1,0.8,0.3,1.7,0.4,2.5c0,0.2,0.1,0.5,0.2,0.6c0.1,0.1,0.4-0.1,0.5-0.1c0.1,0,0.2,0,0.3,0c1.1-0.2,2.1,0.4,2.2,1.5
				c0.1,0.7,0.1,1.3,0.2,2c0.1,0.6,0.1,1.3,0.2,1.9c0.1,1,0.3,2,0.5,3c0.2,1,0.5,2,0.7,3.1c0.2,0.8,0.3,1.5,0.4,2.3
				c0,1-0.2,2-1.1,2.7c-0.4,0.3-0.8,0.6-1.1,0.9c-1.2,1.2-2.5,2.3-3.6,3.6c-0.3,0.4-0.6,0.8-1,1.1c-1.7,1.5-3,3.3-4.6,5
				c-0.4,0.5-0.9,0.9-1.2,1.4c-1,1.4-2.1,2.8-2.9,4.4c-0.8,1.6-1.8,3.1-2.6,4.6c-1.8,3.3-3.3,6.8-4.6,10.4c-0.1,0.2-0.2,0.4-0.2,0.7
				c0,0.7-0.3,1.2-0.6,1.8c-1.1,2.1-2.2,4.2-3.4,6.2c-1,1.7-1.8,3.6-2.8,5.3c-0.8,1.4-1.5,3-2.1,4.5c-0.3,0.7-0.6,1.4-0.8,2.1
				c-0.3,1.6-0.8,3.1-1.3,4.6c-0.3,1-0.7,2.1-1.2,3c-0.4,0.7-0.9,1.4-1.2,2.2c-1,2.1-2,4.1-3,6.2c-0.2,0.5-0.4,0.9-0.7,1.4
				c-0.7,1.2-1.3,2.4-1.8,3.7c-0.6,1.4-1.1,2.8-1.6,4.2c-0.3,0.9-0.7,1.7-1,2.6c-0.3,0.9-0.5,1.8-0.7,2.7c-0.2,0.7-0.4,1.4-0.6,2.1
				c-0.1,0.5,0,0.7,0.4,0.9c0.2,0.1,0.4,0.1,0.6,0c0.4-0.3,0.9-0.6,1.2-1c0.5-0.6,1-1.1,1.6-1.6c0.6-0.5,1.1-1.2,1.6-1.8
				c0.4-0.5,0.8-1,1.2-1.5c0.8-1.4,1.7-2.8,2.7-4.1c0.2-0.2,0.4-0.5,0.5-0.8c0.5-1,1-2,1.6-3c0.4-0.7,0.8-1.4,1.2-2.1
				c0.9-1.4,1.9-2.7,3.1-3.8c0.6-0.5,1.1-1.1,1.6-1.7c0.3-0.4,0.7-0.8,1-1.2c0.5-0.5,1-0.9,1.5-1.4c0.3-0.3,0.7-0.6,1.1-0.8
				c0.7-0.4,1.4-0.9,2-1.5c0.8-0.8,1.5-1.6,2.2-2.4c0.3-0.4,0.7-0.8,1-1.2c0.6-0.7,1.3-1.4,2-2.1c0.9-0.8,1.8-1.5,2.7-2.2
				c1-0.8,2-1.5,3-2.4c1-0.8,2-1.6,2.7-2.7c0.5-0.8,1.3-1.3,2.2-1.3c0.8,0,1.5-0.3,2.2-0.7c0.9-0.5,1.7-1,2.6-1.5
				c0.6-0.3,1.1-0.6,1.6-1.1c0.2-0.2,0.4-0.3,0.5-0.4c0.8-0.5,1.6-1,2.3-1.6c1.2-1,2.3-2.1,3.4-3.2c0.7-0.7,1.4-1.4,1.9-2.4
				c0.3-0.6,0.6-1.2,0.9-1.8c1.4-2.6,2.3-5.3,3.3-8.1c0.2-0.4,0.3-0.9,0.1-1.3c0-0.1,0-0.3,0-0.4c0.3-0.9,0.8-1.7,1-2.6
				c0-0.2,0.3-0.3,0.4-0.5c0.5-0.6,1.2-0.8,1.9-0.5c0.7,0.3,1.1,1.2,0.9,1.9c-0.1,0.5-0.3,1-0.2,1.6c0,0.1,0,0.3-0.1,0.4
				c-0.3,1.1-0.6,2.2-1,3.3c-0.8,2.4-1.7,4.8-2.8,7.1c-0.3,0.7-0.7,1.4-1.1,2c-0.8,1.4-1.5,2.8-2.3,4.2c-0.9,1.6-1.9,3.1-3.3,4.4
				c-0.3,0.3-0.7,0.6-1,0.8c-1.1,0.8-2.1,1.7-3.2,2.5c-1.5,1.1-3.1,1.9-5,2.2c-1.4,0.3-2.7,1-3.8,1.9c-1.5,1.2-2.9,2.4-4.2,3.8
				c-0.4,0.5-0.9,0.9-1.4,1.3c-0.6,0.6-1.3,1.1-1.9,1.6c-0.9,0.8-1.5,1.8-2.2,2.6c-0.5,0.6-0.9,1.2-1.5,1.7c-1,0.8-2,1.6-2.7,2.6
				c-1.1,1.5-2.2,2.9-3.3,4.3c-0.9,1.2-1.9,2.4-2.8,3.6c-0.5,0.7-1,1.3-1.5,2c-1.8,2.6-3.6,5.3-6,7.5c-0.1,0.1-0.2,0.2-0.4,0.4
				c-0.5,0.6-0.9,1.2-1.4,1.7c-1.5,1.6-3.2,3.1-5.1,4.2c-0.4,0.2-0.7,0.6-0.9,1c-0.2,0.5-0.5,1-0.8,1.4c-0.9,1.4-1.6,2.8-2.1,4.4
				c-0.2,0.8-0.5,1.6-0.8,2.3c-0.4,1.2-0.8,2.4-1.1,3.7c-0.3,1.2-0.5,2.3-1,3.4c-0.4,0.9-0.8,1.8-1.1,2.8c-0.2,0.5-0.3,0.9-0.7,1.3
				c-0.1,0.1-0.2,0.3-0.3,0.5c-0.4,1.2-0.7,2.4-1,3.6c-0.4,1.5-0.7,3.1-1,4.6c0,0.1,0,0.2,0,0.2c0.4,0.4,0.6,1,1.5,1
				c6.3-0.1,12.5,0,18.8,0c1.5,0,2.9-0.1,4.4,0.4c0.1,0,0.3,0,0.4-0.1c0.6-0.1,1.2-0.3,1.8-0.3c0.4,0,0.6-0.2,0.8-0.5
				c0.2-0.4,0.5-0.8,0.7-1.2c0.3-0.5,0.3-0.5,0-1c-0.1-0.1-0.2-0.2-0.2-0.3c-0.6-0.8-1.3-1.5-1.9-2.3c-0.7-0.9-1.3-2-2.4-2.6
				c-0.1,0-0.2-0.2-0.3-0.2c-0.6-0.6-1.1-1.3-1.6-2c-0.4-0.5-0.7-1.1-1.2-1.6c-1-1-1.8-2.2-2.4-3.4c-0.7-1.3-1-2.7-1.6-4.1
				c-0.3-0.7-0.4-1.5-0.4-2.4c0.1-0.9,0.1-1.9,0.2-2.8c0-0.6,0.1-1.2,0.3-1.8c0.4-1.3,1.2-2.3,1.9-3.4c0.8-1.2,1.6-2.4,2.1-3.8
				c0.2-0.6,0.3-1.2,0.5-1.8c0.2-0.7,1-1.1,1.8-1c0.7,0.1,1.3,0.8,1.3,1.5c0,0.4-0.1,0.8-0.2,1.2c-0.1,1.5-0.8,2.7-1.6,4
				c-0.7,1.2-1.5,2.3-2.2,3.5c-0.4,0.6-0.6,1.2-0.6,1.9c0,0.5-0.1,1-0.1,1.5c-0.1,1-0.2,2.1,0.3,3c0.2,0.5,0.5,1,0.6,1.5
				c0.2,0.8,0.5,1.5,0.9,2.1c0.4,0.5,0.7,1.1,1.1,1.6c0.8,0.9,1.6,1.8,2.2,2.9c0.2,0.4,0.5,0.7,0.8,1c0.2,0.2,0.4,0.2,0.6,0.1
				c0.4-0.3,0.8-0.5,1.2-0.8c0.3-0.2,0.4-0.2,0.2-0.6c-0.1-0.2-0.2-0.3-0.3-0.4c-0.4-0.7-0.7-1.3-0.6-2.1c0.1-0.7,0.4-1.3,1.1-1.5
				c0.3-0.1,0.6-0.2,0.9-0.2c0.7,0,1.4-0.1,2.1,0c0.7,0.1,1.3-0.3,2-0.4c0.5,0,1-0.1,1.5-0.2c1.4-0.3,2.9-0.7,4.3-1.2
				c1.4-0.5,2.9-1,4.3-1.5c1.4-0.5,2.7-1,4.1-1.6c2.2-1,4.3-2.3,6-4.1c0.1-0.1,0.2-0.3,0.4-0.4c0.6-0.5,1.2-0.6,1.8-0.3
				c0.2,0.1,0.5,0.2,0.7,0.3c0.8,0.3,1.1,0.9,0.9,1.7c-0.2,0.8-0.6,1.5-1.3,2c-1.4,1.1-2.9,2.1-4.3,3.1c-0.9,0.7-1.9,1-2.9,1.6
				c-0.5,0.3-1.1,0.4-1.7,0.5c-0.8,0.1-1.6,0.3-2.4,0.8c-1.2,0.7-2.5,1.3-4,1.3c-0.5,0-1,0.2-1.4,0.3c-0.8,0.3-1.6,0.5-2.4,0.5
				c-0.2,0-0.5,0-0.7,0.1c-0.6,0.1-1.2,0.3-1.9,0.3c-0.8,0-1.5,0.4-2.3,0.7c-0.1,0-0.3,0.3-0.2,0.4c0.3,0.7,0.5,1.5,1.1,2
				c0.6,0.5,1,1.2,1.6,1.7c0.3,0.3,0.5,0.7,0.8,1c0.1,0.1,0.2,0.2,0.3,0c0.5-0.4,1.1-0.9,1.6-1.3c0.7-0.5,1.4-0.9,2.2-0.6
				c0.4,0.1,0.7,0,1-0.2c0.2-0.2,0.5-0.3,0.7-0.4c1.3-0.9,2.6-1.8,4-2.7c1.5-1,3.5-2.1,5.5-2.9c0.3-0.1,0.6-0.4,0.9-0.6
				c0.7-0.5,1.5-1,2.3-1.4c1-0.4,2.1-0.8,3.1-1.1c0.3-0.1,0.6-0.2,0.9-0.3c0.7-0.3,1.3-0.6,2.1-0.7c0.6-0.1,1.2-0.3,1.7-0.5
				c0.7-0.2,1.3-0.4,2-0.6c0.3-0.1,0.6-0.2,0.9-0.4c1.2-0.8,2.4-1.6,3.5-2.4c0.4-0.3,0.9-0.6,1.3-0.9c1.3-0.9,2.8-1.6,3.9-2.9
				c0.2-0.2,0.4-0.4,0.7-0.5c0.6-0.4,1.2-0.8,1.8-1.2c1.3-1.2,2.6-2.4,3.8-3.7c0.3-0.3,0.6-0.8,1-1.1c0.8-0.8,1.7-1.6,2.5-2.4
				c1-1,2-2.1,3-3c0.7-0.6,1.4-1.3,2-2.1c0.9-1.2,2-2.3,3.1-3.4c0.4-0.5,1-0.9,1.3-1.4c1.1-1.5,2.2-3,3.3-4.4
				c0.6-0.8,1.2-1.7,1.8-2.5c0.9-1.1,1.5-2.3,2.2-3.5c0.6-1.2,1.3-2.3,1.9-3.5c0.5-0.9,1-1.7,1.4-2.6c0.6-1.4,1.2-2.9,1.9-4.2
				c0.5-1,1-2,1.4-3c0.9-2.3,1.7-4.7,2.5-7.1c0.5-1.6,1-3.1,1.4-4.7c0.2-0.8,0.3-1.6,0.5-2.3c0.1-0.7,0.2-1.3,0.4-2
				c0.1-0.6,0.2-1.1,0.3-1.7c0.3-1.2,0.5-2.3,0.6-3.5c0-0.7,0-1.5,0.2-2.1c0.4-1.6,0.3-3.2,0.5-4.9c0.1-0.7,0-1.4-0.1-2.1
				c-0.1-1.3,0-2.6-0.2-4c-0.1-1-0.1-2.1-0.2-3.1c0,0,0-0.1,0-0.1c-0.3-0.7-0.1-1.4-0.2-2.1c0-0.8,0.4-1.3,1-1.7
				c0.4-0.3,0.9-0.5,1.3-0.6c0.3-0.1,0.4-0.3,0.3-0.5c-0.3-1.5-0.7-3-1.1-4.5c-0.2-0.6-0.4-1.3-0.5-1.9c-0.1-0.8-0.2-1.6-0.5-2.4
				c-0.2-0.6-0.5-1.2-0.7-1.8c-0.6-1.4-1.1-2.8-1.8-4.2c-0.7-1.5-1.5-3-2.4-4.4c-0.6-1-1.3-2-1.9-2.9c-0.5-0.8-1.1-1.6-1.7-2.4
				c-0.6-0.9-0.4-1.8,0.6-2.4c0.3-0.2,0.6-0.4,0.8-0.6c0.3-0.3,0.4-0.3,0.1-0.7c-0.6-0.9-1.3-1.8-2-2.7c-0.9-1.2-1.9-2.3-2.8-3.5
				c-0.5-0.8-1.2-1.4-1.8-2.2c-0.5-0.6-0.9-1.2-1.5-1.8c-1.5-1.4-2.9-2.8-4.4-4.2c-1.4-1.4-2.8-2.8-4.4-4c-0.3-0.2-0.6-0.5-0.9-0.8
				c-1-0.9-1.1-1.8-0.5-2.7c0.2-0.3,0.3-0.7,0.5-1c0.2-0.3,0.1-0.5-0.1-0.6c-1-0.9-2.1-1.8-3.1-2.6c-2-1.6-4.2-2.9-6.5-3.9
				c-1.1-0.5-2.3-1-3.4-1.4c-0.9-0.4-1.9-0.6-2.8-0.9c-1.3-0.5-2.6-0.8-4-0.7c-0.2,0-0.3,0-0.5,0c-0.4,0-0.7,0-1.1,0.2
				c-0.3,0.2-0.6,0.1-0.9,0.1c-0.9-0.1-1.8-0.2-2.7-0.1c-0.9,0.1-1.9,0.3-2.8,0.3c-0.4,0-0.8,0-1.1,0c-0.4,0-0.8,0.1-0.9,0.7
				c-0.2,0.7-0.7,1.2-1.5,1.4c-0.5,0.1-0.9,0.2-1.4,0.3c-1.6,0.5-3.2,1.1-4.7,2c-0.5,0.3-1.1,0.6-1.6,0.7c-0.8,0.3-1.6,0.7-2.3,1.1
				c-0.4,0.2-0.7,0.5-1,0.8c-0.2,0.1-0.3,0.3-0.4,0.5c0.2,0,0.4-0.1,0.6-0.1c0.1,0,0.2,0,0.3,0c0.6-0.2,1.2-0.2,1.8-0.5
				c1.1-0.7,2.3-1,3.6-1C982.7,437.7,983.3,437.7,983.8,437.7z M892,609.5c-2,0-3.9,0-5.9,0c-0.2,0-0.5,0-0.7,0
				c-0.2,0-0.2,0.1-0.1,0.2c0.6,0.9,1.3,1.7,2.1,2.4c0.4,0.4,0.8,0.9,1.1,1.3c0.6,0.7,0.8,0.9,1.7,0.6c0.8-0.3,1.6-0.3,2.5-0.3
				c0.7,0,1.3,0.2,1.8,0.6c0.1,0.1,0.3,0.2,0.5,0.2c1,0,2.1,0,3.1,0.2c1,0.1,2,0.1,3,0.2c0.6,0.1,1.2,0,1.7,0.2
				c0.4,0.1,0.7,0.1,1-0.2c0.9-0.9,2.1-0.5,2.6,0.7c0.1,0.2,0.1,0.4,0.2,0.6c0.4,1.2-0.5,2.4-1.8,2.4c-0.8,0-1.6,0-2.4-0.1
				c-1.1-0.2-2.3-0.3-3.4-0.4c-1.5-0.1-2.9-0.1-4.4-0.2c-0.6,0-1.3,0-1.9,0c-0.3,0-0.6,0-0.9,0c0.2,0.3,0.3,0.5,0.5,0.8
				c0.8,0.9,1.5,1.9,2.3,2.8c0.4,0.5,0.8,1,1.2,1.3c1.8,1.4,3.6,2.8,5.4,4.2c0.6,0.4,1.2,0.9,1.8,1.1c1.1,0.3,2.3,0.3,3.5,0.1
				c0.5-0.1,1-0.1,1.4,0.1c0.6,0.2,1.2,0.3,1.8,0.2c1.2,0,2.4,0,3.6,0c2.6,0,5.1,0,7.7,0c0.2,0,0.6,0,0.7-0.1
				c0.2-0.4,0.5-0.3,0.8-0.3c0.7,0,1.3,0,2,0c0.2,0,0.4,0,0.5,0.1c0.3,0.4,0.7,0.3,1.1,0.3c1.2,0,2.4,0,3.7,0c1.2,0,2.4-0.1,3.6-0.2
				c0.4,0,0.8,0,1.1-0.1c0.5-0.2,0.6,0.3,1,0.3c0.1,0,0.2,0,0.3,0c2.3,0,4.6,0,6.9,0c0.3,0,0.6,0,0.8-0.4c0.1-0.1,0.3-0.3,0.5-0.3
				c0.9,0,1.7-0.1,2.6,0.1c0.7,0.2,1.4,0.2,2.1,0.2c2.2-0.1,4.4,0.2,6.7,0.2c0.1,0,0.2,0,0.3,0c1.2,0.3,2.4,0.2,3.6,0.3
				c1.2,0.1,2.4,0,3.6,0.1c1.2,0.2,2.5,0.1,3.7,0.2c1.4,0.1,2.9,0,4.3,0c0.2,0,0.5-0.1,0.7-0.2c0.7-0.3,1.3-0.3,1.9,0.2
				c0.1,0.1,0.2,0.2,0.4,0.2c0.7,0,1.4,0.1,2.1,0.1c2,0.1,4.1,0,6.1,0.2c1.1,0.1,2.3,0.1,3.4,0.2c0.1,0,0.1,0,0.2,0
				c0.5,0.3,1,0.1,1.4,0.2c0.5,0.1,1,0.1,1.5,0.2c1.1,0.1,2.2,0.1,3.3,0.2c0,0,0.1,0,0.1,0c0.9,0.3,1.9,0.1,2.8,0.3
				c1.2,0.2,2.5,0.1,3.8,0.2c1.6,0.2,3.2,0,4.8,0.2c1.7,0.2,3.3,0,5,0.2c0.7,0.1,1.5,0,2.3,0c0.5,0,1-0.2,1.4-0.4
				c0.6-0.3,1.1-0.7,1.7-1c0.6-0.3,1.1-0.6,1.6-1.1c0.6-0.5,1.2-0.9,1.7-1.4c0.2-0.2,0.4-0.4,0.6-0.6c-0.3,0-0.6,0-0.9,0
				c0,0-0.1,0-0.1,0c-0.6,0.4-1.2,0.4-1.9,0.2c-0.1,0-0.3,0-0.4,0c-1.3,0-2.6,0-3.9,0c-0.9,0-1.8,0.1-2.8,0.2
				c-1.2,0.1-2.4,0.4-3.6,0.5c-1.6,0.1-3.1,0.1-4.7,0.2c-0.6,0-1.2-0.2-1.7-0.5c-0.8-0.5-0.8-1.9,0-2.5c0.5-0.4,1-0.5,1.6-0.5
				c0.3,0,0.7,0,1,0c1.6,0,3.3,0,4.9-0.2c0.6-0.1,1.1-0.1,1.7-0.2c0.8-0.1,1.6-0.2,2.5-0.3c0.5,0,1.1,0,1.7,0c0.3,0,0.6-0.1,1-0.1
				c-0.3,0-0.6,0-0.9-0.1c-3.9-0.1-7.8,0.2-11.6-0.2c-0.9-0.1-1.6-0.7-1.8-1.5c0-0.1,0-0.3,0-0.4c0.2-0.9,1-1.4,1.8-1.4
				c0.8,0,1.6,0.1,2.4,0.2c3.5,0,6.9,0,10.4,0c0.5,0,0.9,0.1,1.3,0.3c0.9,0.5,1.1,1.3,0.7,2.3c-0.2,0.3-0.4,0.5-0.7,0.7
				c-0.1,0-0.1,0.1-0.2,0.1c0.1,0,0.1,0.1,0.2,0.1c0.7,0,1.4,0.1,2.1,0c0.9-0.1,1.7-0.2,2.6,0c0.6,0.1,1.3,0.1,1.9,0.2
				c0.7,0.1,1.1-0.3,1.5-0.7c0.7-0.9,1.5-1.7,2.2-2.5c0.7-0.8,1.4-1.6,2-2.5c0.7-0.9,1.3-1.8,1.9-2.7c0.8-1.1,1.6-2.2,2.5-3.3
				c0.2-0.3,0.4-0.5,0.6-0.8c0.4-0.6,0.9-1.2,1.3-1.8c0.3-0.4,0.2-0.4-0.2-0.5c-1.5,0-3,0-4.5-0.1c-1.1-0.1-2.2,0-3.3,0.1
				c-0.8,0.1-1.6,0-2.4,0.3c-0.3,0.1-0.4,0.2-0.4,0.5c0,1.5,0,3.1,0,4.6c0,0.3-0.1,0.7-0.2,1c-0.2,1.1-0.9,2-1.5,3
				c-0.7,1.3-2.5,1.2-3.2-0.1c-0.7-1.3-1.1-2.8-1.6-4.2c-0.3-0.9-0.4-1.8-0.6-2.8c-0.1-0.5-0.3-1-0.5-1.4c-0.1-0.2-0.3-0.4-0.5-0.5
				c-0.1-0.1-0.3,0-0.3,0.2c0.1,0.5,0.2,1.1,0.3,1.6c0.1,0.4,0.1,0.8,0.2,1.2c0.1,0.5,0.1,1.1,0.2,1.6c0.2,1,0.4,2.1,0.3,3.2
				c-0.1,1.1-0.8,1.9-1.7,2c-1.7,0.2-3.1-0.5-4.2-1.8c-1.3-1.7-2.2-3.7-2.9-5.8c-0.3-0.8-0.3-1.7-0.5-2.6c-0.1-0.5-0.1-0.6-0.6-0.6
				c-2.1,0-4.1,0-6.1-0.1c-2.3-0.2-4.6,0.1-6.8-0.2c-0.9-0.1-1.8-0.1-2.7-0.2c-1.9-0.1-3.7,0-5.6,0c-0.2,0-0.3,0.1-0.2,0.3
				c0.3,0.9,0.5,1.7,0.7,2.6c0.2,1.1,0.1,2.2-0.2,3.2c-0.1,0.5-0.5,0.9-0.9,1.2c-0.5,0.4-1.1,0.5-1.8,0.2c-0.6-0.2-1.1-0.7-1.6-1.2
				c-0.1-0.1-0.1-0.1-0.2-0.1c0,0.1-0.1,0.2-0.1,0.2c0.1,0.6,0.2,1.2,0.1,1.8c-0.1,0.8-0.1,1.6-0.2,2.4c-0.1,0.8-0.4,1.5-1.1,1.9
				c-1,0.5-2.1,1.1-3.3,1c-1.2-0.1-2.1-1.2-1.8-2.4c0-0.1,0.1-0.3,0.1-0.4c0.3-0.5,0.2-1.1,0.1-1.6c-0.4-1.9-1-3.7-1.8-5.4
				c0-0.1-0.1-0.1-0.1-0.2c0,0.1-0.1,0.1-0.1,0.2c-0.2,0.9-0.3,1.9-0.5,2.8c-0.2,0.9-0.6,1.7-0.9,2.6c-0.1,0.3-0.2,0.6-0.4,0.9
				c-0.4,0.6-1,1.1-1.9,1c-0.8-0.1-1.3-0.5-1.6-1.2c-0.2-0.4-0.3-0.9-0.4-1.3c-0.2-1-0.4-2-0.9-2.9c-0.1-0.2-0.2-0.4-0.2-0.6
				c0-0.8-0.5-1.4-1.1-1.9c-0.2-0.2-0.4-0.6-0.6-0.7c-0.3-0.1-0.6-0.1-0.9-0.1c-0.1,0-0.2-0.1-0.3-0.1c-0.6-0.1-1.3-0.2-1.7,0.5
				c-0.2,0.3-0.5,0.4-0.9,0.4c-0.6-0.1-1.2-0.1-1.7-0.7c-0.2-0.3-0.6-0.4-1-0.5c-0.6-0.1-1.1-0.1-1.7-0.2c-0.4,0-0.8-0.1-1.2-0.1
				c-1.1,0-2.2-0.2-3.2,0.2c-0.3,0.1-0.6,0.2-0.9,0.2c-1.7,0-3.5,0-5.2,0.2c-2.3,0.2-4.6,0-6.8,0.2c-1.5,0.1-3.1,0.1-4.6,0.2
				c-0.5,0-1,0-1.5,0.1c-0.2,0.1-0.5,0-0.8,0c-0.2,0-0.4-0.1-0.6-0.1c-1.9-0.1-3.7,0-5.6-0.1c-3.5-0.2-7.1,0.1-10.7-0.2
				c-2.2-0.2-4.5,0.1-6.7-0.2c-3.4,0.1-6.9-0.1-10.3-0.2C894.5,609.5,893.2,609.5,892,609.5z M981,446.3c0,0,0,0.1,0,0.1
				c0.5,0,1-0.1,1.5,0c1.1,0.2,2.1,0.4,3.2,0.7c0.6,0.1,1,0.5,1.2,1c0.2,0.5,0.2,1.2-0.3,1.6c-0.3,0.3-0.6,0.6-0.9,0.9
				c-0.2,0.2-0.5,0.3-0.7,0.3c-0.4,0-0.9-0.1-1.3-0.1c-0.3,0-0.6-0.1-0.9,0c-0.4,0.2-0.9,0.1-1.3,0.1c-1.3,0.1-2.5,0.1-3.8,0.2
				c-0.7,0.1-1.4,0.3-2.1,0.4c-0.3,0.1-0.4,0.1-0.1,0.4c1,0.9,2.2,1.5,3.4,1.9c1.2,0.4,2.4,0.8,3.7,1.1c0.2,0.1,0.3,0,0.5-0.1
				c0.4-0.4,0.8-0.7,1.3-1c0.7-0.5,1.6-0.9,2.5-1.2c1.4-0.4,2.7-0.8,4.1-1.2c0.3-0.1,0.6-0.1,0.9-0.2c0.2,0,0.2-0.1,0.1-0.3
				c-0.3-0.5-0.7-1-1-1.5c-0.5-0.7-1-1.5-1.3-2.4c-0.3-0.9-0.5-1.9-0.9-2.8c-0.3-0.8-0.5-1.6-1.5-1.9c-0.2-0.1-0.3-0.3-0.5-0.4
				c-0.8-0.7-1.6-1-2.7-0.7c-0.6,0.2-1.2,0.3-1.8,0.4c-0.9,0.2-1.9,0.3-2.8,0.5c-0.6,0.1-1.2,0.4-1.8,0.5c-0.9,0.1-1.6,0.6-2.2,1.2
				c-0.2,0.2-0.4,0.4-0.6,0.6c-1.2,0.9-2.5,1.8-3.7,2.8c-0.5,0.4-0.8,0.9-1.1,1.4c-0.1,0.2-0.1,0.5-0.1,0.8c0.2-0.1,0.4-0.1,0.6-0.2
				c0.4-0.2,0.8-0.3,1.1-0.6c1.1-0.8,2.3-1.3,3.6-1.6c0.8-0.2,1.5-0.3,2.3-0.4C978.8,446.7,979.9,446.5,981,446.3z M939.3,633.3
				c-0.1-0.9-0.3-1.2-1.1-1.2c-0.8,0-1.5-0.1-2.3,0.1c-0.5,0.1-1.1,0.2-1.7,0.1c-1.1-0.3-1.6,0.1-2,1.2c-0.3,0.7-0.4,1.5-0.8,2.2
				c-0.9,1.8-1.4,3.7-2.4,5.5c-0.3,0.6-0.6,1.2-0.5,1.9c0.1,0.5,0.1,0.5,0.5,0.6c0.5,0.1,1.1,0.2,1.6,0.3c0.9,0.2,1.8,0.5,2.7,0.8
				c0.5,0.1,1.1,0,1.4-0.4c0.2-0.4,0.4-0.7,0.6-1.1c0.5-1.1,1-2.2,1.4-3.3c0.4-1,1-2.1,1.3-3.2c0.3-0.9,0.6-1.7,0.9-2.6
				C939.2,634,939.2,633.7,939.3,633.3z M1024.2,604c0.1,0,0.2,0,0.3,0c0-0.1,0-0.3-0.1-0.4c-0.2-0.3-0.6-0.5-1-0.4
				c-0.8,0-1.7,0.1-2.5,0.2c-0.9,0-1.8,0.1-2.7,0.3c-0.2,0-0.5,0-0.7,0c-0.4-0.1-0.8-0.3-1.2-0.5c-0.7-0.4-1.3-0.9-1.9-1.3
				c-0.7-0.5-1.4-1-2.2-1.4c-1-0.4-1.9-0.9-2.9-1.3c-1.1-0.4-2.1-0.8-3.3-0.8c-0.6,0-1.2-0.1-1.8-0.3c-1.3-0.3-2.6-0.8-3.7-1.4
				c-0.6-0.3-0.6-0.3-1.1,0.2c-0.2,0.2-0.1,0.3,0.1,0.3c1,0.3,1.9,0.7,2.9,1c0.8,0.2,1.5,0.5,2.2,0.9c0.4,0.2,0.7,0.5,1.1,0.6
				c1.6,0.4,2.8,1.5,4.3,2.2c0.7,0.3,0.9,1.2,0.7,1.9c-0.2,0.7-0.8,1.1-1.4,1.4c-0.4,0.2-0.9,0.3-1.3,0.5c-0.6,0.2-0.7,0.5-0.5,1.3
				c0.2,0.7,0.3,1.4,0.5,2.2c0.1,0.6,0.2,1.2,0.4,1.8c0.1,0.4,0.4,0.7,0.5,1.1c0.2,1,0.9,1.9,1.3,2.8c0,0.1,0.1,0.1,0.2,0.2
				c0-0.1,0.1-0.2,0.1-0.2c-0.2-1-0.3-2-0.5-2.9c-0.2-1-0.3-2-0.6-3c-0.3-1,0.1-1.7,1-2.2c0.4-0.2,0.9-0.3,1.4-0.3
				c0.6,0,1.3,0,1.9,0c0.2,0,0.5,0,0.7,0.1c1.3,0.4,2,1.5,2.6,2.6c0.6,1.2,0.7,2.5,0.9,3.7c0,0.1,0,0.2,0.1,0.2
				c0-0.1,0.1-0.2,0.1-0.3c0-1.5,0-3,0-4.5c0-0.1,0-0.3,0-0.4c-0.2-0.7,0.1-1.3,0.5-1.9c0.4-0.4,0.9-0.7,1.4-0.9
				c0.6-0.2,1.2-0.5,1.8-0.7c0.6-0.2,1.2-0.3,1.8-0.4C1023.4,603.8,1023.8,603.9,1024.2,604z M929.7,633c0-0.6-0.7-1.3-1.4-1.4
				c-0.7,0-1.4,0.1-2.1,0.1c-0.7,0-1.1,0.4-1.4,1c-0.1,0.3-0.2,0.6-0.4,1c-0.6,1.2-1.2,2.4-1.8,3.7c-0.2,0.3-0.3,0.6-0.6,0.8
				c-0.7,0.6-0.8,1.3-0.3,2.1c0.3,0.4,0.7,0.6,1.2,0.7c0.6,0.2,1.3,0.3,1.9,0.4c0.5,0.1,0.6,0.2,0.7-0.3c0.1-0.5,0.4-0.8,0.7-1.2
				c0.3-0.4,0.6-0.9,1-1.2c0.2-0.1,0.3-0.4,0.4-0.6c0.6-1.4,1.2-2.7,1.7-4.1C929.5,633.7,929.5,633.4,929.7,633z M996,596.7
				c0.6,0.2,0.9-0.2,1.2-0.7c0.2-0.4,0.5-0.8,0.7-1.2c0.3-0.5,0.3-0.7-0.1-1.1c-0.8-0.8-1.1-1.8-1.4-2.9c-0.1-0.3-0.1-0.5-0.4-0.7
				c-0.3-0.1-0.5-0.3-0.9-0.2c-0.9,0.3-1.8,0.6-2.7,0.9c-1.1,0.4-2.2,0.9-3.3,1.3c-0.3,0.1-0.5,0.1-0.5,0.5c0,0.3,0.1,0.5,0.4,0.6
				c0.9,0.5,1.9,1.1,2.8,1.6c1,0.5,2,1,3,1.5C995.1,596.6,995.5,596.7,996,596.7z"/>
			<path d="M1011.8,504.3c-0.9,0-1.4-0.5-1.7-1.4c-0.2-0.7-0.4-1.5-0.5-2.2c0-0.1-0.1-0.2-0.1-0.3c0,0.1,0,0.2-0.1,0.2
				c0,0.1-0.1,0.2-0.1,0.2c0,0.9-0.3,1.8-0.4,2.7c-0.2,1.4-0.6,2.7-1.6,3.7c-0.5,0.5-1.3,0.8-2.1,0.2c-0.4-0.2-0.5-0.6-0.6-1
				c-0.1-0.4-0.1-0.9,0.1-1.4c0.6-1.3,0.8-2.7,1.2-4c0-0.1,0-0.3,0-0.4c0-1.2,0-2.4,0-3.6c0-0.8-0.2-1.5-0.4-2.2
				c-0.3-1-0.6-2.1-0.9-3.1c-0.1-0.4-0.3-0.9-0.5-1.3c-0.7-1.3-1.4-2.6-2.6-3.5c-1.8-1.5-3.5-3-5.6-4.1c-0.5-0.3-1.1-0.5-1.8-0.6
				c-0.4,0-0.8-0.1-1.3-0.2c-0.9-0.2-1.4-0.9-1.6-1.7c-0.2-0.6,0.2-1.4,0.9-1.7c0.4-0.2,0.9-0.3,1.4-0.2c1,0.1,2,0.5,2.9,0.9
				c1.4,0.7,2.9,1.3,4.3,2.1c2.1,1.1,4.2,2.2,6.2,3.6c1.2,0.8,2.4,1.6,3.6,2.5c0.5,0.4,1,0.9,1.5,1.3c0.5,0.4,1,0.9,1.5,1.3
				c0.2,0.2,0.4,0.5,0.5,0.8c0.3,0.6,0.2,1.3-0.3,1.8c-0.5,0.5-1.2,0.6-1.8,0.3c-0.2-0.1-0.5-0.3-0.6-0.4c-0.7-0.6-1.3-1.2-2-1.8
				c-0.1-0.1-0.1-0.1-0.2-0.1c0,0.1,0,0.2,0,0.3c0.5,1,1,2,1.4,3c1.1,2.4,2,5,2.6,7.6c0.1,0.4,0.2,0.8,0.2,1.3
				C1013.4,503.6,1012.7,504.3,1011.8,504.3z"/>
			<path d="M991.7,504.8c-0.1,0.7-0.2,1.5-0.4,2.2c-0.3,1.2-0.7,2.4-1.1,3.6c-0.4,1.2-1.1,2.2-1.7,3.3c-0.5,1-1.3,1.8-2.1,2.6
				c-0.3,0.3-0.5,0.6-0.7,0.9c-0.5,0.9-1.2,1.7-2.1,2.3c-0.2,0.1-0.3,0.3-0.4,0.4c-0.6,0.8-1.4,1.4-2.1,2.1c-0.8,0.7-1.6,1.4-2.3,2
				c-0.1,0.1-0.2,0.2-0.3,0.2c-0.8,0.9-1.7,1.6-2.7,2.3c-1.1,0.8-1.9,1.7-2.7,2.8c-0.3,0.5-0.8,0.8-1.4,0.9
				c-1.2,0.2-2.2-1.4-1.5-2.4c0.4-0.6,0.8-1.3,1.3-1.9c0.9-1.1,2-1.9,3.1-2.7c0.5-0.4,1-0.7,1.4-1.1c1-0.9,2-1.9,3-2.8
				c0.6-0.5,1.2-1.1,1.7-1.7c0.2-0.3,0.6-0.5,0.9-0.8c0.8-0.6,1.2-1.5,1.8-2.3c0.1-0.2,0.3-0.4,0.4-0.5c0.7-0.7,1.3-1.4,1.7-2.2
				c0.9-1.5,1.6-3.2,2-4.9c0.2-0.8,0.3-1.5,0.4-2.3c0.1-0.8,0.3-1.5,1.2-1.8c1.1-0.3,2.1,0.3,2.2,1.4
				C991.7,504.5,991.7,504.7,991.7,504.8C991.7,504.8,991.7,504.8,991.7,504.8z"/>
			<path d="M956,539.3c-0.1-0.7,0.3-1.3,0.6-1.9c0.7-1.5,1.6-2.8,2.5-4.1c0.7-1,1.4-2.1,2.1-3.1c0.2-0.4,0.5-0.8,0.7-1.2
				c0.4-1.1,1.1-1.9,1.8-2.8c0.5-0.6,0.9-1.2,1.4-1.8c0.9-1.2,1.7-2.5,2.6-3.8c0.4-0.6,0.8-1.1,1.3-1.6c0.9-1,1.8-2.1,2.8-3.1
				c0.6-0.6,1.1-1.3,1.9-1.6c1.4-0.5,2.5,0.7,2.3,1.6c-0.1,0.3-0.2,0.6-0.4,0.8c-0.7,0.8-1.5,1.6-2.2,2.4c-1.5,1.5-2.9,3.1-4,4.9
				c-0.8,1.3-1.7,2.6-2.7,3.8c-0.9,1-1.5,2.2-2.2,3.4c-0.8,1.4-1.7,2.7-2.6,4c-0.8,1.2-1.6,2.3-2.2,3.6c-0.2,0.4-0.4,0.8-0.6,1.2
				c-0.5,0.9-1.5,1.1-2.4,0.5C956,540.3,956,539.8,956,539.3z"/>
			<path d="M1014.4,562.2c-1.3,0-2.1-1.2-1.5-2.3c0.4-0.7,0.9-1.3,1.4-2c0.9-1.2,1.9-2.5,2.8-3.7c1-1.5,2-3,3-4.5
				c0.5-0.8,1-1.6,1.4-2.4c0.8-1.5,1.6-2.9,2.3-4.4c0.3-0.6,0.6-1.3,0.8-1.9c0.4-1.1,1.1-1.4,1.8-1.4c0.7,0,1.4,0.7,1.5,1.4
				c0,0.6,0,1.1-0.3,1.6c-0.6,1.3-1.2,2.6-1.9,3.9c-0.9,1.7-2,3.4-3,5.1c-0.6,1-1.2,2-1.9,3c-0.9,1.3-1.9,2.7-2.8,4
				c-0.7,1-1.5,2-2.2,2.9C1015.4,561.9,1015,562.3,1014.4,562.2z"/>
			<path d="M998.4,446.9c0.1-0.5,0.2-1,0.4-1.5c0.3-0.8,0.5-1.7,0.8-2.5c0.2-0.5,0.1-0.8-0.3-1.1c-1-0.8-1.9-1.5-2.9-2.3
				c-0.5-0.4-0.9-0.8-1.1-1.4c-0.1-0.3-0.1-0.7,0-1c0.3-0.6,0.7-1,1.4-1.1c0.5-0.1,1.1,0.2,1.5,0.5c0.8,0.7,1.7,1.5,2.5,2.2
				c0.2,0.2,0.3,0.2,0.4-0.1c0.2-0.6,0.5-1.3,0.7-1.9c0.2-0.7,0.8-1.3,1.4-1.3c0.8-0.1,1.5,0.3,1.8,1.1c0.2,0.5,0.2,1,0,1.4
				c-0.3,0.9-0.6,1.8-1,2.6c-0.2,0.5-0.1,0.8,0.2,1.1c0.8,0.7,1.6,1.4,2.4,2c0.7,0.6,1.2,1.8,0.3,2.7c-0.7,0.6-1.7,0.5-2.3,0
				c-0.6-0.5-1.1-1-1.7-1.5c-0.2-0.2-0.3-0.2-0.4,0.1c-0.2,0.8-0.6,1.5-0.7,2.4c-0.1,0.8-0.5,1.4-1.4,1.6c-0.5,0.1-1.3-0.2-1.6-0.6
				C998.5,447.7,998.4,447.5,998.4,446.9z"/>
			<path d="M1039.1,507.7c-0.1,1.2-0.1,2.5-0.2,3.7c-0.1,1.4-0.3,2.8-0.5,4.2c-0.4,2.3-0.7,4.6-1.5,6.8c-0.1,0.3-0.1,0.7-0.2,1
				c-0.3,0.7-0.7,1.2-1.5,1.3c-1,0.2-2.1-0.8-1.7-2.2c0.2-0.6,0.3-1.3,0.5-1.9c0.5-1.6,0.7-3.2,1-4.8c0.2-1.4,0.4-2.7,0.5-4.1
				c0.2-1.6,0.3-3.3,0.3-4.9c0-0.7-0.2-1.3-0.2-2c-0.1-1,0.6-1.8,1.4-2c0.7-0.1,1.4,0.3,1.7,1.1c0.2,0.6,0.3,1.3,0.4,2
				C1039.1,506.6,1039,507.1,1039.1,507.7C1039,507.7,1039,507.7,1039.1,507.7z"/>
			<path d="M1033.8,499.3c-0.1,0.8,0.1,1.5-0.2,2.1c-0.4,1.2-1.8,1.6-2.6,0.7c-0.3-0.3-0.4-0.7-0.5-1.2c-0.1-0.4,0-0.8,0-1.2
				c0-1-0.1-2-0.3-3.1c-0.1-0.8-0.2-1.7-0.4-2.5c-0.4-2.2-0.8-4.4-1.5-6.6c-0.1-0.4-0.3-0.7-0.5-1.1c-0.2-0.3-0.3-0.6-0.3-1
				c0-0.9,0.5-1.6,1.4-1.7c0.5,0,0.9,0.2,1.3,0.5c0.6,0.5,0.9,1.1,1.1,1.8c0.4,1.3,0.7,2.6,1,3.9c0.3,1.3,0.5,2.6,0.7,3.9
				c0.2,0.9,0.4,1.7,0.5,2.6C1033.7,497.4,1033.8,498.4,1033.8,499.3z"/>
			<path d="M1029.6,475c0.1,0.7-0.4,1.1-0.9,1.4c-0.6,0.3-1.1,0.1-1.6-0.2c-0.3-0.2-0.5-0.5-0.7-0.7c-1-1.3-1.9-2.7-2.9-4
				c-0.6-0.8-1.3-1.6-2-2.4c-0.7-0.8-1.4-1.6-2.1-2.4c-0.2-0.3-0.5-0.5-0.8-0.7c-0.3-0.3-0.6-0.5-0.8-0.8c-0.5-0.5-0.5-1.5-0.1-2.1
				c0.5-0.7,1.2-0.8,2-0.5c0.3,0.2,0.6,0.4,0.8,0.6c0.8,0.8,1.6,1.6,2.4,2.4c1,1.1,1.9,2.3,2.8,3.5c1.1,1.4,2.2,2.9,3.3,4.4
				C1029.4,473.9,1029.7,474.4,1029.6,475z"/>
			<path d="M974.4,504.1c-0.1,0.4-0.2,0.8-0.4,1.1c-1.1,2.4-2.6,4.6-4.1,6.9c-0.7,1-1.3,2-1.9,3.1c-0.3,0.6-0.7,1.1-1.4,1.2
				c-1.1,0.2-2.2-1-1.7-2.1c0.3-0.8,0.7-1.6,1.1-2.3c1-1.7,2.2-3.3,3.2-5c0.7-1,1.3-2.1,1.7-3.3c0.2-0.5,0.6-0.9,1.1-1.2
				c0.9-0.5,2.1,0.2,2.2,1.2C974.3,503.9,974.3,504,974.4,504.1C974.3,504.1,974.3,504.1,974.4,504.1z"/>
			<path d="M1039.7,485.6c0.1,1-0.3,1.5-1,1.8c-0.6,0.3-1.2,0.2-1.7-0.4c-0.3-0.3-0.5-0.7-0.7-1.1c-1-2.3-2-4.6-3.1-6.8
				c-0.3-0.7-0.7-1.3-1.1-2c-0.5-0.8-0.1-2.2,1.1-2.5c0.6-0.1,1.2,0.1,1.6,0.5c0.4,0.5,0.8,1,1,1.7c0,0.2,0.1,0.3,0.2,0.5
				c0.7,1.4,1.4,2.8,2.1,4.2c0.5,1.2,1,2.4,1.5,3.5C1039.7,485.4,1039.7,485.6,1039.7,485.6z"/>
			<path d="M973.4,581.4c0-0.7,0.4-1.1,0.9-1.5c0.9-0.6,1.8-1.1,2.7-1.7c1.2-0.8,2.5-1.6,3.7-2.3c0.6-0.3,1.1-0.7,1.8-0.7
				c0.7,0.1,1.5,0.8,1.7,1.4c0.1,0.5-0.2,1.4-0.7,1.6c-1.4,0.6-2.5,1.5-3.7,2.2c-1.2,0.7-2.4,1.5-3.7,2.2c-0.5,0.3-1,0.6-1.6,0.3
				C973.7,582.6,973.4,582.2,973.4,581.4z"/>
			<path d="M1025.5,462.5c-0.8,0.1-1.2-0.4-1.8-0.8c-1.2-1-2.4-1.9-3.6-2.9c-0.5-0.4-1-0.9-1.4-1.4c-0.4-0.5-0.5-1.1-0.3-1.6
				c0.3-0.6,0.7-1,1.5-1c0.5,0,0.9,0.2,1.3,0.5c1.1,0.9,2.2,1.7,3.2,2.6c0.8,0.6,1.5,1.3,2.3,2c0.7,0.7,0.6,2.2-0.4,2.5
				C1025.9,462.4,1025.7,462.5,1025.5,462.5z"/>
			<path d="M965.9,550.2c0.9,0,1.7,0.8,1.7,1.6c0,0.3-0.1,0.7-0.4,1c-1.3,1.3-2.4,2.8-3.4,4.3c-0.4,0.5-0.9,0.7-1.5,0.7
				c-0.6,0-1.2-0.3-1.4-1c-0.2-0.6-0.2-1.2,0.2-1.7c0.8-1,1.5-2.1,2.3-3.1c0.3-0.4,0.7-0.9,1.1-1.2
				C964.9,550.4,965.4,550.2,965.9,550.2z"/>
			<path d="M977.9,540c-0.1-0.8,0.3-1.3,1-1.6c0.7-0.2,1.5,0.1,1.9,0.8c0.6,0.9,0.5,2-0.3,2.6c-0.7,0.6-2,0.4-2.4-0.5
				C977.9,540.6,977.9,540.6,977.9,540z"/>
			<path d="M1011.3,458.4c0-1.3,1.2-2,2.3-1.5c0.6,0.3,0.9,0.8,1.1,1.3c0.2,0.6-0.2,1.5-0.8,1.9c-0.5,0.3-1.3,0.2-1.8-0.2
				C1011.7,459.5,1011.2,459,1011.3,458.4z"/>
			<path d="M973.7,542.9c0.9,0,1.6,0.7,1.6,1.6c0,0.9-0.7,1.7-1.5,1.7c-0.9,0-1.6-0.7-1.6-1.7C972.2,543.5,972.8,542.9,973.7,542.9z
				"/>
			<path d="M990.1,626.8c-0.1-0.1-0.5-0.2-0.7-0.4c-0.3-0.4-0.7-0.4-1.2-0.4c-2,0-4-0.1-6,0c-2.6,0.2-5.3,0.2-7.9,0.1
				c-3.4-0.2-6.8,0-10.1-0.2c-2-0.1-4,0-6.1-0.1c-0.5,0-1.1-0.2-1.6-0.4c-0.5-0.2-0.9-1.1-0.8-1.6c0-0.1,0.1-0.3,0.2-0.4
				c0.2-0.3,0.5-0.5,0.7-0.7c0.3-0.3,0.7-0.5,1.2-0.3c0.2,0.1,0.4,0.1,0.6,0.1c4,0.1,8,0.1,12,0.2c0.9,0,1.9-0.1,2.8,0
				c2.4,0.2,4.9,0.3,7.3,0.1c2.9-0.2,5.8-0.1,8.7-0.1c0.8,0,1.6,0.1,2.3,0.7c0.6,0.5,0.8,1.6,0.5,2.3
				C991.7,626.4,991,626.8,990.1,626.8z"/>
			<path d="M954.4,618.9c-0.5-0.1-1.2-0.2-2-0.3c-0.5-0.1-1-0.1-1.5-0.2c-0.8-0.1-1.6-0.1-2.4-0.2c-0.5,0-1.1-0.1-1.6-0.2
				c-0.5,0-1,0.1-1.5-0.2c0,0-0.1,0-0.2,0c-1.6-0.1-3.2-0.1-4.7-0.2c-1.6-0.1-3.2-0.1-4.8-0.2c-1-0.1-2-0.2-2.9-0.5
				c-1.1-0.3-1.5-1.4-1-2.3c0.3-0.6,1.1-1,1.8-0.8c1.2,0.2,2.4,0.4,3.6,0.4c2,0,4,0,6,0.2c0.9,0.1,1.7,0.1,2.6,0.2
				c1.3,0.1,2.7,0.2,4,0.3c1,0.1,2,0.2,3,0.3c0.4,0,0.8,0.1,1.2,0.2c0.4,0.1,0.7,0,1-0.3c0.5-0.4,1.1-0.4,1.6-0.1
				c0.5,0.3,0.9,0.7,0.9,1.4C957.3,618,956.3,618.9,954.4,618.9z"/>
			<path d="M923.2,620c1.5,0,3,0,4.5,0c2.2,0,4.5,0,6.7,0.2c1.2,0.1,2.5,0.1,3.6,0.7c0.4,0.2,0.8,0.4,1.1,0.7
				c0.6,0.6,0.8,1.7-0.2,2.4c-0.6,0.4-1.2,0.3-1.7,0.1c-0.7-0.3-1.4-0.3-2.1-0.4c-1.7-0.2-3.4,0-5.1-0.2c-4.5-0.3-9.1-0.1-13.6-0.2
				c-0.6,0-1.2-0.1-1.6-0.6c-1-1-0.3-2.2,0.6-2.6c0.3-0.1,0.7-0.2,1.1-0.2C918.7,620,920.9,620,923.2,620
				C923.2,620,923.2,620,923.2,620z"/>
			<path d="M993.6,618.1c-0.5,0-1,0-1.5,0c-0.7,0-1.4-0.1-2.1-0.2c-0.7-0.1-1.3-0.6-1.5-1.3c-0.3-0.9,0.3-1.9,1.3-2
				c0.5-0.1,1,0,1.5,0c0.3,0,0.6,0.1,0.8,0.1c0.8,0,1.7,0,2.5,0c0.3,0,0.7-0.1,1-0.1c1.1-0.2,2.3,0.6,2.3,1.7c0,0.5-0.2,1-0.7,1.3
				c-0.5,0.3-1,0.5-1.6,0.5C995,618.1,994.3,618.1,993.6,618.1C993.6,618.1,993.6,618.1,993.6,618.1z"/>
			<path d="M919,617.6c-0.9-0.1-1.6-0.3-2.1-1.1c-0.7-1.2,0-2.3,1.1-2.4c0.7-0.1,1.4,0.1,2.1,0.4c0.5,0.2,1,1.1,0.8,1.6
				c-0.2,0.8-0.8,1.4-1.6,1.4C919.2,617.6,919.1,617.6,919,617.6z"/>
		</g>
	</g>
</g>
</svg>
