<?xml version="1.0" encoding="utf-8"?>
<!-- Generator: Adobe Illustrator 28.0.0, SVG Export Plug-In . SVG Version: 6.00 Build 0)  -->
<svg version="1.1" id="Layer_1" xmlns="http://www.w3.org/2000/svg" xmlns:xlink="http://www.w3.org/1999/xlink" x="0px" y="0px"
	 viewBox="0 0 1920 1080" style="enable-background:new 0 0 1920 1080;" xml:space="preserve">
<style type="text/css">
	.st0{fill:#FFFFFF;}
</style>
<g>
	<g>
		<path class="st0" d="M247.3,498.3h8.2l3.1,26l0.2,1.8l0.3-1.9l3.7-25.9h6.4l3.9,26.1l0.3,1.9l0.2-1.9l3.2-26.1h8.2l-6.5,46.5h-8.1
			l-4.1-25.1l-0.4-2.4l-0.4,2.4l-3.9,25.1h-8.1L247.3,498.3z"/>
		<path class="st0" d="M299.8,544.2c-2.2-0.9-4-2.1-5.6-3.6c-1.6-1.5-2.8-3.3-3.6-5.3c-0.8-2-1.3-4.2-1.3-6.5v-1.3
			c0-2.6,0.4-5.1,1.2-7.2c0.8-2.2,2-4.1,3.5-5.6c1.5-1.6,3.3-2.8,5.3-3.7c2-0.9,4.3-1.3,6.7-1.3c2.5,0,4.7,0.4,6.7,1.2
			c1.9,0.8,3.6,2,5,3.5c1.3,1.5,2.4,3.3,3.1,5.4s1.1,4.4,1.1,7v3.8h-23.5v0.1c0.3,1.4,0.7,2.5,1.2,3.3s1.1,1.6,1.9,2.3
			c0.8,0.7,1.7,1.2,2.8,1.6c1,0.4,2.2,0.6,3.4,0.6c1.7,0,3.4-0.3,5.1-1c1.6-0.7,3-1.7,4-3l4.4,4.8c-1.1,1.6-2.9,3-5.4,4.3
			s-5.3,1.9-8.7,1.9C304.4,545.5,302,545.1,299.8,544.2z M303.2,517.4c-0.8,0.4-1.6,0.9-2.2,1.5c-0.6,0.7-1.2,1.4-1.6,2.4
			c-0.4,0.9-0.7,1.9-1,3.1h14.6v-0.7c0-0.9-0.2-1.8-0.5-2.7s-0.8-1.6-1.4-2.2c-0.6-0.6-1.3-1.1-2.2-1.4c-0.9-0.4-1.9-0.5-3-0.5
			C305,516.8,304.1,517,303.2,517.4z"/>
		<path class="st0" d="M368.9,510.3h8.2l0.3,3.4c0.5-0.6,1-1.1,1.5-1.5c0.6-0.5,1.2-0.9,1.8-1.2c0.8-0.4,1.6-0.7,2.5-0.9
			c0.9-0.2,1.9-0.3,3-0.3c2.2,0,4.1,0.4,5.8,1.3c1.7,0.8,3.1,2,4.3,3.6c1.2,1.6,2,3.4,2.6,5.6c0.6,2.2,0.9,4.6,0.9,7.2v0.7
			c0,2.5-0.3,4.8-0.9,7c-0.6,2.2-1.4,4-2.6,5.6c-1.2,1.6-2.6,2.8-4.3,3.7c-1.7,0.9-3.6,1.3-5.8,1.3c-1.2,0-2.2-0.1-3.2-0.4
			s-1.9-0.6-2.7-1.1c-0.5-0.3-1-0.6-1.4-1s-0.9-0.8-1.3-1.2v16.3h-8.9V510.3z M390.6,523.2c-0.3-1.3-0.7-2.4-1.2-3.3
			c-0.6-0.9-1.3-1.6-2.2-2.2c-0.9-0.5-2-0.8-3.2-0.8c-0.7,0-1.4,0.1-2,0.2s-1.1,0.3-1.6,0.6c-0.6,0.3-1,0.7-1.5,1.1
			c-0.4,0.4-0.8,1-1.1,1.6v14.4c0.3,0.6,0.6,1.1,1,1.5c0.4,0.4,0.8,0.8,1.4,1.2c0.5,0.3,1.1,0.5,1.7,0.7s1.4,0.2,2.1,0.2
			c1.3,0,2.3-0.3,3.2-0.8c0.9-0.6,1.6-1.3,2.2-2.3c0.6-1,1-2.1,1.2-3.3c0.3-1.3,0.4-2.6,0.4-4v-0.7
			C391,525.8,390.9,524.4,390.6,523.2z"/>
		<path class="st0" d="M436.6,509.9c1.1,0.2,2.1,0.4,2.8,0.6l-1.3,8.9c-1.2-0.3-2.4-0.5-3.6-0.6c-1.2-0.1-2.4-0.2-3.5-0.2
			c-1.2,0-2.2,0.1-3.1,0.3c-0.9,0.2-1.8,0.5-2.5,0.9c-0.9,0.5-1.6,1.1-2.2,1.8c-0.6,0.7-1.1,1.6-1.5,2.6v20.8h-8.9v-34.6h8.3
			l0.4,4.9l0.1,0.8c1.4-2,3.1-3.5,5-4.6c2-1.1,4.1-1.7,6.4-1.7C434.3,509.7,435.5,509.7,436.6,509.9z"/>
		<path class="st0" d="M447.2,520.3c0.7-2.1,1.8-4,3.2-5.6c1.4-1.6,3.1-2.8,5.1-3.7c2-0.9,4.3-1.3,6.9-1.3c2.6,0,4.9,0.4,6.9,1.3
			c2,0.9,3.7,2.1,5.1,3.7c1.4,1.6,2.4,3.4,3.2,5.6c0.7,2.1,1.1,4.5,1.1,7v0.7c0,2.5-0.4,4.9-1.1,7c-0.7,2.1-1.8,4-3.2,5.6
			c-1.4,1.6-3.1,2.8-5.1,3.7c-2,0.9-4.3,1.3-6.9,1.3c-2.6,0-4.9-0.4-7-1.3c-2-0.9-3.7-2.1-5.1-3.7c-1.4-1.6-2.5-3.4-3.2-5.6
			c-0.7-2.1-1.1-4.5-1.1-7v-0.7C446.2,524.7,446.5,522.4,447.2,520.3z M455.5,532c0.3,1.3,0.7,2.4,1.3,3.3c0.6,1,1.4,1.7,2.3,2.3
			s2.1,0.8,3.4,0.8c1.3,0,2.4-0.3,3.4-0.8s1.7-1.3,2.3-2.3c0.6-0.9,1-2,1.3-3.3c0.3-1.3,0.4-2.6,0.4-4.1v-0.7c0-1.4-0.1-2.7-0.4-4
			s-0.7-2.4-1.3-3.3c-0.6-1-1.4-1.7-2.3-2.3c-0.9-0.6-2.1-0.8-3.4-0.8c-1.3,0-2.5,0.3-3.4,0.8c-0.9,0.6-1.7,1.3-2.3,2.3
			s-1,2.1-1.3,3.3s-0.4,2.6-0.4,4v0.7C455,529.4,455.2,530.7,455.5,532z"/>
		<path class="st0" d="M484.4,510.3h9.3l7.6,24.4l0.5,2.4l0.5-2.4l7.6-24.4h9.3L506,544.9h-8.3L484.4,510.3z"/>
		<path class="st0" d="M525.8,520.3c0.7-2.1,1.8-4,3.2-5.6c1.4-1.6,3.1-2.8,5.1-3.7c2-0.9,4.3-1.3,6.9-1.3c2.6,0,4.9,0.4,6.9,1.3
			c2,0.9,3.7,2.1,5.1,3.7c1.4,1.6,2.4,3.4,3.2,5.6c0.7,2.1,1.1,4.5,1.1,7v0.7c0,2.5-0.4,4.9-1.1,7c-0.7,2.1-1.8,4-3.2,5.6
			c-1.4,1.6-3.1,2.8-5.1,3.7c-2,0.9-4.3,1.3-6.9,1.3c-2.6,0-4.9-0.4-7-1.3c-2-0.9-3.7-2.1-5.1-3.7c-1.4-1.6-2.5-3.4-3.2-5.6
			s-1.1-4.5-1.1-7v-0.7C524.7,524.7,525.1,522.4,525.8,520.3z M534,532c0.3,1.3,0.7,2.4,1.3,3.3c0.6,1,1.4,1.7,2.3,2.3
			c0.9,0.6,2.1,0.8,3.4,0.8c1.3,0,2.4-0.3,3.4-0.8s1.7-1.3,2.3-2.3c0.6-0.9,1-2,1.3-3.3c0.3-1.3,0.4-2.6,0.4-4.1v-0.7
			c0-1.4-0.1-2.7-0.4-4s-0.7-2.4-1.3-3.3c-0.6-1-1.4-1.7-2.3-2.3c-0.9-0.6-2.1-0.8-3.4-0.8c-1.3,0-2.5,0.3-3.4,0.8
			c-0.9,0.6-1.7,1.3-2.3,2.3s-1,2.1-1.3,3.3s-0.4,2.6-0.4,4v0.7C533.6,529.4,533.7,530.7,534,532z"/>
		<path class="st0" d="M574.2,534.3v10.5h-8.9v-49.1h8.9v28.1l2.7-3.1l9.6-10.5h10.7l-13,14.4l14.9,20.2H588l-9.8-14.3L574.2,534.3z
			"/>
		<path class="st0" d="M614,544.2c-2.2-0.9-4-2.1-5.6-3.6c-1.6-1.5-2.8-3.3-3.6-5.3s-1.3-4.2-1.3-6.5v-1.3c0-2.6,0.4-5.1,1.2-7.2
			c0.8-2.2,2-4.1,3.5-5.6c1.5-1.6,3.3-2.8,5.3-3.7c2-0.9,4.3-1.3,6.7-1.3c2.5,0,4.7,0.4,6.7,1.2c1.9,0.8,3.6,2,5,3.5
			c1.3,1.5,2.4,3.3,3.1,5.4c0.7,2.1,1.1,4.4,1.1,7v3.8h-23.5v0.1c0.3,1.4,0.7,2.5,1.2,3.3c0.5,0.8,1.1,1.6,1.9,2.3
			c0.8,0.7,1.7,1.2,2.8,1.6c1,0.4,2.2,0.6,3.4,0.6c1.7,0,3.4-0.3,5.1-1s3-1.7,4-3l4.4,4.8c-1.1,1.6-2.9,3-5.4,4.3
			c-2.5,1.3-5.3,1.9-8.7,1.9C618.6,545.5,616.2,545.1,614,544.2z M617.4,517.4c-0.8,0.4-1.6,0.9-2.2,1.5c-0.6,0.7-1.2,1.4-1.6,2.4
			c-0.4,0.9-0.7,1.9-1,3.1h14.6v-0.7c0-0.9-0.2-1.8-0.5-2.7s-0.8-1.6-1.4-2.2c-0.6-0.6-1.3-1.1-2.2-1.4s-1.9-0.5-3-0.5
			C619.2,516.8,618.3,517,617.4,517.4z"/>
		<path class="st0" d="M699.3,510.3h12.9v6.6h-12.9v14.9c0,1.3,0.1,2.3,0.4,3.1c0.3,0.8,0.7,1.5,1.2,2c0.5,0.5,1.2,0.9,1.9,1.1
			c0.8,0.2,1.6,0.3,2.5,0.3c0.7,0,1.4,0,2.1-0.1c0.7-0.1,1.4-0.1,2.1-0.3c0.6-0.1,1.2-0.2,1.8-0.3c0.6-0.1,1-0.2,1.5-0.3l0.9,6.1
			c-0.6,0.4-1.3,0.7-2.2,0.9c-0.8,0.3-1.7,0.5-2.7,0.7c-0.9,0.2-1.9,0.3-2.9,0.4c-1,0.1-2,0.1-3,0.1c-1.9,0-3.6-0.3-5.2-0.8
			c-1.5-0.5-2.9-1.3-3.9-2.3c-1.1-1-2-2.4-2.6-4c-0.6-1.6-0.9-3.6-0.9-5.9v-15.7h-7.9v-6.6h7.9v-8.5h8.9V510.3z"/>
		<path class="st0" d="M732.7,513.2c0.5-0.6,1.1-1.1,1.7-1.5c0.9-0.7,1.9-1.2,3-1.5c1.1-0.4,2.3-0.5,3.5-0.5c1.8,0,3.5,0.3,5,0.8
			c1.5,0.5,2.8,1.4,3.9,2.5c1.1,1.2,1.9,2.6,2.5,4.4c0.6,1.8,0.9,4,0.9,6.5v20.9h-8.9v-21c0-1.2-0.2-2.3-0.5-3.2
			c-0.3-0.9-0.8-1.6-1.3-2.2s-1.3-1-2.1-1.2c-0.8-0.3-1.7-0.4-2.7-0.4c-0.8,0-1.5,0.1-2.2,0.2c-0.7,0.1-1.3,0.4-1.9,0.7
			c-0.5,0.3-1,0.6-1.4,0.9c-0.4,0.4-0.8,0.8-1.1,1.2v25h-8.9v-49.1h8.9v19.3C731.6,514.4,732.1,513.8,732.7,513.2z"/>
		<path class="st0" d="M771.1,544.2c-2.2-0.9-4-2.1-5.6-3.6c-1.6-1.5-2.8-3.3-3.6-5.3s-1.3-4.2-1.3-6.5v-1.3c0-2.6,0.4-5.1,1.2-7.2
			c0.8-2.2,2-4.1,3.5-5.6c1.5-1.6,3.3-2.8,5.3-3.7c2-0.9,4.3-1.3,6.7-1.3c2.5,0,4.7,0.4,6.7,1.2c1.9,0.8,3.6,2,5,3.5
			c1.3,1.5,2.4,3.3,3.1,5.4s1.1,4.4,1.1,7v3.8h-23.5v0.1c0.3,1.4,0.7,2.5,1.2,3.3c0.5,0.8,1.1,1.6,1.9,2.3c0.8,0.7,1.7,1.2,2.8,1.6
			s2.2,0.6,3.4,0.6c1.7,0,3.4-0.3,5.1-1c1.6-0.7,3-1.7,4-3l4.4,4.8c-1.1,1.6-2.9,3-5.4,4.3s-5.3,1.9-8.7,1.9
			C775.7,545.5,773.3,545.1,771.1,544.2z M774.6,517.4c-0.8,0.4-1.6,0.9-2.2,1.5c-0.6,0.7-1.2,1.4-1.6,2.4c-0.4,0.9-0.7,1.9-1,3.1
			h14.6v-0.7c0-0.9-0.2-1.8-0.5-2.7s-0.8-1.6-1.4-2.2c-0.6-0.6-1.3-1.1-2.2-1.4s-1.9-0.5-3-0.5C776.3,516.8,775.4,517,774.6,517.4z"
			/>
	</g>
	<path class="st0" d="M851.3,481.8l0.1-0.2l-0.2,0L851.3,481.8z M852.7,480.4c-0.1-0.1-0.1-0.1-0.2-0.2c-0.1,0.1-0.2,0.1-0.2,0.2
		c0,0.1,0.1,0.2,0.1,0.2C852.6,480.5,852.7,480.4,852.7,480.4 M916,465.7l0.2,0.1l0-0.2L916,465.7z M832.8,597.8c0,0.2,0,0.3,0,0.4
		c0.1-0.1,0.1-0.1,0.2-0.2C833,598,832.9,598,832.8,597.8 M836.8,594.9l-0.2-0.1l0,0.2L836.8,594.9z M849.9,483.5l0.2,0.1l0-0.2
		L849.9,483.5z M889.5,466.5l0.1-0.2l-0.2,0L889.5,466.5z M910.5,466.2l-0.1,0.2l0.2,0L910.5,466.2z M853.7,483.5l0.2,0.1l0-0.2
		L853.7,483.5z M888.2,466.9l-0.1,0.2l0.2,0L888.2,466.9z M837.2,588.5l0.2,0.1l0-0.2L837.2,588.5z M836.8,586.6l-0.2-0.1l0,0.2
		L836.8,586.6z M839.8,582.9l0.1-0.2l-0.2,0L839.8,582.9z M912.4,467.5l-0.1,0.2l0.2,0L912.4,467.5z M843.5,578.3l0.2,0.1l0-0.2
		L843.5,578.3z M845,569.3l-0.1,0.2l0.2,0L845,569.3z M865.8,479.7l0.2,0.1l0-0.2L865.8,479.7z M852.6,557.8l-0.1,0.2l0.2,0
		L852.6,557.8z M851.3,555.9l-0.1,0.2l0.2,0L851.3,555.9z M853.7,552.9l0.2,0.1l0-0.2L853.7,552.9z M848.6,551l0.2,0.1l0-0.2
		L848.6,551z M854.5,547l-0.1,0.2l0.2,0L854.5,547z M843.1,545.1l-0.1,0.2l0.2,0L843.1,545.1z M846.2,544.8l0.1-0.2l-0.2,0
		L846.2,544.8z M836.7,544.5l-0.1,0.2l0.2,0L836.7,544.5z M845.1,486.1c-0.1-0.1-0.1-0.2-0.2-0.2c-0.1,0-0.1,0.1-0.2,0.1
		c0.1,0.1,0.1,0.1,0.2,0.2C845,486.3,845.1,486.2,845.1,486.1 M839.4,544l-0.2-0.1l0,0.2L839.4,544z M862.1,479.6l-0.1,0.2l0.2,0
		L862.1,479.6z M876.9,472.1l-0.2-0.1l0,0.2L876.9,472.1z M847.5,537.8l0.1-0.2l-0.2,0L847.5,537.8z M912.9,486.7l0.2,0.1l0-0.2
		L912.9,486.7z M845.7,535.1l-0.2-0.1l0,0.2L845.7,535.1z M849.4,532.7c0.1,0,0.1-0.1,0.2-0.1c-0.1-0.1-0.1-0.2-0.2-0.2
		c-0.1,0-0.2,0.1-0.2,0.1C849.2,532.6,849.3,532.6,849.4,532.7 M871.2,473.4l-0.2-0.1l0,0.2L871.2,473.4z M844.5,487.4
		c-0.1-0.1-0.1-0.1-0.2-0.2c0,0.1,0,0.2,0,0.3C844.4,487.5,844.5,487.4,844.5,487.4 M914.5,487.4l-0.2-0.1l0,0.2L914.5,487.4z
		 M872.5,524.3c-0.1-0.1-0.1-0.2-0.2-0.2c-0.1,0-0.1,0.1-0.2,0.1c0.1,0.1,0.1,0.2,0.2,0.2C872.3,524.4,872.4,524.3,872.5,524.3
		 M861.6,522.4l-0.2-0.1l0,0.2L861.6,522.4z M868.3,476.5l0.2,0.1l0-0.2L868.3,476.5z M876.1,520.3l-0.1,0.2l0.2,0L876.1,520.3z
		 M873.6,519.1l-0.1,0.2l0.2,0L873.6,519.1z M873.6,516.5l-0.1,0.2l0.2,0L873.6,516.5z M893.8,507.7l0.2,0.1l0-0.2L893.8,507.7z
		 M882.5,506.9l-0.1,0.2l0.2,0L882.5,506.9z M897.1,505.7l-0.1,0.2l0.2,0L897.1,505.7z M898.4,504.4l-0.1,0.2l0.2,0L898.4,504.4z
		 M890.6,503.9l0.2,0.1l0-0.2L890.6,503.9z M867.9,503.8c-0.1,0-0.1,0.1-0.2,0.1c0.1,0,0.2,0,0.3,0
		C868,503.9,867.9,503.8,867.9,503.8 M891.4,502.8l0.1-0.2l-0.2,0L891.4,502.8z M867.2,501.6l0.1-0.2l-0.2,0L867.2,501.6z
		 M899.6,500.2l0.1-0.2l-0.2,0L899.6,500.2z M900.3,489.8l-0.1,0.2l0.2,0L900.3,489.8z M909.8,489.8l-0.1,0.2l0.2,0L909.8,489.8z
		 M900.9,497.7l0.1-0.2l-0.2,0L900.9,497.7z M840,490.6l-0.2-0.1l0,0.2L840,490.6z M906.2,491.2l-0.2-0.1l0,0.2L906.2,491.2z
		 M906.8,492.5l-0.2-0.1l0,0.2L906.8,492.5z M837.2,492.5l0.2,0.1l0-0.2L837.2,492.5z M904.8,491.1c-0.2,0-0.4-0.1-0.5-0.1
		c0,0.1,0,0.3,0,0.4c0.2,0,0.4,0,0.5-0.1C904.8,491.3,904.8,491.2,904.8,491.1 M868.4,498.2c0.2,0.1,0.4,0.2,0.6,0.2
		c0.1,0,0.2-0.1,0.2-0.2c-0.1-0.1-0.3-0.3-0.4-0.3C868.7,498,868.6,498.1,868.4,498.2 M877.6,510.7c-0.1-0.2-0.1-0.4-0.2-0.5
		c-0.1,0.1-0.2,0.1-0.2,0.2c0,0.2,0,0.4,0.1,0.6C877.4,510.8,877.5,510.7,877.6,510.7 M861.1,515.2c-0.1-0.2-0.1-0.4-0.2-0.5
		c-0.1,0-0.2,0.1-0.2,0.1c0,0.2,0,0.4,0,0.5C860.8,515.3,860.9,515.2,861.1,515.2 M866.2,474.9c0.2-0.1,0.3-0.1,0.5-0.2
		c-0.1-0.1-0.1-0.2-0.2-0.2c-0.2,0-0.4,0-0.5,0.1C866,474.7,866.1,474.8,866.2,474.9 M852.8,545.5c0.2-0.1,0.4-0.1,0.5-0.2
		c-0.1-0.1-0.1-0.2-0.2-0.2c-0.2,0-0.4,0-0.5,0.1C852.6,545.3,852.7,545.4,852.8,545.5 M909.9,471c0.1-0.2,0.2-0.4,0.2-0.5
		c0-0.1-0.1-0.2-0.1-0.2c-0.1,0.1-0.2,0.2-0.2,0.4C909.6,470.7,909.8,470.8,909.9,471 M909.4,468.1c-0.1-0.2-0.2-0.3-0.3-0.5
		c-0.1,0.1-0.2,0.2-0.2,0.2c0,0.2,0.1,0.4,0.1,0.5C909.2,468.2,909.3,468.1,909.4,468.1 M837.4,593.6c-0.2-0.1-0.4-0.2-0.5-0.2
		c-0.1,0-0.2,0.1-0.2,0.1c0.1,0.1,0.2,0.3,0.3,0.3C837.1,593.8,837.2,593.7,837.4,593.6 M847.5,540c-0.1,0.2-0.3,0.4-0.2,0.5
		c0.1,0.2,0.4,0.4,0.6,0.5c0.1-0.1,0.3-0.3,0.3-0.3C848,540.5,847.8,540.3,847.5,540 M838.1,591.6c-0.2-0.2-0.4-0.4-0.7-0.6
		c0,0-0.3,0.3-0.3,0.3c0.1,0.2,0.3,0.4,0.5,0.6C837.7,591.9,837.9,591.7,838.1,591.6 M870.8,525.8c0.2-0.3,0.4-0.5,0.4-0.6
		c-0.1-0.3-0.2-0.6-0.3-1c-0.1,0.1-0.2,0.1-0.2,0.2C870.8,524.8,870.8,525.2,870.8,525.8 M882.9,510.1c-0.4-0.3-0.5-0.5-0.8-0.6
		c-0.1,0-0.5,0.2-0.5,0.2c0.1,0.3,0.2,0.6,0.4,0.7C882.2,510.5,882.5,510.2,882.9,510.1 M863.2,510.1c0.2-0.4,0.4-0.7,0.4-1
		c0-0.2-0.2-0.5-0.2-0.8c-0.2,0.4-0.5,0.9-0.7,1.3C862.7,509.6,862.9,509.8,863.2,510.1 M836.5,493.5c-0.3-0.3-0.5-0.6-0.7-0.5
		c-0.2,0-0.4,0.3-0.6,0.4c0.2,0.2,0.3,0.5,0.5,0.5C835.9,493.9,836.1,493.7,836.5,493.5 M908.9,480.1c-0.1-0.1-0.3-0.2-0.4-0.3
		C908.6,479.9,908.7,480,908.9,480.1c0.1,0.3,0.2,0.7,0.3,1.1c0.1-0.1,0.2-0.2,0.2-0.2C909.2,480.6,909,480.4,908.9,480.1
		 M891.1,498.5c0.1-0.2,0.2-0.3,0.3-0.5C891.3,498.2,891.2,498.4,891.1,498.5c-0.2,0-0.4,0-0.6,0c0.4-1.9,0.8-3.9,3-4.7
		c0.3-0.1,0.5-0.4,0.6-0.7c0.3-1.2,1.2-1.6,2.3-1.8c0.8-0.1,1.5-0.8,2.2-1.1c0.6-0.2,0.3-0.5,0.3-0.9c0-0.7,0.2-1.5,0.6-2
		c0.7-0.8,1.9-1.3,2.5-2.3c0.7-1.1,1.2-1.1,2-0.3c0.1,0.1,0.5,0,0.8,0c0-0.3,0-0.7-0.1-0.8c-0.7-0.7-1.1-1.3,0-2
		c0.5-0.3,1-0.8,1.1-1.4c0.5-1.6,3.5-2.3,1.9-4.7c0.2-0.1,0.3-0.3,0.5-0.3c0.7-0.2-0.2-1.3,0.9-1.5c0.6-0.1,0-1.5,0.5-2.2
		c-1.3,0.6-1.6-2.2-3.1-0.9c-2-0.8-4-0.1-6-0.5c-0.2-0.1-0.3-0.2-0.5-0.3c0.2,0.1,0.3,0.2,0.5,0.3c-0.2,0.2-0.4,0.6-0.6,0.6
		c-0.9-0.2-1.6-0.7-2.6,0c-0.2,0.2-0.9-0.3-1.3-0.5c-0.2-0.1-0.3-0.2-0.5-0.3c0.2,0.1,0.3,0.2,0.5,0.3c0,0.3,0,0.6-0.1,0.9
		c-0.8-0.1-1.5,0.1-2,0.8c-1.8-0.9-3.4,0.1-5.1,0.4c-1.5,0.2-2.9,0.4-4,1.6c-0.7,0.7-1.5,1-2.7,1.1c-2.2,0.1-4,1.9-6.4,1.8
		c-1,0-1.5,0.6-2.1,1.1c-0.1-0.2-0.2-0.3-0.3-0.5c-0.1,0.2-0.2,0.3-0.3,0.5c-0.3,0.2-0.7,0.5-1,0.7c0.2,0.2,0.6,0.6,0.7,0.5
		c1.7-0.5,1,1.1,1.3,1.6c0.5,1-1.2,1.6-0.6,3c0.4,1-1.1,3.2-2,4.5c-0.1,0.2-0.2,0.4-0.2,0.6c0.1,1.8-1.1,3.5-0.3,5.3
		c0.2,0.4-0.1,1.1-0.2,1.7c-0.8,3-2,5.9-2.4,9c-0.2,1.3-1.2,2.4-1,3.7c0.2,1.5-0.6,2.8-1.1,4.2c-0.5,1.3-0.4,2.7-0.6,4.1
		c0,0.2-0.1,0.4-0.2,0.6c-0.2,0-0.4,0-0.7,0c-0.2-0.1-0.3-0.2-0.5-0.3c0.2,0.1,0.3,0.2,0.5,0.3c-0.1,0.2-0.2,0.4-0.2,0.6
		c-0.1,0.2-0.1,0.4-0.1,0.5c0.3-0.1,0.7,0,0.8-0.2c0.2-0.2,0.1-0.6,0.2-0.9c0.9,0.1,1.6,0,2.3-0.7c1-0.9,2.3-1.7,3.4-2.5
		c0.2-0.1,0.3-0.2,0.5-0.3c-0.2-0.1-0.3-0.2-0.5-0.3c0.9-1.9,3.4-2.2,4.2-4.2c1.3,0.1,2-1.1,2.9-1.6c0.9-0.5,1.6-1.6,2.7-1.9
		c1.2-0.3,1.6-1.9,3-1.9c0,0,0.1-0.4,0-0.5c-0.1-0.2-0.4-0.5-0.4-0.6c0.3-0.3,0.6-0.5,0.9-0.7c0.2,0.1,0.3,0.2,0.5,0.3
		c-0.2-0.1-0.3-0.2-0.5-0.3c0.4-0.3,1.1-0.7,1-0.9c-0.4-1.4,0.5-1.6,1.5-2c0.8-0.3,1.6-0.9,2.4-1.3c0.2-0.1,0.5,0.2,0.8,0.4
		c0.1,0.2,0.2,0.3,0.3,0.5C890.8,498.8,891,498.7,891.1,498.5 M851,539.3c0.2,0.1,0.3,0.2,0.5,0.3
		C851.3,539.4,851.2,539.3,851,539.3c-0.1-0.1-0.3-0.2-0.4-0.3C850.7,539,850.8,539.1,851,539.3 M833.8,492.1
		c0.9-0.8,1.8-1.6,2.7-2.4c0.2-0.1,0.4-0.3,0.5-0.4c0.4-1,2.4,0.8,2.3-1.4c0-0.7,1.3-1.5,2-2.2c0.3-0.3,0.7-0.9,0.9-0.8
		c1.1,0.4,1.4-1.3,2.4-0.9l0,0c0,0.3,0.1,0.6,0.1,0.9c0.5-0.3,1.1-0.6,1.6-0.9c-0.9-1.1,0.3-1.3,0.8-1.7c1.3-1.1,2.7-2.1,4.4-2.5
		c1.3-0.4,2.8-0.9,3.4-2.5c0.3-0.7,1-0.6,1.8-0.7c0.9-0.1,1.7-1.4,2.9-1.2c0.6-1.6,2.3-0.6,3-1.2c0.9-0.8,1.7-1.5,2.9-1.6
		c0.1,0,0.2,0,0.3-0.1c0.9-0.6,1.9-0.6,3-0.4c0.4,0.1,1-1.6,1.8-2c1.3-0.6,2.7-0.8,4.1-1.2c0.3-0.1,0.9,0.1,0.9-0.1
		c1-2.3,3.2-2.2,5.2-2.6l0,0c0.1,0.2,0.2,0.3,0.3,0.5c0.1-0.2,0.2-0.3,0.3-0.5l0,0c0.6,0,1.3,0,1.9-0.1c0.1,0,0.3-0.5,0.2-0.6
		c-1.1-1.1-0.5-1.2,0.6-1.2c1.5-0.1,2.9-0.1,4.5-0.9c1.9-1,4.3-1,6.6-1.3c0.2,0,0.6,1.1,1-0.1c0.1-0.4,2.7-1.3,3.2-1.1
		c0.8,0.4,2-1.4,2.5,0.5c0,0,0.3,0,0.5-0.1c0.8-0.4,1.6-0.8,2.3-1.2c0.4,1.6,1.3,0,2,0.3c0.8,0.3,1.8,0.2,2.6,0.4
		c0.6,0.1,1.2,0.5,1.8,0.7c1.1,0.3,2.2,1,3.3,1.5c-0.1,0.2-0.2,0.3-0.3,0.5c0.1-0.2,0.2-0.3,0.3-0.5c2.4,0.6,3.8,2,3.9,4.6
		c0,0.9,0,1.6,1,2c0.9,0.4,0.9,1.4,0.8,2.2c-0.1,0.7,0,1.4,0,2c-0.1,1.2,1.2,2.2,0.3,3.3c-0.6,0.8-0.1,1.9-1,2.6
		c-0.1,0.1,0.1,0.7,0.1,1c-0.3,1.9-0.9,2.2-2.6,1.5c-0.3-0.1-0.7-0.1-1-0.2c0,0.3-0.1,0.6,0,0.9c0.8,3.3,0.8,3.2-2.2,5.7
		c-0.9,0.7-2,1.8-2,2.7c0,1.4-1,1.2-1.6,1.7c0-0.1,0-0.2,0-0.3c-0.1-0.3-0.2-0.5-0.3-0.8c-0.1,0.1-0.2,0.2-0.2,0.2
		c0.2,0.3,0.3,0.6,0.5,0.8c-0.1,0.8,0.3,1.7-0.9,2.1c-1.1,0.4-1.7,1.4-2.3,2.4c-0.6,1-1.1,2.2-2.6,2.2c-0.2,0-0.5,0.3-0.5,0.5
		c-0.6,2.1-2.2,3.1-3.8,4.3c-0.1-0.1-0.3-0.2-0.4-0.3c0.2,0.1,0.3,0.2,0.5,0.3c-0.6,1.1-1.3,2.1-1.9,3.2l0,0
		c-0.1-0.2-0.2-0.3-0.3-0.5c-0.1,0.1-0.2,0.3-0.3,0.4l-0.1,0.1c-0.7-0.2-0.3,1.3-1.5,0.9c-0.9-0.3-0.7,1.5-1.3,2.1
		c-0.4,0.4-0.4,2.6-1.6,0.6c-0.2,0.2-0.5,0.3-0.5,0.5c-0.1,0.9-0.7,1-1.3,0.9c-0.2-0.1-0.3-0.2-0.5-0.3c0.2,0.1,0.3,0.2,0.5,0.3
		c0.2,1.5-1.2,1.6-2,1.9c-1,0.3-1.6,0.6-1.8,1.8c-0.2,1.1-1,1.7-2,2.1c-1.1,0.5-2,1.2-3,1.9l0,0c-0.8,1-1.6,2.1-2.4,3.1
		c-1.6-0.8-2.3,0.7-3.4,1.3c-0.2,0.1-0.4,0.5-0.5,0.7l0,0c-0.6,0.2-2.3-0.7-1.3,1.3c0.1,0.2-0.1,0.6-0.1,0.9l-3.8,1.9
		c-1.2-0.4-0.5,0.4-0.7,0.8c-0.5,0.9-1.4,2.1-2.3,2.2c-1.9,0.3-2.8,2-4.5,2.4l-0.1,0.1c-0.4,0.2-0.8,0.4-1.2,0.7
		c-0.5,0.4-0.9,0.8-1.3,1.2c-0.1-0.1-0.3-0.2-0.4-0.3c0.1,0.1,0.3,0.2,0.4,0.3c-1.4,1.2-1.4,1.2-2,3.5c-0.4,1.4-0.9,2.8-1.4,4.1
		c-0.1,0.3-0.3,0.6-0.3,0.9c-0.1,0.7-0.7,3.5-0.9,4.1c-0.2,0.5-0.5,1-0.5,1.5c0,1.6-0.4,3.1-1.4,4.4c-0.4,0.5-0.4,1.4-0.5,2.1
		c-0.1,0.7,0.1,1.4-0.7,1.9c-0.7,0.4,0.2,0.4,0.4,0.5c0.2,0.1,1.1,0.4,0.4,0.5c-2,0.4-1.7,2-1.9,3.1c-0.3,1.2-0.5,2.4-1.1,3.5
		c-0.4,0.8-0.6,1.8-0.9,2.6c-0.2,0.8-0.4,1.6-0.7,2.4c-0.3,0.7-1.2,1.9-1,2c1.1,1-1.3,1.1-0.4,1.9c-0.5,0.4-0.9,0.7-1.3,1.1
		c-0.5,0.5-0.4,0.9,0.2,1.2l0,0c0.4,1.8-1.4,3-1.4,4.7c-1.7,0.8-1.1,2.3-1.1,3.6c0,1.1,0,2.1-1.3,2.6c-0.2-0.1-0.3-0.2-0.5-0.3
		c0.2,0.1,0.3,0.2,0.5,0.3c-0.5,1.4-0.9,2.7-1.4,4.1c-0.3,0.9-1.2,1-2.1,1.2c-0.3,0.1-0.5,0.6-0.8,0.8c0.3,0.1,0.6,0.2,0.9,0.3
		c0.4,0.1,0.9,0.1,0.2,0.6c-0.5,0.4-1,1-1.4,1.6c-0.9,1.5-2.3,2-3.8,2.2c-1.9,0.2-3.2-1.3-4.3-2.7c-0.2-0.3-0.1-0.8-0.2-1.2
		c-0.1-1.1,0.4-0.9,1.1-0.5c0.1,0,0.3-0.2,0.5-0.4c-1.5-1.2-0.1-2.1,0.3-3.2c0.3-0.7,0.5-1.4,0.7-2l0,0c0.2,0,0.4,0,0.6,0
		c0.1,0.1,0.3,0.2,0.4,0.3c-0.1-0.1-0.3-0.2-0.4-0.3c0.1-0.9-0.5-1.9,0.6-2.5c0.2,0.1,0.3,0.2,0.5,0.3c-0.2-0.1-0.3-0.2-0.5-0.3
		c0.6-1.6,0.5-3.4,2.1-4.6c0.4-0.3,0.3-1.6,0.1-2.4c-0.4-1.2-0.1-2.1,0.6-3.2c1.3-2,2.4-4.1,3.2-6.3c1-2.8,2.8-5.3,3.1-8.4
		c0.1-1.1,1.2-2.1,1.8-3.1c0.2,0.1,0.3,0.2,0.5,0.3c-0.2-0.1-0.3-0.2-0.5-0.3c0-1.8,0.3-3.3,1.6-4.8c1-1.3,1.3-3.2,2-4.9
		c0.4-1,0.1-2.3,1.2-3.2c0.1-0.1-0.1-0.9-0.3-1.3c-0.1-0.1-0.7,0-1,0.1c-1.8,0.8-3.8,1.2-5.7,1.8c-1.5,0.5-3.3,0.4-5,0.5
		c-0.3,0-0.7-0.6-1-1l-0.1-0.1c-0.2-0.2-0.4-0.4-0.6-0.6c-0.2-0.1-0.3-0.2-0.5-0.3c0.2,0.1,0.3,0.2,0.5,0.3c0,0.2,0,0.4,0,0.6
		c-0.2,0-0.4,0-0.6,0c-0.5-0.1-1.6,0-0.7-0.9c1.6-1.6,1.9-4.3,4.6-4.9c0.1,0,0.2-0.5,0.2-0.6c-0.3-0.6-0.1-0.9,0.5-1.2
		c1.9-0.9,3.3-2.4,4.8-3.8c0.7-0.7,1.3-1.4,2.4-1.3c0.3,0,0.8-0.1,0.8-0.3c0.6-1.9,2.8-2.2,3.8-3.6c0.2-0.2,0.4-0.6,0.7-0.7
		c2.6-1,3.6-2.8,4-5.5c0.2-1.4,1.4-2.7,2.3-4c0.4-0.6,0.6-1,0.2-1.6c-0.2-0.3,0-0.8,0.2-1.2c1.1-2,1.4-2.6,1.3-4
		c-0.1-0.9,0.5-1,1-1.3c0.1,0.2,0.2,0.6,0.4,0.7c0.2,0.1,0.4,0.1,0.7,0.2c-0.1-0.2-0.1-0.6-0.3-0.7c-0.2-0.1-0.6-0.1-0.9-0.1
		c-0.1-0.2-0.2-0.4-0.2-0.6c0-0.1-0.2-0.2-0.2-0.3c1.7-2.2,0.7-5.5,3-7.5c0.2,0.1,0.3,0.2,0.5,0.3c-0.2-0.1-0.3-0.2-0.5-0.3
		c0.1-0.4,0.2-1,0.4-1.1c1.4-0.3,1.9-0.8,1.2-2.3c-0.5-1-0.7-2.1,0.4-3c0.2,0.1,0.3,0.2,0.5,0.3c-0.2-0.1-0.3-0.2-0.5-0.3
		c0.5-1.2,0.7-2.9,1.6-3.6c1.6-1.2,0.4-0.8-0.3-0.9c-0.1,0-0.3-0.5-0.2-0.6c1.7-1.3,1-4,3-5.2c0.1-0.1-0.1-0.5,0-0.7
		c0.3-0.8,0.7-1.5,1.1-2.3c0,0.1,0,0.2,0,0.3c0.1,0.3,0.2,0.5,0.3,0.8c0.1-0.1,0.2-0.2,0.2-0.2c-0.2-0.3-0.3-0.6-0.5-0.9
		c0.2-0.8,0.5-1.6,0.6-2.4c0.1-0.6,0-1.3-0.1-1.8c-0.1-0.4-0.5-0.9-1.2-0.4c-1.1,0.8-2.5,1.2-3.3,2.2c-1,1.2-2.2-0.7-2.8,0.3
		c-0.5,1-1.2,1.5-2.1,1.7c-1.3,0.4-2.7,0.6-4,1c-0.8,0.2-1.6,0.5-2.3,1c-1,0.6-1.5,2-3.1,1.2c-0.2-0.1-1.1,0.4-1.2,0.8
		c-0.4,1.4-1.7,1.4-2.7,1.8c-0.7,0.3-1.5,0.4-2.3,0.6c0.6,1.4-0.7,0.8-1.2,1.1c-0.7,0.5-1.5,0.8-2.1,1.4c-0.6,0.6-1.1,0.4-1.7,0
		c-0.2-0.1-0.5,0.1-0.8,0.1c0.1,0.3,0.1,0.6,0.2,0.8c0.4,0.7,0.4,0.6,0.2,0.8c-2,1-4.1,1.6-5.7,3.4c-0.5,0.6-1.7,0.7-2.5,1.1l0,0
		c-0.4-0.3-0.9-1-1.2-0.9c-0.7,0.1-0.7-0.5-0.6-0.5c1.4-0.4,0.5-1.7,1.2-2.4C832.6,493.4,833.2,492.8,833.8,492.1
		c0.1,0.1,0.3,0.2,0.5,0.3C834.1,492.3,834,492.2,833.8,492.1 M1081.6,480.3l-0.1,0.2l0.2,0L1081.6,480.3z M1090.6,482.9l-0.2-0.1
		l0,0.2L1090.6,482.9z M1069.5,483.7l0.1-0.2l-0.2,0L1069.5,483.7z M1086,485l0.1-0.2l-0.2,0L1086,485z M1068.7,485.5l0.2,0.1l0-0.2
		L1068.7,485.5z M1049.6,551l0.2,0.1l0-0.2L1049.6,551z M1061.9,548.9l-0.1,0.2l0.2,0L1061.9,548.9z M1078.4,542.6l-0.1,0.2l0.2,0
		L1078.4,542.6z M1051.1,540l-0.1,0.2l0.2,0L1051.1,540z M1062.5,486.3l0.1-0.2l-0.2,0L1062.5,486.3z M1062.5,539.7l0.1-0.2l-0.2,0
		L1062.5,539.7z M1047.7,534.4l0.2,0.1l0-0.2L1047.7,534.4z M1087.2,479.1l0.2,0.1l0-0.2L1087.2,479.1z M1074.6,479.2l0.1-0.2
		l-0.2,0L1074.6,479.2z M1092.9,531.3l0.2,0.1l0-0.2L1092.9,531.3z M1045.3,528.6l-0.1,0.2l0.2,0L1045.3,528.6z M1044.5,517.9
		l0.2,0.1l0-0.2L1044.5,517.9z M1072.7,517.4l0.1-0.2l-0.2,0L1072.7,517.4z M1063.7,516.8l0.1-0.2l-0.2,0L1063.7,516.8z
		 M1084.1,476.7l0.1-0.2l-0.2,0L1084.1,476.7z M1087.3,515.2l-0.1,0.2l0.2,0L1087.3,515.2z M1069.6,487.4l-0.2-0.1l0,0.2
		L1069.6,487.4z M1087.8,514.1l0.2,0.1l0-0.2L1087.8,514.1z M1088.6,513l0.1-0.2l-0.2,0L1088.6,513z M1091.7,512.3l0.1-0.2l-0.2,0
		L1091.7,512.3z M1101.3,508.2l-0.1,0.2l0.2,0L1101.3,508.2z M1099.2,507.7l0.2,0.1l0-0.2L1099.2,507.7z M1070.9,488.7l-0.2-0.1
		l0,0.2L1070.9,488.7z M1073.3,506.9l-0.1,0.2l0.2,0L1073.3,506.9z M1058.7,506.6l0.1-0.2l-0.2,0L1058.7,506.6z M1049.8,506l0.1-0.2
		l-0.2,0L1049.8,506z M1090.5,505l-0.1,0.2l0.2,0L1090.5,505z M1076.6,505.2c0-0.1-0.1-0.1-0.1-0.2c0,0.1,0,0.2,0,0.3
		C1076.5,505.3,1076.6,505.2,1076.6,505.2 M1088.6,488.5c-0.1,0-0.1,0.1-0.2,0.1c0.1,0,0.2,0,0.4,0
		C1088.7,488.6,1088.6,488.6,1088.6,488.5 M1060.5,503.3l0.2,0.1l0-0.2L1060.5,503.3z M1086.2,489.3c-0.1-0.1-0.1-0.1-0.2-0.2
		c-0.1,0.1-0.1,0.1-0.2,0.2c0.1,0.1,0.1,0.2,0.2,0.2C1086.1,489.4,1086.1,489.4,1086.2,489.3 M1083.3,478.5l0.2,0.1l0-0.2
		L1083.3,478.5z M1087.4,490.6c0.1-0.2,0.2-0.3,0.2-0.5c0-0.1-0.1-0.1-0.2-0.2c-0.1,0.1-0.3,0.2-0.3,0.3
		C1087.1,490.3,1087.3,490.5,1087.4,490.6 M1088,483.4c-0.1,0.2-0.3,0.4-0.3,0.5c0.2,0.2,0.4,0.4,0.6,0.5c0,0,0.3-0.3,0.3-0.3
		C1088.4,483.9,1088.2,483.6,1088,483.4 M1091.8,528.6c-0.1,0.2-0.3,0.3-0.3,0.4c0.1,0.2,0.3,0.4,0.5,0.6c0.1,0,0.3-0.1,0.4-0.2
		C1092.3,529.1,1092.1,528.9,1091.8,528.6 M1096.2,527.3c-0.2,0.2-0.5,0.4-0.6,0.6c0,0.1,0.1,0.3,0.1,0.4c0.2-0.1,0.5-0.3,0.7-0.5
		C1096.5,527.8,1096.3,527.5,1096.2,527.3 M1065.7,489.5c0-0.1,0-0.3-0.1-0.4c-0.3,0.1-0.6,0.1-0.8,0.2c-0.2,0.1-0.3,0.4-0.4,0.7
		c0.3,0,0.6,0,0.8-0.1C1065.4,489.9,1065.5,489.7,1065.7,489.5 M1090.1,486c-0.1-0.3-0.2-0.6-0.3-0.6c-0.3,0-0.5,0.1-0.8,0.2
		c0.1,0.2,0.2,0.6,0.4,0.7C1089.6,486.3,1089.9,486.1,1090.1,486 M1067.7,546.2c0.4-0.2,0.5-0.3,0.7-0.4c-0.2-0.4-0.5-0.8-0.7-1.2
		c-0.1,0.2-0.4,0.4-0.3,0.6C1067.4,545.5,1067.6,545.8,1067.7,546.2 M1073.3,543.7c0.6-0.6,1-1,1.4-1.4c-0.2-0.2-0.4-0.4-0.7-0.5
		c-0.8-0.1-1.4,0.1-1.4,1C1072.6,543.1,1073,543.3,1073.3,543.7 M1049.1,531.1c-0.9-0.3-1.5-0.7-2-0.7c-0.2,0-0.6,0.7-0.6,1.1
		c0,0.1,0.6,0.6,0.8,0.6C1047.8,532,1048.2,531.6,1049.1,531.1 M1061.8,493.4c0.3-0.1,0.7-0.3,1.2-0.5c0.1-0.1,0.2-0.5,0.2-0.5
		c-0.6-0.3-1.2-0.7-1.9-0.8c-0.3-0.1-0.7,0.3-1,0.6c-0.2,0.2-0.3,0.4-0.5,0.7c0.2,0,0.5,0.1,0.7,0.1
		C1060.8,493.1,1061.2,493.2,1061.8,493.4 M1046.9,544.9c0.1,0.1,0.3,0.2,0.4,0.3C1047.2,545.1,1047.1,545,1046.9,544.9
		c-0.2-0.1-0.3-0.2-0.5-0.3C1046.6,544.7,1046.8,544.8,1046.9,544.9 M1074.9,487.1c-0.7,1-1.4,2-2.1,3.1c-0.7,1.1-2.6,0.8-3,2.4
		c-0.3,1.2-0.9,2.3-1.3,3.4c-0.1,0.3-0.3,0.6-0.5,0.8c-0.6,0.6-1.7,1.1-1.9,1.9c-0.3,1.1-1.3,1.4-1.7,2c-0.8,1.3-2.6,2-2.5,4
		c0,0.8-0.7,1.8-1.2,2.5c-0.9,1.1-1.8,2.1-3.6,1.7c-1.5-0.4-1.9,0.6-1.2,2c0.2,0.4,0.4,0.7,0.6,1.1c0.6,1,0.6,0.9-0.5,1.5
		c-0.4,0.2-1,0.6-0.3,1.2c0.7,0.5,0.5,0.9,0,1.6c-1,1.5-2.7,2.8-1.4,5c-0.9,0.7-0.9,2-1.7,2.8l-0.1,0.1c-0.1,0.1-0.3,0.2-0.4,0.3
		c0.2,0.1,0.3,0.2,0.5,0.3l0,0c0,0.4,0,0.9,0,1.3l0,0c-0.2,0.3-0.6,0.6-0.6,0.9c0.2,2.3,0.2,2.3-0.4,4.4c-0.4,1.5-1.3,2.9-0.7,4.5
		c0.2,0.7,1.1,1.4,1,1.9c-0.3,0.9-0.2,1,0.7,1.1c0.8,0.1,1.7,0.2,2.4,0.6c1.4,0.9,2.3,0.2,3.3-0.6c1.1-0.9,2.5-1.4,3.5-2.4
		c0.8-0.8,2.1,1.1,2.5-0.6c0.3-1,1.9,0,2-1.3c0.9,0,1.9,0.1,2-1.3c0-0.2,1.2,1,1.3-0.1c0-1.2,0.8-0.7,1.2-0.7c0.6,0,0.9-0.3,1.1-0.9
		c0.1-0.3,0.5-0.7,0.6-0.6c1.3,0.8,1.7-0.5,2.6-0.9c0.6-0.3,0.6-1.6,1.8-1.1c0.3,0.2,1.2-1,1.9-1.5c1-0.8,2.6-1,2.3-2.8
		c0-0.1,0.6-0.3,0.7-0.3c1.3,1,1,0,1.5-0.8c1-1.5,1.9-3.1,2.8-4.7c0.2-0.4,1.8,0.6,0.9-0.9c-0.4-0.7-1.1-1-1.8-0.2
		c-0.8,0.8-1.7,0.4-2.7,0.3c-0.8,0-1.9-0.1-2.3,0.3c-1.6,1.9-3.9,1.4-5.9,1.9c-0.2,0.1-0.5-0.2-0.8-0.3c-0.5,2.3-2.7,1.6-4.1,2.2
		c-1.3,0.6-2.8,0.5-4.3,0.7c-1.6,0.2-3.2,0.1-4.7,0.4c-1.5,0.3-2.3-0.2-3-1.4c-0.1-0.1,0.3-0.6,0.5-0.9c0.2,0.1,0.3,0.2,0.5,0.3
		c-0.2-0.1-0.3-0.2-0.5-0.3c0.1-0.3,0.4-0.6,0.3-0.8c-0.6-1.2,0.2-1.7,1-2.3c0.2-0.2,0.4-0.5,0.5-0.7l0,0c0.2-1.1,1.8-1.5,1.4-2.9
		c1,0.2,0.4-2.5,2.1-1.1c0.1,0.1,1.8,0.4,1.6-1.3c-0.2-1.1,1.2-2.4,1.8-2.1c1.8,0.7,2.1-1.2,3.2-1.4c0.2,0.2,0.3,0.4,0.6,0.6
		c0.1,0,0.3-0.2,0.5-0.2c-0.1-0.1-0.3-0.3-0.5-0.3c-0.2-0.1-0.4,0-0.6,0c0.7-0.8,2-0.9,2.4-2.1c0-0.1,0.1-0.2,0.2-0.2
		c0.5,0,1.1,0,1.6,0c-0.6-1,0.2-0.9,0.8-1c0.6-0.1,1.2-0.4,1.7-0.6c0.1,0,0.2,0,0.3,0c2,0.6,3.8-0.2,5.6-0.7
		c0.1,0.1,0.3,0.2,0.4,0.3c-0.2-0.1-0.3-0.2-0.5-0.3c0.3-1,1-0.2,1.4-0.3c1.4-0.4,2.9,0,4.4-0.3c1.5-0.3,3.2-0.9,4.7,0.4
		c0.2,0.2,0.7,0.3,0.9,0.1c1.8-1.6,2.3,1.3,3.7,0.9c0.1,1.5,1.2,0.9,1.9,1.2c1,0.4,1.9,1.4,2.7,2.3c0.5,0.6,0.6,1.5,1.2,2.1
		c0.5,0.6-1,1.7,0.5,1.9c-1,0.8-0.1,1.9-0.5,2.8c-0.5,1.1-0.1,2.5-1.1,3.5c0.6,1.5-1,1.9-1.4,2.9c-0.4,1.4-1.2,2.6-1.8,3.9
		c-0.1,0.2,0,0.5-0.1,0.6c-0.5,0.7-1.6,1.5-1.5,1.9c0.4,1.2-0.3,1.9-0.8,2.5c-0.5,0.7-0.8,2.3-2.4,1.5c-0.6,0.7-1.2,1.3-1.7,2
		c-0.4,0.5-0.5,1.4-0.9,1.5c-1.7,0.6-2.4,2.4-4.2,2.8c-0.5,0.1-1,0.5-1.2,0.9c-0.6,1.4-2,1.7-3.2,2.2c-0.1-0.1-0.3-0.2-0.4-0.3
		c0.1,0.1,0.3,0.2,0.4,0.3c-0.6,1.7-0.6,1.7-2.1,2.1c-0.6,0.2-1.1,0.7-1.7,1l0,0c-0.4,0.3-0.9,0.5-1.3,0.8c-0.6,0.5-1,0.6-1.2-0.2
		c0.2-0.2,0.4-0.3,0.6-0.6c0.1-0.1-0.1-0.3-0.2-0.5c-0.1,0.2-0.2,0.3-0.3,0.5c-0.1,0.2,0,0.4,0,0.6c-0.9,0.4-1.7,0.9-2.2,1.8
		c-0.3,0.7-0.8,0.7-1.2-0.2c-0.2-0.6-0.8-1.6-1.7-0.4l-0.1,0.1c-0.1,0.1-0.3,0.2-0.4,0.3c0.1,0.1,0.3,0.2,0.4,0.3l0.1,0.1
		c-0.1,0.9,1.2,2.1-0.7,2.5l0,0c-0.1-0.2-0.2-0.3-0.3-0.5c-0.1,0.2-0.2,0.3-0.3,0.5l0,0c-2,0.8-4,1.8-6.3,2c-0.5,0-1,0.8-1.5,1
		c-0.5,0.2-1.1-0.1-1.6,0.1c-0.3,0.1-0.5,0.5-0.7,0.8l0,0c-0.1-0.1-0.1-0.3-0.2-0.4c-0.1,0.1-0.3,0.3-0.4,0.4l0,0
		c-3.2,0.5-6.3,0.2-9.4-0.8c-0.5-0.2-1-0.3-1.4-0.4l0,0c-0.1-0.2-0.2-0.3-0.3-0.5c-0.1,0.2-0.2,0.3-0.3,0.5l0,0
		c-0.8-0.1-1.7,0.3-2-1c-0.1-0.5-0.9-1-1.5-1.4c-0.8-0.5-1.7-0.8-2.4-1.3c-0.5-0.4-1.2-0.8-0.6-1.8c0.7-1.2-1.3,0.1-1.1-1
		c0.1-0.7-0.1-1.4-0.3-2.1c0-0.1-0.4-0.2-0.5-0.3c-1-0.6-1-0.7,0.1-1.3c0.7-0.4,0.4-0.4-0.1-0.6c-1.4-0.5-1.6-1.3-1.4-2.8
		c0.2-1.4,0.5-3.1-0.1-4.5c1.1-1.4-0.1-2.9,0.3-4.4c0.3-1.3,0.7-4.5,1-5.5c0.4-1.3,0.6-2.6,1-3.9c0.2-0.8,0.7-1.5,1.1-2.2
		c-1.3-0.4-0.4-1.2-0.5-1.9c-0.1-1.7,0.8-2.8,1.8-3.8c0.6-0.6,1.2-1.3,1.9-1.9c-0.8-1-0.1-1.3,0.6-1.9c0.3-0.2-0.2-1.2,0.1-1.6
		c0.3-0.5,1.2-0.6,1.5-1.1c0.6-1.2,1.4-2.3,2.2-3.4c1.3-1.8,2.3-3.7,3.5-5.5c0.1-0.2,0.1-0.5,0.3-0.5c0.6-0.3,1.3-0.5,1.9-0.8
		c-1.5-0.6-0.2-1,0.1-1.5c0.4-0.7,1.1-1.3,1.3-2.1c0.3-0.9,0.8-1.6,1.5-2.2c2-1.8,3-4.4,5.2-5.9c1.2-0.9,2.3-1.9,3.2-3
		c0.2,0.2,0.4,0.4,0.6,0.6c0,0.1,0,0.2,0,0.3c0.1,0.3,0.2,0.5,0.3,0.8c0.1-0.1,0.2-0.2,0.2-0.2c-0.2-0.3-0.3-0.6-0.5-0.9
		c-0.2-0.2-0.4-0.4-0.6-0.6c0.1-0.4,0.2-0.7,0.4-1.1c0.2,0.1,0.4,0.3,0.6,0.2c1-0.4,1.3-1.8,2.4-1.9c1.2-0.2,1.6-0.9,2.3-1.7
		c0.8-1.1,1.8-1.9,3.3-2.2c1.6-0.2,2.6-1.9,4.3-1.8c2.4,0.1,4.9-1.2,7.3,0.2c0.2,0.1,0.5,0,0.6,0.1c0.3,0.2,0.9,0.5,0.9,0.8
		c0.1,2,3.2,1.9,2.8,4.2l0,0c-0.2,0.1-0.3,0.2-0.5,0.3c0.2,0.1,0.3,0.2,0.5,0.3l0,0c0.3,0.6,0.6,1.2,0.9,1.8
		c-1.2,0.2-0.3,0.9-0.3,1.3c0,2.9-0.3,5.8-1.4,8.5c-0.2,0.5-0.6,1.2-1.4,0.7c-0.4,1.3-1.9,0.9-2.7,1.7c-0.5,0.5-0.9,0.5-0.9-0.4
		c0-1.4,0.1-2.8,0-4.1c-0.1-1.7-0.3-3.4-0.6-5.1c-0.3-1.6-0.9-1.8-2.6-1.3c-1.6,0.5-1.7,0.8-3.3,2.9
		C1077.6,485.4,1076.1,486.1,1074.9,487.1c-0.5-0.2-1-0.3-1.5-0.5c-0.1,0-0.1,0.1-0.2,0.2c0.5,0.1,0.9,0.2,1.4,0.3
		C1074.7,487.1,1074.8,487.1,1074.9,487.1 M996.5,481l-0.2-0.1l0,0.2L996.5,481z M1002.7,480.5l0.1-0.2l-0.2,0L1002.7,480.5z
		 M983.1,480.4c-0.1-0.1-0.1-0.2-0.2-0.2c-0.1,0-0.1,0.1-0.2,0.1c0.1,0.1,0.1,0.2,0.2,0.2C983,480.5,983.1,480.4,983.1,480.4
		 M983.8,481.7l-0.2-0.1l0,0.2L983.8,481.7z M994.3,482.3l0.2,0.1l0-0.2L994.3,482.3z M1000,479.7l0.2,0.1l0-0.2L1000,479.7z
		 M987.6,485.5l-0.2-0.1l0,0.2L987.6,485.5z M969.6,546.7l0.1-0.2l-0.2,0L969.6,546.7z M1009.9,542.1l-0.2-0.1l0,0.2L1009.9,542.1z
		 M1010.3,540l-0.1,0.2l0.2,0L1010.3,540z M1029.9,538.9l0.2,0.1l0-0.2L1029.9,538.9z M1031.9,537.1l0.1-0.2l-0.2,0L1031.9,537.1z
		 M1009.1,536.2l-0.1,0.2l0.2,0L1009.1,536.2z M1025.6,535l-0.1,0.2l0.2,0L1025.6,535z M1020.5,534.9l-0.1,0.2l0.2,0L1020.5,534.9z
		 M976,534.6l0.1-0.2l-0.2,0L976,534.6z M1014.1,534l0.1-0.2l-0.2,0L1014.1,534z M1004.8,531.9l-0.2-0.1l0,0.2L1004.8,531.9z
		 M973.6,531.9l-0.2-0.1l0,0.2L973.6,531.9z M1000.1,530.8l0.1-0.2l-0.2,0L1000.1,530.8z M1005.3,529.8c-0.1,0-0.1,0.1-0.2,0.1
		c0.1,0,0.2,0,0.4,0C1005.4,529.9,1005.3,529.9,1005.3,529.8 M982.5,527.5c0-0.1-0.1-0.1-0.1-0.2c-0.1,0.1-0.2,0.1-0.2,0.2
		c0,0.1,0.1,0.1,0.1,0.2C982.4,527.6,982.4,527.6,982.5,527.5 M984.2,526.3l0.1-0.2l-0.2,0L984.2,526.3z M994.9,525.5l0.2,0.1l0-0.2
		L994.9,525.5z M1007.8,480.2l-0.1,0.2l0.2,0L1007.8,480.2z M971.5,487.5l0.1-0.2l-0.2,0L971.5,487.5z M975.8,524.3l0.2,0.1l0-0.2
		L975.8,524.3z M1014,479.1l0.2,0.1l0-0.2L1014,479.1z M976.6,522.5l0.1-0.2l-0.2,0L976.6,522.5z M979.8,520.3l-0.1,0.2l0.2,0
		L979.8,520.3z M984.4,518.6l-0.2-0.1l0,0.2L984.4,518.6z M990.5,517.9l0.2,0.1l0-0.2L990.5,517.9z M1022.5,476.4l-0.1,0.2l0.2,0
		L1022.5,476.4z M983.5,517.3l0.2,0.1l0-0.2L983.5,517.3z M1009.2,479.1l-0.2-0.1l0,0.2L1009.2,479.1z M980.9,510.3l0.2,0.1l0-0.2
		L980.9,510.3z M991.2,478c0.1-0.1,0.2-0.1,0.2-0.2c0-0.1-0.1-0.1-0.2-0.2c-0.1,0.1-0.2,0.1-0.2,0.2
		C991.1,477.9,991.2,478,991.2,478 M972.3,488.7l-0.2-0.1l0,0.2L972.3,488.7z M1001.4,477.7l-0.1,0.2l0.2,0L1001.4,477.7z
		 M981.7,507.3l0.1-0.2l-0.2,0L981.7,507.3z M1007,477.8l0.2,0.1l0-0.2L1007,477.8z M997,505.1l-0.1,0.2l0.2,0L997,505.1z
		 M981.8,503.3l-0.2-0.1l0,0.2L981.8,503.3z M999.7,502.7l-0.2-0.1l0,0.2L999.7,502.7z M1011,498.1l-0.1,0.2l0.2,0L1011,498.1z
		 M985,498.2c-0.1-0.1-0.1-0.2-0.2-0.2c-0.1,0-0.1,0.1-0.2,0.1c0.1,0.1,0.1,0.1,0.2,0.2C984.9,498.3,985,498.3,985,498.2 M985,489.9
		l-0.2-0.1l0,0.2L985,489.9z M986.2,489.8l-0.1,0.2l0.2,0L986.2,489.8z M1011,496.8l-0.1,0.2l0.2,0L1011,496.8z M1007.8,496.8
		l-0.1,0.2l0.2,0L1007.8,496.8z M1004.8,496.3l-0.2-0.1l0,0.2L1004.8,496.3z M973.4,491c-0.1,0.1-0.1,0.1-0.2,0.2c0.1,0,0.2,0,0.4,0
		C973.6,491.1,973.5,491.1,973.4,491 M984.2,492.6l0.1-0.2l-0.2,0L984.2,492.6z M1012.4,491.6c-0.1-0.2-0.1-0.3-0.2-0.5
		c-0.1,0-0.2,0.1-0.2,0.1c0,0.2,0,0.4,0,0.5C1012.2,491.7,1012.3,491.7,1012.4,491.6 M987,502c-0.4-0.1-0.5-0.1-0.7-0.2
		c0,0.1,0,0.3,0,0.4c0,0,0.2,0.1,0.3,0C986.7,502.2,986.8,502.1,987,502 M1000.1,507.7c-0.1,0.2-0.1,0.4-0.2,0.5
		c0,0.1,0.1,0.1,0.2,0.2c0.1-0.1,0.2-0.3,0.2-0.4C1000.4,507.9,1000.2,507.8,1000.1,507.7 M1019.6,477c-0.1,0.1-0.3,0.2-0.4,0.2
		c0.1,0.1,0.2,0.2,0.2,0.2c0.2,0,0.4-0.1,0.6-0.1C1019.8,477.2,1019.7,477.1,1019.6,477 M994,515c0.2-0.1,0.3-0.1,0.5-0.2
		c0-0.1-0.1-0.2-0.1-0.2c-0.2,0-0.4,0-0.5,0C993.9,514.7,993.9,514.8,994,515 M978.9,521.5c-0.1,0.1-0.3,0.2-0.4,0.3
		c0.1,0.1,0.2,0.2,0.2,0.2c0.2,0,0.4-0.1,0.5-0.2C979.1,521.7,979,521.6,978.9,521.5 M1014.4,476.3c-0.1-0.1-0.2-0.3-0.2-0.4
		c-0.1,0.1-0.2,0.2-0.2,0.2c0,0.2,0.1,0.4,0.2,0.5C1014.2,476.5,1014.3,476.4,1014.4,476.3 M1022.4,535.6c-0.1,0.2-0.2,0.4-0.2,0.6
		c0,0.1,0.1,0.2,0.2,0.2c0.1-0.1,0.3-0.3,0.3-0.4C1022.7,535.9,1022.5,535.8,1022.4,535.6 M1020.1,542.5c-0.1-0.2-0.1-0.4-0.2-0.5
		c-0.1,0.1-0.2,0.1-0.2,0.2c0,0.2,0,0.4,0.1,0.6C1019.9,542.7,1020,542.6,1020.1,542.5 M1001.4,529.7c0.2-0.1,0.5-0.2,0.8-0.3
		c-0.3-0.1-0.5-0.3-0.8-0.3c-0.2,0-0.4,0.2-0.6,0.3C1001,529.5,1001.1,529.6,1001.4,529.7 M1008.6,539.2c-0.6,0-0.9,0.1-1.3,0.1
		c0,0,0,0.3,0,0.3c0.3,0,0.6,0.1,0.9,0.1C1008.3,539.8,1008.4,539.6,1008.6,539.2 M984.7,515.9c0,0.5,0,0.9,0,1.3c0,0,0.3,0,0.3,0
		c0-0.3,0.1-0.6,0.1-0.9C985.1,516.2,984.9,516.1,984.7,515.9 M1022.5,481.4c-0.2,0.3-0.4,0.5-0.3,0.6c0.1,0.4,0.2,0.7,0.3,1.1
		c0,0.1,0.4,0,0.5,0C1022.9,482.5,1022.7,482,1022.5,481.4 M975.1,486.9c-0.4-0.2-0.7-0.4-0.9-0.3c-0.3,0.2-0.6,0.6-0.9,0.8
		c0.4,0.1,0.8,0.2,1.2,0.2C974.7,487.6,974.9,487.2,975.1,486.9 M1015.1,485.8c-0.2-0.1-0.3-0.2-0.5-0.3
		C1014.8,485.6,1014.9,485.7,1015.1,485.8c0.2,0.2,0.4,0.5,0.6,0.6c0.3,0.2,0.7,0.3,1,0.4c0,0,0.1-0.2,0.1-0.2
		c-0.4-0.2-0.8-0.5-1.2-0.6C1015.5,485.8,1015.3,485.8,1015.1,485.8 M1013.2,489c0.2,0.2,0.4,0.4,0.6,0.5c0.1,0.1,0.3-0.1,0.5-0.2
		c-0.2-0.1-0.3-0.2-0.5-0.3C1013.6,489,1013.4,489,1013.2,489c-0.1-0.4-0.2-0.7-0.4-1.1c-0.2,0.1-0.4,0.2-0.5,0.4
		C1012,489.3,1012.9,488.7,1013.2,489 M998.6,481.3c0.2,0.1,0.3,0.2,0.5,0.3C998.9,481.5,998.7,481.4,998.6,481.3
		c-0.2-0.2-0.4-0.4-0.6-0.5c-0.1-0.1-0.3,0.1-0.5,0.2c0.2,0.1,0.3,0.2,0.5,0.3C998.2,481.3,998.4,481.3,998.6,481.3 M982.7,522.7
		c-0.8,0.4-0.7,0.8,0,1.3c0.1,0.2,0.2,0.4,0.3,0.5c0.2,0,0.5-0.1,0.7-0.1c-0.2-0.1-0.3-0.2-0.5-0.3c-0.2-0.1-0.4,0-0.6-0.1
		C982.7,523.5,982.7,523.1,982.7,522.7c0.1-0.2,0.2-0.3,0.3-0.5C982.9,522.4,982.8,522.5,982.7,522.7 M989,489.6
		c-0.2,0.2-0.4,0.4-0.5,0.6c0,0.1,0.1,0.3,0.2,0.5c0.1-0.2,0.2-0.3,0.3-0.5C989,490,989,489.8,989,489.6c0.2,0,0.4,0,0.6,0
		c-0.2,2.5-0.4,4.9-0.7,7.4c0,0.3-0.4,0.6-0.6,0.9c-0.1-0.2-0.2-0.5-0.3-0.5c-0.3,0-0.6,0.1-0.8,0.2c-0.1,0,0,0.4,0.1,0.6
		c0.3-0.1,0.5-0.2,0.8-0.3c0.1,0,0.2,0,0.3,0c0.1,1.5,0.6,3-0.3,4.4c-0.2,0.2-0.3,0.7-0.2,0.9c1,2.2-0.1,3.8-1.4,5.3
		c-0.5,0.5-0.5,1-0.2,1.7c0.4,0.9-0.6,2.6-1.4,3.1c-0.4,0.2-1,0.2-0.2,0.5c0.4,0.2,0.8,2.2,1.6,0.1c0.5-1.3,1.5-2.5,2.1-3.8
		c0.8-1.7,0.7-1.7,2.7-1.4c0.5,0.1,1.2,0.2,0.7-0.8c-0.1-0.2,0.1-0.7,0.3-1c0.6-0.8,1.4-1.5,2-2.3c0.7-0.9,1.3-1.9,2.5-2.1
		c1.4-0.3,0.6-1.7,1.4-2.3c0.6-0.5,1.2-1.1,1.7-1.7c0.5-0.5,1.5-0.5,1.4-1.5c-0.1-1.3,1.5,0,1.7-1.1c0.2-0.8,0.7-1.5,1.1-2.2
		c0.2-0.2,0.7-0.2,1-0.4c1.3-1,2.9-1.9,3.8-3.2c1-1.4,1.9-2.8,3.3-3.5c1.2-0.5,0.8-2.9,2.8-2.2c0,0,0.2-0.4,0.2-0.5
		c-0.2-0.7-0.3-1.5-0.8-2c-0.3-0.3-1.2-0.1-1.8,0c-0.7,0-1.4,0.1-2.1,0.2c-1.5,0.1-3,0.1-4.6,0.1c-0.4,0-0.8,0.1-1.2,0.2
		c-1.6,0.4-3.3,1.3-4.8,1c-2-0.4-2.9,1.1-4.4,1.4c-0.8,0.2-1.6,0.3-2.4,0.3c-2,0.1-2.1,0.2-2.1,2.1c0,1.1-0.2,2-1.2,2.7
		c-0.2-0.2-0.4-0.4-0.6-0.6c0-0.2,0-0.4,0-0.6c-0.1-0.3-0.2-0.7-0.4-1c-0.2,0.1-0.5,0.3-0.5,0.4c0,0.3,0.2,0.7,0.3,1
		c0.1,0.1,0.3,0.2,0.5,0.3V489.6z M983.9,485.8c-0.2-0.1-0.3-0.2-0.5-0.3C983.6,485.6,983.8,485.7,983.9,485.8
		c0.1,0.1,0.3,0.2,0.5,0.3C984.2,486,984.1,485.9,983.9,485.8 M968,550.7c0.2,0.1,0.3,0.2,0.5,0.3
		C968.4,550.9,968.2,550.8,968,550.7c-0.1-0.1-0.3-0.2-0.5-0.3C967.7,550.5,967.9,550.6,968,550.7 M975.7,483.9
		c-0.2-0.1-0.3-0.2-0.5-0.3C975.4,483.7,975.5,483.8,975.7,483.9c0.1,0.1,0.3,0.2,0.4,0.3C976,484.1,975.8,484,975.7,483.9
		 M978.2,512.5c-0.1-2.3,0.5-4.4,1.2-6.5c0.7-1.8,1.1-3.7,1.6-5.6c0.7-3,1.7-5.9,2.5-8.9c0.2-0.6,0.2-1.2,0.3-1.8
		c0.1-0.7,0.5-1.5,0.2-2c-0.4-0.9-1.1-0.5-1.9-0.2c-0.2,0.1-0.6-0.5-0.9-0.8c-0.5-0.5-0.5-0.5-1.2,0.3l-0.1,0.1
		c-0.5,0.6-1,1.3-1.7,1.7c-0.3,0.2-0.8,0-0.5-0.6c0.1-0.2,0-0.6,0.1-0.9c-0.2,0.1-0.5,0.2-0.7,0.3c-0.1,0-0.1,0.2-0.2,0.2
		c-1,0.9-1,0.9-2.9,0.9c-0.3,0-0.7,0-1,0c0.1,0.4,0,0.9,0.2,1.2c0.5,0.7,1.2,1.4,1.8,2c0.6,0.6,0.3,1.1,0,1.7
		c-0.3,0.6-0.6,1.3-1.3,1c-1.5-0.6-3.7,0-4.1-2.6c-0.1-0.5-0.8-1-1-1.5c-0.3-0.6-0.1-1.1,0.7-0.6c0.1-0.2,0.4-0.6,0.3-0.6
		c-0.3-0.4-0.8-0.7-1.1-1l0,0c0.2-0.4,0.4-0.8,0.6-1.3l0,0c1.2-2.7,3.7-3.9,5.9-5.4c1.1-0.7,1,0.6,1.5,1c0.2,0.1,0.3,0.3,0.5,0.4
		c0.1-0.2,0.3-0.4,0.3-0.6c0-0.9,0.2-1.6,1.3-1.7c0.5-0.1,1-0.7,1.5-1c0.3-0.2,0.7-0.5,1-0.4c2.1,0.4,3.9-0.4,5.7-1.2
		c0.4-0.2,0.9,0.1,1.4,0.2c0.2,0.2,0.4,0.5,0.6,0.7c0.2,0.1,0.3,0.2,0.5,0.3c-0.1-0.1-0.3-0.2-0.5-0.3c-0.2-0.2-0.4-0.4-0.7-0.6
		c0.2-0.4,0.4-1.1,0.7-1.2c1.6-0.3,3.2-0.5,4.8-0.6c0.4,0,0.9,0.9,1.3,0.8c0.5-0.1,0.8-0.8,1.4-1.1c0.4-0.2,0.9-0.1,1.4-0.2
		c0.8-0.2,2-0.1,2.2-0.6c0.5-0.9,1.2-0.5,1.7-0.7c0.6-0.2,1.2-0.2,1.8-0.3c0.2,0.1,0.3,0.2,0.5,0.3c-0.2-0.1-0.3-0.2-0.5-0.3
		c0.2-0.2,0.5-0.6,0.6-0.6c1.1,0.7,2.2-0.5,3.3-0.1c0.8-1.2,2,0.2,3.1-0.6c0.7-0.5,2.3,0,3.5,0.2c1.1,0.1,2.3,0.3,3.4,0.6
		c0.6,0.2,2-0.8,1.8,1c0,0,0.4,0.1,0.6,0.1c3.6-0.4,5.2,2.5,4.5,5.7c-1.8,0.8,0.7,0.6,0.3,1.3c-0.6,0.9-0.6,2.5-1.4,3
		c-1.1,0.7-1.1,1.4-1,2.4c0,1.1-0.2,2.2-1.5,2.5c-1.3,0.2-0.4,1.8-1.6,2.2c-0.8,0.2-1.3,1.3-1.9,1.9c-2.4,2.5-5,4.8-7.2,7.4
		c-0.9,1.1-1.4,2.4-3.1,2.6c-0.8,0.1,0,0.7-0.1,0.8c-1.1,1.6-1.6,3.6-3.7,4.2c-0.2-0.1-0.3-0.2-0.5-0.3c0.2,0.1,0.3,0.2,0.5,0.3
		c-0.5,1.6-1.1,3-2.6,4c-0.2,0.1-0.3,0.3-0.4,0.4c-0.5,0.7-1.1,1.3-1.4,2c-0.6,1.4-0.8-1.3-1.3-0.1c-0.3,0.7-0.7,1.5-1.1,2.2
		c-0.4,0.6-1.1,1-1.3,1.6c-0.4,1.2,1.2-0.1,1,0.7c-0.2,0.7-0.8,1.3-1.2,2c-0.1-0.1-0.3-0.2-0.4-0.3c0.2,0.1,0.3,0.2,0.5,0.3
		c-0.1,0.6-0.6,1.4-0.3,1.7c0.6,1,1.4,2.3,2.4,2.6c1,0.3,0.6,1.4,0.9,1.3c1.1-0.2,1.8,2,2.9,0.3c0,0,0.4,0.1,0.5,0.2
		c0.7,0.6,1.8-0.2,2.5,0.8c0.3,0.5,1.6,0.3,2.3,0.7c0.8,0.4,1.4,1.2,2.2,1.4c0.8,0.2,1.7-0.1,2.6-0.1c0.4,0,0.7,0.4,1.1,0.6l0,0
		c0.8,0.4,1.7,0.8,2.5,1.3c0.2,0.1,0.3,0.2,0.5,0.3c-0.2-0.1-0.3-0.2-0.5-0.3c0-0.6,0-1.4,0.9-1.1c0.7,0.2,1.3,0.7,1.9,0.9
		c0.2,0.1,0.6-0.3,0.9-0.4h0c1.8,0.4,3.5,0.7,5.3,1.1c0.9,0.2,1.9,0.7,2.7,0.6c1.5-0.3,1.5,0.6,1.5,1.5c-0.1,0.2-0.2,0.3-0.3,0.5
		c0.1-0.2,0.2-0.3,0.3-0.5c1.3-0.3,1.3-0.3,3.6,1.1c1,0.6,2.2,1.1,3.3,1.6c1.2,0.6,2,1.2,1,2.6c0.6,0.8,0,1-0.6,1.2
		c-0.2,0.1-0.4,0.2-0.5,0.3c-1.5,0.8-3.5-0.3-4.8,1.3c-1.9-0.1-3.8-0.2-5.7-0.2c-0.6,0-1.2,0.7-1.7,0.6c-1.1-0.2-2,0.4-2.9,0.6
		c-0.9,0.2-1.2-1.3-2.4-0.7c-0.5,0.3-1.6-0.5-2.1-0.1c-1.1,0.8-1.8,0.3-2.4-0.5c-0.7-1-1.3-0.6-2,0c-0.3,0.3-1.2,0.4-1.4,0.2
		c-1.7-1.4-3.8-1.1-5.7-1.8c-0.8-0.3-1.6-0.8-2.4-1.3c0.1-0.2,0.2-0.3,0.3-0.5c-0.1,0.2-0.2,0.3-0.3,0.5c-1.5-0.1-3-0.2-4.5-0.3
		c-0.2,0-0.4,0-0.5-0.1c-0.2-0.4-0.4-0.8-0.6-1.1c-0.2,0.4-0.3,0.9-1.1,0.5c-2.1-1.2-4.3-2.1-6.2-3.5c-1.3-0.9-2.3-2.4-3.3-3.7
		c-0.4-0.5-0.5-1,0.2-1.2c0.8-0.3,0.9-1.1,0.5-1.5c-0.5-0.6-1.3-1-2-1.5c0,0-0.2,0.3-0.3,0.4c-0.8,1.1-1.6,2.2-2.3,3.4
		c-0.2,0.3-0.3,0.9-0.2,1.2c0.5,0.8,0.2,1.4-0.5,1.8c-0.7,0.5-0.5,1.1-0.6,1.8c0,0.3-1.6,0.1-0.2,0.7c1,0.5,1.1,1,0.3,1.9
		c-0.5,0.5-0.7,1.3-1,1.9l-0.1,0.1c-0.1,0.1-0.3,0.2-0.4,0.3c0.2,0.1,0.3,0.2,0.5,0.3l0,0c0,0.2,0,0.4,0,0.6l0,0
		c-0.2,0.1-0.3,0.2-0.5,0.3c0.2,0.1,0.3,0.2,0.5,0.3l0,0c0.1,0.7-1.7,0.7-0.7,1.9c0.4,0.5-0.3,0.3-0.7,0.4c-1.9,0.4-3.5,2.7-3.3,4.7
		c0,0,0.2,0.1,0.3,0.1l0,0c0,0.2,0,0.4,0.1,0.6c0.3,0.6,1,1.4,0.8,1.8c-0.3,0.6-1.1,1.1-1.8,1.5c-0.7,0.5-1.5,1.1-2.5,0.8l-2.6-0.7
		c-0.9-0.5-1.7-2.4-1.4-3.7c0.2-0.9,0.5-1.9,0.8-2.8c0.2-0.8,0.5-1.7,0.6-2.5c0.3-2,0.7-3.9,1.8-5.5c0.7-0.9-0.3-2.2,1-2.8
		c0.1,0.1,0.3,0.2,0.4,0.3c-0.2-0.1-0.3-0.2-0.5-0.3c0.2-0.8,0.6-1.6,0.6-2.4c-0.2-2.4,0.4-4.5,2.1-6.3c0.3-0.4,0.4-0.6-0.2-0.9
		c-0.9-0.4-0.8-1.4-0.1-1.7c1.2-0.5,0.5-1.8,1.3-2.3c-0.3-2.9,1-5.4,2.3-7.8C977.5,513.9,977.9,513.2,978.2,512.5
		c0.1,0.1,0.3,0.2,0.4,0.3C978.5,512.7,978.4,512.6,978.2,512.5 M903,619.7c-0.1-0.1-0.1-0.1-0.2-0.2c0,0.1,0,0.2,0,0.4
		C902.9,619.8,903,619.8,903,619.7 M901.1,619.1l-0.2-0.1l0,0.2L901.1,619.1z M906.6,618.6l0.1-0.2l-0.2,0L906.6,618.6z
		 M906.7,615.7l-0.1,0.2l0.2,0L906.7,615.7z M921.3,614.4c-0.1,0.1-0.1,0.1-0.2,0.2c0.1,0,0.2,0,0.4,0
		C921.4,614.6,921.4,614.5,921.3,614.4 M921.3,613.2l-0.1,0.2l0.2,0L921.3,613.2z M931.7,612c-0.2,0-0.3,0-0.4,0
		c0,0.1,0.1,0.1,0.1,0.2C931.5,612.2,931.6,612.1,931.7,612 M951.3,607l-0.2-0.1l0,0.2L951.3,607z M933.2,606.9l0.2,0.1l0-0.2
		L933.2,606.9z M948.8,606.4l-0.2-0.1l0,0.2L948.8,606.4z M949.9,605.6l-0.1,0.2l0.2,0L949.9,605.6z M939.7,605.5l-0.1,0.2l0.2,0
		L939.7,605.5z M949.4,604.4l-0.2-0.1l0,0.2L949.4,604.4z M968.4,602.7l0.1-0.2l-0.2,0L968.4,602.7z M962.6,602.4l-0.1,0.2l0.2,0
		L962.6,602.4z M964.5,601.4c0.1-0.1,0.2-0.1,0.2-0.2c0-0.1-0.1-0.1-0.1-0.2c-0.1,0.1-0.2,0.1-0.2,0.2
		C964.3,601.3,964.4,601.4,964.5,601.4 M976.1,597.4l-0.2-0.1l0,0.2L976.1,597.4z M976.8,596.2l-0.2-0.1l0,0.2L976.8,596.2z
		 M993.1,595.7l0.1-0.2l-0.2,0L993.1,595.7z M991.7,595.5l0.2,0.1l0-0.2L991.7,595.5z M1002.6,594.2l0.2,0.1l0-0.2L1002.6,594.2z
		 M1006.5,593.8l0.1-0.2l-0.2,0L1006.5,593.8z M991.1,593l0.2,0.1l0-0.2L991.1,593z M991.9,591.8l0.1-0.2l-0.2,0L991.9,591.8z
		 M1022.4,590.9c-0.1,0-0.1,0.1-0.2,0.1c0.1,0,0.2,0,0.3,0C1022.5,591,1022.5,591,1022.4,590.9 M1005.3,589.6l-0.1,0.2l0.2,0
		L1005.3,589.6z M1032.6,588.4c-0.1,0.1-0.1,0.1-0.2,0.2c0.1,0,0.2,0,0.4,0C1032.7,588.5,1032.7,588.4,1032.6,588.4 M1023.7,587.7
		l-0.1,0.2l0.2,0L1023.7,587.7z M1025.7,587.3l-0.2-0.1l0,0.2L1025.7,587.3z M1052.3,584.6l-0.1,0.2l0.2,0L1052.3,584.6z
		 M1050.4,584.2l0.1-0.2l-0.2,0L1050.4,584.2z M1021.2,583.9l-0.1,0.2l0.2,0L1021.2,583.9z M1065.5,582.2l0.2,0.1l0-0.2
		L1065.5,582.2z M1041.5,582.3l0.1-0.2l-0.2,0L1041.5,582.3z M1077.8,579.5c-0.1,0.1-0.1,0.1-0.2,0.2c0.1,0,0.2,0,0.3,0
		C1077.9,579.6,1077.8,579.5,1077.8,579.5 M1043.4,579.8l0.1-0.2l-0.2,0L1043.4,579.8z M1084.7,579.1l0.1-0.2l-0.2,0L1084.7,579.1z
		 M1066.3,576.9l-0.1,0.2l0.2,0L1066.3,576.9z M1112.9,575.2l-0.2-0.1l0,0.2L1112.9,575.2z M1099.4,575l-0.1,0.2l0.2,0L1099.4,575z
		 M1109.4,574.5l0.2,0.1l0-0.2L1109.4,574.5z M1086,574.7l0.1-0.2l-0.2,0L1086,574.7z M1122.3,573.7c-0.1,0-0.1,0.1-0.2,0.1
		c0.1,0,0.2,0,0.3,0C1122.4,573.8,1122.4,573.8,1122.3,573.7 M1077.9,573.9l-0.2-0.1l0,0.2L1077.9,573.9z M1098.6,573.2l0.2,0.1
		l0-0.2L1098.6,573.2z M1094.3,572.5l-0.1,0.2l0.2,0L1094.3,572.5z M1117.2,571.8l-0.1,0.2l0.2,0L1117.2,571.8z M1135.8,571.4
		c0-0.1-0.1-0.1-0.1-0.2c-0.1,0.1-0.2,0.1-0.2,0.2c0,0.1,0.1,0.1,0.1,0.2C1135.7,571.5,1135.7,571.4,1135.8,571.4 M1110.9,569.9
		l-0.1,0.2l0.2,0L1110.9,569.9z M1127.5,569.5l-0.2-0.1l0,0.2L1127.5,569.5z M1115.8,569.4l0.2,0.1l0-0.2L1115.8,569.4z
		 M1107.9,572.4c-0.1-0.2-0.1-0.3-0.2-0.5c-0.1,0-0.2,0.1-0.2,0.1c0,0.2,0,0.4,0,0.5C1107.6,572.5,1107.8,572.5,1107.9,572.4
		 M1064,579.4c-0.1-0.2-0.1-0.4-0.2-0.5c-0.1,0.1-0.2,0.1-0.2,0.2c0,0.2,0.1,0.4,0.1,0.5C1063.8,579.5,1063.9,579.5,1064,579.4
		 M1032.3,581.3c-0.1,0.1-0.3,0.2-0.4,0.3c0.1,0.1,0.2,0.2,0.2,0.2c0.2,0,0.4-0.1,0.5-0.2C1032.5,581.5,1032.4,581.4,1032.3,581.3
		 M1075.9,582.2c-0.2-0.1-0.3-0.2-0.5-0.2c-0.1,0-0.1,0.1-0.2,0.2c0.1,0.1,0.2,0.3,0.3,0.3C1075.7,582.4,1075.8,582.2,1075.9,582.2
		 M1046,584c-0.2-0.1-0.3-0.2-0.5-0.2c-0.1,0-0.1,0.1-0.2,0.2c0.1,0.1,0.2,0.3,0.3,0.3C1045.7,584.3,1045.9,584.1,1046,584
		 M1026,589.6c-0.1,0.1-0.3,0.2-0.4,0.3c0.1,0.1,0.2,0.2,0.2,0.2c0.2,0,0.4-0.1,0.5-0.2C1026.2,589.8,1026.1,589.7,1026,589.6
		 M1004.5,593.7c0.2,0.1,0.4,0.2,0.6,0.2c0.1,0,0.1-0.1,0.2-0.2c-0.1-0.1-0.3-0.3-0.4-0.3C1004.8,593.4,1004.7,593.6,1004.5,593.7
		 M978.5,599.9c-0.1,0.2-0.2,0.4-0.2,0.6c0,0.1,0.1,0.2,0.2,0.2c0.1-0.1,0.2-0.3,0.3-0.4C978.8,600.2,978.6,600,978.5,599.9
		 M955.2,601.5c0.2-0.1,0.3-0.1,0.5-0.2c-0.1-0.1-0.1-0.2-0.2-0.2c-0.2,0-0.4,0-0.5,0.1C955.1,601.2,955.1,601.3,955.2,601.5
		 M951.1,603.1c-0.1,0.2-0.2,0.4-0.2,0.5c0,0.1,0.1,0.1,0.2,0.2c0.1-0.1,0.2-0.3,0.2-0.4C951.4,603.4,951.2,603.2,951.1,603.1
		 M908.6,618.4c-0.2-0.1-0.3-0.2-0.5-0.2c-0.1,0-0.2,0.1-0.2,0.2c0.1,0.1,0.2,0.3,0.3,0.3C908.3,618.7,908.5,618.5,908.6,618.4
		 M1083.5,573.7c-0.2-0.2-0.5-0.4-0.7-0.6c-0.1,0.2-0.2,0.4-0.2,0.5c0.2,0.2,0.4,0.3,0.6,0.5C1083.4,574,1083.4,573.9,1083.5,573.7
		 M960.4,603.2c-0.1-0.2-0.2-0.5-0.3-0.7c-0.1,0.2-0.3,0.3-0.3,0.5c0.1,0.3,0.2,0.6,0.3,0.9C960.2,603.6,960.3,603.4,960.4,603.2
		 M1091.7,576.9c-0.1,0.4-0.2,0.6-0.2,0.9c0,0.2,0.1,0.4,0.2,0.5c0.1-0.3,0.2-0.6,0.3-0.9C1092,577.3,1091.8,577.1,1091.7,576.9
		 M970.5,600.7c-0.2-0.1-0.4-0.2-0.7-0.3c0,0-0.2,0.4-0.2,0.4c0.2,0.2,0.4,0.4,0.7,0.6C970.3,601.2,970.4,601,970.5,600.7
		 M1017,589.5c-0.2-0.2-0.4-0.4-0.6-0.5c-0.1,0-0.3,0.1-0.4,0.2c0.2,0.2,0.4,0.4,0.6,0.6C1016.6,589.8,1016.8,589.6,1017,589.5
		 M1073.7,580.8c-0.2,0.2-0.4,0.5-0.5,0.7c0.2,0.1,0.4,0.2,0.5,0.2c0.2-0.2,0.3-0.4,0.5-0.6C1074,581,1073.9,580.9,1073.7,580.8
		 M1008.9,588.2c-0.4-0.3-0.6-0.4-0.9-0.5c-0.1,0-0.4,0.3-0.4,0.3c0.1,0.2,0.2,0.6,0.4,0.6C1008.2,588.7,1008.5,588.4,1008.9,588.2
		 M1095,577.6c-0.1,0.2-0.2,0.5-0.2,0.5c0.3,0.2,0.6,0.4,1,0.5c0.2,0,0.4-0.1,0.6-0.2C1095.9,578.1,1095.4,577.8,1095,577.6
		 M1036.1,582c-0.3,0.1-0.6,0.3-0.6,0.3c0.2,0.4,0.3,0.9,0.5,1.3c0,0,0.5-0.2,0.5-0.2C1036.4,583,1036.3,582.5,1036.1,582
		 M1012.9,592.5c0.5-0.3,0.9-0.6,1.4-0.8c-0.3-0.2-0.7-0.5-1.1-0.6c-0.1,0-0.5,0.4-0.5,0.6C1012.6,591.9,1012.8,592.2,1012.9,592.5
		 M969.6,597.9c-0.3,0-0.5,0-0.5,0c0,0.1-0.1,0.3,0,0.4c0.3,0.4,0.7,0.7,1.1,1.1c0,0,0.2,0,0.2,0c0-0.2,0.2-0.5,0.1-0.6
		C970.1,598.5,969.8,598.1,969.6,597.9 M1104.8,570.8c0.1,0.5,0.1,0.8,0.2,1c0.1,0,0.3,0,0.4-0.1c0.2-0.5,0.4-1.1,0.6-1.6
		c0,0-0.3-0.2-0.5-0.3c-0.1,0-0.3,0-0.3,0C1105,570.2,1104.9,570.6,1104.8,570.8 M1107.2,576.1c-0.1-0.3-0.1-0.4-0.2-0.5
		c-0.8-0.4-1.6-1.1-2.5-1.2c-0.4,0-1,0.9-1.4,1.5c0,0.1,0.6,0.7,1,0.9c0.3,0.2,0.8,0.5,1.1,0.4
		C1105.9,577,1106.5,576.5,1107.2,576.1 M960.4,599.7c-0.2-0.1-0.3-0.2-0.5-0.3C960.1,599.5,960.2,599.6,960.4,599.7
		c0.3,1,1.2,0.5,1.8,0.5c0.2,0,0.6-0.4,0.6-0.5c-0.1-0.4-0.4-0.7-0.5-1c-0.2,0.1-0.4,0.3-0.6,0.4
		C961.2,599.3,960.8,599.5,960.4,599.7 M910.2,615.5c0.1-0.4,0.2-0.7,0.3-1.1c-0.3,0.1-0.5,0.1-0.8,0.2
		C909.8,614.9,910,615.3,910.2,615.5c0,0.5,0,1.1,0.2,1.6c0,0.1,0.5,0.2,0.7,0.2c0-0.5,0.2-1,0-1.3
		C911.1,615.7,910.5,615.7,910.2,615.5 M1057.7,579.9c-0.2,0.1-0.4,0.2-0.4,0.4c0,0.3,0.1,0.5,0.2,0.8c0,0.1,0.4,0,0.6-0.1
		c-0.1-0.2-0.2-0.5-0.3-0.7C1057.7,580.2,1057.7,580.1,1057.7,579.9c0.1-0.1,0.2-0.3,0.3-0.5
		C1057.9,579.6,1057.8,579.8,1057.7,579.9 M905,619.4c-0.4,0.1-0.7,0.2-1.1,0.4c0.1,0.1,0.2,0.2,0.2,0.2
		C904.5,619.8,904.8,619.6,905,619.4c0.1-0.1,0.2-0.3,0.3-0.5C905.2,619,905.1,619.2,905,619.4 M952.8,604.1
		c-0.2,0.1-0.4,0.2-0.5,0.3c0,0.2,0.1,0.5,0.1,0.8c0.1-0.2,0.2-0.3,0.3-0.5C952.8,604.5,952.7,604.3,952.8,604.1
		c0.1-0.2,0.2-0.3,0.3-0.5C953,603.8,952.9,604,952.8,604.1 M1073,574.9c0.4-0.1,0.7-0.2,1.1-0.3c-0.1-0.1-0.2-0.2-0.2-0.2
		C1073.5,574.5,1073.3,574.7,1073,574.9c-0.1,0.1-0.2,0.3-0.3,0.5C1072.8,575.2,1072.9,575,1073,574.9 M1043.7,582.5
		c0.2,0.1,0.3,0.2,0.5,0.3C1044,582.7,1043.9,582.6,1043.7,582.5c-0.2-0.1-0.3-0.2-0.5-0.3C1043.4,582.3,1043.6,582.4,1043.7,582.5
		 M934.3,607.9c0.2-0.2,0.4-0.4,0.7-0.6c0.4-0.1,0.7-0.2,1.1-0.4c-0.4-0.1-0.7-0.2-1.1-0.3c-0.2-0.1-0.3-0.2-0.5-0.3
		c0.2,0.1,0.3,0.2,0.5,0.3c0,0.2,0,0.4,0,0.6C934.7,607.5,934.5,607.7,934.3,607.9c-0.1,0.2-0.2,0.3-0.3,0.5
		C934.1,608.2,934.2,608.1,934.3,607.9 M925.4,612.4c0.2,0.1,0.3,0.2,0.5,0.3C925.7,612.6,925.6,612.5,925.4,612.4
		c-0.2-0.1-0.3-0.2-0.5-0.3C925.1,612.2,925.3,612.3,925.4,612.4 M926.7,614.3c-1.7,0.8-3.9,0.2-5.4,1.8c-0.1,0.1-0.6-0.1-0.8-0.1
		c-1-0.2-1.6,0.2-2.4,0.7c-1.2,0.7-2.9,0.4-4.1,1.4c-0.2-0.4-0.4-0.8-0.6-1.2c0.1-0.1,0.2-0.3,0.3-0.4c-0.1,0.2-0.2,0.3-0.3,0.5
		c-0.7,1.4-2.5,1.2-3.3,2.3c-2.2-0.1-4,1.5-6.1,1.7c-0.7,0.1-1.3-0.2-2-0.2c-0.2-0.1-0.3-0.2-0.5-0.3c0.2,0.1,0.3,0.2,0.5,0.3
		c-0.1,0.8-0.7,0.7-1.3,0.6c-0.2-0.1-0.3-0.2-0.5-0.3c0.2,0.1,0.3,0.2,0.5,0.3c-0.1,0.4-0.2,1-0.3,1.1c-0.6,0.1-1.7,0.3-1.9-0.1
		c-0.5-0.9-0.4-2-1.3-2.8c-0.1-0.1,0.2-0.9,0.5-1c0.2-0.1,0.7,0.2,1.1,0.3c0.1,0.1,0.3,0.2,0.5,0.3c-0.2-0.1-0.3-0.2-0.5-0.3
		c0.3-0.4,0.6-1,1-1.1c2.3-0.5,4.5-1.3,6.4-2.6c0.4-0.3,1-0.1,1.5-0.1c0.2,0.2,0.4,0.4,0.6,0.6c0.2,0.1,0.3,0.2,0.5,0.3
		c-0.2-0.1-0.3-0.2-0.5-0.3c-0.2-0.2-0.4-0.4-0.6-0.6c0.1-0.4,0.2-0.7,0.3-1.1c1.1,0.6,1.9-1.1,2.9-0.6c1.3,0.6,1.7-1,2.7-0.9
		c1,0.1,2,0.4,3,0.6c0.2,0.4,0.5,0.8,0.7,1.1c0.3-0.2,0.6-0.5,0.9-0.7c-0.4-0.1-0.9-0.3-1.3-0.4c-0.1,0-0.2,0-0.3,0
		c0-0.4,0-0.8,0-1.2l0,0c1.1-1.3,2.8-1.3,4.2-1.9c1.1-0.5,2.3-0.1,3.4-0.8c0.9-0.5,1.8-1.3,3-1.5c0.4-0.1,0.9-0.8,1.7-1
		c1.9-0.4,4.1-0.1,5.7-1.6c2.2,0.5,3.7-0.8,5.3-1.9c0.1-0.1,0.5,0.2,0.8,0.4l0,0c0.1,0.2,0.2,0.3,0.3,0.5c0.1-0.2,0.2-0.3,0.3-0.5
		l0,0c0.2,0,0.4,0,0.7,0c0.1,0.3,0.2,0.7,0.4,1c0.2-0.1,0.4-0.2,0.5-0.4c0.3-1-0.6-0.4-0.9-0.6c0.2-0.3-0.4-1,0.6-1
		c1.4,0,2.8-0.3,4.2-0.5c1.2-0.2,2.3-1.4,3.8-0.6c0.1,0,0.4-0.2,0.5-0.3c0.8-1.4,2.3-1.3,3.4-1.1c0.8,0.1,1.1-0.4,1.7-0.4
		c0.8-0.1,1.6-0.3,2.4-0.5c0.2,0.1,0.3,0.2,0.5,0.3c-0.2-0.1-0.3-0.2-0.4-0.3c1.3-0.7,2.6-1.5,3.9-2.2c0.1,0,0.4,0.4,0.6,0.7
		c0.2,0.3,0.5,0.5,0.8,0.8c0-0.3,0-0.8,0.1-1c0.2-0.3,0.7-0.6,0.9-0.5c0.7,0.3,1.2,0.2,1.4-0.6c0-0.1,0.1-0.2,0.2-0.2
		c0.9,0,2.4,0.4,2.7,0c0.8-1.3,1.8-0.7,2.8-0.9c0.2,0.1,0.3,0.2,0.5,0.3c-0.2-0.1-0.3-0.2-0.5-0.3c0.9-1.4,2.4-1.3,3.8-1.3
		c0,0.3,0,0.7,0.2,0.9c0.1,0.2,0.5,0.2,0.7,0.2c0-0.3,0.1-0.7-0.1-1c-0.1-0.1-0.6-0.1-0.9-0.1c0.5-0.7,1.1-1,2-0.9
		c0.5,0.1,1.1,0.3,1.5,0.1c1.5-0.5,2.9-1.6,4.3-1.6c1.5,0,3,0.1,4.4-0.6c0.9-0.4,1.6-0.3,1.8,0.9c0,0.2,0.2,0.4,0.2,0.6
		c0.1-0.2,0.2-0.3,0.3-0.5c0.1-0.3,0-0.6,0.1-0.9c0.2-1.1,0.9-1.6,2-1.5c0.3,0,0.6,0,0.9,0c0.9-0.1,1.9-0.5,2.6-0.2
		c0.6,0.3,1.1,1.4,1.1,2.1c0,1.3,0.8,1.6,1.7,2l0,0c0.9,1.4,1.8,0.2,2.7-0.1c0.9-0.3,0.1-1,0.1-1.6c0-0.5-0.1-0.9-0.2-1.4
		c-0.5-1.8-0.4-2.2,1.6-2.7c2.2-0.6,4.3-1.3,6.6-1.5c1-0.1,1.3-1.5,2.5-1c1.1,0.4,1.7-0.6,2.5-1.1c0.2-0.1,0.6,0.3,0.9,0.5
		c-0.1,0.1-0.2,0.3-0.3,0.4c0.1-0.2,0.2-0.3,0.3-0.5c1.6,0,3.1,0,4.5-0.9c0.2-0.2,0.6-0.3,0.9-0.3c1.8-0.2,3.7-0.4,5.5-0.7l0,0
		c0.3,0.7,0.7,0.7,1.1,0.2c0.4-0.4,0.7-1.2,1.2-1.3c1-0.1,1.7-0.8,2.8-1c4-0.5,8.1-0.2,12-1.7c0.8-0.3,2,0.5,2.9,0.3
		c0.8-0.2,1.5-1,2.3-1.6c0.1,0,0.4,0.4,0.6,0.6c-0.1,0.2-0.2,0.3-0.3,0.5c0.1-0.2,0.2-0.3,0.3-0.5c0.7-0.2,1.7,0.9,2.3-0.4
		c0.1-0.2,1.2-0.1,1.8-0.1c0.3,0,0.9,0,0.9-0.1c0.4-1.9,2.1-1.2,3-1.2c2.2,0,4.2-0.2,5.9-1.7c0.3-0.2,1-0.2,1.4,0
		c0.8,0.3,1.4,0.3,2-0.3c0.7-0.8,1.4-0.9,2.1,0c0.7,0.9,1.4-0.1,1.9-0.3c1-0.5,1.7-0.9,3.1-0.8c1.4,0.1,3.2-0.1,4.6-0.6
		c1.2-0.4,2.2,0,3.3,0c1,0,2-0.9,2.9-0.8c2.1,0.3,4-0.7,6.1-0.7l0,0c0.2,0.7,0.4,0.5,0.6,0v0c0.9-0.1,1.9-0.2,2.7-0.5
		c0.8-0.2,1.4-0.1,2,0.4c1.6,1.4,1.8,1.4,2.8-0.5c0.5-0.9,0.8-0.1,1.2-0.2c0.8-0.3,1.8-1.1,2.4-0.9c1,0.4,1.7-0.5,2.7-0.3
		c0.8,0.2,1.8-0.3,2.7-0.5c0.4-0.1,0.8,0,1.3,0c2.4,0,4.8,0.8,7-0.6c1.6,0.5,3.2,0.4,4.8,0.1c0.3-0.1,0.7,0.2,0.9,0.5
		c0.3,0.4,0.5,0.9,0.6,1.4c0.2,0.6-0.3,1.5,0.9,1.7c1.1,0.2,1.8-0.3,2.4-1.1c0.2-0.2,0.3-0.5,0.5-0.8c0.8-2,1.3-2.4,3.2-1.5
		c1.3,0.6,2.4,0.9,3.7,0.1c0.7-0.4,5.3,0.4,5.5,1c0.2,0.5-0.2,1.1-0.3,1.7l0,0c-1.9,1-3.9,1.7-6.1,2.1c-2,0.4-4,1.1-6.1,1.6
		c-0.9,0.2-1.7-0.9-2.4,0.2c-0.7,1.1-1.7,0.4-2.6,0.6c-0.1-0.4-0.2-0.7-0.3-1.1c-0.1,0.1-0.2,0.2-0.2,0.2c0.2,0.3,0.4,0.6,0.5,0.9
		c-0.8,0.9-1.9,1-3,1.1c-2.9,0.2-5.7,0.7-8.5,1.1c-1.5,0.2-2.9,0.9-4.5,1c-1.7,0.1-3.4,0.4-5,0.6c-0.8,0.1-1.6,0.4-2.4,0.6
		c-0.9,0.3-1.6,0.8-2.6,0.1c-0.4-0.3-1.3,0.3-2,0.5l0,0c-0.1-0.2-0.3-0.3-0.4-0.5c-0.1,0.2-0.1,0.3-0.2,0.5l0,0
		c-0.9,0.1-1.8-0.7-2.8,0.3c-0.4,0.5-1.7,0.5-2.5,0.3c-2-0.6-3.5,0.3-5,1.3l0,0c-0.1-0.1-0.1-0.3-0.2-0.4c-0.1,0.1-0.3,0.3-0.4,0.4
		l0,0c-2.7,0.4-5.4,1.1-8.1,1.2c-1.7,0-3.3,0.6-5.1,0.3c-1.5-0.2-2.9,1.3-4.7,1.1c-0.4,0-0.8,0.6-1.3,0.8c-0.2,0.1-0.6,0.1-0.8,0.2
		c0-0.3,0.1-0.5,0.1-0.8c0.3-1,0-1.6-1.1-1.6c-0.2-0.1-0.3-0.2-0.5-0.3c0.1,0.1,0.3,0.2,0.4,0.3c-0.6,1.9-0.7,2.2-2.1,1.8
		c-1.1-0.3-1.7,0.4-2.6,0.7c-1,0.3-2,0.4-3,0.7c-1.1,0.4-2.1,0.9-3.3,0.2c-0.3-0.2-3.3,0.5-3.9,0.8c-0.3,0.1-0.6,0.2-0.9,0.2
		c-0.7-0.1-1.4-0.5-2.1-0.5c-0.6,0,0.2,1.3-0.9,1.3c-0.7,0-1.4,0.3-2.1,0.5c-0.7,0.2-1.4,0.4-2.1,0.6l0,0c-0.2-0.6-0.4-0.7-0.6,0
		l0,0c-0.5,0.2-1.1,0.7-1.4,0.5c-2.5-1.4-4.6,0.2-6.9,0.8c-0.7,0.2-2.2,0.3-2.8,0c-0.4-0.2-0.5-0.7-1.1,0c-0.7,0.7-2.1,1.3-3,1.1
		c-2.8-0.4-5.1,0.8-7.6,1.5c-1.1,0.3-2.5-0.4-3.3,0.9c-1.2-0.3-2.3,0.3-3.5,0.5c-1.2,0.2-2.5,0.3-3.7,0.5c-0.8,0.1-1.6,0.4-2.4,0.6
		c-1.1,0.3-2.1,1.1-3.5,0.8c-0.4-0.1-0.9,0.4-1.3,0.6c-0.4,0.2-0.8,0.6-1.1,0.5c-0.7-0.2-1.4-0.6-2.1-0.9c-0.1,0.9-1,1.3-1.6,1.2
		c-0.5-0.1-0.9-0.9-1.4-1.4c-0.4-0.4-0.2-0.7,0.3-0.9c0.1,0,0.1-0.5,0.1-0.7c-0.1-0.1-0.4-0.4-0.5-0.3c-0.6,0.2-1.1,0.5-1.7,0.8
		c-0.6,0.3-1,0.2-1.2-0.5c0-0.1-0.4,0-0.6,0c0,0.5,0,1.1,0,1.6c0.1,0.7,0.2,1.4,0.3,2.1c-0.7,0.1-1.5,0.1-2.1,0.3
		c-0.8,0.3-1.4,0.9-2.2,1.1c-1.3,0.4-2.8,0.3-4.1,0.8c-1.3,0.5-2.6,0.6-4,0.6c-0.8,0-1.5-0.1-2.2,0.8c-0.6,0.7-2.2,1.2-3.1,0.9
		c-1.5-0.5-2.2-0.2-3.2,0.9c-0.4,0.5-1.6,0.5-2.4,0.4c-0.7-0.1-1.4-0.4-1.9,0.4c-0.1,0.1-0.6-0.2-1-0.3c-0.3-0.1-0.5-0.2-0.7-0.3
		c-0.3,2.3-2.8,0.5-3.6,2c-0.2,0.5-1.3,0.6-2,0.7c-5.1,0.3-10,1.7-14.9,3.1c-1.3,0.4-2.2,0.3-3.2-0.4c-0.2-0.1-0.3-0.2-0.5-0.3
		c0.2,0.1,0.3,0.2,0.5,0.3c-0.7,0.6-1.4,1.2-2.1,1.7c-0.2,0.1-0.8-0.1-1-0.3c-0.3-0.3-0.4-0.9-0.7-0.1c-0.8,2.3-2.6,2.1-4.3,1.7
		C927.1,613.1,927,613.7,926.7,614.3L926.7,614.3z M1157.9,524.8l-0.1,0.2l0.2,0L1157.9,524.8z M1175.1,460.2l0.1-0.2l-0.2,0
		L1175.1,460.2z M1164.3,460.8c0.1-0.1,0.1-0.1,0.2-0.2c-0.1-0.1-0.1-0.2-0.2-0.2c-0.1,0-0.1,0.1-0.2,0.1
		C1164.1,460.7,1164.2,460.7,1164.3,460.8 M1167.6,462l-0.2-0.1l0,0.2L1167.6,462z M1159.8,464l0.1-0.2l-0.2,0L1159.8,464z
		 M1170.1,468.3l-0.2-0.1l0,0.2L1170.1,468.3z M1146.4,469.1l0.1-0.2l-0.2,0L1146.4,469.1z M1165.6,469.4l-0.1,0.2l0.2,0
		L1165.6,469.4z M1154.7,471l0.1-0.2l-0.2,0L1154.7,471z M1164.7,470.8l0.2,0.1l0-0.2L1164.7,470.8z M1136.4,538.9
		c0-0.1-0.1-0.1-0.1-0.2c-0.1,0.1-0.2,0.1-0.2,0.2c0,0.1,0.1,0.1,0.1,0.2C1136.3,539,1136.4,539,1136.4,538.9 M1142,538.4l0.1-0.2
		l-0.2,0L1142,538.4z M1133,537.6l0.2,0.1l0-0.2L1133,537.6z M1151.4,536.4l0.2,0.1l0-0.2L1151.4,536.4z M1142,536.5l0.1-0.2l-0.2,0
		L1142,536.5z M1147.7,534.9c-0.1,0-0.1,0.1-0.2,0.1c0.1,0,0.2,0,0.3,0C1147.8,535.1,1147.8,535,1147.7,534.9 M1137.1,535.1
		l-0.2-0.1l0,0.2L1137.1,535.1z M1134.4,534.9l-0.1,0.2l0.2,0L1134.4,534.9z M1154.1,533l-0.1,0.2l0.2,0L1154.1,533z M1131.2,532.4
		l-0.1,0.2l0.2,0L1131.2,532.4z M1144.6,530.5l-0.1,0.2l0.2,0L1144.6,530.5z M1143.9,472.9l0.1-0.2l-0.2,0L1143.9,472.9z
		 M1160,473.4c0-0.1-0.1-0.1-0.1-0.2c-0.1,0.1-0.2,0.1-0.2,0.2c0,0.1,0.1,0.1,0.1,0.2C1159.9,473.5,1159.9,473.5,1160,473.4
		 M1167.6,528.1l-0.2-0.1l0,0.2L1167.6,528.1z M1153.4,528.2l0.1-0.2l-0.2,0L1153.4,528.2z M1130.7,523c0,0-0.1-0.1-0.1-0.2
		c-0.1,0.1-0.2,0.1-0.2,0.2c0,0.1,0.1,0.1,0.1,0.2C1130.6,523.1,1130.6,523,1130.7,523 M1128,521.9l0.1-0.2l-0.2,0L1128,521.9z
		 M1177.2,519.2c-0.1-0.1-0.1-0.2-0.2-0.2c-0.1,0-0.1,0.1-0.2,0.1c0.1,0.1,0.1,0.2,0.2,0.2C1177,519.4,1177.1,519.3,1177.2,519.2
		 M1175.8,508.8c-0.1,0-0.1,0.1-0.2,0.1c0.1,0,0.2,0,0.4,0C1175.9,508.9,1175.8,508.9,1175.8,508.8 M1136.1,497.5l0.2,0.1l0-0.2
		L1136.1,497.5z M1132.5,497.4l-0.1,0.2l0.2,0L1132.5,497.4z M1134.4,496.8c0,0-0.1,0.1-0.2,0.1c0.1,0,0.2,0,0.3,0
		C1134.5,496.9,1134.4,496.8,1134.4,496.8 M1137.6,478.5c-0.2-0.1-0.4-0.2-0.5-0.2c-0.1,0-0.2,0.1-0.2,0.2c0.1,0.1,0.3,0.3,0.4,0.3
		C1137.4,478.7,1137.5,478.6,1137.6,478.5 M1138.2,489.4c0.1-0.2,0.2-0.3,0.2-0.5c0-0.1-0.1-0.2-0.2-0.2c-0.1,0.1-0.3,0.2-0.3,0.3
		C1138,489.1,1138.2,489.2,1138.2,489.4 M1159.9,524.8c-0.2-0.1-0.4-0.1-0.5-0.1c-0.1,0-0.2,0.1-0.2,0.2c0.1,0.1,0.3,0.2,0.4,0.2
		C1159.7,525.1,1159.8,524.9,1159.9,524.8 M1154,469.6c0.2,0.1,0.4,0.2,0.6,0.2c0.1,0,0.1-0.1,0.2-0.2c-0.1-0.1-0.3-0.2-0.4-0.2
		C1154.3,469.4,1154.2,469.5,1154,469.6 M1146.6,535.8c-0.2-0.1-0.4-0.3-0.5-0.2c-0.2,0.2-0.4,0.4-0.5,0.6c0,0,0.3,0.3,0.3,0.3
		C1146.2,536.2,1146.4,536,1146.6,535.8 M1177.2,458.9c-0.3-0.3-0.5-0.6-0.7-0.7c-0.2-0.1-0.5,0.1-0.7,0.3c-0.1,0.1,0.1,0.6,0.1,0.6
		C1176.3,459,1176.7,458.9,1177.2,458.9 M1135.8,482.3c-0.2-0.4-0.5-0.9-0.7-1.3c-0.1,0.2-0.4,0.5-0.3,0.7c0.1,0.3,0.4,0.6,0.6,0.9
		C1135.4,482.6,1135.6,482.4,1135.8,482.3 M1169.3,522.4c0.1,0.1,0.2,0.2,0.4,0.2c0.7,0.1,1.2-0.1,1.1-0.9c0-0.2-0.1-0.4-0.2-0.6
		C1170.3,521.5,1169.8,521.9,1169.3,522.4 M1134.4,494.4c-0.2-0.6-0.3-1.2-0.5-1.8c0-0.1-0.2-0.1-0.3-0.1c-0.2,0.1-0.4,2-0.2,2.1
		c0.3,0,0.6,0,0.9-0.1C1134.4,494.5,1134.4,494.4,1134.4,494.4 M1179.9,462.3c0.1,0.4,0.2,0.7,0.3,1.1c0.1-0.1,0.2-0.2,0.2-0.2
		C1180.2,462.8,1180,462.5,1179.9,462.3c0-0.1,0-0.2,0-0.3c-0.1-0.3-0.2-0.5-0.3-0.8c-0.1,0.1-0.2,0.2-0.2,0.2
		C1179.5,461.7,1179.7,462,1179.9,462.3 M1143.6,535.4c-0.2,0.1-0.4,0.2-0.5,0.3c0,0.2,0.1,0.5,0.1,0.8c0.1-0.2,0.2-0.3,0.3-0.5
		C1143.6,535.8,1143.6,535.6,1143.6,535.4c0.1-0.2,0.2-0.3,0.3-0.5C1143.8,535.1,1143.7,535.3,1143.6,535.4 M1141,530.9
		c-0.3,0.1-0.6,0.2-0.9,0.2c0.1,0.1,0.2,0.3,0.2,0.3C1140.6,531.3,1140.8,531.1,1141,530.9c0.1-0.1,0.2-0.3,0.3-0.4
		C1141.2,530.6,1141.1,530.8,1141,530.9 M1140.4,472.4c-0.2-0.1-0.3-0.2-0.5-0.3C1140.1,472.2,1140.2,472.3,1140.4,472.4
		c0.1,0.1,0.3,0.2,0.4,0.3C1140.7,472.6,1140.6,472.5,1140.4,472.4 M1130.3,536.7c-0.4-0.1-0.9-0.1-1.1-0.4c-0.3-0.2-0.3-0.8-0.6-1
		c-1-0.8-2.2-1.4-3-2.3c-0.6-0.8-0.4-2-1.3-2.8c-0.5-0.4-0.9-1.4-0.7-1.9c0.8-2.1-0.5-3.8-0.8-5.6c-0.1-0.9-0.4-1.7-0.1-2.6
		c0.9-3.4,1.6-6.9,2.4-10.3c0.6-2.7,2.1-5.2,1.7-8.2c1.3-0.9,0.2-3.1,2.1-3.7c0.5-1.5,2.1-2.5,1.7-4.3c-0.2-0.7,1.3-0.4,0.8-1.3
		c2-1.4,2.2-3.8,3.2-5.7c0.3-0.5,0.6-1.1,1-1.6c0.7-0.9,0.7-1.3-0.6-1.6c-1.6-0.4-1.9-2-2.5-3.3c-0.1-0.2,0.3-0.7,0.5-1.1l0,0
		c0.8-0.4,0.8-0.8,0-1.3l0,0c0.4-2.8,1.7-4.8,4.1-5.7c1.8-0.7,3.6-1.2,5.5-1.8c0.2,0.1,0.3,0.2,0.5,0.3c-0.2-0.1-0.3-0.2-0.5-0.3
		c0.1-0.2,0.1-0.5,0.2-0.5c1.2-0.2,1.8-1.4,2.7-1.8c0.5-0.3,1.3,0.1,2,0.2c-0.7-1.4,0.6-0.8,1-1.1c0.5-0.3,1.1-0.6,1.6-0.9
		c0.6-0.4,1.4-0.7,1.8-1.2c0.8-1.2,1.8-0.4,2.7-0.4c0.2,0.1,0.3,0.2,0.5,0.3c-0.2-0.1-0.3-0.2-0.5-0.3c0.3-0.5,0.4-0.9,1.2-1.1
		c1.7-0.3,3.7-0.4,4.6-2.4c0.3,0.2,0.7,0.7,0.9,0.6c0.4-0.2,0.6-0.9,1-1c0.9-0.2,1.5-0.5,1.9-1.4c0.5-1.2,0.7,1.5,1.2,0.1
		c0.4-1,1.2-0.8,1.9-0.6c1.4,0.3,2.6,0.2,3.7-0.8c0.2-0.2,0.5-0.4,0.8-0.5c1.4-0.3,3,1.1,4.2-0.6c1.4,0.1,2.7,0.2,4.1,0.2
		c1.4,0,2.8,0.9,4.3,0.5c0.1,0,0.4,0.2,0.5,0.3c0.5,0.5,1.4,0.9,1.4,1.4c0.1,1-0.8,1.3-1.8,1.3c0-0.3,0.1-0.7,0-0.9
		c-0.2-0.4-0.5-0.7-0.9-0.9c-0.2-0.1-0.5,0.2-0.8,0.2c0.2,0.4,0.3,0.9,0.6,1.2c0.3,0.2,0.7,0.2,1.1,0.3c-0.1,0.4-0.2,1.1-0.4,1.1
		c-1,0.2-1.5,0.6-1.8,1.7c-0.1,0.5-1.3,0.6-1.7,1.1c-0.6,0.8-2.4-0.2-2.2,1.6c-0.9,0.5-2,0.9-2.6,1.6c-0.5,0.7-1,0.6-1.6,0.8
		c-1.6,0.5-3.2,1-4.5,2.2c-0.2-0.1-0.3-0.2-0.5-0.3c0.2,0.1,0.3,0.2,0.5,0.3c-0.6,0.4-1.3,0.8-1.9,1.3l0,0c-0.4-0.8-0.9-0.9-1.3,0
		l0,0c-0.8,0.2-1.5,0.5-2.3,0.6c-0.8,0.1-1.4,0.2-1.7,1c-0.2,0.6-0.8,0.5-1.4,0.5c-1.4,0.1-2.7,0.7-4.1,1c-0.1-0.1-0.3-0.2-0.4-0.3
		c0.2,0.1,0.3,0.2,0.5,0.2c-0.3,0.2-0.6,0.5-0.9,0.6c-0.6,0.1-1.4-0.1-1.8,0.2c-1.6,1.3-3.4,1.2-5.2,1.2c-1.3,0-2,1.1-2.6,2
		c-1.1,1.8-1.9,3.8-2.9,5.7c-1.2,2.4-2.8,4.7-3.6,7.2c-1,3.2-2.8,6-3.7,9.2c-0.5,1.7-0.6,3.5-1.5,5c-0.1,0.2-0.4,0.4-0.6,0.6
		c-0.2-0.1-0.3-0.2-0.5-0.3c0.2,0.1,0.3,0.2,0.5,0.3c0.2,1.5-0.5,3,0,4.5c0,0.1-0.4,0.4-0.6,0.6c-0.2-0.1-0.3-0.2-0.5-0.3
		c0.2,0.1,0.3,0.2,0.5,0.3c-0.1,0.5-0.2,0.9-0.2,1.4c0,1.1,0.2,2.3,0.2,3.4c0,0.5,0.4,3.4,0.7,3.7c0.7,0.8-0.2,0.9-0.4,1.3
		c-0.3,0.9-0.2,1.9-0.3,2.9c-0.3-0.1-0.7-0.2-1-0.3c0,0.2-0.1,0.5-0.1,0.6c0.5,0.5,0.8,0.4,1.1-0.2c1.1,1.1,2.2,2.1,3.2,3.2
		c2.1,2.4,4.6,1.2,7,0.8c1.2-1.7,3.3-0.3,4.7-1.3c0,0,0.3,0.5,0.5,0.7c0.2,0.1,0.5,0,0.8-0.1c-0.9-1.2,0.2-1.5,0.9-1.7
		c1.3-0.5,2.2-2,3.9-1.8c0.4,0.1,1.2-0.6,1.4-1.1c0.6-1.3,1.7-1.8,2.9-2.1c1.6-0.4,2.7-2,4.5-1.7c0.1,0.1,0.3,0.2,0.4,0.3
		c-0.2-0.1-0.3-0.2-0.5-0.3c-0.1-0.4-0.1-0.8-0.2-1.3c0.9-0.1,1.8-0.1,1.1-1.4c0-0.1,0.1-0.4,0.2-0.4c2.6-0.7,3.7-3.5,6-4.6
		c0.4-2,2.2-2.5,3.4-3.7c1.2-1.2,3.1-1.4,4-3.1c0.2-0.4,0.9-0.7,1.4-0.7c0.7,0.1,1.5-1,1.8-0.1c0.3,0.8,1.9,1.4,0.7,2.6
		c-0.6,0.6-0.2,1.3-0.1,2c0.1,0.4-0.4,0.8-0.6,1.2c-0.2-0.1-0.3-0.2-0.5-0.3c0.2,0.1,0.3,0.2,0.5,0.3c-0.1,1,0.4,2.2-0.9,2.7
		c0.3,2.7-3,4.1-2.4,7c0.1,0.5-0.4,1.4-1.4,1.9c-1.3,0.6-2.4,1.6-3.6,2.4c-0.2-0.1-0.3-0.2-0.5-0.3c0.2,0.1,0.3,0.2,0.5,0.3
		c-0.6,1.3-1.2,2.6-2.7,3.3c-0.8,0.4-1.3,1.6-2.1,2.2c-0.8,0.6-1.8,1-2.6,1.6c-0.7,0.5-1.2,1.3-1.9,1.7c-3.1,1.9-6,4.3-10,4.2
		c-1.1,1.1-2.4,0.1-3.5,0.4c-0.2,0.1-0.4,0.1-0.6,0.2c0.2,0.2,0.6,0.3,0.7,0.5c0.1,0.2,0.1,0.5,0.1,0.8c0,0.1-0.4,0.2-0.5,0.2
		c-0.6-0.1-1-0.9-1.8,0.1c-0.8,1-5.5,1.8-6.8,1.6c0,0-0.1-0.2-0.1-0.3c0.1-0.2,0.2-0.3,0.3-0.5c-0.1,0.2-0.2,0.3-0.3,0.5
		c-0.7,0.2-1.6,0.8-2,0.5c-1-0.8-1.5,1.1-2.5,0.2c-0.6-0.5-1.7-0.5-2.6-0.7l0,0c-0.2-0.4,1.2-1.1-0.3-1.2c-0.3,0-0.6,0.4-0.8,0.3
		c-0.9-0.4-1.3-1.8-2.7-1.4c0,0-0.1-0.2-0.1-0.3C1130.2,537.5,1130.2,537.1,1130.3,536.7c0.1-0.2,0.2-0.3,0.3-0.5
		C1130.4,536.4,1130.3,536.5,1130.3,536.7 M928.3,558.8l0.1-0.2l-0.2,0L928.3,558.8z M930.2,555.9l-0.1,0.2l0.2,0L930.2,555.9z
		 M921.1,553.5l0.2,0.1l0-0.2L921.1,553.5z M934,553l0.1-0.2l-0.2,0L934,553z M933.5,551.6l-0.2-0.1l0,0.2L933.5,551.6z M941.6,548
		l0.1-0.2l-0.2,0L941.6,548z M937.2,546.7l0.1-0.2l-0.2,0L937.2,546.7z M931.6,546.5l-0.2-0.1l0,0.2L931.6,546.5z M922.5,546.7
		l0.1-0.2l-0.2,0L922.5,546.7z M936.7,544.6l-0.2-0.1l0,0.2L936.7,544.6z M934.2,544.7c0-0.1-0.1-0.1-0.1-0.2
		c-0.1,0.1-0.2,0.1-0.2,0.2c0,0.1,0.1,0.1,0.1,0.2C934,544.8,934.1,544.7,934.2,544.7 M946.1,543.8c-0.1,0-0.1,0.1-0.2,0.1
		c0.1,0,0.2,0,0.4,0C946.2,544,946.1,543.9,946.1,543.8 M937.2,541.3l-0.1,0.2l0.2,0L937.2,541.3z M946.7,541l0.1-0.2l-0.2,0
		L946.7,541z M917.5,537.5l-0.1,0.2l0.2,0L917.5,537.5z M942.3,535.6l-0.1,0.2l0.2,0L942.3,535.6z M923.2,530.5l-0.1,0.2l0.2,0
		L923.2,530.5z M918.7,524.4l0.1-0.2l-0.2,0L918.7,524.4z M946.7,519l-0.1,0.2l0.2,0L946.7,519z M921.3,519l-0.1,0.2l0.2,0
		L921.3,519z M959.5,511.7l0.1-0.2l-0.2,0L959.5,511.7z M952.4,510.4l0.1-0.2l-0.2,0L952.4,510.4z M955.6,508.9l-0.1,0.2l0.2,0
		L955.6,508.9z M955,502.2l0.1-0.2l-0.2,0L955,502.2z M923.4,502c-0.1-0.1-0.1-0.1-0.2-0.2c-0.1,0.1-0.2,0.1-0.2,0.2
		c0,0.1,0.1,0.1,0.1,0.2C923.2,502.1,923.3,502.1,923.4,502 M963.2,495.8l0.1-0.2l-0.2,0L963.2,495.8z M956.5,498
		c-0.1-0.2-0.1-0.4-0.2-0.5c-0.1,0.1-0.2,0.1-0.2,0.2c0,0.2,0,0.4,0.1,0.5C956.3,498.1,956.4,498,956.5,498 M958.1,489.3
		c0.2,0.1,0.4,0.1,0.5,0.2c0.1,0,0.1-0.1,0.2-0.2c-0.1-0.1-0.3-0.2-0.4-0.2C958.4,489.1,958.2,489.2,958.1,489.3 M932.4,548.2
		c-0.2-0.2-0.3-0.5-0.5-0.6c-0.1-0.1-0.3,0.1-0.5,0.1c0.2,0.2,0.3,0.5,0.6,0.7C931.9,548.5,932.2,548.3,932.4,548.2 M919.7,528.4
		c-0.2,0.2-0.4,0.3-0.5,0.4c0.2,0.2,0.4,0.4,0.6,0.6c0.1-0.1,0.3-0.3,0.3-0.3C920.1,528.8,919.9,528.6,919.7,528.4 M924.1,504.2
		c0.2,0.3,0.6,0.7,0.5,0.8c-0.3,0.5-0.8,0.9-1,1.5c-0.1,0.2,0.3,0.6,0.5,0.9l0,0c0.9,1.5,0.2,3.1,0.2,4.7c-0.1,2.2-0.4,4.3-0.6,6.4
		c2.1,0.8,0.3,2.1,0.3,3.1c0,1,0,1.9,0.1,2.9l0,0c-0.2,0-0.4,0-0.6,0c-0.2-0.1-0.3-0.2-0.5-0.3c0.2,0.1,0.3,0.2,0.5,0.3
		c0,0.7-1.1,1.2-0.2,2c0.7,0.6,0.6,1.6,0.9,2.2c1,2,0,3.9,0.1,5.8c0.2,4.1,1.2,7.9,2.7,11.6c0.3,0.8,0.8,1.6,1.3,2.4
		c0.3-0.9,1.6-1,1.8-2.3c0.1-0.5,1.2-0.9,1.8-1.3l0,0c0.2-0.1,0.3-0.2,0.5-0.3c-0.2-0.1-0.3-0.2-0.5-0.3l0,0c0.2-0.3,0.4-0.7,0.7-1
		c1.6-1.3,2.9-2.5,3.2-4.8c0.2-1.8,1.6-3.5,2.5-5.3c1.4,0.3,1.4-0.5,1.5-1.6c0.1-0.9,0.9-1.6,1.1-2.5c0.2-0.9-0.2-2,0.2-2.8
		c0.5-1.3,1.4-2.5,2.2-3.7c0.1-0.2,0.3-0.4,0.3-0.6c0.3-2.7,0.5-3.4,2.1-5.4c0.6-0.8,1.6-2.6,1.2-3.7c-0.3-1,0.8-1,0.6-1.6
		c-0.2-0.7-0.5-1.4-0.6-2.1c-0.1-0.2,0.1-0.6,0.2-0.8c1.8-2.1,2.2-3.1,2.9-6.6c0.3-1.4,0.8-2.7,1.4-4c0.8-1.9,0.4-3.9,0.9-5.8l0,0
		c0.3-0.3,0.9-0.5,0.9-0.8c0.1-0.7-0.2-1.5,0-2.3c0.1-0.6,0.6-1.2,0.8-1.9c0.1-0.2-0.1-0.7,0-0.7c0.9-0.6,0.4-1.8,1.1-2.5
		c0.5-0.5,1-1.1,1.5-1.6c0.4-0.3,1.2-0.6,1.4-0.4c0.9,1.1,1.4-0.9,2.2-0.2c1,0.9,2.3,1.6,3.1,2.6c0.9,1.2,1.3,2.8,1.9,4.2
		c0.1,0.3,0.2,0.9,0.1,1.1c-1.1,1.2-0.7,2.7-0.5,4c0.1,1.3,0.1,2.4-0.2,3.7c-0.3,1.4-1,2.8-0.4,4.4c0.1,0.4-0.1,1-0.3,1.3
		c-2.4,3.3-3.2,7.2-3.9,11.1c1,1.2-1.6,1-0.8,2.2c0.3,0.6,0.2,1.5,0.1,2.2c-0.1,0.5-0.8,0.8-1,1.3c-0.2,0.5,0.5,1-0.1,1.6
		c-0.9,1-2.4,1.5-2.2,3.3c0.1,1.2-1.6,2.1-1.1,3.6c-1.4,1.1-1,3.5-3.1,4.1c-0.2-0.2-0.4-0.4-0.6-0.6c-0.2-0.1-0.3-0.2-0.5-0.3
		c0.2,0.1,0.3,0.2,0.5,0.3c0.2,0.2,0.4,0.4,0.6,0.6c-0.1,0.5-0.3,1-0.4,1.5c-0.2,0.9-1.3,1.7-0.4,2.9c0.4,0.5-0.6,1.4-1.3,1.3
		c-0.6-0.1,0.5-1.4-0.7-1c-0.5,0.1-1,0.4-1.3,0.8c-0.1,0.1,0.2,0.6,0.3,0.9l0.1,0.1c-0.2,0.5,2,0.7,0.2,1.5
		c-0.1,0.1-0.1,0.4-0.3,0.5c-1.2,1.1,0.2,3.2-1.4,3.9c-1.6,0.7-1.7,2.3-2.4,3.5c-0.5,0.8-0.9,1.6-1.4,2.4c-0.4,0.6-0.8,0.9-1.5,0.3
		c-0.1-0.1-0.7,0.2-0.7,0.3c0.1,0.8,0.5,1.5-0.7,1.8c-0.8,0.2-2,0.7-2.1,1.1c-0.1,1-0.8,1.2-1.2,1.7c-0.3,0.3-0.8,0.4-1.2,0.7l0,0
		c-0.2-0.2-0.4-0.4-0.6-0.7c-0.2-0.1-0.3-0.2-0.5-0.3c0.2,0.1,0.3,0.2,0.5,0.3c0.1,0.2,0.1,0.4,0,0.6l0,0c-1.6,0.6-2.4,2.5-4.2,2.7
		c-0.4,0.1-0.8,0.4-1.1,0.3c-1.2-0.5-2.4-0.7-3.7-0.7c-0.8,0-1.6-1.1-2.3-1.7l-0.1-0.1c0-0.2,0-0.4,0-0.6c0.1-0.1,0.2-0.3,0.3-0.4
		c-0.1,0.1-0.2,0.3-0.3,0.4c-0.8,0-1.8,0.4-1.6-1.1c0-0.6-0.7-1.3-1.2-1.7c-0.6-0.5-1.4-0.8-2.1-1.2c1.2-1.4-0.3-2.7-0.3-4.1
		c0.1-1.5-0.3-3.1-1.3-4.5c-0.5-0.7,0-1.4,0.7-1.9c0.2,0.1,0.3,0.2,0.5,0.3c-0.2-0.1-0.3-0.2-0.5-0.3c0-0.7-1.7-0.6-0.7-1.9
		c0.4-0.5,0.2-1.5,0.1-2.2c-0.6-2.5,0.2-4.9,0-7.3c0-0.6,0-1.4,0.3-1.8c0.9-1.3,0.9-2.8,0.6-4c-0.4-1.7,0-3.3,0.5-4.8
		c0.5-1.7-0.1-3.6,1-5.2c0.4-0.6,0-1.9-0.3-2.8c-0.2-0.6-0.2-1,0.4-1.2c0.2,0.1,0.3,0.2,0.5,0.3c-0.2-0.1-0.3-0.2-0.5-0.3
		c0.3-1.8,1.2-3.5,0.7-5.4c-0.2-0.7-0.2-1.5,0.9-1.7c-0.2-0.3-0.6-0.6-0.6-0.9c0-0.3,0.7-0.6,0.6-0.8c-0.5-2.4,1-4.3,1.6-6.4
		c0.3-0.9,1-0.7,1.6-0.6c0.3,0,0.6,0.4,0.9,0.6c-0.2,0.2-0.4,0.4-0.6,0.6c-0.3,0.2-0.6,0.3-0.9,0.4c0.3,0.1,0.7,0.1,0.9,0.3
		c0.3,0.3,0.8,0.7,0.8,1.1c0,0.7-0.4,1.4-0.6,2.1c-0.6-0.2-1.1-0.4-1.7-0.6c-0.1,0-0.5,0.2-0.5,0.3c0,0.3,1.7,0.4,2.2,0.2
		c0.3,0.2,1.2-0.4,0.9,0.6C924.8,502.1,924.5,503.2,924.1,504.2c-0.4,0.1-0.7,0.2-1.1,0.3c0.1,0.1,0.2,0.2,0.2,0.2
		C923.6,504.6,923.9,504.4,924.1,504.2 M1178.9,485.6l0.1-0.2l-0.2,0L1178.9,485.6z M1169.3,487.5l0.1-0.2l-0.2,0L1169.3,487.5z
		 M1150.9,501.9c-0.1,0-0.1,0.1-0.2,0.1c0.1,0,0.2,0,0.3,0C1151,502,1151,501.9,1150.9,501.9 M1149.7,500.6l-0.1,0.2l0.2,0
		L1149.7,500.6z M1154.8,500l-0.1,0.2l0.2,0L1154.8,500z M1153.3,498.8l0.2,0.1l0-0.2L1153.3,498.8z M1163,493.2l0.1-0.2l-0.2,0
		L1163,493.2z M1159.8,492.3l-0.1,0.2l0.2,0L1159.8,492.3z M1168.3,492.8c-0.1-0.1-0.2-0.3-0.3-0.4c-0.1,0.1-0.2,0.2-0.2,0.2
		c0,0.2,0.1,0.4,0.2,0.5C1168.1,493.1,1168.2,492.9,1168.3,492.8 M1159.2,490.5c-0.2,0-0.4-0.1-0.6-0.1c0,0.1,0,0.3,0,0.4
		c0.2,0,0.4-0.1,0.6-0.1C1159.2,490.6,1159.2,490.5,1159.2,490.5 M1162.9,488.7c0.2,0.1,0.4,0.2,0.6,0.2c0.1,0,0.2-0.1,0.2-0.2
		c-0.1-0.1-0.3-0.2-0.4-0.3C1163.2,488.4,1163.1,488.6,1162.9,488.7 M1170.6,486.1c0,0.2-0.1,0.3-0.1,0.5c0.1,0,0.3,0,0.4,0
		c0-0.2,0-0.4-0.1-0.5C1170.7,486.1,1170.6,486.1,1170.6,486.1 M1149.4,496.9c0.2-0.1,0.4-0.2,0.4-0.3c0-0.4-0.2-0.7-0.2-1.1
		c-0.2,0.2-0.6,0.4-0.6,0.6C1148.9,496.4,1149.3,496.7,1149.4,496.9 M1157.6,499.8c-1.9,1.1-3.9,2-5.7,3.2c-1,0.6-1.7-0.1-2.6,0
		c-0.1-0.1-0.3-0.2-0.4-0.3c0.2,0.1,0.3,0.2,0.5,0.3c-1.1,0.6-2.2,1.3-3.3,1.8c-0.1,0-0.4-0.4-0.5-0.6c0.2-0.2,0.4-0.3,0.5-0.6
		c0.1-0.1-0.1-0.3-0.2-0.5c-0.1,0.2-0.2,0.3-0.3,0.5c-0.1,0.2,0,0.4,0,0.6c-0.9,1-2.1,0-3.1,0.6c-0.5,0.3-0.5-0.3-0.3-0.7
		c0.3-0.8,0.1-1-0.9-0.9c-1.2,0.2-1.8-0.6-1.7-1.6c0.2-1.5,1.2-2.7,2-3.8c0.3-0.4,1.5-0.7,2-0.5c1.8,0.8,1.2-0.5,1.3-1.3l0.1-0.1
		c0.8-0.6,1.5-1.4,2.4-1.8c0.6-0.3,0.9-2.1,2-0.5c0.3-0.3,0.7-0.7,1-0.8c3.3-0.3,5.4-3.1,8.5-3.7c0.5-0.1,0.8-0.5,1.2-0.8
		c0.4-0.3,0.8-0.8,1.2-0.9c2.8-0.5,5.3-1.8,8.1-2.3c0.9-0.2,2.1,0,2.8-0.6c0.9-0.7,1.8,0.1,2.7-0.3c1.4-0.6,3.3,0.6,4.7-0.8
		c0,0,0.8,0.4,0.8,0.8c0.2,0.9,0.4,1.9-0.6,2.6c-0.8,0.6-1.5,1.2-2.4,1.5c-0.8,0.2-1.3,0.4-1.6,1.2c-0.4,0.9-0.9,1.7-2.1,1.5
		c-0.1,0-0.2,0-0.3,0c-1,1-1.9,2.5-3.1,2.9c-1.4,0.4-2.9,0.4-3.8,1.8c-1.1-0.4-1.5,1.1-2.5,1l-0.2-0.2c-0.1,0-0.3,0-0.4,0
		c-0.1,0.1-0.2,0.2-0.2,0.2c-0.2,0.2-0.4,0.5-0.6,0.6c-0.9,0.5-1.7,1.2-2.9,0.8C1159.3,499,1158.9,499.9,1157.6,499.8
		c-0.2-0.1-0.3-0.2-0.5-0.3C1157.3,499.6,1157.4,499.7,1157.6,499.8 M1057,510.8c0.5-0.3,0.8-0.5,1.1-0.7c0.2,0.3,0.5,0.6,0.5,1
		c0,0.2-0.5,0.6-0.6,0.6C1057.7,511.6,1057.5,511.2,1057,510.8 M924.2,494.8c-0.6-0.2-0.8-0.3-1.1-0.4c0.2-0.1,0.3-0.4,0.5-0.4
		c0.3,0,0.5,0.1,0.8,0.2C924.4,494.5,924.3,494.7,924.2,494.8 M924.1,524.6c0.2,0.3,0.4,0.6,0.5,0.9c0,0-0.1,0.1-0.2,0.2
		C924.4,525.3,924.3,525,924.1,524.6L924.1,524.6z M916.5,611.8c-0.1,0-0.2,0-0.3,0c-0.3-0.1-0.5-0.2-0.8-0.3
		c0.1-0.1,0.2-0.2,0.2-0.2c0.3,0.1,0.5,0.1,0.8,0.2C916.5,611.5,916.5,611.6,916.5,611.8L916.5,611.8z M922.9,557.7
		c-0.3,0.2-0.6,0.4-0.9,0.5c0,0-0.1-0.1-0.2-0.2C922.1,557.9,922.5,557.8,922.9,557.7L922.9,557.7z M978.9,540.5
		c0.4,0.1,0.7,0.2,1.1,0.4c-0.4,0.1-0.7,0.2-1.1,0.3l0,0C978.8,540.9,978.8,540.7,978.9,540.5L978.9,540.5z M1167.8,471.8
		c-0.4,0.9-0.8,0.9-1.3,0l0,0L1167.8,471.8L1167.8,471.8z M832.6,497.9c-0.3,0.2-0.6,0.4-0.9,0.5c0,0-0.1-0.1-0.2-0.2
		C831.8,498.1,832.2,498,832.6,497.9L832.6,497.9z M1132.8,478.8c-0.9-0.4-1-0.8,0-1.3l0,0C1132.8,478,1132.8,478.4,1132.8,478.8
		L1132.8,478.8z M1164.1,496.7c-0.1,0.3-0.3,0.7-0.4,1c-0.1-0.3-0.3-0.7-0.4-1c0.1-0.1,0.2-0.2,0.2-0.2l0.2,0l0.2,0L1164.1,496.7z
		 M1144.2,496c-0.3,0.2-0.6,0.4-0.9,0.5c0,0-0.1-0.1-0.2-0.2C1143.5,496.2,1143.9,496.1,1144.2,496L1144.2,496z M952.1,492.2
		c-0.2-0.1-0.3-0.2-0.5-0.3C951.8,492,952,492,952.1,492.2L952.1,492.2z M1144.8,496c-0.2,0-0.4,0-0.6-0.1l0,0
		c0.1-0.1,0.1-0.3,0.2-0.4C1144.6,495.7,1144.8,495.8,1144.8,496L1144.8,496z M1090.8,477.5c0.2,0.1,0.3,0.2,0.5,0.3
		c-0.2,0.1-0.3,0.2-0.5,0.3l0,0C1090.8,477.9,1090.8,477.7,1090.8,477.5L1090.8,477.5z M924.1,507.4c0.1-0.2,0.2-0.3,0.3-0.5
		C924.3,507.1,924.2,507.3,924.1,507.4L924.1,507.4z M898,507.4c-0.1,0.2-0.3,0.3-0.4,0.5c-0.1-0.1-0.2-0.3-0.3-0.4l0.1-0.1
		C897.7,507.4,897.9,507.4,898,507.4L898,507.4z M968.7,488.3c-0.1,0.2-0.2,0.3-0.3,0.5C968.5,488.7,968.6,488.5,968.7,488.3
		L968.7,488.3z M1059.6,517c-0.2-0.1-0.3-0.2-0.5-0.3C1059.3,516.8,1059.5,516.8,1059.6,517L1059.6,517z M882.2,520.1
		c0.2,0.1,0.3,0.2,0.5,0.3C882.5,520.3,882.3,520.2,882.2,520.1L882.2,520.1z M1023,487.5c-0.1-0.1-0.1-0.1-0.1-0.2
		c0-0.1,0.1-0.2,0.2-0.1c0.1,0,0.1,0.1,0.2,0.2C1023.2,487.4,1023.1,487.5,1023,487.5 M1083,521.8c-0.1,0.1-0.1,0.2-0.2,0.1
		c-0.1,0-0.1-0.1-0.2-0.2c0.1-0.1,0.1-0.1,0.2-0.2C1082.9,521.6,1083,521.7,1083,521.8 M980.2,487c0.2,0.1,0.3,0.2,0.5,0.4
		C980.5,487.3,980.3,487.2,980.2,487L980.2,487z M1052.7,523.9c0.1,0.2,0.3,0.3,0.4,0.5c-0.2,0.1-0.3,0.1-0.5,0.2l0,0
		C1052.6,524.4,1052.6,524.2,1052.7,523.9L1052.7,523.9z M875.8,525.2c0.2,0.1,0.3,0.2,0.5,0.3C876.1,525.4,876,525.3,875.8,525.2
		L875.8,525.2z M1052.6,525.9c0.2,0.1,0.3,0.2,0.5,0.3C1053,526.1,1052.8,526,1052.6,525.9L1052.6,525.9z M1011.9,530.9
		c0.1-0.2,0.2-0.3,0.3-0.5C1012.1,530.6,1012,530.8,1011.9,530.9L1011.9,530.9z M1018.3,531.6c-0.2-0.1-0.3-0.2-0.5-0.3
		C1018,531.4,1018.1,531.5,1018.3,531.6L1018.3,531.6z M863.1,534.7c0.2,0.1,0.3,0.2,0.5,0.3C863.4,535,863.2,534.9,863.1,534.7
		L863.1,534.7z M969.3,487.1c-0.2-0.1-0.3-0.2-0.5-0.3C969,486.9,969.2,486.9,969.3,487.1L969.3,487.1z M947.6,539.2
		c0.2-0.1,0.3-0.3,0.5-0.4c-0.1,0.2-0.3,0.3-0.4,0.5L947.6,539.2z M1134.1,540.5c-0.1,0.2-0.2,0.3-0.3,0.5
		C1133.9,540.8,1134,540.6,1134.1,540.5L1134.1,540.5z M978.8,541.8c0.2,0.1,0.3,0.2,0.5,0.3c-0.2,0.1-0.3,0.2-0.5,0.3l0,0
		C978.9,542.2,978.9,542,978.8,541.8L978.8,541.8z M931.8,544.9c-0.1-0.1-0.3-0.1-0.4-0.2c0.1-0.1,0.3-0.3,0.4-0.4l0,0
		C931.8,544.5,931.8,544.7,931.8,544.9L931.8,544.9z M1079.4,544.3c0.2,0.1,0.3,0.2,0.5,0.3C1079.7,544.5,1079.5,544.4,1079.4,544.3
		L1079.4,544.3z M836.4,546.3c-0.2,0.1-0.3,0.3-0.5,0.4c-0.1-0.1-0.1-0.3-0.2-0.4v0C835.9,546.2,836.1,546.2,836.4,546.3
		L836.4,546.3z M1071.7,546.2c0.6,0.2,0.6,0.5,0,0.7l-0.1-0.1C1071.7,546.6,1071.7,546.4,1071.7,546.2L1071.7,546.2z M1077.3,546.5
		c-0.1,0.1-0.1,0.1-0.2,0.2c0-0.1,0-0.2,0-0.4C1077.2,546.4,1077.3,546.5,1077.3,546.5 M974.4,549.4c0.1-0.2,0.2-0.3,0.3-0.5
		C974.6,549.1,974.5,549.2,974.4,549.4L974.4,549.4z M1071.1,549.4c-0.1,0.2-0.3,0.3-0.4,0.5c-0.1-0.1-0.2-0.3-0.2-0.4l0,0
		C1070.7,549.4,1070.9,549.4,1071.1,549.4L1071.1,549.4z M1067.1,551.7c-0.1,0.1-0.1,0.1-0.2,0.1c-0.1,0-0.2-0.1-0.1-0.2
		c0-0.1,0.1-0.1,0.2-0.2C1067,551.5,1067.1,551.6,1067.1,551.7 M1048.8,551.9c-0.1,0.2-0.2,0.3-0.3,0.5c-0.1-0.2-0.2-0.3-0.3-0.5
		l0,0C1048.4,551.9,1048.6,551.9,1048.8,551.9L1048.8,551.9z M1060.3,553.2c-0.1,0.2-0.2,0.3-0.3,0.5c-0.1-0.2-0.2-0.3-0.3-0.5l0,0
		L1060.3,553.2L1060.3,553.2z M918.8,554.6c0.1,0.1,0.1,0.1,0.2,0.2c-0.1,0-0.2,0-0.4,0C918.6,554.7,918.7,554.7,918.8,554.6
		 M934.9,557c-0.1,0.1-0.3,0.3-0.4,0.5c-0.1-0.1-0.2-0.3-0.2-0.4l0,0C934.5,557,934.8,557,934.9,557L934.9,557z M1139.8,569.8
		c-0.2-0.1-0.3-0.2-0.5-0.3C1139.5,569.6,1139.6,569.6,1139.8,569.8L1139.8,569.8z M1139.8,569.7c0.2,0.1,0.3,0.2,0.5,0.3
		C1140.1,570,1139.9,569.9,1139.8,569.7L1139.8,569.7z M1090.2,571c0.1-0.2,0.2-0.3,0.3-0.5c0.1,0.2,0.2,0.3,0.3,0.5v0
		C1090.6,571,1090.4,571,1090.2,571L1090.2,571z M1137.9,571c0.2,0.1,0.3,0.2,0.5,0.3C1138.2,571.2,1138,571.1,1137.9,571
		L1137.9,571z M846.5,578c0.1-0.2,0.2-0.3,0.3-0.5C846.7,577.7,846.6,577.9,846.5,578L846.5,578z M1092.7,580.6
		c-0.1,0.2-0.2,0.3-0.3,0.5c-0.1-0.2-0.2-0.3-0.3-0.5l0,0L1092.7,580.6L1092.7,580.6z M1025.9,582.5c0.1-0.2,0.2-0.3,0.3-0.5
		C1026.1,582.1,1026,582.3,1025.9,582.5L1025.9,582.5z M1081.9,582.5c-0.1,0.1-0.1,0.3-0.2,0.4c-0.1-0.1-0.3-0.3-0.4-0.4l0,0
		L1081.9,582.5L1081.9,582.5z M832.5,589.5c-0.2-0.1-0.3-0.2-0.5-0.3C832.2,589.3,832.4,589.4,832.5,589.5L832.5,589.5z
		 M1037.4,590.1c-0.1,0.2-0.2,0.3-0.3,0.5c-0.1-0.2-0.2-0.3-0.3-0.5l0,0C1037,590.1,1037.2,590.1,1037.4,590.1L1037.4,590.1z
		 M999.2,592.7c0.1-0.2,0.1-0.3,0.2-0.5c0.1,0.1,0.2,0.2,0.2,0.2C999.5,592.5,999.4,592.6,999.2,592.7L999.2,592.7z M999.2,592.7
		c-0.2,0.2-0.4,0.4-0.6,0.6l0,0C998.8,593.1,999,592.9,999.2,592.7L999.2,592.7z M844.6,483.9c0.1-0.2,0.2-0.3,0.3-0.5
		C844.8,483.6,844.7,483.7,844.6,483.9L844.6,483.9z M880.9,466.1c0.1-0.2,0.2-0.3,0.3-0.5c0.1,0.2,0.2,0.3,0.3,0.5l0,0
		C881.3,466.1,881.1,466.1,880.9,466.1L880.9,466.1z M940.7,603.5c0.1-0.1,0.1-0.3,0.2-0.4c0.1,0.1,0.3,0.3,0.4,0.4l0,0
		C941.1,603.5,940.9,603.5,940.7,603.5L940.7,603.5z M926.7,614.3l0.5,0.3C927,614.5,926.8,614.4,926.7,614.3L926.7,614.3z
		 M873.2,478.2c0.2,0,0.4,0,0.7,0c-0.1,0.2-0.3,0.3-0.4,0.4C873.4,478.4,873.3,478.3,873.2,478.2 M871.3,513.8c0,0.2,0,0.4,0,0.7
		c-0.1-0.1-0.3-0.3-0.4-0.4C871.1,513.9,871.2,513.9,871.3,513.8 M989.3,499c-0.1-0.1-0.2-0.1-0.2-0.2c0-0.1,0.1-0.2,0.2-0.2
		c0.1,0,0.1,0.1,0.2,0.2C989.5,498.9,989.4,499,989.3,499"/>
	<g>
		<path class="st0" d="M1219.5,520.3c0.7-2.1,1.8-4,3.2-5.6c1.4-1.6,3.1-2.8,5.1-3.7c2-0.9,4.3-1.3,6.9-1.3s4.9,0.4,6.9,1.3
			c2,0.9,3.7,2.1,5.1,3.7c1.4,1.6,2.4,3.4,3.2,5.6c0.7,2.1,1.1,4.5,1.1,7v0.7c0,2.5-0.4,4.9-1.1,7c-0.7,2.1-1.8,4-3.2,5.6
			c-1.4,1.6-3.1,2.8-5.1,3.7c-2,0.9-4.3,1.3-6.9,1.3c-2.6,0-4.9-0.4-7-1.3c-2-0.9-3.7-2.1-5.1-3.7c-1.4-1.6-2.5-3.4-3.2-5.6
			s-1.1-4.5-1.1-7v-0.7C1218.4,524.7,1218.8,522.4,1219.5,520.3z M1227.7,532c0.3,1.3,0.7,2.4,1.3,3.3c0.6,1,1.4,1.7,2.3,2.3
			c0.9,0.6,2.1,0.8,3.4,0.8c1.3,0,2.4-0.3,3.4-0.8c0.9-0.6,1.7-1.3,2.3-2.3c0.6-0.9,1-2,1.3-3.3c0.3-1.3,0.4-2.6,0.4-4.1v-0.7
			c0-1.4-0.1-2.7-0.4-4s-0.7-2.4-1.3-3.3c-0.6-1-1.4-1.7-2.3-2.3c-0.9-0.6-2.1-0.8-3.4-0.8c-1.3,0-2.5,0.3-3.4,0.8
			c-0.9,0.6-1.7,1.3-2.3,2.3s-1,2.1-1.3,3.3s-0.4,2.6-0.4,4v0.7C1227.3,529.4,1227.5,530.7,1227.7,532z"/>
		<path class="st0" d="M1267.5,516.8h-9.1v-6.6h9.1v-1.9c0-2.3,0.4-4.3,1.1-6s1.8-3.2,3.1-4.4c1.3-1.2,3-2.1,4.9-2.7
			s4.1-0.9,6.4-0.9c0.7,0,1.5,0,2.2,0.1c0.7,0.1,1.4,0.1,2,0.2c0.7,0.1,1.3,0.2,2,0.3c0.7,0.1,1.4,0.2,2.1,0.4l-0.6,7
			c-0.8-0.2-1.7-0.3-2.7-0.4c-1-0.1-2.2-0.2-3.6-0.2c-1.5,0-2.8,0.2-3.8,0.5c-1,0.3-1.9,0.8-2.5,1.5c-0.6,0.6-1,1.2-1.2,2
			c-0.3,0.8-0.4,1.7-0.4,2.7v1.9h12.5v6.6h-12.5v28h-8.9V516.8z"/>
		<path class="st0" d="M1337.6,510.3h8.2l0.3,3.4c0.5-0.6,1-1.1,1.5-1.5c0.6-0.5,1.2-0.9,1.8-1.2c0.8-0.4,1.6-0.7,2.5-0.9
			c0.9-0.2,1.9-0.3,3-0.3c2.2,0,4.1,0.4,5.8,1.3s3.1,2,4.3,3.6c1.2,1.6,2,3.4,2.6,5.6c0.6,2.2,0.9,4.6,0.9,7.2v0.7
			c0,2.5-0.3,4.8-0.9,7c-0.6,2.2-1.4,4-2.6,5.6c-1.2,1.6-2.6,2.8-4.3,3.7c-1.7,0.9-3.6,1.3-5.8,1.3c-1.2,0-2.2-0.1-3.2-0.4
			c-1-0.2-1.9-0.6-2.7-1.1c-0.5-0.3-1-0.6-1.4-1s-0.9-0.8-1.3-1.2v16.3h-8.9V510.3z M1359.3,523.2c-0.3-1.3-0.7-2.4-1.2-3.3
			c-0.6-0.9-1.3-1.6-2.2-2.2c-0.9-0.5-1.9-0.8-3.2-0.8c-0.7,0-1.4,0.1-2,0.2s-1.1,0.3-1.6,0.6c-0.6,0.3-1,0.7-1.4,1.1
			c-0.4,0.4-0.8,1-1.1,1.6v14.4c0.3,0.6,0.6,1.1,1,1.5c0.4,0.4,0.8,0.8,1.4,1.2c0.5,0.3,1.1,0.5,1.7,0.7s1.4,0.2,2.1,0.2
			c1.3,0,2.3-0.3,3.2-0.8s1.6-1.3,2.2-2.3c0.6-1,1-2.1,1.2-3.3c0.3-1.3,0.4-2.6,0.4-4v-0.7C1359.6,525.8,1359.5,524.4,1359.3,523.2z
			"/>
		<path class="st0" d="M1397.9,495.8v41.9h9.9v7.2h-29.2v-7.2h10.4V503h-10.4v-7.3H1397.9z"/>
		<path class="st0" d="M1437.1,543.4c-0.1-0.6-0.3-1.1-0.4-1.8c-0.5,0.5-1.1,1-1.7,1.5c-0.6,0.5-1.3,0.9-2.1,1.2
			c-0.8,0.4-1.7,0.6-2.6,0.8c-0.9,0.2-1.9,0.3-3,0.3c-1.8,0-3.4-0.3-4.9-0.8c-1.5-0.5-2.8-1.2-3.8-2.1c-1.1-0.9-1.9-2-2.5-3.3
			s-0.9-2.6-0.9-4.1c0-1.9,0.4-3.6,1.1-5.1c0.7-1.5,1.9-2.7,3.4-3.7c1.3-0.9,3-1.5,5-2c2-0.5,4.2-0.7,6.8-0.7h5v-2
			c0-0.8-0.1-1.5-0.4-2.2c-0.3-0.6-0.6-1.2-1.2-1.7c-0.5-0.5-1.2-0.9-2-1.1c-0.8-0.3-1.7-0.4-2.8-0.4c-0.9,0-1.7,0.1-2.4,0.3
			s-1.2,0.5-1.7,0.9c-0.4,0.4-0.7,0.8-0.9,1.3c-0.2,0.5-0.3,1.1-0.3,1.7h-8.9c0-1.5,0.3-2.9,1-4.2s1.6-2.5,2.9-3.5
			c1.2-1,2.7-1.8,4.5-2.4c1.8-0.6,3.9-0.9,6.2-0.9c2.1,0,4,0.3,5.8,0.8s3.4,1.3,4.7,2.3c1.3,1,2.4,2.3,3.1,3.8
			c0.7,1.5,1.1,3.3,1.1,5.3v14.8c0,1.9,0.1,3.4,0.4,4.6c0.2,1.2,0.6,2.3,1,3.1v0.5h-9C1437.4,544.4,1437.2,544,1437.1,543.4z
			 M1431.7,538.3c0.8-0.2,1.5-0.5,2.1-0.8c0.6-0.3,1.2-0.7,1.6-1.2c0.4-0.4,0.8-0.9,1.1-1.3V529h-4.5c-1.4,0-2.6,0.1-3.5,0.4
			c-1,0.3-1.8,0.6-2.4,1.1c-0.6,0.5-1.1,1.1-1.4,1.7c-0.3,0.7-0.4,1.4-0.4,2.2c0,0.6,0.1,1.2,0.3,1.7c0.2,0.5,0.6,1,1,1.3
			c0.4,0.3,0.9,0.6,1.6,0.8c0.6,0.2,1.4,0.3,2.2,0.3C1430.1,538.6,1430.9,538.5,1431.7,538.3z"/>
		<path class="st0" d="M1477.2,534c-0.2-0.4-0.7-0.8-1.3-1.2c-0.6-0.3-1.5-0.7-2.5-1c-1-0.3-2.4-0.6-4-0.9c-2-0.4-3.9-0.9-5.5-1.5
			c-1.7-0.6-3.1-1.3-4.3-2.2c-1.2-0.9-2.1-1.8-2.8-3c-0.7-1.1-1-2.4-1-3.9c0-1.4,0.3-2.8,1-4.1s1.7-2.4,2.9-3.4
			c1.3-1,2.8-1.8,4.7-2.3c1.8-0.6,3.9-0.9,6.2-0.9c2.4,0,4.6,0.3,6.5,0.8c1.9,0.6,3.5,1.3,4.9,2.3c1.3,1,2.3,2.2,3,3.5
			c0.7,1.4,1.1,2.8,1.1,4.4h-8.9c0-0.6-0.1-1.1-0.3-1.6s-0.5-1-0.9-1.4c-0.5-0.5-1.3-1-2.2-1.3s-2-0.5-3.3-0.5c-1.1,0-2,0.1-2.8,0.3
			c-0.8,0.2-1.5,0.5-2,0.9c-0.5,0.3-0.8,0.7-1.1,1.2c-0.3,0.5-0.4,0.9-0.4,1.5c0,0.5,0.1,1,0.3,1.4c0.2,0.4,0.6,0.8,1.2,1.2
			c0.5,0.4,1.3,0.7,2.2,1c0.9,0.3,2.1,0.5,3.6,0.8c2.1,0.3,4,0.8,5.8,1.3c1.8,0.5,3.3,1.2,4.6,2c1.3,0.9,2.3,1.9,3.1,3.1
			c0.7,1.2,1.1,2.6,1.1,4.3c0,1.5-0.4,2.9-1.1,4.2c-0.7,1.3-1.8,2.4-3.1,3.3c-1.4,0.9-3,1.7-4.9,2.2s-4.1,0.8-6.4,0.8
			c-2.6,0-4.9-0.3-6.9-1c-2-0.7-3.7-1.6-5-2.7c-1.3-1.1-2.4-2.3-3-3.7c-0.7-1.4-1-2.8-1-4.2h8.5c0.1,0.9,0.3,1.7,0.8,2.4
			c0.4,0.7,1,1.2,1.7,1.6c0.7,0.4,1.5,0.7,2.4,0.9c0.9,0.2,1.8,0.3,2.8,0.3c1.2,0,2.2-0.1,3-0.3c0.9-0.2,1.6-0.5,2.1-0.8
			c0.5-0.3,0.9-0.7,1.2-1.2c0.3-0.4,0.4-0.9,0.4-1.5C1477.6,534.8,1477.5,534.4,1477.2,534z"/>
		<path class="st0" d="M1510.9,510.3h12.9v6.6h-12.9v14.9c0,1.3,0.1,2.3,0.4,3.1c0.3,0.8,0.7,1.5,1.2,2c0.5,0.5,1.2,0.9,1.9,1.1
			c0.8,0.2,1.6,0.3,2.5,0.3c0.7,0,1.4,0,2.1-0.1c0.7-0.1,1.4-0.1,2.1-0.3c0.6-0.1,1.2-0.2,1.8-0.3c0.6-0.1,1.1-0.2,1.5-0.3l0.9,6.1
			c-0.6,0.4-1.3,0.7-2.2,0.9c-0.8,0.3-1.7,0.5-2.7,0.7c-0.9,0.2-1.9,0.3-2.9,0.4c-1,0.1-2,0.1-3,0.1c-1.9,0-3.6-0.3-5.2-0.8
			c-1.6-0.5-2.9-1.3-4-2.3c-1.1-1-2-2.4-2.6-4c-0.6-1.6-0.9-3.6-0.9-5.9v-15.7h-7.9v-6.6h7.9v-8.5h8.9V510.3z"/>
		<path class="st0" d="M1555,510.3v27.4h9.4v7.2h-28.2v-7.2h9.8v-20.1h-9.8v-7.3H1555z M1545.8,499.5c0.2-0.6,0.6-1.1,1-1.5
			c0.4-0.4,1-0.7,1.6-1s1.3-0.4,2.1-0.4c1.6,0,2.8,0.4,3.8,1.3c0.9,0.9,1.4,2,1.4,3.4c0,1.4-0.5,2.5-1.4,3.4
			c-0.9,0.9-2.2,1.3-3.8,1.3c-0.8,0-1.5-0.1-2.1-0.4c-0.6-0.2-1.2-0.6-1.6-1c-0.4-0.4-0.8-0.9-1-1.5c-0.3-0.6-0.4-1.2-0.4-1.9
			C1545.4,500.8,1545.5,500.1,1545.8,499.5z"/>
		<path class="st0" d="M1590.9,538c0.8-0.3,1.5-0.6,2.1-1.1c0.6-0.5,1.1-1,1.4-1.7c0.3-0.7,0.5-1.4,0.4-2.2h8.4c0,1.8-0.3,3.5-1.1,5
			c-0.8,1.5-1.8,2.9-3.2,4c-1.3,1.1-2.9,2-4.7,2.6c-1.8,0.6-3.7,0.9-5.6,0.9c-2.7,0-5-0.5-7.1-1.4c-2-0.9-3.7-2.1-5-3.7
			c-1.4-1.6-2.4-3.4-3.1-5.5c-0.7-2.1-1-4.4-1-6.8v-1c0-2.4,0.3-4.7,1-6.8c0.7-2.1,1.7-4,3.1-5.5s3.1-2.8,5.1-3.7
			c2-0.9,4.4-1.4,7-1.4c2.1,0,4.1,0.3,5.9,1c1.8,0.6,3.4,1.5,4.7,2.7c1.3,1.2,2.3,2.6,3,4.2s1.1,3.5,1,5.5h-8.4
			c0-0.9-0.1-1.7-0.4-2.4c-0.3-0.8-0.7-1.4-1.3-2c-0.6-0.6-1.3-1-2.1-1.3c-0.8-0.3-1.7-0.5-2.7-0.5c-1.4,0-2.6,0.3-3.5,0.9
			s-1.6,1.3-2.2,2.3c-0.6,1-0.9,2.1-1.2,3.3c-0.2,1.2-0.3,2.5-0.3,3.8v1c0,1.3,0.1,2.6,0.3,3.9c0.2,1.2,0.6,2.3,1.2,3.3
			c0.5,1,1.3,1.7,2.2,2.3c0.9,0.6,2.1,0.9,3.5,0.9C1589.3,538.4,1590.1,538.3,1590.9,538z"/>
		<path class="st0" d="M1634.3,534c-0.2-0.4-0.7-0.8-1.3-1.2c-0.6-0.3-1.5-0.7-2.5-1c-1-0.3-2.4-0.6-4-0.9c-2-0.4-3.9-0.9-5.5-1.5
			c-1.7-0.6-3.1-1.3-4.3-2.2c-1.2-0.9-2.1-1.8-2.8-3c-0.7-1.1-1-2.4-1-3.9c0-1.4,0.3-2.8,1-4.1c0.7-1.3,1.7-2.4,2.9-3.4
			c1.3-1,2.8-1.8,4.7-2.3c1.8-0.6,3.9-0.9,6.2-0.9c2.4,0,4.6,0.3,6.5,0.8c1.9,0.6,3.5,1.3,4.9,2.3c1.3,1,2.3,2.2,3,3.5
			c0.7,1.4,1.1,2.8,1.1,4.4h-8.9c0-0.6-0.1-1.1-0.3-1.6c-0.2-0.5-0.5-1-0.9-1.4c-0.5-0.5-1.3-1-2.2-1.3s-2-0.5-3.3-0.5
			c-1.1,0-2,0.1-2.8,0.3c-0.8,0.2-1.5,0.5-2,0.9c-0.5,0.3-0.8,0.7-1.1,1.2c-0.3,0.5-0.4,0.9-0.4,1.5c0,0.5,0.1,1,0.3,1.4
			c0.2,0.4,0.6,0.8,1.2,1.2c0.5,0.4,1.3,0.7,2.2,1c0.9,0.3,2.1,0.5,3.6,0.8c2.1,0.3,4,0.8,5.8,1.3c1.8,0.5,3.3,1.2,4.6,2
			c1.3,0.9,2.3,1.9,3.1,3.1c0.7,1.2,1.1,2.6,1.1,4.3c0,1.5-0.4,2.9-1.1,4.2c-0.7,1.3-1.8,2.4-3.1,3.3c-1.4,0.9-3,1.7-4.9,2.2
			s-4.1,0.8-6.4,0.8c-2.6,0-4.9-0.3-6.9-1c-2-0.7-3.7-1.6-5-2.7c-1.3-1.1-2.4-2.3-3-3.7c-0.7-1.4-1-2.8-1-4.2h8.5
			c0.1,0.9,0.3,1.7,0.8,2.4c0.4,0.7,1,1.2,1.7,1.6c0.7,0.4,1.5,0.7,2.4,0.9c0.9,0.2,1.8,0.3,2.8,0.3c1.2,0,2.2-0.1,3-0.3
			c0.9-0.2,1.6-0.5,2.1-0.8c0.5-0.3,0.9-0.7,1.2-1.2c0.3-0.4,0.4-0.9,0.4-1.5C1634.7,534.8,1634.6,534.4,1634.3,534z"/>
		<path class="st0" d="M1662.3,535.6c1.1-1.1,2.6-1.7,4.5-1.7c1.9,0,3.4,0.6,4.5,1.7c1.1,1.1,1.6,2.5,1.6,4.2s-0.6,3-1.7,4.1
			c-1.1,1.1-2.6,1.6-4.5,1.6c-1.9,0-3.4-0.6-4.5-1.7c-1.1-1.1-1.7-2.5-1.7-4.1S1661.2,536.7,1662.3,535.6z"/>
	</g>
</g>
</svg>
