<?xml version="1.0" encoding="utf-8"?>
<!-- Generator: Adobe Illustrator 28.0.0, SVG Export Plug-In . SVG Version: 6.00 Build 0)  -->
<svg version="1.1" id="Layer_1" xmlns="http://www.w3.org/2000/svg" xmlns:xlink="http://www.w3.org/1999/xlink" x="0px" y="0px"
	 viewBox="0 0 1425.6 165.8" style="enable-background:new 0 0 1425.6 165.8;" xml:space="preserve">
<style type="text/css">
	.st0{fill:#FFFFFF;}
</style>
<g>
	<g>
		<path class="st0" d="M0,41.5h8.2l3.1,26l0.2,1.8l0.3-1.9l3.7-25.9h6.4l3.9,26.1l0.3,1.9l0.2-1.9l3.2-26.1h8.2L31.2,88h-8.1
			L19,62.9l-0.4-2.4l-0.4,2.4L14.3,88H6.2L0,41.5z"/>
		<path class="st0" d="M52.5,87.4c-2.2-0.9-4-2.1-5.6-3.6s-2.8-3.3-3.6-5.3c-0.8-2-1.3-4.2-1.3-6.5v-1.3c0-2.6,0.4-5.1,1.2-7.2
			c0.8-2.2,2-4.1,3.5-5.6c1.5-1.6,3.3-2.8,5.3-3.7c2-0.9,4.3-1.3,6.7-1.3c2.5,0,4.7,0.4,6.7,1.2c1.9,0.8,3.6,2,5,3.5
			c1.3,1.5,2.4,3.3,3.1,5.4s1.1,4.4,1.1,7v3.8H51.1v0.1c0.3,1.4,0.7,2.5,1.2,3.3s1.1,1.6,1.9,2.3s1.7,1.2,2.8,1.6
			c1,0.4,2.2,0.6,3.4,0.6c1.7,0,3.4-0.3,5.1-1c1.6-0.7,3-1.7,4-3l4.4,4.8c-1.1,1.6-2.9,3-5.4,4.3s-5.3,1.9-8.7,1.9
			C57.1,88.7,54.7,88.3,52.5,87.4z M55.9,60.6c-0.8,0.4-1.6,0.9-2.2,1.5c-0.6,0.7-1.2,1.4-1.6,2.4c-0.4,0.9-0.7,1.9-1,3.1h14.6v-0.7
			c0-0.9-0.2-1.8-0.5-2.7s-0.8-1.6-1.4-2.2c-0.6-0.6-1.3-1.1-2.2-1.4c-0.9-0.4-1.9-0.5-3-0.5C57.7,60,56.8,60.2,55.9,60.6z"/>
		<path class="st0" d="M121.6,53.5h8.2l0.3,3.4c0.5-0.6,1-1.1,1.5-1.5c0.6-0.5,1.2-0.9,1.8-1.2c0.8-0.4,1.6-0.7,2.5-0.9
			c0.9-0.2,1.9-0.3,3-0.3c2.2,0,4.1,0.4,5.8,1.3c1.7,0.8,3.1,2,4.3,3.6c1.2,1.6,2,3.4,2.6,5.6c0.6,2.2,0.9,4.6,0.9,7.2v0.7
			c0,2.5-0.3,4.8-0.9,7s-1.4,4-2.6,5.6s-2.6,2.8-4.3,3.7c-1.7,0.9-3.6,1.3-5.8,1.3c-1.2,0-2.2-0.1-3.2-0.4s-1.9-0.6-2.7-1.1
			c-0.5-0.3-1-0.6-1.4-1s-0.9-0.8-1.3-1.2v16.3h-8.9V53.5H121.6z M143.3,66.4c-0.3-1.3-0.7-2.4-1.2-3.3c-0.6-0.9-1.3-1.6-2.2-2.2
			c-0.9-0.5-2-0.8-3.2-0.8c-0.7,0-1.4,0.1-2,0.2s-1.1,0.3-1.6,0.6c-0.6,0.3-1,0.7-1.5,1.1c-0.4,0.4-0.8,1-1.1,1.6V78
			c0.3,0.6,0.6,1.1,1,1.5s0.8,0.8,1.4,1.2c0.5,0.3,1.1,0.5,1.7,0.7s1.4,0.2,2.1,0.2c1.3,0,2.3-0.3,3.2-0.8c0.9-0.6,1.6-1.3,2.2-2.3
			s1-2.1,1.2-3.3c0.3-1.3,0.4-2.6,0.4-4v-0.7C143.7,69,143.6,67.6,143.3,66.4z"/>
		<path class="st0" d="M189.3,53.1c1.1,0.2,2.1,0.4,2.8,0.6l-1.3,8.9c-1.2-0.3-2.4-0.5-3.6-0.6s-2.4-0.2-3.5-0.2
			c-1.2,0-2.2,0.1-3.1,0.3s-1.8,0.5-2.5,0.9c-0.9,0.5-1.6,1.1-2.2,1.8s-1.1,1.6-1.5,2.6v20.8h-8.9V53.6h8.3l0.4,4.9l0.1,0.8
			c1.4-2,3.1-3.5,5-4.6c2-1.1,4.1-1.7,6.4-1.7C187,52.9,188.2,52.9,189.3,53.1z"/>
		<path class="st0" d="M199.9,63.5c0.7-2.1,1.8-4,3.2-5.6c1.4-1.6,3.1-2.8,5.1-3.7c2-0.9,4.3-1.3,6.9-1.3s4.9,0.4,6.9,1.3
			s3.7,2.1,5.1,3.7c1.4,1.6,2.4,3.4,3.2,5.6c0.7,2.1,1.1,4.5,1.1,7v0.7c0,2.5-0.4,4.9-1.1,7s-1.8,4-3.2,5.6
			c-1.4,1.6-3.1,2.8-5.1,3.7s-4.3,1.3-6.9,1.3s-4.9-0.4-7-1.3c-2-0.9-3.7-2.1-5.1-3.7c-1.4-1.6-2.5-3.4-3.2-5.6
			c-0.7-2.1-1.1-4.5-1.1-7v-0.7C198.9,67.9,199.2,65.6,199.9,63.5z M208.2,75.2c0.3,1.3,0.7,2.4,1.3,3.3c0.6,1,1.4,1.7,2.3,2.3
			s2.1,0.8,3.4,0.8s2.4-0.3,3.4-0.8s1.7-1.3,2.3-2.3c0.6-0.9,1-2,1.3-3.3s0.4-2.6,0.4-4.1v-0.7c0-1.4-0.1-2.7-0.4-4
			s-0.7-2.4-1.3-3.3c-0.6-1-1.4-1.7-2.3-2.3s-2.1-0.8-3.4-0.8s-2.5,0.3-3.4,0.8c-0.9,0.6-1.7,1.3-2.3,2.3s-1,2.1-1.3,3.3
			s-0.4,2.6-0.4,4v0.7C207.7,72.6,207.9,73.9,208.2,75.2z"/>
		<path class="st0" d="M237.1,53.5h9.3l7.6,24.4l0.5,2.4l0.5-2.4l7.6-24.4h9.3l-13.2,34.6h-8.3L237.1,53.5z"/>
		<path class="st0" d="M278.5,63.5c0.7-2.1,1.8-4,3.2-5.6s3.1-2.8,5.1-3.7c2-0.9,4.3-1.3,6.9-1.3c2.6,0,4.9,0.4,6.9,1.3
			s3.7,2.1,5.1,3.7c1.4,1.6,2.4,3.4,3.2,5.6c0.7,2.1,1.1,4.5,1.1,7v0.7c0,2.5-0.4,4.9-1.1,7c-0.7,2.1-1.8,4-3.2,5.6
			s-3.1,2.8-5.1,3.7s-4.3,1.3-6.9,1.3c-2.6,0-4.9-0.4-7-1.3c-2-0.9-3.7-2.1-5.1-3.7c-1.4-1.6-2.5-3.4-3.2-5.6s-1.1-4.5-1.1-7v-0.7
			C277.4,67.9,277.8,65.6,278.5,63.5z M286.7,75.2c0.3,1.3,0.7,2.4,1.3,3.3c0.6,1,1.4,1.7,2.3,2.3c0.9,0.6,2.1,0.8,3.4,0.8
			c1.3,0,2.4-0.3,3.4-0.8s1.7-1.3,2.3-2.3c0.6-0.9,1-2,1.3-3.3s0.4-2.6,0.4-4.1v-0.7c0-1.4-0.1-2.7-0.4-4s-0.7-2.4-1.3-3.3
			c-0.6-1-1.4-1.7-2.3-2.3c-0.9-0.6-2.1-0.8-3.4-0.8c-1.3,0-2.5,0.3-3.4,0.8c-0.9,0.6-1.7,1.3-2.3,2.3s-1,2.1-1.3,3.3
			s-0.4,2.6-0.4,4v0.7C286.3,72.6,286.4,73.9,286.7,75.2z"/>
		<path class="st0" d="M326.9,77.5V88H318V38.9h8.9V67l2.7-3.1l9.6-10.5h10.7l-13,14.4L351.8,88h-11.1l-9.8-14.3L326.9,77.5z"/>
		<path class="st0" d="M366.7,87.4c-2.2-0.9-4-2.1-5.6-3.6s-2.8-3.3-3.6-5.3s-1.3-4.2-1.3-6.5v-1.3c0-2.6,0.4-5.1,1.2-7.2
			c0.8-2.2,2-4.1,3.5-5.6c1.5-1.6,3.3-2.8,5.3-3.7c2-0.9,4.3-1.3,6.7-1.3c2.5,0,4.7,0.4,6.7,1.2c1.9,0.8,3.6,2,5,3.5
			c1.3,1.5,2.4,3.3,3.1,5.4c0.7,2.1,1.1,4.4,1.1,7v3.8h-23.5v0.1c0.3,1.4,0.7,2.5,1.2,3.3s1.1,1.6,1.9,2.3c0.8,0.7,1.7,1.2,2.8,1.6
			c1,0.4,2.2,0.6,3.4,0.6c1.7,0,3.4-0.3,5.1-1s3-1.7,4-3l4.4,4.8c-1.1,1.6-2.9,3-5.4,4.3s-5.3,1.9-8.7,1.9
			C371.3,88.7,368.9,88.3,366.7,87.4z M370.1,60.6c-0.8,0.4-1.6,0.9-2.2,1.5c-0.6,0.7-1.2,1.4-1.6,2.4c-0.4,0.9-0.7,1.9-1,3.1h14.6
			v-0.7c0-0.9-0.2-1.8-0.5-2.7s-0.8-1.6-1.4-2.2c-0.6-0.6-1.3-1.1-2.2-1.4s-1.9-0.5-3-0.5C371.9,60,371,60.2,370.1,60.6z"/>
		<path class="st0" d="M452,53.5h12.9v6.6H452V75c0,1.3,0.1,2.3,0.4,3.1c0.3,0.8,0.7,1.5,1.2,2s1.2,0.9,1.9,1.1
			c0.8,0.2,1.6,0.3,2.5,0.3c0.7,0,1.4,0,2.1-0.1c0.7-0.1,1.4-0.1,2.1-0.3c0.6-0.1,1.2-0.2,1.8-0.3s1-0.2,1.5-0.3l0.9,6.1
			c-0.6,0.4-1.3,0.7-2.2,0.9c-0.8,0.3-1.7,0.5-2.7,0.7c-0.9,0.2-1.9,0.3-2.9,0.4c-1,0.1-2,0.1-3,0.1c-1.9,0-3.6-0.3-5.2-0.8
			c-1.5-0.5-2.9-1.3-3.9-2.3c-1.1-1-2-2.4-2.6-4S443,78,443,75.7V60h-7.9v-6.6h7.9v-8.5h8.9v8.6H452z"/>
		<path class="st0" d="M485.4,56.4c0.5-0.6,1.1-1.1,1.7-1.5c0.9-0.7,1.9-1.2,3-1.5c1.1-0.4,2.3-0.5,3.5-0.5c1.8,0,3.5,0.3,5,0.8
			s2.8,1.4,3.9,2.5c1.1,1.2,1.9,2.6,2.5,4.4c0.6,1.8,0.9,4,0.9,6.5V88H497V67c0-1.2-0.2-2.3-0.5-3.2s-0.8-1.6-1.3-2.2
			s-1.3-1-2.1-1.2c-0.8-0.3-1.7-0.4-2.7-0.4c-0.8,0-1.5,0.1-2.2,0.2c-0.7,0.1-1.3,0.4-1.9,0.7c-0.5,0.3-1,0.6-1.4,0.9
			c-0.4,0.4-0.8,0.8-1.1,1.2v25h-8.9V38.9h8.9v19.3C484.3,57.6,484.8,57,485.4,56.4z"/>
		<path class="st0" d="M523.8,87.4c-2.2-0.9-4-2.1-5.6-3.6s-2.8-3.3-3.6-5.3s-1.3-4.2-1.3-6.5v-1.3c0-2.6,0.4-5.1,1.2-7.2
			c0.8-2.2,2-4.1,3.5-5.6c1.5-1.6,3.3-2.8,5.3-3.7c2-0.9,4.3-1.3,6.7-1.3c2.5,0,4.7,0.4,6.7,1.2c1.9,0.8,3.6,2,5,3.5
			c1.3,1.5,2.4,3.3,3.1,5.4s1.1,4.4,1.1,7v3.8h-23.5v0.1c0.3,1.4,0.7,2.5,1.2,3.3s1.1,1.6,1.9,2.3c0.8,0.7,1.7,1.2,2.8,1.6
			s2.2,0.6,3.4,0.6c1.7,0,3.4-0.3,5.1-1c1.6-0.7,3-1.7,4-3l4.4,4.8c-1.1,1.6-2.9,3-5.4,4.3s-5.3,1.9-8.7,1.9
			C528.4,88.7,526,88.3,523.8,87.4z M527.3,60.6c-0.8,0.4-1.6,0.9-2.2,1.5c-0.6,0.7-1.2,1.4-1.6,2.4c-0.4,0.9-0.7,1.9-1,3.1h14.6
			v-0.7c0-0.9-0.2-1.8-0.5-2.7s-0.8-1.6-1.4-2.2c-0.6-0.6-1.3-1.1-2.2-1.4s-1.9-0.5-3-0.5C529,60,528.1,60.2,527.3,60.6z"/>
	</g>
	<path class="st0" d="M604,25l0.1-0.2h-0.2L604,25z M605.4,23.6c-0.1-0.1-0.1-0.1-0.2-0.2c-0.1,0.1-0.2,0.1-0.2,0.2s0.1,0.2,0.1,0.2
		C605.3,23.7,605.4,23.6,605.4,23.6 M668.7,8.9l0.2,0.1V8.8L668.7,8.9z M585.5,141c0,0.2,0,0.3,0,0.4c0.1-0.1,0.1-0.1,0.2-0.2
		C585.7,141.2,585.6,141.2,585.5,141 M589.5,138.1l-0.2-0.1v0.2L589.5,138.1z M602.6,26.7l0.2,0.1v-0.2L602.6,26.7z M642.2,9.7
		l0.1-0.2h-0.2L642.2,9.7z M663.2,9.4l-0.1,0.2h0.2L663.2,9.4z M606.4,26.7l0.2,0.1v-0.2L606.4,26.7z M640.9,10.1l-0.1,0.2h0.2
		L640.9,10.1z M589.9,131.7l0.2,0.1v-0.2L589.9,131.7z M589.5,129.8l-0.2-0.1v0.2L589.5,129.8z M592.5,126.1l0.1-0.2h-0.2
		L592.5,126.1z M665.1,10.7l-0.1,0.2h0.2L665.1,10.7z M596.2,121.5l0.2,0.1v-0.2L596.2,121.5z M597.7,112.5l-0.1,0.2h0.2
		L597.7,112.5z M618.5,22.9l0.2,0.1v-0.2L618.5,22.9z M605.3,101l-0.1,0.2h0.2L605.3,101z M604,99.1l-0.1,0.2h0.2L604,99.1z
		 M606.4,96.1l0.2,0.1V96L606.4,96.1z M601.3,94.2l0.2,0.1v-0.2L601.3,94.2z M607.2,90.2l-0.1,0.2h0.2L607.2,90.2z M595.8,88.3
		l-0.1,0.2h0.2L595.8,88.3z M598.9,88l0.1-0.2h-0.2L598.9,88z M589.4,87.7l-0.1,0.2h0.2L589.4,87.7z M597.8,29.3
		c-0.1-0.1-0.1-0.2-0.2-0.2c-0.1,0-0.1,0.1-0.2,0.1c0.1,0.1,0.1,0.1,0.2,0.2C597.7,29.5,597.8,29.4,597.8,29.3 M592.1,87.2l-0.2-0.1
		v0.2L592.1,87.2z M614.8,22.8l-0.1,0.2h0.2L614.8,22.8z M629.6,15.3l-0.2-0.1v0.2L629.6,15.3z M600.2,81l0.1-0.2h-0.2L600.2,81z
		 M665.6,29.9l0.2,0.1v-0.2L665.6,29.9z M598.4,78.3l-0.2-0.1v0.2L598.4,78.3z M602.1,75.9c0.1,0,0.1-0.1,0.2-0.1
		c-0.1-0.1-0.1-0.2-0.2-0.2c-0.1,0-0.2,0.1-0.2,0.1C601.9,75.8,602,75.8,602.1,75.9 M623.9,16.6l-0.2-0.1v0.2L623.9,16.6z
		 M597.2,30.6c-0.1-0.1-0.1-0.1-0.2-0.2c0,0.1,0,0.2,0,0.3C597.1,30.7,597.2,30.6,597.2,30.6 M667.2,30.6l-0.2-0.1v0.2L667.2,30.6z
		 M625.2,67.5c-0.1-0.1-0.1-0.2-0.2-0.2c-0.1,0-0.1,0.1-0.2,0.1c0.1,0.1,0.1,0.2,0.2,0.2C625,67.6,625.1,67.5,625.2,67.5
		 M614.3,65.6l-0.2-0.1v0.2L614.3,65.6z M621,19.7l0.2,0.1v-0.2L621,19.7z M628.8,63.5l-0.1,0.2h0.2L628.8,63.5z M626.3,62.3
		l-0.1,0.2h0.2L626.3,62.3z M626.3,59.7l-0.1,0.2h0.2L626.3,59.7z M646.5,50.9l0.2,0.1v-0.2L646.5,50.9z M635.2,50.1l-0.1,0.2h0.2
		L635.2,50.1z M649.8,48.9l-0.1,0.2h0.2L649.8,48.9z M651.1,47.6l-0.1,0.2h0.2L651.1,47.6z M643.3,47.1l0.2,0.1V47L643.3,47.1z
		 M620.6,47c-0.1,0-0.1,0.1-0.2,0.1c0.1,0,0.2,0,0.3,0L620.6,47 M644.1,46l0.1-0.2H644L644.1,46z M619.9,44.8l0.1-0.2h-0.2
		L619.9,44.8z M652.3,43.4l0.1-0.2h-0.2L652.3,43.4z M653,33l-0.1,0.2h0.2L653,33z M662.5,33l-0.1,0.2h0.2L662.5,33z M653.6,40.9
		l0.1-0.2h-0.2L653.6,40.9z M592.7,33.8l-0.2-0.1v0.2L592.7,33.8z M658.9,34.4l-0.2-0.1v0.2L658.9,34.4z M659.5,35.7l-0.2-0.1v0.2
		L659.5,35.7z M589.9,35.7l0.2,0.1v-0.2L589.9,35.7z M657.5,34.3c-0.2,0-0.4-0.1-0.5-0.1c0,0.1,0,0.3,0,0.4c0.2,0,0.4,0,0.5-0.1
		C657.5,34.5,657.5,34.4,657.5,34.3 M621.1,41.4c0.2,0.1,0.4,0.2,0.6,0.2c0.1,0,0.2-0.1,0.2-0.2c-0.1-0.1-0.3-0.3-0.4-0.3
		C621.4,41.2,621.3,41.3,621.1,41.4 M630.3,53.9c-0.1-0.2-0.1-0.4-0.2-0.5c-0.1,0.1-0.2,0.1-0.2,0.2c0,0.2,0,0.4,0.1,0.6
		C630.1,54,630.2,53.9,630.3,53.9 M613.8,58.4c-0.1-0.2-0.1-0.4-0.2-0.5c-0.1,0-0.2,0.1-0.2,0.1c0,0.2,0,0.4,0,0.5
		C613.5,58.5,613.6,58.4,613.8,58.4 M618.9,18.1c0.2-0.1,0.3-0.1,0.5-0.2c-0.1-0.1-0.1-0.2-0.2-0.2c-0.2,0-0.4,0-0.5,0.1
		C618.7,17.9,618.8,18,618.9,18.1 M605.5,88.7c0.2-0.1,0.4-0.1,0.5-0.2c-0.1-0.1-0.1-0.2-0.2-0.2c-0.2,0-0.4,0-0.5,0.1
		C605.3,88.5,605.4,88.6,605.5,88.7 M662.6,14.2c0.1-0.2,0.2-0.4,0.2-0.5s-0.1-0.2-0.1-0.2c-0.1,0.1-0.2,0.2-0.2,0.4
		C662.3,13.9,662.5,14,662.6,14.2 M662.1,11.3c-0.1-0.2-0.2-0.3-0.3-0.5c-0.1,0.1-0.2,0.2-0.2,0.2c0,0.2,0.1,0.4,0.1,0.5
		C661.9,11.4,662,11.3,662.1,11.3 M590.1,136.8c-0.2-0.1-0.4-0.2-0.5-0.2s-0.2,0.1-0.2,0.1c0.1,0.1,0.2,0.3,0.3,0.3
		C589.8,137,589.9,136.9,590.1,136.8 M600.2,83.2c-0.1,0.2-0.3,0.4-0.2,0.5c0.1,0.2,0.4,0.4,0.6,0.5c0.1-0.1,0.3-0.3,0.3-0.3
		C600.7,83.7,600.5,83.5,600.2,83.2 M590.8,134.8c-0.2-0.2-0.4-0.4-0.7-0.6l-0.3,0.3c0.1,0.2,0.3,0.4,0.5,0.6
		C590.4,135.1,590.6,134.9,590.8,134.8 M623.5,69c0.2-0.3,0.4-0.5,0.4-0.6c-0.1-0.3-0.2-0.6-0.3-1c-0.1,0.1-0.2,0.1-0.2,0.2
		C623.5,68,623.5,68.4,623.5,69 M635.6,53.3c-0.4-0.3-0.5-0.5-0.8-0.6c-0.1,0-0.5,0.2-0.5,0.2c0.1,0.3,0.2,0.6,0.4,0.7
		C634.9,53.7,635.2,53.4,635.6,53.3 M615.9,53.3c0.2-0.4,0.4-0.7,0.4-1c0-0.2-0.2-0.5-0.2-0.8c-0.2,0.4-0.5,0.9-0.7,1.3
		C615.4,52.8,615.6,53,615.9,53.3 M589.2,36.7c-0.3-0.3-0.5-0.6-0.7-0.5c-0.2,0-0.4,0.3-0.6,0.4c0.2,0.2,0.3,0.5,0.5,0.5
		S588.8,36.9,589.2,36.7 M661.6,23.3c-0.1-0.1-0.3-0.2-0.4-0.3C661.3,23.1,661.4,23.2,661.6,23.3c0.1,0.3,0.2,0.7,0.3,1.1
		c0.1-0.1,0.2-0.2,0.2-0.2C661.9,23.8,661.7,23.6,661.6,23.3 M643.8,41.7c0.1-0.2,0.2-0.3,0.3-0.5C644,41.4,643.9,41.6,643.8,41.7
		c-0.2,0-0.4,0-0.6,0c0.4-1.9,0.8-3.9,3-4.7c0.3-0.1,0.5-0.4,0.6-0.7c0.3-1.2,1.2-1.6,2.3-1.8c0.8-0.1,1.5-0.8,2.2-1.1
		c0.6-0.2,0.3-0.5,0.3-0.9c0-0.7,0.2-1.5,0.6-2c0.7-0.8,1.9-1.3,2.5-2.3c0.7-1.1,1.2-1.1,2-0.3c0.1,0.1,0.5,0,0.8,0
		c0-0.3,0-0.7-0.1-0.8c-0.7-0.7-1.1-1.3,0-2c0.5-0.3,1-0.8,1.1-1.4c0.5-1.6,3.5-2.3,1.9-4.7c0.2-0.1,0.3-0.3,0.5-0.3
		c0.7-0.2-0.2-1.3,0.9-1.5c0.6-0.1,0-1.5,0.5-2.2c-1.3,0.6-1.6-2.2-3.1-0.9c-2-0.8-4-0.1-6-0.5c-0.2-0.1-0.3-0.2-0.5-0.3
		c0.2,0.1,0.3,0.2,0.5,0.3c-0.2,0.2-0.4,0.6-0.6,0.6c-0.9-0.2-1.6-0.7-2.6,0c-0.2,0.2-0.9-0.3-1.3-0.5c-0.2-0.1-0.3-0.2-0.5-0.3
		c0.2,0.1,0.3,0.2,0.5,0.3c0,0.3,0,0.6-0.1,0.9c-0.8-0.1-1.5,0.1-2,0.8c-1.8-0.9-3.4,0.1-5.1,0.4c-1.5,0.2-2.9,0.4-4,1.6
		c-0.7,0.7-1.5,1-2.7,1.1c-2.2,0.1-4,1.9-6.4,1.8c-1,0-1.5,0.6-2.1,1.1c-0.1-0.2-0.2-0.3-0.3-0.5c-0.1,0.2-0.2,0.3-0.3,0.5
		c-0.3,0.2-0.7,0.5-1,0.7c0.2,0.2,0.6,0.6,0.7,0.5c1.7-0.5,1,1.1,1.3,1.6c0.5,1-1.2,1.6-0.6,3c0.4,1-1.1,3.2-2,4.5
		c-0.1,0.2-0.2,0.4-0.2,0.6c0.1,1.8-1.1,3.5-0.3,5.3c0.2,0.4-0.1,1.1-0.2,1.7c-0.8,3-2,5.9-2.4,9c-0.2,1.3-1.2,2.4-1,3.7
		c0.2,1.5-0.6,2.8-1.1,4.2c-0.5,1.3-0.4,2.7-0.6,4.1c0,0.2-0.1,0.4-0.2,0.6c-0.2,0-0.4,0-0.7,0c-0.2-0.1-0.3-0.2-0.5-0.3
		c0.2,0.1,0.3,0.2,0.5,0.3c-0.1,0.2-0.2,0.4-0.2,0.6c-0.1,0.2-0.1,0.4-0.1,0.5c0.3-0.1,0.7,0,0.8-0.2c0.2-0.2,0.1-0.6,0.2-0.9
		c0.9,0.1,1.6,0,2.3-0.7c1-0.9,2.3-1.7,3.4-2.5c0.2-0.1,0.3-0.2,0.5-0.3c-0.2-0.1-0.3-0.2-0.5-0.3c0.9-1.9,3.4-2.2,4.2-4.2
		c1.3,0.1,2-1.1,2.9-1.6s1.6-1.6,2.7-1.9c1.2-0.3,1.6-1.9,3-1.9c0,0,0.1-0.4,0-0.5c-0.1-0.2-0.4-0.5-0.4-0.6
		c0.3-0.3,0.6-0.5,0.9-0.7c0.2,0.1,0.3,0.2,0.5,0.3c-0.2-0.1-0.3-0.2-0.5-0.3c0.4-0.3,1.1-0.7,1-0.9c-0.4-1.4,0.5-1.6,1.5-2
		c0.8-0.3,1.6-0.9,2.4-1.3c0.2-0.1,0.5,0.2,0.8,0.4c0.1,0.2,0.2,0.3,0.3,0.5C643.5,42,643.7,41.9,643.8,41.7 M603.7,82.5
		c0.2,0.1,0.3,0.2,0.5,0.3C604,82.6,603.9,82.5,603.7,82.5c-0.1-0.1-0.3-0.2-0.4-0.3C603.4,82.2,603.5,82.3,603.7,82.5 M586.5,35.3
		c0.9-0.8,1.8-1.6,2.7-2.4c0.2-0.1,0.4-0.3,0.5-0.4c0.4-1,2.4,0.8,2.3-1.4c0-0.7,1.3-1.5,2-2.2c0.3-0.3,0.7-0.9,0.9-0.8
		c1.1,0.4,1.4-1.3,2.4-0.9l0,0c0,0.3,0.1,0.6,0.1,0.9c0.5-0.3,1.1-0.6,1.6-0.9c-0.9-1.1,0.3-1.3,0.8-1.7c1.3-1.1,2.7-2.1,4.4-2.5
		c1.3-0.4,2.8-0.9,3.4-2.5c0.3-0.7,1-0.6,1.8-0.7c0.9-0.1,1.7-1.4,2.9-1.2c0.6-1.6,2.3-0.6,3-1.2c0.9-0.8,1.7-1.5,2.9-1.6
		c0.1,0,0.2,0,0.3-0.1c0.9-0.6,1.9-0.6,3-0.4c0.4,0.1,1-1.6,1.8-2c1.3-0.6,2.7-0.8,4.1-1.2c0.3-0.1,0.9,0.1,0.9-0.1
		c1-2.3,3.2-2.2,5.2-2.6l0,0c0.1,0.2,0.2,0.3,0.3,0.5c0.1-0.2,0.2-0.3,0.3-0.5l0,0c0.6,0,1.3,0,1.9-0.1c0.1,0,0.3-0.5,0.2-0.6
		c-1.1-1.1-0.5-1.2,0.6-1.2c1.5-0.1,2.9-0.1,4.5-0.9c1.9-1,4.3-1,6.6-1.3c0.2,0,0.6,1.1,1-0.1c0.1-0.4,2.7-1.3,3.2-1.1
		c0.8,0.4,2-1.4,2.5,0.5c0,0,0.3,0,0.5-0.1c0.8-0.4,1.6-0.8,2.3-1.2c0.4,1.6,1.3,0,2,0.3c0.8,0.3,1.8,0.2,2.6,0.4
		c0.6,0.1,1.2,0.5,1.8,0.7c1.1,0.3,2.2,1,3.3,1.5c-0.1,0.2-0.2,0.3-0.3,0.5c0.1-0.2,0.2-0.3,0.3-0.5c2.4,0.6,3.8,2,3.9,4.6
		c0,0.9,0,1.6,1,2c0.9,0.4,0.9,1.4,0.8,2.2c-0.1,0.7,0,1.4,0,2c-0.1,1.2,1.2,2.2,0.3,3.3c-0.6,0.8-0.1,1.9-1,2.6
		c-0.1,0.1,0.1,0.7,0.1,1c-0.3,1.9-0.9,2.2-2.6,1.5c-0.3-0.1-0.7-0.1-1-0.2c0,0.3-0.1,0.6,0,0.9c0.8,3.3,0.8,3.2-2.2,5.7
		c-0.9,0.7-2,1.8-2,2.7c0,1.4-1,1.2-1.6,1.7c0-0.1,0-0.2,0-0.3c-0.1-0.3-0.2-0.5-0.3-0.8c-0.1,0.1-0.2,0.2-0.2,0.2
		c0.2,0.3,0.3,0.6,0.5,0.8c-0.1,0.8,0.3,1.7-0.9,2.1c-1.1,0.4-1.7,1.4-2.3,2.4s-1.1,2.2-2.6,2.2c-0.2,0-0.5,0.3-0.5,0.5
		c-0.6,2.1-2.2,3.1-3.8,4.3c-0.1-0.1-0.3-0.2-0.4-0.3c0.2,0.1,0.3,0.2,0.5,0.3c-0.6,1.1-1.3,2.1-1.9,3.2l0,0
		c-0.1-0.2-0.2-0.3-0.3-0.5c-0.1,0.1-0.2,0.3-0.3,0.4l-0.1,0.1c-0.7-0.2-0.3,1.3-1.5,0.9c-0.9-0.3-0.7,1.5-1.3,2.1
		c-0.4,0.4-0.4,2.6-1.6,0.6c-0.2,0.2-0.5,0.3-0.5,0.5c-0.1,0.9-0.7,1-1.3,0.9c-0.2-0.1-0.3-0.2-0.5-0.3c0.2,0.1,0.3,0.2,0.5,0.3
		c0.2,1.5-1.2,1.6-2,1.9c-1,0.3-1.6,0.6-1.8,1.8c-0.2,1.1-1,1.7-2,2.1c-1.1,0.5-2,1.2-3,1.9l0,0c-0.8,1-1.6,2.1-2.4,3.1
		c-1.6-0.8-2.3,0.7-3.4,1.3c-0.2,0.1-0.4,0.5-0.5,0.7l0,0c-0.6,0.2-2.3-0.7-1.3,1.3c0.1,0.2-0.1,0.6-0.1,0.9l-3.8,1.9
		c-1.2-0.4-0.5,0.4-0.7,0.8c-0.5,0.9-1.4,2.1-2.3,2.2c-1.9,0.3-2.8,2-4.5,2.4l-0.1,0.1c-0.4,0.2-0.8,0.4-1.2,0.7
		c-0.5,0.4-0.9,0.8-1.3,1.2c-0.1-0.1-0.3-0.2-0.4-0.3c0.1,0.1,0.3,0.2,0.4,0.3c-1.4,1.2-1.4,1.2-2,3.5c-0.4,1.4-0.9,2.8-1.4,4.1
		c-0.1,0.3-0.3,0.6-0.3,0.9c-0.1,0.7-0.7,3.5-0.9,4.1c-0.2,0.5-0.5,1-0.5,1.5c0,1.6-0.4,3.1-1.4,4.4c-0.4,0.5-0.4,1.4-0.5,2.1
		c-0.1,0.7,0.1,1.4-0.7,1.9c-0.7,0.4,0.2,0.4,0.4,0.5s1.1,0.4,0.4,0.5c-2,0.4-1.7,2-1.9,3.1c-0.3,1.2-0.5,2.4-1.1,3.5
		c-0.4,0.8-0.6,1.8-0.9,2.6c-0.2,0.8-0.4,1.6-0.7,2.4c-0.3,0.7-1.2,1.9-1,2c1.1,1-1.3,1.1-0.4,1.9c-0.5,0.4-0.9,0.7-1.3,1.1
		c-0.5,0.5-0.4,0.9,0.2,1.2l0,0c0.4,1.8-1.4,3-1.4,4.7c-1.7,0.8-1.1,2.3-1.1,3.6c0,1.1,0,2.1-1.3,2.6c-0.2-0.1-0.3-0.2-0.5-0.3
		c0.2,0.1,0.3,0.2,0.5,0.3c-0.5,1.4-0.9,2.7-1.4,4.1c-0.3,0.9-1.2,1-2.1,1.2c-0.3,0.1-0.5,0.6-0.8,0.8c0.3,0.1,0.6,0.2,0.9,0.3
		c0.4,0.1,0.9,0.1,0.2,0.6c-0.5,0.4-1,1-1.4,1.6c-0.9,1.5-2.3,2-3.8,2.2c-1.9,0.2-3.2-1.3-4.3-2.7c-0.2-0.3-0.1-0.8-0.2-1.2
		c-0.1-1.1,0.4-0.9,1.1-0.5c0.1,0,0.3-0.2,0.5-0.4c-1.5-1.2-0.1-2.1,0.3-3.2c0.3-0.7,0.5-1.4,0.7-2l0,0c0.2,0,0.4,0,0.6,0
		c0.1,0.1,0.3,0.2,0.4,0.3c-0.1-0.1-0.3-0.2-0.4-0.3c0.1-0.9-0.5-1.9,0.6-2.5c0.2,0.1,0.3,0.2,0.5,0.3c-0.2-0.1-0.3-0.2-0.5-0.3
		c0.6-1.6,0.5-3.4,2.1-4.6c0.4-0.3,0.3-1.6,0.1-2.4c-0.4-1.2-0.1-2.1,0.6-3.2c1.3-2,2.4-4.1,3.2-6.3c1-2.8,2.8-5.3,3.1-8.4
		c0.1-1.1,1.2-2.1,1.8-3.1c0.2,0.1,0.3,0.2,0.5,0.3c-0.2-0.1-0.3-0.2-0.5-0.3c0-1.8,0.3-3.3,1.6-4.8c1-1.3,1.3-3.2,2-4.9
		c0.4-1,0.1-2.3,1.2-3.2c0.1-0.1-0.1-0.9-0.3-1.3c-0.1-0.1-0.7,0-1,0.1c-1.8,0.8-3.8,1.2-5.7,1.8c-1.5,0.5-3.3,0.4-5,0.5
		c-0.3,0-0.7-0.6-1-1l-0.1-0.1c-0.2-0.2-0.4-0.4-0.6-0.6c-0.2-0.1-0.3-0.2-0.5-0.3c0.2,0.1,0.3,0.2,0.5,0.3c0,0.2,0,0.4,0,0.6
		c-0.2,0-0.4,0-0.6,0c-0.5-0.1-1.6,0-0.7-0.9c1.6-1.6,1.9-4.3,4.6-4.9c0.1,0,0.2-0.5,0.2-0.6c-0.3-0.6-0.1-0.9,0.5-1.2
		c1.9-0.9,3.3-2.4,4.8-3.8c0.7-0.7,1.3-1.4,2.4-1.3c0.3,0,0.8-0.1,0.8-0.3c0.6-1.9,2.8-2.2,3.8-3.6c0.2-0.2,0.4-0.6,0.7-0.7
		c2.6-1,3.6-2.8,4-5.5c0.2-1.4,1.4-2.7,2.3-4c0.4-0.6,0.6-1,0.2-1.6c-0.2-0.3,0-0.8,0.2-1.2c1.1-2,1.4-2.6,1.3-4
		c-0.1-0.9,0.5-1,1-1.3c0.1,0.2,0.2,0.6,0.4,0.7c0.2,0.1,0.4,0.1,0.7,0.2c-0.1-0.2-0.1-0.6-0.3-0.7s-0.6-0.1-0.9-0.1
		c-0.1-0.2-0.2-0.4-0.2-0.6c0-0.1-0.2-0.2-0.2-0.3c1.7-2.2,0.7-5.5,3-7.5c0.2,0.1,0.3,0.2,0.5,0.3c-0.2-0.1-0.3-0.2-0.5-0.3
		c0.1-0.4,0.2-1,0.4-1.1c1.4-0.3,1.9-0.8,1.2-2.3c-0.5-1-0.7-2.1,0.4-3c0.2,0.1,0.3,0.2,0.5,0.3c-0.2-0.1-0.3-0.2-0.5-0.3
		c0.5-1.2,0.7-2.9,1.6-3.6c1.6-1.2,0.4-0.8-0.3-0.9c-0.1,0-0.3-0.5-0.2-0.6c1.7-1.3,1-4,3-5.2c0.1-0.1-0.1-0.5,0-0.7
		c0.3-0.8,0.7-1.5,1.1-2.3c0,0.1,0,0.2,0,0.3c0.1,0.3,0.2,0.5,0.3,0.8c0.1-0.1,0.2-0.2,0.2-0.2c-0.2-0.3-0.3-0.6-0.5-0.9
		c0.2-0.8,0.5-1.6,0.6-2.4c0.1-0.6,0-1.3-0.1-1.8c-0.1-0.4-0.5-0.9-1.2-0.4c-1.1,0.8-2.5,1.2-3.3,2.2c-1,1.2-2.2-0.7-2.8,0.3
		c-0.5,1-1.2,1.5-2.1,1.7c-1.3,0.4-2.7,0.6-4,1c-0.8,0.2-1.6,0.5-2.3,1c-1,0.6-1.5,2-3.1,1.2c-0.2-0.1-1.1,0.4-1.2,0.8
		c-0.4,1.4-1.7,1.4-2.7,1.8c-0.7,0.3-1.5,0.4-2.3,0.6c0.6,1.4-0.7,0.8-1.2,1.1c-0.7,0.5-1.5,0.8-2.1,1.4s-1.1,0.4-1.7,0
		c-0.2-0.1-0.5,0.1-0.8,0.1c0.1,0.3,0.1,0.6,0.2,0.8c0.4,0.7,0.4,0.6,0.2,0.8c-2,1-4.1,1.6-5.7,3.4c-0.5,0.6-1.7,0.7-2.5,1.1l0,0
		c-0.4-0.3-0.9-1-1.2-0.9c-0.7,0.1-0.7-0.5-0.6-0.5c1.4-0.4,0.5-1.7,1.2-2.4C585.3,36.6,585.9,36,586.5,35.3
		c0.1,0.1,0.3,0.2,0.5,0.3C586.8,35.5,586.7,35.4,586.5,35.3 M834.3,23.5l-0.1,0.2h0.2L834.3,23.5z M843.3,26.1l-0.2-0.1v0.2
		L843.3,26.1z M822.2,26.9l0.1-0.2h-0.2L822.2,26.9z M838.7,28.2l0.1-0.2h-0.2L838.7,28.2z M821.4,28.7l0.2,0.1v-0.2L821.4,28.7z
		 M802.3,94.2l0.2,0.1v-0.2L802.3,94.2z M814.6,92.1l-0.1,0.2h0.2L814.6,92.1z M831.1,85.8L831,86h0.2L831.1,85.8z M803.8,83.2
		l-0.1,0.2h0.2L803.8,83.2z M815.2,29.5l0.1-0.2h-0.2L815.2,29.5z M815.2,82.9l0.1-0.2h-0.2L815.2,82.9z M800.4,77.6l0.2,0.1v-0.2
		L800.4,77.6z M839.9,22.3l0.2,0.1v-0.2L839.9,22.3z M827.3,22.4l0.1-0.2h-0.2L827.3,22.4z M845.6,74.5l0.2,0.1v-0.2L845.6,74.5z
		 M798,71.8l-0.1,0.2h0.2L798,71.8z M797.2,61.1l0.2,0.1V61L797.2,61.1z M825.4,60.6l0.1-0.2h-0.2L825.4,60.6z M816.4,60l0.1-0.2
		h-0.2L816.4,60z M836.8,19.9l0.1-0.2h-0.2L836.8,19.9z M840,58.4l-0.1,0.2h0.2L840,58.4z M822.3,30.6l-0.2-0.1v0.2L822.3,30.6z
		 M840.5,57.3l0.2,0.1v-0.2L840.5,57.3z M841.3,56.2l0.1-0.2h-0.2L841.3,56.2z M844.4,55.5l0.1-0.2h-0.2L844.4,55.5z M854,51.4
		l-0.1,0.2h0.2L854,51.4z M851.9,50.9l0.2,0.1v-0.2L851.9,50.9z M823.6,31.9l-0.2-0.1V32L823.6,31.9z M826,50.1l-0.1,0.2h0.2
		L826,50.1z M811.4,49.8l0.1-0.2h-0.2L811.4,49.8z M802.5,49.2l0.1-0.2h-0.2L802.5,49.2z M843.2,48.2l-0.1,0.2h0.2L843.2,48.2z
		 M829.3,48.4c0-0.1-0.1-0.1-0.1-0.2C829.2,48.3,829.2,48.4,829.3,48.4L829.3,48.4 M841.3,31.7c-0.1,0-0.1,0.1-0.2,0.1
		c0.1,0,0.2,0,0.4,0C841.4,31.8,841.3,31.8,841.3,31.7 M813.2,46.5l0.2,0.1v-0.2L813.2,46.5z M838.9,32.5c-0.1-0.1-0.1-0.1-0.2-0.2
		c-0.1,0.1-0.1,0.1-0.2,0.2c0.1,0.1,0.1,0.2,0.2,0.2C838.8,32.6,838.8,32.6,838.9,32.5 M836,21.7l0.2,0.1v-0.2L836,21.7z
		 M840.1,33.8c0.1-0.2,0.2-0.3,0.2-0.5c0-0.1-0.1-0.1-0.2-0.2c-0.1,0.1-0.3,0.2-0.3,0.3C839.8,33.5,840,33.7,840.1,33.8 M840.7,26.6
		c-0.1,0.2-0.3,0.4-0.3,0.5c0.2,0.2,0.4,0.4,0.6,0.5l0.3-0.3C841.1,27.1,840.9,26.8,840.7,26.6 M844.5,71.8
		c-0.1,0.2-0.3,0.3-0.3,0.4c0.1,0.2,0.3,0.4,0.5,0.6c0.1,0,0.3-0.1,0.4-0.2C845,72.3,844.8,72.1,844.5,71.8 M848.9,70.5
		c-0.2,0.2-0.5,0.4-0.6,0.6c0,0.1,0.1,0.3,0.1,0.4c0.2-0.1,0.5-0.3,0.7-0.5C849.2,71,849,70.7,848.9,70.5 M818.4,32.7
		c0-0.1,0-0.3-0.1-0.4c-0.3,0.1-0.6,0.1-0.8,0.2c-0.2,0.1-0.3,0.4-0.4,0.7c0.3,0,0.6,0,0.8-0.1C818.1,33.1,818.2,32.9,818.4,32.7
		 M842.8,29.2c-0.1-0.3-0.2-0.6-0.3-0.6c-0.3,0-0.5,0.1-0.8,0.2c0.1,0.2,0.2,0.6,0.4,0.7C842.3,29.5,842.6,29.3,842.8,29.2
		 M820.4,89.4c0.4-0.2,0.5-0.3,0.7-0.4c-0.2-0.4-0.5-0.8-0.7-1.2c-0.1,0.2-0.4,0.4-0.3,0.6C820.1,88.7,820.3,89,820.4,89.4
		 M826,86.9c0.6-0.6,1-1,1.4-1.4c-0.2-0.2-0.4-0.4-0.7-0.5c-0.8-0.1-1.4,0.1-1.4,1C825.3,86.3,825.7,86.5,826,86.9 M801.8,74.3
		c-0.9-0.3-1.5-0.7-2-0.7c-0.2,0-0.6,0.7-0.6,1.1c0,0.1,0.6,0.6,0.8,0.6C800.5,75.2,800.9,74.8,801.8,74.3 M814.5,36.6
		c0.3-0.1,0.7-0.3,1.2-0.5c0.1-0.1,0.2-0.5,0.2-0.5c-0.6-0.3-1.2-0.7-1.9-0.8c-0.3-0.1-0.7,0.3-1,0.6c-0.2,0.2-0.3,0.4-0.5,0.7
		c0.2,0,0.5,0.1,0.7,0.1C813.5,36.3,813.9,36.4,814.5,36.6 M799.6,88.1c0.1,0.1,0.3,0.2,0.4,0.3C799.9,88.3,799.8,88.2,799.6,88.1
		s-0.3-0.2-0.5-0.3C799.3,87.9,799.5,88,799.6,88.1 M827.6,30.3c-0.7,1-1.4,2-2.1,3.1s-2.6,0.8-3,2.4c-0.3,1.2-0.9,2.3-1.3,3.4
		c-0.1,0.3-0.3,0.6-0.5,0.8c-0.6,0.6-1.7,1.1-1.9,1.9c-0.3,1.1-1.3,1.4-1.7,2c-0.8,1.3-2.6,2-2.5,4c0,0.8-0.7,1.8-1.2,2.5
		c-0.9,1.1-1.8,2.1-3.6,1.7c-1.5-0.4-1.9,0.6-1.2,2c0.2,0.4,0.4,0.7,0.6,1.1c0.6,1,0.6,0.9-0.5,1.5c-0.4,0.2-1,0.6-0.3,1.2
		c0.7,0.5,0.5,0.9,0,1.6c-1,1.5-2.7,2.8-1.4,5c-0.9,0.7-0.9,2-1.7,2.8l-0.1,0.1c-0.1,0.1-0.3,0.2-0.4,0.3c0.2,0.1,0.3,0.2,0.5,0.3
		l0,0c0,0.4,0,0.9,0,1.3l0,0c-0.2,0.3-0.6,0.6-0.6,0.9c0.2,2.3,0.2,2.3-0.4,4.4c-0.4,1.5-1.3,2.9-0.7,4.5c0.2,0.7,1.1,1.4,1,1.9
		c-0.3,0.9-0.2,1,0.7,1.1c0.8,0.1,1.7,0.2,2.4,0.6c1.4,0.9,2.3,0.2,3.3-0.6c1.1-0.9,2.5-1.4,3.5-2.4c0.8-0.8,2.1,1.1,2.5-0.6
		c0.3-1,1.9,0,2-1.3c0.9,0,1.9,0.1,2-1.3c0-0.2,1.2,1,1.3-0.1c0-1.2,0.8-0.7,1.2-0.7c0.6,0,0.9-0.3,1.1-0.9c0.1-0.3,0.5-0.7,0.6-0.6
		c1.3,0.8,1.7-0.5,2.6-0.9c0.6-0.3,0.6-1.6,1.8-1.1c0.3,0.2,1.2-1,1.9-1.5c1-0.8,2.6-1,2.3-2.8c0-0.1,0.6-0.3,0.7-0.3
		c1.3,1,1,0,1.5-0.8c1-1.5,1.9-3.1,2.8-4.7c0.2-0.4,1.8,0.6,0.9-0.9c-0.4-0.7-1.1-1-1.8-0.2c-0.8,0.8-1.7,0.4-2.7,0.3
		c-0.8,0-1.9-0.1-2.3,0.3c-1.6,1.9-3.9,1.4-5.9,1.9c-0.2,0.1-0.5-0.2-0.8-0.3c-0.5,2.3-2.7,1.6-4.1,2.2c-1.3,0.6-2.8,0.5-4.3,0.7
		c-1.6,0.2-3.2,0.1-4.7,0.4c-1.5,0.3-2.3-0.2-3-1.4c-0.1-0.1,0.3-0.6,0.5-0.9c0.2,0.1,0.3,0.2,0.5,0.3c-0.2-0.1-0.3-0.2-0.5-0.3
		c0.1-0.3,0.4-0.6,0.3-0.8c-0.6-1.2,0.2-1.7,1-2.3c0.2-0.2,0.4-0.5,0.5-0.7l0,0c0.2-1.1,1.8-1.5,1.4-2.9c1,0.2,0.4-2.5,2.1-1.1
		c0.1,0.1,1.8,0.4,1.6-1.3c-0.2-1.1,1.2-2.4,1.8-2.1c1.8,0.7,2.1-1.2,3.2-1.4c0.2,0.2,0.3,0.4,0.6,0.6c0.1,0,0.3-0.2,0.5-0.2
		c-0.1-0.1-0.3-0.3-0.5-0.3c-0.2-0.1-0.4,0-0.6,0c0.7-0.8,2-0.9,2.4-2.1c0-0.1,0.1-0.2,0.2-0.2c0.5,0,1.1,0,1.6,0
		c-0.6-1,0.2-0.9,0.8-1c0.6-0.1,1.2-0.4,1.7-0.6c0.1,0,0.2,0,0.3,0c2,0.6,3.8-0.2,5.6-0.7c0.1,0.1,0.3,0.2,0.4,0.3
		c-0.2-0.1-0.3-0.2-0.5-0.3c0.3-1,1-0.2,1.4-0.3c1.4-0.4,2.9,0,4.4-0.3s3.2-0.9,4.7,0.4c0.2,0.2,0.7,0.3,0.9,0.1
		c1.8-1.6,2.3,1.3,3.7,0.9c0.1,1.5,1.2,0.9,1.9,1.2c1,0.4,1.9,1.4,2.7,2.3c0.5,0.6,0.6,1.5,1.2,2.1c0.5,0.6-1,1.7,0.5,1.9
		c-1,0.8-0.1,1.9-0.5,2.8c-0.5,1.1-0.1,2.5-1.1,3.5c0.6,1.5-1,1.9-1.4,2.9c-0.4,1.4-1.2,2.6-1.8,3.9c-0.1,0.2,0,0.5-0.1,0.6
		c-0.5,0.7-1.6,1.5-1.5,1.9c0.4,1.2-0.3,1.9-0.8,2.5c-0.5,0.7-0.8,2.3-2.4,1.5c-0.6,0.7-1.2,1.3-1.7,2c-0.4,0.5-0.5,1.4-0.9,1.5
		c-1.7,0.6-2.4,2.4-4.2,2.8c-0.5,0.1-1,0.5-1.2,0.9c-0.6,1.4-2,1.7-3.2,2.2c-0.1-0.1-0.3-0.2-0.4-0.3c0.1,0.1,0.3,0.2,0.4,0.3
		c-0.6,1.7-0.6,1.7-2.1,2.1c-0.6,0.2-1.1,0.7-1.7,1l0,0c-0.4,0.3-0.9,0.5-1.3,0.8c-0.6,0.5-1,0.6-1.2-0.2c0.2-0.2,0.4-0.3,0.6-0.6
		c0.1-0.1-0.1-0.3-0.2-0.5c-0.1,0.2-0.2,0.3-0.3,0.5c-0.1,0.2,0,0.4,0,0.6c-0.9,0.4-1.7,0.9-2.2,1.8c-0.3,0.7-0.8,0.7-1.2-0.2
		c-0.2-0.6-0.8-1.6-1.7-0.4l-0.1,0.1c-0.1,0.1-0.3,0.2-0.4,0.3c0.1,0.1,0.3,0.2,0.4,0.3l0.1,0.1c-0.1,0.9,1.2,2.1-0.7,2.5l0,0
		c-0.1-0.2-0.2-0.3-0.3-0.5c-0.1,0.2-0.2,0.3-0.3,0.5l0,0c-2,0.8-4,1.8-6.3,2c-0.5,0-1,0.8-1.5,1s-1.1-0.1-1.6,0.1
		c-0.3,0.1-0.5,0.5-0.7,0.8l0,0c-0.1-0.1-0.1-0.3-0.2-0.4c-0.1,0.1-0.3,0.3-0.4,0.4l0,0c-3.2,0.5-6.3,0.2-9.4-0.8
		c-0.5-0.2-1-0.3-1.4-0.4l0,0c-0.1-0.2-0.2-0.3-0.3-0.5c-0.1,0.2-0.2,0.3-0.3,0.5l0,0c-0.8-0.1-1.7,0.3-2-1c-0.1-0.5-0.9-1-1.5-1.4
		c-0.8-0.5-1.7-0.8-2.4-1.3c-0.5-0.4-1.2-0.8-0.6-1.8c0.7-1.2-1.3,0.1-1.1-1c0.1-0.7-0.1-1.4-0.3-2.1c0-0.1-0.4-0.2-0.5-0.3
		c-1-0.6-1-0.7,0.1-1.3c0.7-0.4,0.4-0.4-0.1-0.6c-1.4-0.5-1.6-1.3-1.4-2.8c0.2-1.4,0.5-3.1-0.1-4.5c1.1-1.4-0.1-2.9,0.3-4.4
		c0.3-1.3,0.7-4.5,1-5.5c0.4-1.3,0.6-2.6,1-3.9c0.2-0.8,0.7-1.5,1.1-2.2c-1.3-0.4-0.4-1.2-0.5-1.9c-0.1-1.7,0.8-2.8,1.8-3.8
		c0.6-0.6,1.2-1.3,1.9-1.9c-0.8-1-0.1-1.3,0.6-1.9c0.3-0.2-0.2-1.2,0.1-1.6c0.3-0.5,1.2-0.6,1.5-1.1c0.6-1.2,1.4-2.3,2.2-3.4
		c1.3-1.8,2.3-3.7,3.5-5.5c0.1-0.2,0.1-0.5,0.3-0.5c0.6-0.3,1.3-0.5,1.9-0.8c-1.5-0.6-0.2-1,0.1-1.5c0.4-0.7,1.1-1.3,1.3-2.1
		c0.3-0.9,0.8-1.6,1.5-2.2c2-1.8,3-4.4,5.2-5.9c1.2-0.9,2.3-1.9,3.2-3c0.2,0.2,0.4,0.4,0.6,0.6c0,0.1,0,0.2,0,0.3
		c0.1,0.3,0.2,0.5,0.3,0.8c0.1-0.1,0.2-0.2,0.2-0.2c-0.2-0.3-0.3-0.6-0.5-0.9c-0.2-0.2-0.4-0.4-0.6-0.6c0.1-0.4,0.2-0.7,0.4-1.1
		c0.2,0.1,0.4,0.3,0.6,0.2c1-0.4,1.3-1.8,2.4-1.9c1.2-0.2,1.6-0.9,2.3-1.7c0.8-1.1,1.8-1.9,3.3-2.2c1.6-0.2,2.6-1.9,4.3-1.8
		c2.4,0.1,4.9-1.2,7.3,0.2c0.2,0.1,0.5,0,0.6,0.1c0.3,0.2,0.9,0.5,0.9,0.8c0.1,2,3.2,1.9,2.8,4.2l0,0c-0.2,0.1-0.3,0.2-0.5,0.3
		c0.2,0.1,0.3,0.2,0.5,0.3l0,0c0.3,0.6,0.6,1.2,0.9,1.8c-1.2,0.2-0.3,0.9-0.3,1.3c0,2.9-0.3,5.8-1.4,8.5c-0.2,0.5-0.6,1.2-1.4,0.7
		c-0.4,1.3-1.9,0.9-2.7,1.7c-0.5,0.5-0.9,0.5-0.9-0.4c0-1.4,0.1-2.8,0-4.1c-0.1-1.7-0.3-3.4-0.6-5.1c-0.3-1.6-0.9-1.8-2.6-1.3
		c-1.6,0.5-1.7,0.8-3.3,2.9C830.3,28.6,828.8,29.3,827.6,30.3c-0.5-0.2-1-0.3-1.5-0.5c-0.1,0-0.1,0.1-0.2,0.2
		c0.5,0.1,0.9,0.2,1.4,0.3C827.4,30.3,827.5,30.3,827.6,30.3 M749.2,24.2l-0.2-0.1v0.2L749.2,24.2z M755.4,23.7l0.1-0.2h-0.2
		L755.4,23.7z M735.8,23.6c-0.1-0.1-0.1-0.2-0.2-0.2c-0.1,0-0.1,0.1-0.2,0.1c0.1,0.1,0.1,0.2,0.2,0.2S735.8,23.6,735.8,23.6
		 M736.5,24.9l-0.2-0.1V25L736.5,24.9z M747,25.5l0.2,0.1v-0.2L747,25.5z M752.7,22.9l0.2,0.1v-0.2L752.7,22.9z M740.3,28.7
		l-0.2-0.1v0.2L740.3,28.7z M722.3,89.9l0.1-0.2h-0.2L722.3,89.9z M762.6,85.3l-0.2-0.1v0.2L762.6,85.3z M763,83.2l-0.1,0.2h0.2
		L763,83.2z M782.6,82.1l0.2,0.1V82L782.6,82.1z M784.6,80.3l0.1-0.2h-0.2L784.6,80.3z M761.8,79.4l-0.1,0.2h0.2L761.8,79.4z
		 M778.3,78.2l-0.1,0.2h0.2L778.3,78.2z M773.2,78.1l-0.1,0.2h0.2L773.2,78.1z M728.7,77.8l0.1-0.2h-0.2L728.7,77.8z M766.8,77.2
		l0.1-0.2h-0.2L766.8,77.2z M757.5,75.1l-0.2-0.1v0.2L757.5,75.1z M726.3,75.1l-0.2-0.1v0.2L726.3,75.1z M752.8,74l0.1-0.2h-0.2
		L752.8,74z M758,73c-0.1,0-0.1,0.1-0.2,0.1c0.1,0,0.2,0,0.4,0C758.1,73.1,758,73.1,758,73 M735.2,70.7c0-0.1-0.1-0.1-0.1-0.2
		c-0.1,0.1-0.2,0.1-0.2,0.2c0,0.1,0.1,0.1,0.1,0.2C735.1,70.8,735.1,70.8,735.2,70.7 M736.9,69.5l0.1-0.2h-0.2L736.9,69.5z
		 M747.6,68.7l0.2,0.1v-0.2L747.6,68.7z M760.5,23.4l-0.1,0.2h0.2L760.5,23.4z M724.2,30.7l0.1-0.2h-0.2L724.2,30.7z M728.5,67.5
		l0.2,0.1v-0.2L728.5,67.5z M766.7,22.3l0.2,0.1v-0.2L766.7,22.3z M729.3,65.7l0.1-0.2h-0.2L729.3,65.7z M732.5,63.5l-0.1,0.2h0.2
		L732.5,63.5z M737.1,61.8l-0.2-0.1v0.2L737.1,61.8z M743.2,61.1l0.2,0.1V61L743.2,61.1z M775.2,19.6l-0.1,0.2h0.2L775.2,19.6z
		 M736.2,60.5l0.2,0.1v-0.2L736.2,60.5z M761.9,22.3l-0.2-0.1v0.2L761.9,22.3z M733.6,53.5l0.2,0.1v-0.2L733.6,53.5z M743.9,21.2
		c0.1-0.1,0.2-0.1,0.2-0.2s-0.1-0.1-0.2-0.2c-0.1,0.1-0.2,0.1-0.2,0.2C743.8,21.1,743.9,21.2,743.9,21.2 M725,31.9l-0.2-0.1V32
		L725,31.9z M754.1,20.9l-0.1,0.2h0.2L754.1,20.9z M734.4,50.5l0.1-0.2h-0.2L734.4,50.5z M759.7,21l0.2,0.1v-0.2L759.7,21z
		 M749.7,48.3l-0.1,0.2h0.2L749.7,48.3z M734.5,46.5l-0.2-0.1v0.2L734.5,46.5z M752.4,45.9l-0.2-0.1V46L752.4,45.9z M763.7,41.3
		l-0.1,0.2h0.2L763.7,41.3z M737.7,41.4c-0.1-0.1-0.1-0.2-0.2-0.2c-0.1,0-0.1,0.1-0.2,0.1c0.1,0.1,0.1,0.1,0.2,0.2
		C737.6,41.5,737.7,41.5,737.7,41.4 M737.7,33.1l-0.2-0.1v0.2L737.7,33.1z M738.9,33l-0.1,0.2h0.2L738.9,33z M763.7,40l-0.1,0.2h0.2
		L763.7,40z M760.5,40l-0.1,0.2h0.2L760.5,40z M757.5,39.5l-0.2-0.1v0.2L757.5,39.5z M726.1,34.2c-0.1,0.1-0.1,0.1-0.2,0.2
		c0.1,0,0.2,0,0.4,0C726.3,34.3,726.2,34.3,726.1,34.2 M736.9,35.8l0.1-0.2h-0.2L736.9,35.8z M765.1,34.8c-0.1-0.2-0.1-0.3-0.2-0.5
		c-0.1,0-0.2,0.1-0.2,0.1c0,0.2,0,0.4,0,0.5C764.9,34.9,765,34.9,765.1,34.8 M739.7,45.2c-0.4-0.1-0.5-0.1-0.7-0.2
		c0,0.1,0,0.3,0,0.4c0,0,0.2,0.1,0.3,0C739.4,45.4,739.5,45.3,739.7,45.2 M752.8,50.9c-0.1,0.2-0.1,0.4-0.2,0.5
		c0,0.1,0.1,0.1,0.2,0.2c0.1-0.1,0.2-0.3,0.2-0.4C753.1,51.1,752.9,51,752.8,50.9 M772.3,20.2c-0.1,0.1-0.3,0.2-0.4,0.2
		c0.1,0.1,0.2,0.2,0.2,0.2c0.2,0,0.4-0.1,0.6-0.1C772.5,20.4,772.4,20.3,772.3,20.2 M746.7,58.2c0.2-0.1,0.3-0.1,0.5-0.2
		c0-0.1-0.1-0.2-0.1-0.2c-0.2,0-0.4,0-0.5,0C746.6,57.9,746.6,58,746.7,58.2 M731.6,64.7c-0.1,0.1-0.3,0.2-0.4,0.3
		c0.1,0.1,0.2,0.2,0.2,0.2c0.2,0,0.4-0.1,0.5-0.2C731.8,64.9,731.7,64.8,731.6,64.7 M767.1,19.5c-0.1-0.1-0.2-0.3-0.2-0.4
		c-0.1,0.1-0.2,0.2-0.2,0.2c0,0.2,0.1,0.4,0.2,0.5C766.9,19.7,767,19.6,767.1,19.5 M775.1,78.8c-0.1,0.2-0.2,0.4-0.2,0.6
		c0,0.1,0.1,0.2,0.2,0.2c0.1-0.1,0.3-0.3,0.3-0.4C775.4,79.1,775.2,79,775.1,78.8 M772.8,85.7c-0.1-0.2-0.1-0.4-0.2-0.5
		c-0.1,0.1-0.2,0.1-0.2,0.2c0,0.2,0,0.4,0.1,0.6C772.6,85.9,772.7,85.8,772.8,85.7 M754.1,72.9c0.2-0.1,0.5-0.2,0.8-0.3
		c-0.3-0.1-0.5-0.3-0.8-0.3c-0.2,0-0.4,0.2-0.6,0.3C753.7,72.7,753.8,72.8,754.1,72.9 M761.3,82.4c-0.6,0-0.9,0.1-1.3,0.1v0.3
		c0.3,0,0.6,0.1,0.9,0.1C761,83,761.1,82.8,761.3,82.4 M737.4,59.1c0,0.5,0,0.9,0,1.3h0.3c0-0.3,0.1-0.6,0.1-0.9
		C737.8,59.4,737.6,59.3,737.4,59.1 M775.2,24.6c-0.2,0.3-0.4,0.5-0.3,0.6c0.1,0.4,0.2,0.7,0.3,1.1c0,0.1,0.4,0,0.5,0
		C775.6,25.7,775.4,25.2,775.2,24.6 M727.8,30.1c-0.4-0.2-0.7-0.4-0.9-0.3c-0.3,0.2-0.6,0.6-0.9,0.8c0.4,0.1,0.8,0.2,1.2,0.2
		C727.4,30.8,727.6,30.4,727.8,30.1 M767.8,29c-0.2-0.1-0.3-0.2-0.5-0.3C767.5,28.8,767.6,28.9,767.8,29c0.2,0.2,0.4,0.5,0.6,0.6
		c0.3,0.2,0.7,0.3,1,0.4l0.1-0.2c-0.4-0.2-0.8-0.5-1.2-0.6C768.2,29,768,29,767.8,29 M765.9,32.2c0.2,0.2,0.4,0.4,0.6,0.5
		c0.1,0.1,0.3-0.1,0.5-0.2c-0.2-0.1-0.3-0.2-0.5-0.3C766.3,32.2,766.1,32.2,765.9,32.2c-0.1-0.4-0.2-0.7-0.4-1.1
		c-0.2,0.1-0.4,0.2-0.5,0.4C764.7,32.5,765.6,31.9,765.9,32.2 M751.3,24.5c0.2,0.1,0.3,0.2,0.5,0.3
		C751.6,24.7,751.4,24.6,751.3,24.5c-0.2-0.2-0.4-0.4-0.6-0.5c-0.1-0.1-0.3,0.1-0.5,0.2c0.2,0.1,0.3,0.2,0.5,0.3
		C750.9,24.5,751.1,24.5,751.3,24.5 M735.4,65.9c-0.8,0.4-0.7,0.8,0,1.3c0.1,0.2,0.2,0.4,0.3,0.5c0.2,0,0.5-0.1,0.7-0.1
		c-0.2-0.1-0.3-0.2-0.5-0.3s-0.4,0-0.6-0.1C735.4,66.7,735.4,66.3,735.4,65.9c0.1-0.2,0.2-0.3,0.3-0.5
		C735.6,65.6,735.5,65.7,735.4,65.9 M741.7,32.8c-0.2,0.2-0.4,0.4-0.5,0.6c0,0.1,0.1,0.3,0.2,0.5c0.1-0.2,0.2-0.3,0.3-0.5
		C741.7,33.2,741.7,33,741.7,32.8c0.2,0,0.4,0,0.6,0c-0.2,2.5-0.4,4.9-0.7,7.4c0,0.3-0.4,0.6-0.6,0.9c-0.1-0.2-0.2-0.5-0.3-0.5
		c-0.3,0-0.6,0.1-0.8,0.2c-0.1,0,0,0.4,0.1,0.6c0.3-0.1,0.5-0.2,0.8-0.3c0.1,0,0.2,0,0.3,0c0.1,1.5,0.6,3-0.3,4.4
		c-0.2,0.2-0.3,0.7-0.2,0.9c1,2.2-0.1,3.8-1.4,5.3c-0.5,0.5-0.5,1-0.2,1.7c0.4,0.9-0.6,2.6-1.4,3.1c-0.4,0.2-1,0.2-0.2,0.5
		c0.4,0.2,0.8,2.2,1.6,0.1c0.5-1.3,1.5-2.5,2.1-3.8c0.8-1.7,0.7-1.7,2.7-1.4c0.5,0.1,1.2,0.2,0.7-0.8c-0.1-0.2,0.1-0.7,0.3-1
		c0.6-0.8,1.4-1.5,2-2.3c0.7-0.9,1.3-1.9,2.5-2.1c1.4-0.3,0.6-1.7,1.4-2.3c0.6-0.5,1.2-1.1,1.7-1.7c0.5-0.5,1.5-0.5,1.4-1.5
		c-0.1-1.3,1.5,0,1.7-1.1c0.2-0.8,0.7-1.5,1.1-2.2c0.2-0.2,0.7-0.2,1-0.4c1.3-1,2.9-1.9,3.8-3.2c1-1.4,1.9-2.8,3.3-3.5
		c1.2-0.5,0.8-2.9,2.8-2.2c0,0,0.2-0.4,0.2-0.5c-0.2-0.7-0.3-1.5-0.8-2c-0.3-0.3-1.2-0.1-1.8,0c-0.7,0-1.4,0.1-2.1,0.2
		c-1.5,0.1-3,0.1-4.6,0.1c-0.4,0-0.8,0.1-1.2,0.2c-1.6,0.4-3.3,1.3-4.8,1c-2-0.4-2.9,1.1-4.4,1.4c-0.8,0.2-1.6,0.3-2.4,0.3
		c-2,0.1-2.1,0.2-2.1,2.1c0,1.1-0.2,2-1.2,2.7c-0.2-0.2-0.4-0.4-0.6-0.6c0-0.2,0-0.4,0-0.6c-0.1-0.3-0.2-0.7-0.4-1
		c-0.2,0.1-0.5,0.3-0.5,0.4c0,0.3,0.2,0.7,0.3,1c0.1,0.1,0.3,0.2,0.5,0.3v0.2H741.7z M736.6,29c-0.2-0.1-0.3-0.2-0.5-0.3
		C736.3,28.8,736.5,28.9,736.6,29c0.1,0.1,0.3,0.2,0.5,0.3C736.9,29.2,736.8,29.1,736.6,29 M720.7,93.9c0.2,0.1,0.3,0.2,0.5,0.3
		C721.1,94.1,720.9,94,720.7,93.9c-0.1-0.1-0.3-0.2-0.5-0.3C720.4,93.7,720.6,93.8,720.7,93.9 M728.4,27.1c-0.2-0.1-0.3-0.2-0.5-0.3
		C728.1,26.9,728.2,27,728.4,27.1c0.1,0.1,0.3,0.2,0.4,0.3C728.7,27.3,728.5,27.2,728.4,27.1 M730.9,55.7c-0.1-2.3,0.5-4.4,1.2-6.5
		c0.7-1.8,1.1-3.7,1.6-5.6c0.7-3,1.7-5.9,2.5-8.9c0.2-0.6,0.2-1.2,0.3-1.8c0.1-0.7,0.5-1.5,0.2-2c-0.4-0.9-1.1-0.5-1.9-0.2
		c-0.2,0.1-0.6-0.5-0.9-0.8c-0.5-0.5-0.5-0.5-1.2,0.3l-0.1,0.1c-0.5,0.6-1,1.3-1.7,1.7c-0.3,0.2-0.8,0-0.5-0.6
		c0.1-0.2,0-0.6,0.1-0.9c-0.2,0.1-0.5,0.2-0.7,0.3c-0.1,0-0.1,0.2-0.2,0.2c-1,0.9-1,0.9-2.9,0.9c-0.3,0-0.7,0-1,0
		c0.1,0.4,0,0.9,0.2,1.2c0.5,0.7,1.2,1.4,1.8,2s0.3,1.1,0,1.7s-0.6,1.3-1.3,1c-1.5-0.6-3.7,0-4.1-2.6c-0.1-0.5-0.8-1-1-1.5
		c-0.3-0.6-0.1-1.1,0.7-0.6c0.1-0.2,0.4-0.6,0.3-0.6c-0.3-0.4-0.8-0.7-1.1-1l0,0c0.2-0.4,0.4-0.8,0.6-1.3l0,0
		c1.2-2.7,3.7-3.9,5.9-5.4c1.1-0.7,1,0.6,1.5,1c0.2,0.1,0.3,0.3,0.5,0.4c0.1-0.2,0.3-0.4,0.3-0.6c0-0.9,0.2-1.6,1.3-1.7
		c0.5-0.1,1-0.7,1.5-1c0.3-0.2,0.7-0.5,1-0.4c2.1,0.4,3.9-0.4,5.7-1.2c0.4-0.2,0.9,0.1,1.4,0.2c0.2,0.2,0.4,0.5,0.6,0.7
		c0.2,0.1,0.3,0.2,0.5,0.3c-0.1-0.1-0.3-0.2-0.5-0.3c-0.2-0.2-0.4-0.4-0.7-0.6c0.2-0.4,0.4-1.1,0.7-1.2c1.6-0.3,3.2-0.5,4.8-0.6
		c0.4,0,0.9,0.9,1.3,0.8c0.5-0.1,0.8-0.8,1.4-1.1c0.4-0.2,0.9-0.1,1.4-0.2c0.8-0.2,2-0.1,2.2-0.6c0.5-0.9,1.2-0.5,1.7-0.7
		c0.6-0.2,1.2-0.2,1.8-0.3c0.2,0.1,0.3,0.2,0.5,0.3c-0.2-0.1-0.3-0.2-0.5-0.3c0.2-0.2,0.5-0.6,0.6-0.6c1.1,0.7,2.2-0.5,3.3-0.1
		c0.8-1.2,2,0.2,3.1-0.6c0.7-0.5,2.3,0,3.5,0.2c1.1,0.1,2.3,0.3,3.4,0.6c0.6,0.2,2-0.8,1.8,1c0,0,0.4,0.1,0.6,0.1
		c3.6-0.4,5.2,2.5,4.5,5.7c-1.8,0.8,0.7,0.6,0.3,1.3c-0.6,0.9-0.6,2.5-1.4,3c-1.1,0.7-1.1,1.4-1,2.4c0,1.1-0.2,2.2-1.5,2.5
		c-1.3,0.2-0.4,1.8-1.6,2.2c-0.8,0.2-1.3,1.3-1.9,1.9c-2.4,2.5-5,4.8-7.2,7.4c-0.9,1.1-1.4,2.4-3.1,2.6c-0.8,0.1,0,0.7-0.1,0.8
		c-1.1,1.6-1.6,3.6-3.7,4.2c-0.2-0.1-0.3-0.2-0.5-0.3c0.2,0.1,0.3,0.2,0.5,0.3c-0.5,1.6-1.1,3-2.6,4c-0.2,0.1-0.3,0.3-0.4,0.4
		c-0.5,0.7-1.1,1.3-1.4,2c-0.6,1.4-0.8-1.3-1.3-0.1c-0.3,0.7-0.7,1.5-1.1,2.2c-0.4,0.6-1.1,1-1.3,1.6c-0.4,1.2,1.2-0.1,1,0.7
		c-0.2,0.7-0.8,1.3-1.2,2c-0.1-0.1-0.3-0.2-0.4-0.3c0.2,0.1,0.3,0.2,0.5,0.3c-0.1,0.6-0.6,1.4-0.3,1.7c0.6,1,1.4,2.3,2.4,2.6
		s0.6,1.4,0.9,1.3c1.1-0.2,1.8,2,2.9,0.3c0,0,0.4,0.1,0.5,0.2c0.7,0.6,1.8-0.2,2.5,0.8c0.3,0.5,1.6,0.3,2.3,0.7
		c0.8,0.4,1.4,1.2,2.2,1.4s1.7-0.1,2.6-0.1c0.4,0,0.7,0.4,1.1,0.6l0,0c0.8,0.4,1.7,0.8,2.5,1.3c0.2,0.1,0.3,0.2,0.5,0.3
		c-0.2-0.1-0.3-0.2-0.5-0.3c0-0.6,0-1.4,0.9-1.1c0.7,0.2,1.3,0.7,1.9,0.9c0.2,0.1,0.6-0.3,0.9-0.4l0,0c1.8,0.4,3.5,0.7,5.3,1.1
		c0.9,0.2,1.9,0.7,2.7,0.6c1.5-0.3,1.5,0.6,1.5,1.5c-0.1,0.2-0.2,0.3-0.3,0.5c0.1-0.2,0.2-0.3,0.3-0.5c1.3-0.3,1.3-0.3,3.6,1.1
		c1,0.6,2.2,1.1,3.3,1.6c1.2,0.6,2,1.2,1,2.6c0.6,0.8,0,1-0.6,1.2c-0.2,0.1-0.4,0.2-0.5,0.3c-1.5,0.8-3.5-0.3-4.8,1.3
		c-1.9-0.1-3.8-0.2-5.7-0.2c-0.6,0-1.2,0.7-1.7,0.6c-1.1-0.2-2,0.4-2.9,0.6c-0.9,0.2-1.2-1.3-2.4-0.7c-0.5,0.3-1.6-0.5-2.1-0.1
		c-1.1,0.8-1.8,0.3-2.4-0.5c-0.7-1-1.3-0.6-2,0c-0.3,0.3-1.2,0.4-1.4,0.2c-1.7-1.4-3.8-1.1-5.7-1.8c-0.8-0.3-1.6-0.8-2.4-1.3
		c0.1-0.2,0.2-0.3,0.3-0.5c-0.1,0.2-0.2,0.3-0.3,0.5c-1.5-0.1-3-0.2-4.5-0.3c-0.2,0-0.4,0-0.5-0.1c-0.2-0.4-0.4-0.8-0.6-1.1
		c-0.2,0.4-0.3,0.9-1.1,0.5c-2.1-1.2-4.3-2.1-6.2-3.5c-1.3-0.9-2.3-2.4-3.3-3.7c-0.4-0.5-0.5-1,0.2-1.2c0.8-0.3,0.9-1.1,0.5-1.5
		c-0.5-0.6-1.3-1-2-1.5c0,0-0.2,0.3-0.3,0.4c-0.8,1.1-1.6,2.2-2.3,3.4c-0.2,0.3-0.3,0.9-0.2,1.2c0.5,0.8,0.2,1.4-0.5,1.8
		c-0.7,0.5-0.5,1.1-0.6,1.8c0,0.3-1.6,0.1-0.2,0.7c1,0.5,1.1,1,0.3,1.9c-0.5,0.5-0.7,1.3-1,1.9l-0.1,0.1c-0.1,0.1-0.3,0.2-0.4,0.3
		c0.2,0.1,0.3,0.2,0.5,0.3l0,0c0,0.2,0,0.4,0,0.6l0,0c-0.2,0.1-0.3,0.2-0.5,0.3c0.2,0.1,0.3,0.2,0.5,0.3l0,0
		c0.1,0.7-1.7,0.7-0.7,1.9c0.4,0.5-0.3,0.3-0.7,0.4c-1.9,0.4-3.5,2.7-3.3,4.7c0,0,0.2,0.1,0.3,0.1l0,0c0,0.2,0,0.4,0.1,0.6
		c0.3,0.6,1,1.4,0.8,1.8c-0.3,0.6-1.1,1.1-1.8,1.5c-0.7,0.5-1.5,1.1-2.5,0.8l-2.6-0.7c-0.9-0.5-1.7-2.4-1.4-3.7
		c0.2-0.9,0.5-1.9,0.8-2.8c0.2-0.8,0.5-1.7,0.6-2.5c0.3-2,0.7-3.9,1.8-5.5c0.7-0.9-0.3-2.2,1-2.8c0.1,0.1,0.3,0.2,0.4,0.3
		c-0.2-0.1-0.3-0.2-0.5-0.3c0.2-0.8,0.6-1.6,0.6-2.4c-0.2-2.4,0.4-4.5,2.1-6.3c0.3-0.4,0.4-0.6-0.2-0.9c-0.9-0.4-0.8-1.4-0.1-1.7
		c1.2-0.5,0.5-1.8,1.3-2.3c-0.3-2.9,1-5.4,2.3-7.8C730.2,57.1,730.6,56.4,730.9,55.7c0.1,0.1,0.3,0.2,0.4,0.3
		C731.2,55.9,731.1,55.8,730.9,55.7 M655.7,162.9c-0.1-0.1-0.1-0.1-0.2-0.2c0,0.1,0,0.2,0,0.4C655.6,163,655.7,163,655.7,162.9
		 M653.8,162.3l-0.2-0.1v0.2L653.8,162.3z M659.3,161.8l0.1-0.2h-0.2L659.3,161.8z M659.4,158.9l-0.1,0.2h0.2L659.4,158.9z
		 M674,157.6c-0.1,0.1-0.1,0.1-0.2,0.2c0.1,0,0.2,0,0.4,0C674.1,157.8,674.1,157.7,674,157.6 M674,156.4l-0.1,0.2h0.2L674,156.4z
		 M684.4,155.2c-0.2,0-0.3,0-0.4,0c0,0.1,0.1,0.1,0.1,0.2C684.2,155.4,684.3,155.3,684.4,155.2 M704,150.2l-0.2-0.1v0.2L704,150.2z
		 M685.9,150.1l0.2,0.1V150L685.9,150.1z M701.5,149.6l-0.2-0.1v0.2L701.5,149.6z M702.6,148.8l-0.1,0.2h0.2L702.6,148.8z
		 M692.4,148.7l-0.1,0.2h0.2L692.4,148.7z M702.1,147.6l-0.2-0.1v0.2L702.1,147.6z M721.1,145.9l0.1-0.2H721L721.1,145.9z
		 M715.3,145.6l-0.1,0.2h0.2L715.3,145.6z M717.2,144.6c0.1-0.1,0.2-0.1,0.2-0.2c0-0.1-0.1-0.1-0.1-0.2c-0.1,0.1-0.2,0.1-0.2,0.2
		C717,144.5,717.1,144.6,717.2,144.6 M728.8,140.6l-0.2-0.1v0.2L728.8,140.6z M729.5,139.4l-0.2-0.1v0.2L729.5,139.4z M745.8,138.9
		l0.1-0.2h-0.2L745.8,138.9z M744.4,138.7l0.2,0.1v-0.2L744.4,138.7z M755.3,137.4l0.2,0.1v-0.2L755.3,137.4z M759.2,137l0.1-0.2
		h-0.2L759.2,137z M743.8,136.2l0.2,0.1v-0.2L743.8,136.2z M744.6,135l0.1-0.2h-0.2L744.6,135z M775.1,134.1c-0.1,0-0.1,0.1-0.2,0.1
		C775,134.2,775.1,134.2,775.1,134.1C775.2,134.2,775.2,134.2,775.1,134.1 M758,132.8l-0.1,0.2h0.2L758,132.8z M785.3,131.6
		c-0.1,0.1-0.1,0.1-0.2,0.2c0.1,0,0.2,0,0.4,0C785.4,131.7,785.4,131.6,785.3,131.6 M776.4,130.9l-0.1,0.2h0.2L776.4,130.9z
		 M778.4,130.5l-0.2-0.1v0.2L778.4,130.5z M805,127.8l-0.1,0.2h0.2L805,127.8z M803.1,127.4l0.1-0.2H803L803.1,127.4z M773.9,127.1
		l-0.1,0.2h0.2L773.9,127.1z M818.2,125.4l0.2,0.1v-0.2L818.2,125.4z M794.2,125.5l0.1-0.2h-0.2L794.2,125.5z M830.5,122.7
		c-0.1,0.1-0.1,0.1-0.2,0.2c0.1,0,0.2,0,0.3,0C830.6,122.8,830.5,122.7,830.5,122.7 M796.1,123l0.1-0.2H796L796.1,123z M837.4,122.3
		l0.1-0.2h-0.2L837.4,122.3z M819,120.1l-0.1,0.2h0.2L819,120.1z M865.6,118.4l-0.2-0.1v0.2L865.6,118.4z M852.1,118.2l-0.1,0.2h0.2
		L852.1,118.2z M862.1,117.7l0.2,0.1v-0.2L862.1,117.7z M838.7,117.9l0.1-0.2h-0.2L838.7,117.9z M875,116.9c-0.1,0-0.1,0.1-0.2,0.1
		c0.1,0,0.2,0,0.3,0C875.1,117,875.1,117,875,116.9 M830.6,117.1l-0.2-0.1v0.2L830.6,117.1z M851.3,116.4l0.2,0.1v-0.2L851.3,116.4z
		 M847,115.7l-0.1,0.2h0.2L847,115.7z M869.9,115l-0.1,0.2h0.2L869.9,115z M888.5,114.6c0-0.1-0.1-0.1-0.1-0.2
		c-0.1,0.1-0.2,0.1-0.2,0.2c0,0.1,0.1,0.1,0.1,0.2C888.4,114.7,888.4,114.6,888.5,114.6 M863.6,113.1l-0.1,0.2h0.2L863.6,113.1z
		 M880.2,112.7l-0.2-0.1v0.2L880.2,112.7z M868.5,112.6l0.2,0.1v-0.2L868.5,112.6z M860.6,115.6c-0.1-0.2-0.1-0.3-0.2-0.5
		c-0.1,0-0.2,0.1-0.2,0.1c0,0.2,0,0.4,0,0.5C860.3,115.7,860.5,115.7,860.6,115.6 M816.7,122.6c-0.1-0.2-0.1-0.4-0.2-0.5
		c-0.1,0.1-0.2,0.1-0.2,0.2c0,0.2,0.1,0.4,0.1,0.5C816.5,122.7,816.6,122.7,816.7,122.6 M785,124.5c-0.1,0.1-0.3,0.2-0.4,0.3
		c0.1,0.1,0.2,0.2,0.2,0.2c0.2,0,0.4-0.1,0.5-0.2C785.2,124.7,785.1,124.6,785,124.5 M828.6,125.4c-0.2-0.1-0.3-0.2-0.5-0.2
		c-0.1,0-0.1,0.1-0.2,0.2c0.1,0.1,0.2,0.3,0.3,0.3C828.4,125.6,828.5,125.4,828.6,125.4 M798.7,127.2c-0.2-0.1-0.3-0.2-0.5-0.2
		c-0.1,0-0.1,0.1-0.2,0.2c0.1,0.1,0.2,0.3,0.3,0.3C798.4,127.5,798.6,127.3,798.7,127.2 M778.7,132.8c-0.1,0.1-0.3,0.2-0.4,0.3
		c0.1,0.1,0.2,0.2,0.2,0.2c0.2,0,0.4-0.1,0.5-0.2C778.9,133,778.8,132.9,778.7,132.8 M757.2,136.9c0.2,0.1,0.4,0.2,0.6,0.2
		c0.1,0,0.1-0.1,0.2-0.2c-0.1-0.1-0.3-0.3-0.4-0.3C757.5,136.6,757.4,136.8,757.2,136.9 M731.2,143.1c-0.1,0.2-0.2,0.4-0.2,0.6
		c0,0.1,0.1,0.2,0.2,0.2c0.1-0.1,0.2-0.3,0.3-0.4C731.5,143.4,731.3,143.2,731.2,143.1 M707.9,144.7c0.2-0.1,0.3-0.1,0.5-0.2
		c-0.1-0.1-0.1-0.2-0.2-0.2c-0.2,0-0.4,0-0.5,0.1C707.8,144.4,707.8,144.5,707.9,144.7 M703.8,146.3c-0.1,0.2-0.2,0.4-0.2,0.5
		s0.1,0.1,0.2,0.2c0.1-0.1,0.2-0.3,0.2-0.4C704.1,146.6,703.9,146.4,703.8,146.3 M661.3,161.6c-0.2-0.1-0.3-0.2-0.5-0.2
		c-0.1,0-0.2,0.1-0.2,0.2c0.1,0.1,0.2,0.3,0.3,0.3C661,161.9,661.2,161.7,661.3,161.6 M836.2,116.9c-0.2-0.2-0.5-0.4-0.7-0.6
		c-0.1,0.2-0.2,0.4-0.2,0.5c0.2,0.2,0.4,0.3,0.6,0.5C836.1,117.2,836.1,117.1,836.2,116.9 M713.1,146.4c-0.1-0.2-0.2-0.5-0.3-0.7
		c-0.1,0.2-0.3,0.3-0.3,0.5c0.1,0.3,0.2,0.6,0.3,0.9C712.9,146.8,713,146.6,713.1,146.4 M844.4,120.1c-0.1,0.4-0.2,0.6-0.2,0.9
		c0,0.2,0.1,0.4,0.2,0.5c0.1-0.3,0.2-0.6,0.3-0.9C844.7,120.5,844.5,120.3,844.4,120.1 M723.2,143.9c-0.2-0.1-0.4-0.2-0.7-0.3
		l-0.2,0.4c0.2,0.2,0.4,0.4,0.7,0.6C723,144.4,723.1,144.2,723.2,143.9 M769.7,132.7c-0.2-0.2-0.4-0.4-0.6-0.5
		c-0.1,0-0.3,0.1-0.4,0.2c0.2,0.2,0.4,0.4,0.6,0.6C769.3,133,769.5,132.8,769.7,132.7 M826.4,124c-0.2,0.2-0.4,0.5-0.5,0.7
		c0.2,0.1,0.4,0.2,0.5,0.2c0.2-0.2,0.3-0.4,0.5-0.6C826.7,124.2,826.6,124.1,826.4,124 M761.6,131.4c-0.4-0.3-0.6-0.4-0.9-0.5
		c-0.1,0-0.4,0.3-0.4,0.3c0.1,0.2,0.2,0.6,0.4,0.6C760.9,131.9,761.2,131.6,761.6,131.4 M847.7,120.8c-0.1,0.2-0.2,0.5-0.2,0.5
		c0.3,0.2,0.6,0.4,1,0.5c0.2,0,0.4-0.1,0.6-0.2C848.6,121.3,848.1,121,847.7,120.8 M788.8,125.2c-0.3,0.1-0.6,0.3-0.6,0.3
		c0.2,0.4,0.3,0.9,0.5,1.3l0.5-0.2C789.1,126.2,789,125.7,788.8,125.2 M765.6,135.7c0.5-0.3,0.9-0.6,1.4-0.8
		c-0.3-0.2-0.7-0.5-1.1-0.6c-0.1,0-0.5,0.4-0.5,0.6C765.3,135.1,765.5,135.4,765.6,135.7 M722.3,141.1c-0.3,0-0.5,0-0.5,0
		c0,0.1-0.1,0.3,0,0.4c0.3,0.4,0.7,0.7,1.1,1.1h0.2c0-0.2,0.2-0.5,0.1-0.6C722.8,141.7,722.5,141.3,722.3,141.1 M857.5,114
		c0.1,0.5,0.1,0.8,0.2,1c0.1,0,0.3,0,0.4-0.1c0.2-0.5,0.4-1.1,0.6-1.6c0,0-0.3-0.2-0.5-0.3c-0.1,0-0.3,0-0.3,0
		C857.7,113.4,857.6,113.8,857.5,114 M859.9,119.3c-0.1-0.3-0.1-0.4-0.2-0.5c-0.8-0.4-1.6-1.1-2.5-1.2c-0.4,0-1,0.9-1.4,1.5
		c0,0.1,0.6,0.7,1,0.9c0.3,0.2,0.8,0.5,1.1,0.4C858.6,120.2,859.2,119.7,859.9,119.3 M713.1,142.9c-0.2-0.1-0.3-0.2-0.5-0.3
		C712.8,142.7,712.9,142.8,713.1,142.9c0.3,1,1.2,0.5,1.8,0.5c0.2,0,0.6-0.4,0.6-0.5c-0.1-0.4-0.4-0.7-0.5-1
		c-0.2,0.1-0.4,0.3-0.6,0.4C713.9,142.5,713.5,142.7,713.1,142.9 M662.9,158.7c0.1-0.4,0.2-0.7,0.3-1.1c-0.3,0.1-0.5,0.1-0.8,0.2
		C662.5,158.1,662.7,158.5,662.9,158.7c0,0.5,0,1.1,0.2,1.6c0,0.1,0.5,0.2,0.7,0.2c0-0.5,0.2-1,0-1.3
		C663.8,158.9,663.2,158.9,662.9,158.7 M810.4,123.1c-0.2,0.1-0.4,0.2-0.4,0.4c0,0.3,0.1,0.5,0.2,0.8c0,0.1,0.4,0,0.6-0.1
		c-0.1-0.2-0.2-0.5-0.3-0.7C810.4,123.4,810.4,123.3,810.4,123.1c0.1-0.1,0.2-0.3,0.3-0.5C810.6,122.8,810.5,123,810.4,123.1
		 M657.7,162.6c-0.4,0.1-0.7,0.2-1.1,0.4c0.1,0.1,0.2,0.2,0.2,0.2C657.2,163,657.5,162.8,657.7,162.6c0.1-0.1,0.2-0.3,0.3-0.5
		C657.9,162.2,657.8,162.4,657.7,162.6 M705.5,147.3c-0.2,0.1-0.4,0.2-0.5,0.3c0,0.2,0.1,0.5,0.1,0.8c0.1-0.2,0.2-0.3,0.3-0.5
		C705.5,147.7,705.4,147.5,705.5,147.3s0.2-0.3,0.3-0.5C705.7,147,705.6,147.2,705.5,147.3 M825.7,118.1c0.4-0.1,0.7-0.2,1.1-0.3
		c-0.1-0.1-0.2-0.2-0.2-0.2C826.2,117.7,826,117.9,825.7,118.1c-0.1,0.1-0.2,0.3-0.3,0.5C825.5,118.4,825.6,118.2,825.7,118.1
		 M796.4,125.7c0.2,0.1,0.3,0.2,0.5,0.3C796.7,125.9,796.6,125.8,796.4,125.7c-0.2-0.1-0.3-0.2-0.5-0.3
		C796.1,125.5,796.3,125.6,796.4,125.7 M687,151.1c0.2-0.2,0.4-0.4,0.7-0.6c0.4-0.1,0.7-0.2,1.1-0.4c-0.4-0.1-0.7-0.2-1.1-0.3
		c-0.2-0.1-0.3-0.2-0.5-0.3c0.2,0.1,0.3,0.2,0.5,0.3c0,0.2,0,0.4,0,0.6C687.4,150.7,687.2,150.9,687,151.1c-0.1,0.2-0.2,0.3-0.3,0.5
		C686.8,151.4,686.9,151.3,687,151.1 M678.1,155.6c0.2,0.1,0.3,0.2,0.5,0.3C678.4,155.8,678.3,155.7,678.1,155.6
		c-0.2-0.1-0.3-0.2-0.5-0.3C677.8,155.4,678,155.5,678.1,155.6 M679.4,157.5c-1.7,0.8-3.9,0.2-5.4,1.8c-0.1,0.1-0.6-0.1-0.8-0.1
		c-1-0.2-1.6,0.2-2.4,0.7c-1.2,0.7-2.9,0.4-4.1,1.4c-0.2-0.4-0.4-0.8-0.6-1.2c0.1-0.1,0.2-0.3,0.3-0.4c-0.1,0.2-0.2,0.3-0.3,0.5
		c-0.7,1.4-2.5,1.2-3.3,2.3c-2.2-0.1-4,1.5-6.1,1.7c-0.7,0.1-1.3-0.2-2-0.2c-0.2-0.1-0.3-0.2-0.5-0.3c0.2,0.1,0.3,0.2,0.5,0.3
		c-0.1,0.8-0.7,0.7-1.3,0.6c-0.2-0.1-0.3-0.2-0.5-0.3c0.2,0.1,0.3,0.2,0.5,0.3c-0.1,0.4-0.2,1-0.3,1.1c-0.6,0.1-1.7,0.3-1.9-0.1
		c-0.5-0.9-0.4-2-1.3-2.8c-0.1-0.1,0.2-0.9,0.5-1c0.2-0.1,0.7,0.2,1.1,0.3c0.1,0.1,0.3,0.2,0.5,0.3c-0.2-0.1-0.3-0.2-0.5-0.3
		c0.3-0.4,0.6-1,1-1.1c2.3-0.5,4.5-1.3,6.4-2.6c0.4-0.3,1-0.1,1.5-0.1c0.2,0.2,0.4,0.4,0.6,0.6c0.2,0.1,0.3,0.2,0.5,0.3
		c-0.2-0.1-0.3-0.2-0.5-0.3c-0.2-0.2-0.4-0.4-0.6-0.6c0.1-0.4,0.2-0.7,0.3-1.1c1.1,0.6,1.9-1.1,2.9-0.6c1.3,0.6,1.7-1,2.7-0.9
		s2,0.4,3,0.6c0.2,0.4,0.5,0.8,0.7,1.1c0.3-0.2,0.6-0.5,0.9-0.7c-0.4-0.1-0.9-0.3-1.3-0.4c-0.1,0-0.2,0-0.3,0c0-0.4,0-0.8,0-1.2l0,0
		c1.1-1.3,2.8-1.3,4.2-1.9c1.1-0.5,2.3-0.1,3.4-0.8c0.9-0.5,1.8-1.3,3-1.5c0.4-0.1,0.9-0.8,1.7-1c1.9-0.4,4.1-0.1,5.7-1.6
		c2.2,0.5,3.7-0.8,5.3-1.9c0.1-0.1,0.5,0.2,0.8,0.4l0,0c0.1,0.2,0.2,0.3,0.3,0.5c0.1-0.2,0.2-0.3,0.3-0.5l0,0c0.2,0,0.4,0,0.7,0
		c0.1,0.3,0.2,0.7,0.4,1c0.2-0.1,0.4-0.2,0.5-0.4c0.3-1-0.6-0.4-0.9-0.6c0.2-0.3-0.4-1,0.6-1c1.4,0,2.8-0.3,4.2-0.5
		c1.2-0.2,2.3-1.4,3.8-0.6c0.1,0,0.4-0.2,0.5-0.3c0.8-1.4,2.3-1.3,3.4-1.1c0.8,0.1,1.1-0.4,1.7-0.4c0.8-0.1,1.6-0.3,2.4-0.5
		c0.2,0.1,0.3,0.2,0.5,0.3c-0.2-0.1-0.3-0.2-0.4-0.3c1.3-0.7,2.6-1.5,3.9-2.2c0.1,0,0.4,0.4,0.6,0.7c0.2,0.3,0.5,0.5,0.8,0.8
		c0-0.3,0-0.8,0.1-1c0.2-0.3,0.7-0.6,0.9-0.5c0.7,0.3,1.2,0.2,1.4-0.6c0-0.1,0.1-0.2,0.2-0.2c0.9,0,2.4,0.4,2.7,0
		c0.8-1.3,1.8-0.7,2.8-0.9c0.2,0.1,0.3,0.2,0.5,0.3c-0.2-0.1-0.3-0.2-0.5-0.3c0.9-1.4,2.4-1.3,3.8-1.3c0,0.3,0,0.7,0.2,0.9
		c0.1,0.2,0.5,0.2,0.7,0.2c0-0.3,0.1-0.7-0.1-1c-0.1-0.1-0.6-0.1-0.9-0.1c0.5-0.7,1.1-1,2-0.9c0.5,0.1,1.1,0.3,1.5,0.1
		c1.5-0.5,2.9-1.6,4.3-1.6c1.5,0,3,0.1,4.4-0.6c0.9-0.4,1.6-0.3,1.8,0.9c0,0.2,0.2,0.4,0.2,0.6c0.1-0.2,0.2-0.3,0.3-0.5
		c0.1-0.3,0-0.6,0.1-0.9c0.2-1.1,0.9-1.6,2-1.5c0.3,0,0.6,0,0.9,0c0.9-0.1,1.9-0.5,2.6-0.2c0.6,0.3,1.1,1.4,1.1,2.1
		c0,1.3,0.8,1.6,1.7,2l0,0c0.9,1.4,1.8,0.2,2.7-0.1s0.1-1,0.1-1.6c0-0.5-0.1-0.9-0.2-1.4c-0.5-1.8-0.4-2.2,1.6-2.7
		c2.2-0.6,4.3-1.3,6.6-1.5c1-0.1,1.3-1.5,2.5-1c1.1,0.4,1.7-0.6,2.5-1.1c0.2-0.1,0.6,0.3,0.9,0.5c-0.1,0.1-0.2,0.3-0.3,0.4
		c0.1-0.2,0.2-0.3,0.3-0.5c1.6,0,3.1,0,4.5-0.9c0.2-0.2,0.6-0.3,0.9-0.3c1.8-0.2,3.7-0.4,5.5-0.7l0,0c0.3,0.7,0.7,0.7,1.1,0.2
		c0.4-0.4,0.7-1.2,1.2-1.3c1-0.1,1.7-0.8,2.8-1c4-0.5,8.1-0.2,12-1.7c0.8-0.3,2,0.5,2.9,0.3c0.8-0.2,1.5-1,2.3-1.6
		c0.1,0,0.4,0.4,0.6,0.6c-0.1,0.2-0.2,0.3-0.3,0.5c0.1-0.2,0.2-0.3,0.3-0.5c0.7-0.2,1.7,0.9,2.3-0.4c0.1-0.2,1.2-0.1,1.8-0.1
		c0.3,0,0.9,0,0.9-0.1c0.4-1.9,2.1-1.2,3-1.2c2.2,0,4.2-0.2,5.9-1.7c0.3-0.2,1-0.2,1.4,0c0.8,0.3,1.4,0.3,2-0.3
		c0.7-0.8,1.4-0.9,2.1,0s1.4-0.1,1.9-0.3c1-0.5,1.7-0.9,3.1-0.8c1.4,0.1,3.2-0.1,4.6-0.6c1.2-0.4,2.2,0,3.3,0c1,0,2-0.9,2.9-0.8
		c2.1,0.3,4-0.7,6.1-0.7l0,0c0.2,0.7,0.4,0.5,0.6,0l0,0c0.9-0.1,1.9-0.2,2.7-0.5c0.8-0.2,1.4-0.1,2,0.4c1.6,1.4,1.8,1.4,2.8-0.5
		c0.5-0.9,0.8-0.1,1.2-0.2c0.8-0.3,1.8-1.1,2.4-0.9c1,0.4,1.7-0.5,2.7-0.3c0.8,0.2,1.8-0.3,2.7-0.5c0.4-0.1,0.8,0,1.3,0
		c2.4,0,4.8,0.8,7-0.6c1.6,0.5,3.2,0.4,4.8,0.1c0.3-0.1,0.7,0.2,0.9,0.5c0.3,0.4,0.5,0.9,0.6,1.4c0.2,0.6-0.3,1.5,0.9,1.7
		c1.1,0.2,1.8-0.3,2.4-1.1c0.2-0.2,0.3-0.5,0.5-0.8c0.8-2,1.3-2.4,3.2-1.5c1.3,0.6,2.4,0.9,3.7,0.1c0.7-0.4,5.3,0.4,5.5,1
		c0.2,0.5-0.2,1.1-0.3,1.7l0,0c-1.9,1-3.9,1.7-6.1,2.1c-2,0.4-4,1.1-6.1,1.6c-0.9,0.2-1.7-0.9-2.4,0.2c-0.7,1.1-1.7,0.4-2.6,0.6
		c-0.1-0.4-0.2-0.7-0.3-1.1c-0.1,0.1-0.2,0.2-0.2,0.2c0.2,0.3,0.4,0.6,0.5,0.9c-0.8,0.9-1.9,1-3,1.1c-2.9,0.2-5.7,0.7-8.5,1.1
		c-1.5,0.2-2.9,0.9-4.5,1c-1.7,0.1-3.4,0.4-5,0.6c-0.8,0.1-1.6,0.4-2.4,0.6c-0.9,0.3-1.6,0.8-2.6,0.1c-0.4-0.3-1.3,0.3-2,0.5l0,0
		c-0.1-0.2-0.3-0.3-0.4-0.5c-0.1,0.2-0.1,0.3-0.2,0.5l0,0c-0.9,0.1-1.8-0.7-2.8,0.3c-0.4,0.5-1.7,0.5-2.5,0.3c-2-0.6-3.5,0.3-5,1.3
		l0,0c-0.1-0.1-0.1-0.3-0.2-0.4c-0.1,0.1-0.3,0.3-0.4,0.4l0,0c-2.7,0.4-5.4,1.1-8.1,1.2c-1.7,0-3.3,0.6-5.1,0.3
		c-1.5-0.2-2.9,1.3-4.7,1.1c-0.4,0-0.8,0.6-1.3,0.8c-0.2,0.1-0.6,0.1-0.8,0.2c0-0.3,0.1-0.5,0.1-0.8c0.3-1,0-1.6-1.1-1.6
		c-0.2-0.1-0.3-0.2-0.5-0.3c0.1,0.1,0.3,0.2,0.4,0.3c-0.6,1.9-0.7,2.2-2.1,1.8c-1.1-0.3-1.7,0.4-2.6,0.7c-1,0.3-2,0.4-3,0.7
		c-1.1,0.4-2.1,0.9-3.3,0.2c-0.3-0.2-3.3,0.5-3.9,0.8c-0.3,0.1-0.6,0.2-0.9,0.2c-0.7-0.1-1.4-0.5-2.1-0.5c-0.6,0,0.2,1.3-0.9,1.3
		c-0.7,0-1.4,0.3-2.1,0.5s-1.4,0.4-2.1,0.6l0,0c-0.2-0.6-0.4-0.7-0.6,0l0,0c-0.5,0.2-1.1,0.7-1.4,0.5c-2.5-1.4-4.6,0.2-6.9,0.8
		c-0.7,0.2-2.2,0.3-2.8,0c-0.4-0.2-0.5-0.7-1.1,0c-0.7,0.7-2.1,1.3-3,1.1c-2.8-0.4-5.1,0.8-7.6,1.5c-1.1,0.3-2.5-0.4-3.3,0.9
		c-1.2-0.3-2.3,0.3-3.5,0.5s-2.5,0.3-3.7,0.5c-0.8,0.1-1.6,0.4-2.4,0.6c-1.1,0.3-2.1,1.1-3.5,0.8c-0.4-0.1-0.9,0.4-1.3,0.6
		c-0.4,0.2-0.8,0.6-1.1,0.5c-0.7-0.2-1.4-0.6-2.1-0.9c-0.1,0.9-1,1.3-1.6,1.2c-0.5-0.1-0.9-0.9-1.4-1.4c-0.4-0.4-0.2-0.7,0.3-0.9
		c0.1,0,0.1-0.5,0.1-0.7c-0.1-0.1-0.4-0.4-0.5-0.3c-0.6,0.2-1.1,0.5-1.7,0.8c-0.6,0.3-1,0.2-1.2-0.5c0-0.1-0.4,0-0.6,0
		c0,0.5,0,1.1,0,1.6c0.1,0.7,0.2,1.4,0.3,2.1c-0.7,0.1-1.5,0.1-2.1,0.3c-0.8,0.3-1.4,0.9-2.2,1.1c-1.3,0.4-2.8,0.3-4.1,0.8
		s-2.6,0.6-4,0.6c-0.8,0-1.5-0.1-2.2,0.8c-0.6,0.7-2.2,1.2-3.1,0.9c-1.5-0.5-2.2-0.2-3.2,0.9c-0.4,0.5-1.6,0.5-2.4,0.4
		c-0.7-0.1-1.4-0.4-1.9,0.4c-0.1,0.1-0.6-0.2-1-0.3c-0.3-0.1-0.5-0.2-0.7-0.3c-0.3,2.3-2.8,0.5-3.6,2c-0.2,0.5-1.3,0.6-2,0.7
		c-5.1,0.3-10,1.7-14.9,3.1c-1.3,0.4-2.2,0.3-3.2-0.4c-0.2-0.1-0.3-0.2-0.5-0.3c0.2,0.1,0.3,0.2,0.5,0.3c-0.7,0.6-1.4,1.2-2.1,1.7
		c-0.2,0.1-0.8-0.1-1-0.3c-0.3-0.3-0.4-0.9-0.7-0.1c-0.8,2.3-2.6,2.1-4.3,1.7C679.8,156.3,679.7,156.9,679.4,157.5L679.4,157.5z
		 M910.6,68l-0.1,0.2h0.2L910.6,68z M927.8,3.4l0.1-0.2h-0.2L927.8,3.4z M917,4c0.1-0.1,0.1-0.1,0.2-0.2c-0.1-0.1-0.1-0.2-0.2-0.2
		s-0.1,0.1-0.2,0.1C916.8,3.9,916.9,3.9,917,4 M920.3,5.2l-0.2-0.1v0.2L920.3,5.2z M912.5,7.2l0.1-0.2h-0.2L912.5,7.2z M922.8,11.5
		l-0.2-0.1v0.2L922.8,11.5z M899.1,12.3l0.1-0.2H899L899.1,12.3z M918.3,12.6l-0.1,0.2h0.2L918.3,12.6z M907.4,14.2l0.1-0.2h-0.2
		L907.4,14.2z M917.4,14l0.2,0.1v-0.2L917.4,14z M889.1,82.1c0-0.1-0.1-0.1-0.1-0.2c-0.1,0.1-0.2,0.1-0.2,0.2c0,0.1,0.1,0.1,0.1,0.2
		C889,82.2,889.1,82.2,889.1,82.1 M894.7,81.6l0.1-0.2h-0.2L894.7,81.6z M885.7,80.8l0.2,0.1v-0.2L885.7,80.8z M904.1,79.6l0.2,0.1
		v-0.2L904.1,79.6z M894.7,79.7l0.1-0.2h-0.2L894.7,79.7z M900.4,78.1c-0.1,0-0.1,0.1-0.2,0.1c0.1,0,0.2,0,0.3,0
		C900.5,78.3,900.5,78.2,900.4,78.1 M889.8,78.3l-0.2-0.1v0.2L889.8,78.3z M887.1,78.1l-0.1,0.2h0.2L887.1,78.1z M906.8,76.2
		l-0.1,0.2h0.2L906.8,76.2z M883.9,75.6l-0.1,0.2h0.2L883.9,75.6z M897.3,73.7l-0.1,0.2h0.2L897.3,73.7z M896.6,16.1l0.1-0.2h-0.2
		L896.6,16.1z M912.7,16.6c0-0.1-0.1-0.1-0.1-0.2c-0.1,0.1-0.2,0.1-0.2,0.2s0.1,0.1,0.1,0.2C912.6,16.7,912.6,16.7,912.7,16.6
		 M920.3,71.3l-0.2-0.1v0.2L920.3,71.3z M906.1,71.4l0.1-0.2H906L906.1,71.4z M883.4,66.2c0,0-0.1-0.1-0.1-0.2
		c-0.1,0.1-0.2,0.1-0.2,0.2c0,0.1,0.1,0.1,0.1,0.2C883.3,66.3,883.3,66.2,883.4,66.2 M880.7,65.1l0.1-0.2h-0.2L880.7,65.1z
		 M929.9,62.4c-0.1-0.1-0.1-0.2-0.2-0.2s-0.1,0.1-0.2,0.1c0.1,0.1,0.1,0.2,0.2,0.2C929.7,62.6,929.8,62.5,929.9,62.4 M928.5,52
		c-0.1,0-0.1,0.1-0.2,0.1c0.1,0,0.2,0,0.4,0C928.6,52.1,928.5,52.1,928.5,52 M888.8,40.7l0.2,0.1v-0.2L888.8,40.7z M885.2,40.6
		l-0.1,0.2h0.2L885.2,40.6z M887.1,40c0,0-0.1,0.1-0.2,0.1c0.1,0,0.2,0,0.3,0C887.2,40.1,887.1,40,887.1,40 M890.3,21.7
		c-0.2-0.1-0.4-0.2-0.5-0.2s-0.2,0.1-0.2,0.2c0.1,0.1,0.3,0.3,0.4,0.3C890.1,21.9,890.2,21.8,890.3,21.7 M890.9,32.6
		c0.1-0.2,0.2-0.3,0.2-0.5c0-0.1-0.1-0.2-0.2-0.2c-0.1,0.1-0.3,0.2-0.3,0.3C890.7,32.3,890.9,32.4,890.9,32.6 M912.6,68
		c-0.2-0.1-0.4-0.1-0.5-0.1s-0.2,0.1-0.2,0.2c0.1,0.1,0.3,0.2,0.4,0.2C912.4,68.3,912.5,68.1,912.6,68 M906.7,12.8
		c0.2,0.1,0.4,0.2,0.6,0.2c0.1,0,0.1-0.1,0.2-0.2c-0.1-0.1-0.3-0.2-0.4-0.2C907,12.6,906.9,12.7,906.7,12.8 M899.3,79
		c-0.2-0.1-0.4-0.3-0.5-0.2c-0.2,0.2-0.4,0.4-0.5,0.6l0.3,0.3C898.9,79.4,899.1,79.2,899.3,79 M929.9,2.1c-0.3-0.3-0.5-0.6-0.7-0.7
		s-0.5,0.1-0.7,0.3c-0.1,0.1,0.1,0.6,0.1,0.6C929,2.2,929.4,2.1,929.9,2.1 M888.5,25.5c-0.2-0.4-0.5-0.9-0.7-1.3
		c-0.1,0.2-0.4,0.5-0.3,0.7c0.1,0.3,0.4,0.6,0.6,0.9C888.1,25.8,888.3,25.6,888.5,25.5 M922,65.6c0.1,0.1,0.2,0.2,0.4,0.2
		c0.7,0.1,1.2-0.1,1.1-0.9c0-0.2-0.1-0.4-0.2-0.6C923,64.7,922.5,65.1,922,65.6 M887.1,37.6c-0.2-0.6-0.3-1.2-0.5-1.8
		c0-0.1-0.2-0.1-0.3-0.1c-0.2,0.1-0.4,2-0.2,2.1c0.3,0,0.6,0,0.9-0.1C887.1,37.7,887.1,37.6,887.1,37.6 M932.6,5.5
		c0.1,0.4,0.2,0.7,0.3,1.1c0.1-0.1,0.2-0.2,0.2-0.2C932.9,6,932.7,5.7,932.6,5.5c0-0.1,0-0.2,0-0.3c-0.1-0.3-0.2-0.5-0.3-0.8
		c-0.1,0.1-0.2,0.2-0.2,0.2C932.2,4.9,932.4,5.2,932.6,5.5 M896.3,78.6c-0.2,0.1-0.4,0.2-0.5,0.3c0,0.2,0.1,0.5,0.1,0.8
		c0.1-0.2,0.2-0.3,0.3-0.5C896.3,79,896.3,78.8,896.3,78.6c0.1-0.2,0.2-0.3,0.3-0.5C896.5,78.3,896.4,78.5,896.3,78.6 M893.7,74.1
		c-0.3,0.1-0.6,0.2-0.9,0.2c0.1,0.1,0.2,0.3,0.2,0.3C893.3,74.5,893.5,74.3,893.7,74.1c0.1-0.1,0.2-0.3,0.3-0.4
		C893.9,73.8,893.8,74,893.7,74.1 M893.1,15.6c-0.2-0.1-0.3-0.2-0.5-0.3C892.8,15.4,892.9,15.5,893.1,15.6c0.1,0.1,0.3,0.2,0.4,0.3
		C893.4,15.8,893.3,15.7,893.1,15.6 M883,79.9c-0.4-0.1-0.9-0.1-1.1-0.4c-0.3-0.2-0.3-0.8-0.6-1c-1-0.8-2.2-1.4-3-2.3
		c-0.6-0.8-0.4-2-1.3-2.8c-0.5-0.4-0.9-1.4-0.7-1.9c0.8-2.1-0.5-3.8-0.8-5.6c-0.1-0.9-0.4-1.7-0.1-2.6c0.9-3.4,1.6-6.9,2.4-10.3
		c0.6-2.7,2.1-5.2,1.7-8.2c1.3-0.9,0.2-3.1,2.1-3.7c0.5-1.5,2.1-2.5,1.7-4.3c-0.2-0.7,1.3-0.4,0.8-1.3c2-1.4,2.2-3.8,3.2-5.7
		c0.3-0.5,0.6-1.1,1-1.6c0.7-0.9,0.7-1.3-0.6-1.6c-1.6-0.4-1.9-2-2.5-3.3c-0.1-0.2,0.3-0.7,0.5-1.1l0,0c0.8-0.4,0.8-0.8,0-1.3l0,0
		c0.4-2.8,1.7-4.8,4.1-5.7c1.8-0.7,3.6-1.2,5.5-1.8c0.2,0.1,0.3,0.2,0.5,0.3c-0.2-0.1-0.3-0.2-0.5-0.3c0.1-0.2,0.1-0.5,0.2-0.5
		c1.2-0.2,1.8-1.4,2.7-1.8c0.5-0.3,1.3,0.1,2,0.2c-0.7-1.4,0.6-0.8,1-1.1c0.5-0.3,1.1-0.6,1.6-0.9c0.6-0.4,1.4-0.7,1.8-1.2
		c0.8-1.2,1.8-0.4,2.7-0.4c0.2,0.1,0.3,0.2,0.5,0.3c-0.2-0.1-0.3-0.2-0.5-0.3c0.3-0.5,0.4-0.9,1.2-1.1c1.7-0.3,3.7-0.4,4.6-2.4
		c0.3,0.2,0.7,0.7,0.9,0.6c0.4-0.2,0.6-0.9,1-1c0.9-0.2,1.5-0.5,1.9-1.4c0.5-1.2,0.7,1.5,1.2,0.1c0.4-1,1.2-0.8,1.9-0.6
		c1.4,0.3,2.6,0.2,3.7-0.8c0.2-0.2,0.5-0.4,0.8-0.5c1.4-0.3,3,1.1,4.2-0.6c1.4,0.1,2.7,0.2,4.1,0.2s2.8,0.9,4.3,0.5
		c0.1,0,0.4,0.2,0.5,0.3c0.5,0.5,1.4,0.9,1.4,1.4c0.1,1-0.8,1.3-1.8,1.3c0-0.3,0.1-0.7,0-0.9c-0.2-0.4-0.5-0.7-0.9-0.9
		c-0.2-0.1-0.5,0.2-0.8,0.2c0.2,0.4,0.3,0.9,0.6,1.2c0.3,0.2,0.7,0.2,1.1,0.3c-0.1,0.4-0.2,1.1-0.4,1.1c-1,0.2-1.5,0.6-1.8,1.7
		c-0.1,0.5-1.3,0.6-1.7,1.1c-0.6,0.8-2.4-0.2-2.2,1.6c-0.9,0.5-2,0.9-2.6,1.6c-0.5,0.7-1,0.6-1.6,0.8c-1.6,0.5-3.2,1-4.5,2.2
		c-0.2-0.1-0.3-0.2-0.5-0.3c0.2,0.1,0.3,0.2,0.5,0.3c-0.6,0.4-1.3,0.8-1.9,1.3l0,0c-0.4-0.8-0.9-0.9-1.3,0l0,0
		c-0.8,0.2-1.5,0.5-2.3,0.6s-1.4,0.2-1.7,1c-0.2,0.6-0.8,0.5-1.4,0.5c-1.4,0.1-2.7,0.7-4.1,1c-0.1-0.1-0.3-0.2-0.4-0.3
		c0.2,0.1,0.3,0.2,0.5,0.2c-0.3,0.2-0.6,0.5-0.9,0.6c-0.6,0.1-1.4-0.1-1.8,0.2c-1.6,1.3-3.4,1.2-5.2,1.2c-1.3,0-2,1.1-2.6,2
		c-1.1,1.8-1.9,3.8-2.9,5.7c-1.2,2.4-2.8,4.7-3.6,7.2c-1,3.2-2.8,6-3.7,9.2c-0.5,1.7-0.6,3.5-1.5,5c-0.1,0.2-0.4,0.4-0.6,0.6
		c-0.2-0.1-0.3-0.2-0.5-0.3c0.2,0.1,0.3,0.2,0.5,0.3c0.2,1.5-0.5,3,0,4.5c0,0.1-0.4,0.4-0.6,0.6c-0.2-0.1-0.3-0.2-0.5-0.3
		c0.2,0.1,0.3,0.2,0.5,0.3c-0.1,0.5-0.2,0.9-0.2,1.4c0,1.1,0.2,2.3,0.2,3.4c0,0.5,0.4,3.4,0.7,3.7c0.7,0.8-0.2,0.9-0.4,1.3
		c-0.3,0.9-0.2,1.9-0.3,2.9c-0.3-0.1-0.7-0.2-1-0.3c0,0.2-0.1,0.5-0.1,0.6c0.5,0.5,0.8,0.4,1.1-0.2c1.1,1.1,2.2,2.1,3.2,3.2
		c2.1,2.4,4.6,1.2,7,0.8c1.2-1.7,3.3-0.3,4.7-1.3c0,0,0.3,0.5,0.5,0.7c0.2,0.1,0.5,0,0.8-0.1c-0.9-1.2,0.2-1.5,0.9-1.7
		c1.3-0.5,2.2-2,3.9-1.8c0.4,0.1,1.2-0.6,1.4-1.1c0.6-1.3,1.7-1.8,2.9-2.1c1.6-0.4,2.7-2,4.5-1.7c0.1,0.1,0.3,0.2,0.4,0.3
		c-0.2-0.1-0.3-0.2-0.5-0.3c-0.1-0.4-0.1-0.8-0.2-1.3c0.9-0.1,1.8-0.1,1.1-1.4c0-0.1,0.1-0.4,0.2-0.4c2.6-0.7,3.7-3.5,6-4.6
		c0.4-2,2.2-2.5,3.4-3.7c1.2-1.2,3.1-1.4,4-3.1c0.2-0.4,0.9-0.7,1.4-0.7c0.7,0.1,1.5-1,1.8-0.1c0.3,0.8,1.9,1.4,0.7,2.6
		c-0.6,0.6-0.2,1.3-0.1,2c0.1,0.4-0.4,0.8-0.6,1.2c-0.2-0.1-0.3-0.2-0.5-0.3c0.2,0.1,0.3,0.2,0.5,0.3c-0.1,1,0.4,2.2-0.9,2.7
		c0.3,2.7-3,4.1-2.4,7c0.1,0.5-0.4,1.4-1.4,1.9c-1.3,0.6-2.4,1.6-3.6,2.4c-0.2-0.1-0.3-0.2-0.5-0.3c0.2,0.1,0.3,0.2,0.5,0.3
		c-0.6,1.3-1.2,2.6-2.7,3.3c-0.8,0.4-1.3,1.6-2.1,2.2c-0.8,0.6-1.8,1-2.6,1.6c-0.7,0.5-1.2,1.3-1.9,1.7c-3.1,1.9-6,4.3-10,4.2
		c-1.1,1.1-2.4,0.1-3.5,0.4c-0.2,0.1-0.4,0.1-0.6,0.2c0.2,0.2,0.6,0.3,0.7,0.5s0.1,0.5,0.1,0.8c0,0.1-0.4,0.2-0.5,0.2
		c-0.6-0.1-1-0.9-1.8,0.1s-5.5,1.8-6.8,1.6c0,0-0.1-0.2-0.1-0.3c0.1-0.2,0.2-0.3,0.3-0.5c-0.1,0.2-0.2,0.3-0.3,0.5
		c-0.7,0.2-1.6,0.8-2,0.5c-1-0.8-1.5,1.1-2.5,0.2c-0.6-0.5-1.7-0.5-2.6-0.7l0,0c-0.2-0.4,1.2-1.1-0.3-1.2c-0.3,0-0.6,0.4-0.8,0.3
		c-0.9-0.4-1.3-1.8-2.7-1.4c0,0-0.1-0.2-0.1-0.3C882.9,80.7,882.9,80.3,883,79.9c0.1-0.2,0.2-0.3,0.3-0.5
		C883.1,79.6,883,79.7,883,79.9 M681,102l0.1-0.2h-0.2L681,102z M682.9,99.1l-0.1,0.2h0.2L682.9,99.1z M673.8,96.7l0.2,0.1v-0.2
		L673.8,96.7z M686.7,96.2l0.1-0.2h-0.2L686.7,96.2z M686.2,94.8l-0.2-0.1v0.2L686.2,94.8z M694.3,91.2l0.1-0.2h-0.2L694.3,91.2z
		 M689.9,89.9l0.1-0.2h-0.2L689.9,89.9z M684.3,89.7l-0.2-0.1v0.2L684.3,89.7z M675.2,89.9l0.1-0.2h-0.2L675.2,89.9z M689.4,87.8
		l-0.2-0.1v0.2L689.4,87.8z M686.9,87.9c0-0.1-0.1-0.1-0.1-0.2c-0.1,0.1-0.2,0.1-0.2,0.2c0,0.1,0.1,0.1,0.1,0.2
		C686.7,88,686.8,87.9,686.9,87.9 M698.8,87c-0.1,0-0.1,0.1-0.2,0.1c0.1,0,0.2,0,0.4,0C698.9,87.2,698.8,87.1,698.8,87 M689.9,84.5
		l-0.1,0.2h0.2L689.9,84.5z M699.4,84.2l0.1-0.2h-0.2L699.4,84.2z M670.2,80.7l-0.1,0.2h0.2L670.2,80.7z M695,78.8l-0.1,0.2h0.2
		L695,78.8z M675.9,73.7l-0.1,0.2h0.2L675.9,73.7z M671.4,67.6l0.1-0.2h-0.2L671.4,67.6z M699.4,62.2l-0.1,0.2h0.2L699.4,62.2z
		 M674,62.2l-0.1,0.2h0.2L674,62.2z M712.2,54.9l0.1-0.2h-0.2L712.2,54.9z M705.1,53.6l0.1-0.2H705L705.1,53.6z M708.3,52.1
		l-0.1,0.2h0.2L708.3,52.1z M707.7,45.4l0.1-0.2h-0.2L707.7,45.4z M676.1,45.2c-0.1-0.1-0.1-0.1-0.2-0.2c-0.1,0.1-0.2,0.1-0.2,0.2
		s0.1,0.1,0.1,0.2C675.9,45.3,676,45.3,676.1,45.2 M715.9,39l0.1-0.2h-0.2L715.9,39z M709.2,41.2c-0.1-0.2-0.1-0.4-0.2-0.5
		c-0.1,0.1-0.2,0.1-0.2,0.2c0,0.2,0,0.4,0.1,0.5C709,41.3,709.1,41.2,709.2,41.2 M710.8,32.5c0.2,0.1,0.4,0.1,0.5,0.2
		c0.1,0,0.1-0.1,0.2-0.2c-0.1-0.1-0.3-0.2-0.4-0.2C711.1,32.3,710.9,32.4,710.8,32.5 M685.1,91.4c-0.2-0.2-0.3-0.5-0.5-0.6
		c-0.1-0.1-0.3,0.1-0.5,0.1c0.2,0.2,0.3,0.5,0.6,0.7C684.6,91.7,684.9,91.5,685.1,91.4 M672.4,71.6c-0.2,0.2-0.4,0.3-0.5,0.4
		c0.2,0.2,0.4,0.4,0.6,0.6c0.1-0.1,0.3-0.3,0.3-0.3C672.8,72,672.6,71.8,672.4,71.6 M676.8,47.4c0.2,0.3,0.6,0.7,0.5,0.8
		c-0.3,0.5-0.8,0.9-1,1.5c-0.1,0.2,0.3,0.6,0.5,0.9l0,0c0.9,1.5,0.2,3.1,0.2,4.7c-0.1,2.2-0.4,4.3-0.6,6.4c2.1,0.8,0.3,2.1,0.3,3.1
		s0,1.9,0.1,2.9l0,0c-0.2,0-0.4,0-0.6,0c-0.2-0.1-0.3-0.2-0.5-0.3c0.2,0.1,0.3,0.2,0.5,0.3c0,0.7-1.1,1.2-0.2,2
		c0.7,0.6,0.6,1.6,0.9,2.2c1,2,0,3.9,0.1,5.8c0.2,4.1,1.2,7.9,2.7,11.6c0.3,0.8,0.8,1.6,1.3,2.4c0.3-0.9,1.6-1,1.8-2.3
		c0.1-0.5,1.2-0.9,1.8-1.3l0,0c0.2-0.1,0.3-0.2,0.5-0.3c-0.2-0.1-0.3-0.2-0.5-0.3l0,0c0.2-0.3,0.4-0.7,0.7-1
		c1.6-1.3,2.9-2.5,3.2-4.8c0.2-1.8,1.6-3.5,2.5-5.3c1.4,0.3,1.4-0.5,1.5-1.6c0.1-0.9,0.9-1.6,1.1-2.5c0.2-0.9-0.2-2,0.2-2.8
		c0.5-1.3,1.4-2.5,2.2-3.7c0.1-0.2,0.3-0.4,0.3-0.6c0.3-2.7,0.5-3.4,2.1-5.4c0.6-0.8,1.6-2.6,1.2-3.7c-0.3-1,0.8-1,0.6-1.6
		c-0.2-0.7-0.5-1.4-0.6-2.1c-0.1-0.2,0.1-0.6,0.2-0.8c1.8-2.1,2.2-3.1,2.9-6.6c0.3-1.4,0.8-2.7,1.4-4c0.8-1.9,0.4-3.9,0.9-5.8l0,0
		c0.3-0.3,0.9-0.5,0.9-0.8c0.1-0.7-0.2-1.5,0-2.3c0.1-0.6,0.6-1.2,0.8-1.9c0.1-0.2-0.1-0.7,0-0.7c0.9-0.6,0.4-1.8,1.1-2.5
		c0.5-0.5,1-1.1,1.5-1.6c0.4-0.3,1.2-0.6,1.4-0.4c0.9,1.1,1.4-0.9,2.2-0.2c1,0.9,2.3,1.6,3.1,2.6c0.9,1.2,1.3,2.8,1.9,4.2
		c0.1,0.3,0.2,0.9,0.1,1.1c-1.1,1.2-0.7,2.7-0.5,4c0.1,1.3,0.1,2.4-0.2,3.7c-0.3,1.4-1,2.8-0.4,4.4c0.1,0.4-0.1,1-0.3,1.3
		c-2.4,3.3-3.2,7.2-3.9,11.1c1,1.2-1.6,1-0.8,2.2c0.3,0.6,0.2,1.5,0.1,2.2c-0.1,0.5-0.8,0.8-1,1.3s0.5,1-0.1,1.6
		c-0.9,1-2.4,1.5-2.2,3.3c0.1,1.2-1.6,2.1-1.1,3.6c-1.4,1.1-1,3.5-3.1,4.1c-0.2-0.2-0.4-0.4-0.6-0.6c-0.2-0.1-0.3-0.2-0.5-0.3
		c0.2,0.1,0.3,0.2,0.5,0.3c0.2,0.2,0.4,0.4,0.6,0.6c-0.1,0.5-0.3,1-0.4,1.5c-0.2,0.9-1.3,1.7-0.4,2.9c0.4,0.5-0.6,1.4-1.3,1.3
		c-0.6-0.1,0.5-1.4-0.7-1c-0.5,0.1-1,0.4-1.3,0.8c-0.1,0.1,0.2,0.6,0.3,0.9l0.1,0.1c-0.2,0.5,2,0.7,0.2,1.5
		c-0.1,0.1-0.1,0.4-0.3,0.5c-1.2,1.1,0.2,3.2-1.4,3.9c-1.6,0.7-1.7,2.3-2.4,3.5c-0.5,0.8-0.9,1.6-1.4,2.4c-0.4,0.6-0.8,0.9-1.5,0.3
		c-0.1-0.1-0.7,0.2-0.7,0.3c0.1,0.8,0.5,1.5-0.7,1.8c-0.8,0.2-2,0.7-2.1,1.1c-0.1,1-0.8,1.2-1.2,1.7c-0.3,0.3-0.8,0.4-1.2,0.7l0,0
		c-0.2-0.2-0.4-0.4-0.6-0.7c-0.2-0.1-0.3-0.2-0.5-0.3c0.2,0.1,0.3,0.2,0.5,0.3c0.1,0.2,0.1,0.4,0,0.6l0,0c-1.6,0.6-2.4,2.5-4.2,2.7
		c-0.4,0.1-0.8,0.4-1.1,0.3c-1.2-0.5-2.4-0.7-3.7-0.7c-0.8,0-1.6-1.1-2.3-1.7l-0.1-0.1c0-0.2,0-0.4,0-0.6c0.1-0.1,0.2-0.3,0.3-0.4
		c-0.1,0.1-0.2,0.3-0.3,0.4c-0.8,0-1.8,0.4-1.6-1.1c0-0.6-0.7-1.3-1.2-1.7c-0.6-0.5-1.4-0.8-2.1-1.2c1.2-1.4-0.3-2.7-0.3-4.1
		c0.1-1.5-0.3-3.1-1.3-4.5c-0.5-0.7,0-1.4,0.7-1.9c0.2,0.1,0.3,0.2,0.5,0.3c-0.2-0.1-0.3-0.2-0.5-0.3c0-0.7-1.7-0.6-0.7-1.9
		c0.4-0.5,0.2-1.5,0.1-2.2c-0.6-2.5,0.2-4.9,0-7.3c0-0.6,0-1.4,0.3-1.8c0.9-1.3,0.9-2.8,0.6-4c-0.4-1.7,0-3.3,0.5-4.8
		c0.5-1.7-0.1-3.6,1-5.2c0.4-0.6,0-1.9-0.3-2.8c-0.2-0.6-0.2-1,0.4-1.2c0.2,0.1,0.3,0.2,0.5,0.3c-0.2-0.1-0.3-0.2-0.5-0.3
		c0.3-1.8,1.2-3.5,0.7-5.4c-0.2-0.7-0.2-1.5,0.9-1.7c-0.2-0.3-0.6-0.6-0.6-0.9s0.7-0.6,0.6-0.8c-0.5-2.4,1-4.3,1.6-6.4
		c0.3-0.9,1-0.7,1.6-0.6c0.3,0,0.6,0.4,0.9,0.6c-0.2,0.2-0.4,0.4-0.6,0.6c-0.3,0.2-0.6,0.3-0.9,0.4c0.3,0.1,0.7,0.1,0.9,0.3
		c0.3,0.3,0.8,0.7,0.8,1.1c0,0.7-0.4,1.4-0.6,2.1c-0.6-0.2-1.1-0.4-1.7-0.6c-0.1,0-0.5,0.2-0.5,0.3c0,0.3,1.7,0.4,2.2,0.2
		c0.3,0.2,1.2-0.4,0.9,0.6C677.5,45.3,677.2,46.4,676.8,47.4c-0.4,0.1-0.7,0.2-1.1,0.3c0.1,0.1,0.2,0.2,0.2,0.2
		C676.3,47.8,676.6,47.6,676.8,47.4 M931.6,28.8l0.1-0.2h-0.2L931.6,28.8z M922,30.7l0.1-0.2h-0.2L922,30.7z M903.6,45.1
		c-0.1,0-0.1,0.1-0.2,0.1c0.1,0,0.2,0,0.3,0C903.7,45.2,903.7,45.1,903.6,45.1 M902.4,43.8l-0.1,0.2h0.2L902.4,43.8z M907.5,43.2
		l-0.1,0.2h0.2L907.5,43.2z M906,42l0.2,0.1v-0.2L906,42z M915.7,36.4l0.1-0.2h-0.2L915.7,36.4z M912.5,35.5l-0.1,0.2h0.2
		L912.5,35.5z M921,36c-0.1-0.1-0.2-0.3-0.3-0.4c-0.1,0.1-0.2,0.2-0.2,0.2c0,0.2,0.1,0.4,0.2,0.5C920.8,36.3,920.9,36.1,921,36
		 M911.9,33.7c-0.2,0-0.4-0.1-0.6-0.1c0,0.1,0,0.3,0,0.4c0.2,0,0.4-0.1,0.6-0.1C911.9,33.8,911.9,33.7,911.9,33.7 M915.6,31.9
		c0.2,0.1,0.4,0.2,0.6,0.2c0.1,0,0.2-0.1,0.2-0.2c-0.1-0.1-0.3-0.2-0.4-0.3C915.9,31.6,915.8,31.8,915.6,31.9 M923.3,29.3
		c0,0.2-0.1,0.3-0.1,0.5c0.1,0,0.3,0,0.4,0c0-0.2,0-0.4-0.1-0.5C923.4,29.3,923.3,29.3,923.3,29.3 M902.1,40.1
		c0.2-0.1,0.4-0.2,0.4-0.3c0-0.4-0.2-0.7-0.2-1.1c-0.2,0.2-0.6,0.4-0.6,0.6C901.6,39.6,902,39.9,902.1,40.1 M910.3,43
		c-1.9,1.1-3.9,2-5.7,3.2c-1,0.6-1.7-0.1-2.6,0c-0.1-0.1-0.3-0.2-0.4-0.3c0.2,0.1,0.3,0.2,0.5,0.3c-1.1,0.6-2.2,1.3-3.3,1.8
		c-0.1,0-0.4-0.4-0.5-0.6c0.2-0.2,0.4-0.3,0.5-0.6c0.1-0.1-0.1-0.3-0.2-0.5c-0.1,0.2-0.2,0.3-0.3,0.5c-0.1,0.2,0,0.4,0,0.6
		c-0.9,1-2.1,0-3.1,0.6c-0.5,0.3-0.5-0.3-0.3-0.7c0.3-0.8,0.1-1-0.9-0.9c-1.2,0.2-1.8-0.6-1.7-1.6c0.2-1.5,1.2-2.7,2-3.8
		c0.3-0.4,1.5-0.7,2-0.5c1.8,0.8,1.2-0.5,1.3-1.3l0.1-0.1c0.8-0.6,1.5-1.4,2.4-1.8c0.6-0.3,0.9-2.1,2-0.5c0.3-0.3,0.7-0.7,1-0.8
		c3.3-0.3,5.4-3.1,8.5-3.7c0.5-0.1,0.8-0.5,1.2-0.8c0.4-0.3,0.8-0.8,1.2-0.9c2.8-0.5,5.3-1.8,8.1-2.3c0.9-0.2,2.1,0,2.8-0.6
		c0.9-0.7,1.8,0.1,2.7-0.3c1.4-0.6,3.3,0.6,4.7-0.8c0,0,0.8,0.4,0.8,0.8c0.2,0.9,0.4,1.9-0.6,2.6c-0.8,0.6-1.5,1.2-2.4,1.5
		c-0.8,0.2-1.3,0.4-1.6,1.2c-0.4,0.9-0.9,1.7-2.1,1.5c-0.1,0-0.2,0-0.3,0c-1,1-1.9,2.5-3.1,2.9c-1.4,0.4-2.9,0.4-3.8,1.8
		c-1.1-0.4-1.5,1.1-2.5,1l-0.2-0.2c-0.1,0-0.3,0-0.4,0c-0.1,0.1-0.2,0.2-0.2,0.2c-0.2,0.2-0.4,0.5-0.6,0.6c-0.9,0.5-1.7,1.2-2.9,0.8
		C912,42.2,911.6,43.1,910.3,43c-0.2-0.1-0.3-0.2-0.5-0.3C910,42.8,910.1,42.9,910.3,43 M809.7,54c0.5-0.3,0.8-0.5,1.1-0.7
		c0.2,0.3,0.5,0.6,0.5,1c0,0.2-0.5,0.6-0.6,0.6C810.4,54.8,810.2,54.4,809.7,54 M676.9,38c-0.6-0.2-0.8-0.3-1.1-0.4
		c0.2-0.1,0.3-0.4,0.5-0.4c0.3,0,0.5,0.1,0.8,0.2C677.1,37.7,677,37.9,676.9,38 M676.8,67.8c0.2,0.3,0.4,0.6,0.5,0.9
		c0,0-0.1,0.1-0.2,0.2C677.1,68.5,677,68.2,676.8,67.8L676.8,67.8z M669.2,155c-0.1,0-0.2,0-0.3,0c-0.3-0.1-0.5-0.2-0.8-0.3
		c0.1-0.1,0.2-0.2,0.2-0.2c0.3,0.1,0.5,0.1,0.8,0.2C669.2,154.7,669.2,154.8,669.2,155L669.2,155z M675.6,100.9
		c-0.3,0.2-0.6,0.4-0.9,0.5c0,0-0.1-0.1-0.2-0.2C674.8,101.1,675.2,101,675.6,100.9L675.6,100.9z M731.6,83.7
		c0.4,0.1,0.7,0.2,1.1,0.4c-0.4,0.1-0.7,0.2-1.1,0.3l0,0C731.5,84.1,731.5,83.9,731.6,83.7L731.6,83.7z M920.5,15
		c-0.4,0.9-0.8,0.9-1.3,0l0,0H920.5L920.5,15z M585.3,41.1c-0.3,0.2-0.6,0.4-0.9,0.5c0,0-0.1-0.1-0.2-0.2
		C584.5,41.3,584.9,41.2,585.3,41.1L585.3,41.1z M885.5,22c-0.9-0.4-1-0.8,0-1.3l0,0C885.5,21.2,885.5,21.6,885.5,22L885.5,22z
		 M916.8,39.9c-0.1,0.3-0.3,0.7-0.4,1c-0.1-0.3-0.3-0.7-0.4-1c0.1-0.1,0.2-0.2,0.2-0.2h0.2h0.2L916.8,39.9z M896.9,39.2
		c-0.3,0.2-0.6,0.4-0.9,0.5c0,0-0.1-0.1-0.2-0.2C896.2,39.4,896.6,39.3,896.9,39.2L896.9,39.2z M704.8,35.4
		c-0.2-0.1-0.3-0.2-0.5-0.3C704.5,35.2,704.7,35.2,704.8,35.4L704.8,35.4z M897.5,39.2c-0.2,0-0.4,0-0.6-0.1l0,0
		c0.1-0.1,0.1-0.3,0.2-0.4C897.3,38.9,897.5,39,897.5,39.2L897.5,39.2z M843.5,20.7c0.2,0.1,0.3,0.2,0.5,0.3
		c-0.2,0.1-0.3,0.2-0.5,0.3l0,0C843.5,21.1,843.5,20.9,843.5,20.7L843.5,20.7z M676.8,50.6c0.1-0.2,0.2-0.3,0.3-0.5
		C677,50.3,676.9,50.5,676.8,50.6L676.8,50.6z M650.7,50.6c-0.1,0.2-0.3,0.3-0.4,0.5c-0.1-0.1-0.2-0.3-0.3-0.4l0.1-0.1
		C650.4,50.6,650.6,50.6,650.7,50.6L650.7,50.6z M721.4,31.5c-0.1,0.2-0.2,0.3-0.3,0.5C721.2,31.9,721.3,31.7,721.4,31.5L721.4,31.5
		z M812.3,60.2c-0.2-0.1-0.3-0.2-0.5-0.3C812,60,812.2,60,812.3,60.2L812.3,60.2z M634.9,63.3c0.2,0.1,0.3,0.2,0.5,0.3
		C635.2,63.5,635,63.4,634.9,63.3L634.9,63.3z M775.7,30.7c-0.1-0.1-0.1-0.1-0.1-0.2s0.1-0.2,0.2-0.1c0.1,0,0.1,0.1,0.2,0.2
		C775.9,30.6,775.8,30.7,775.7,30.7 M835.7,65c-0.1,0.1-0.1,0.2-0.2,0.1c-0.1,0-0.1-0.1-0.2-0.2c0.1-0.1,0.1-0.1,0.2-0.2
		C835.6,64.8,835.7,64.9,835.7,65 M732.9,30.2c0.2,0.1,0.3,0.2,0.5,0.4C733.2,30.5,733,30.4,732.9,30.2L732.9,30.2z M805.4,67.1
		c0.1,0.2,0.3,0.3,0.4,0.5c-0.2,0.1-0.3,0.1-0.5,0.2l0,0C805.3,67.6,805.3,67.4,805.4,67.1L805.4,67.1z M628.5,68.4
		c0.2,0.1,0.3,0.2,0.5,0.3C628.8,68.6,628.7,68.5,628.5,68.4L628.5,68.4z M805.3,69.1c0.2,0.1,0.3,0.2,0.5,0.3
		C805.7,69.3,805.5,69.2,805.3,69.1L805.3,69.1z M764.6,74.1c0.1-0.2,0.2-0.3,0.3-0.5C764.8,73.8,764.7,74,764.6,74.1L764.6,74.1z
		 M771,74.8c-0.2-0.1-0.3-0.2-0.5-0.3C770.7,74.6,770.8,74.7,771,74.8L771,74.8z M615.8,77.9c0.2,0.1,0.3,0.2,0.5,0.3
		C616.1,78.2,615.9,78.1,615.8,77.9L615.8,77.9z M722,30.3c-0.2-0.1-0.3-0.2-0.5-0.3C721.7,30.1,721.9,30.1,722,30.3L722,30.3z
		 M700.3,82.4c0.2-0.1,0.3-0.3,0.5-0.4C700.7,82.2,700.5,82.3,700.3,82.4L700.3,82.4z M886.8,83.7c-0.1,0.2-0.2,0.3-0.3,0.5
		C886.6,84,886.7,83.8,886.8,83.7L886.8,83.7z M731.5,85c0.2,0.1,0.3,0.2,0.5,0.3c-0.2,0.1-0.3,0.2-0.5,0.3l0,0
		C731.6,85.4,731.6,85.2,731.5,85L731.5,85z M684.5,88.1c-0.1-0.1-0.3-0.1-0.4-0.2c0.1-0.1,0.3-0.3,0.4-0.4l0,0
		C684.5,87.7,684.5,87.9,684.5,88.1L684.5,88.1z M832.1,87.5c0.2,0.1,0.3,0.2,0.5,0.3C832.4,87.7,832.2,87.6,832.1,87.5L832.1,87.5z
		 M589.1,89.5c-0.2,0.1-0.3,0.3-0.5,0.4c-0.1-0.1-0.1-0.3-0.2-0.4l0,0C588.6,89.4,588.8,89.4,589.1,89.5L589.1,89.5z M824.4,89.4
		c0.6,0.2,0.6,0.5,0,0.7l-0.1-0.1C824.4,89.8,824.4,89.6,824.4,89.4L824.4,89.4z M830,89.7c-0.1,0.1-0.1,0.1-0.2,0.2
		c0-0.1,0-0.2,0-0.4C829.9,89.6,830,89.7,830,89.7 M727.1,92.6c0.1-0.2,0.2-0.3,0.3-0.5C727.3,92.3,727.2,92.4,727.1,92.6
		L727.1,92.6z M823.8,92.6c-0.1,0.2-0.3,0.3-0.4,0.5c-0.1-0.1-0.2-0.3-0.2-0.4l0,0C823.4,92.6,823.6,92.6,823.8,92.6L823.8,92.6z
		 M819.8,94.9c-0.1,0.1-0.1,0.1-0.2,0.1s-0.2-0.1-0.1-0.2c0-0.1,0.1-0.1,0.2-0.2C819.7,94.7,819.8,94.8,819.8,94.9 M801.5,95.1
		c-0.1,0.2-0.2,0.3-0.3,0.5c-0.1-0.2-0.2-0.3-0.3-0.5l0,0C801.1,95.1,801.3,95.1,801.5,95.1L801.5,95.1z M813,96.4
		c-0.1,0.2-0.2,0.3-0.3,0.5c-0.1-0.2-0.2-0.3-0.3-0.5l0,0H813L813,96.4z M671.5,97.8c0.1,0.1,0.1,0.1,0.2,0.2c-0.1,0-0.2,0-0.4,0
		C671.3,97.9,671.4,97.9,671.5,97.8 M687.6,100.2c-0.1,0.1-0.3,0.3-0.4,0.5c-0.1-0.1-0.2-0.3-0.2-0.4l0,0
		C687.2,100.2,687.5,100.2,687.6,100.2L687.6,100.2z M892.5,113c-0.2-0.1-0.3-0.2-0.5-0.3C892.2,112.8,892.3,112.8,892.5,113
		L892.5,113z M892.5,112.9c0.2,0.1,0.3,0.2,0.5,0.3C892.8,113.2,892.6,113.1,892.5,112.9L892.5,112.9z M842.9,114.2
		c0.1-0.2,0.2-0.3,0.3-0.5c0.1,0.2,0.2,0.3,0.3,0.5l0,0C843.3,114.2,843.1,114.2,842.9,114.2L842.9,114.2z M890.6,114.2
		c0.2,0.1,0.3,0.2,0.5,0.3C890.9,114.4,890.7,114.3,890.6,114.2L890.6,114.2z M599.2,121.2c0.1-0.2,0.2-0.3,0.3-0.5
		C599.4,120.9,599.3,121.1,599.2,121.2L599.2,121.2z M845.4,123.8c-0.1,0.2-0.2,0.3-0.3,0.5c-0.1-0.2-0.2-0.3-0.3-0.5l0,0H845.4
		L845.4,123.8z M778.6,125.7c0.1-0.2,0.2-0.3,0.3-0.5C778.8,125.3,778.7,125.5,778.6,125.7L778.6,125.7z M834.6,125.7
		c-0.1,0.1-0.1,0.3-0.2,0.4c-0.1-0.1-0.3-0.3-0.4-0.4l0,0H834.6L834.6,125.7z M585.2,132.7c-0.2-0.1-0.3-0.2-0.5-0.3
		C584.9,132.5,585.1,132.6,585.2,132.7L585.2,132.7z M790.1,133.3c-0.1,0.2-0.2,0.3-0.3,0.5c-0.1-0.2-0.2-0.3-0.3-0.5l0,0
		C789.7,133.3,789.9,133.3,790.1,133.3L790.1,133.3z M751.9,135.9c0.1-0.2,0.1-0.3,0.2-0.5c0.1,0.1,0.2,0.2,0.2,0.2
		C752.2,135.7,752.1,135.8,751.9,135.9L751.9,135.9z M751.9,135.9c-0.2,0.2-0.4,0.4-0.6,0.6l0,0
		C751.5,136.3,751.7,136.1,751.9,135.9L751.9,135.9z M597.3,27.1c0.1-0.2,0.2-0.3,0.3-0.5C597.5,26.8,597.4,26.9,597.3,27.1
		L597.3,27.1z M633.6,9.3c0.1-0.2,0.2-0.3,0.3-0.5c0.1,0.2,0.2,0.3,0.3,0.5l0,0C634,9.3,633.8,9.3,633.6,9.3L633.6,9.3z
		 M693.4,146.7c0.1-0.1,0.1-0.3,0.2-0.4c0.1,0.1,0.3,0.3,0.4,0.4l0,0C693.8,146.7,693.6,146.7,693.4,146.7L693.4,146.7z
		 M679.4,157.5l0.5,0.3C679.7,157.7,679.5,157.6,679.4,157.5L679.4,157.5z M625.9,21.4c0.2,0,0.4,0,0.7,0c-0.1,0.2-0.3,0.3-0.4,0.4
		C626.1,21.6,626,21.5,625.9,21.4 M624,57c0,0.2,0,0.4,0,0.7c-0.1-0.1-0.3-0.3-0.4-0.4C623.8,57.1,623.9,57.1,624,57 M742,42.2
		c-0.1-0.1-0.2-0.1-0.2-0.2s0.1-0.2,0.2-0.2c0.1,0,0.1,0.1,0.2,0.2C742.2,42.1,742.1,42.2,742,42.2"/>
	<g>
		<path class="st0" d="M972.2,63.5c0.7-2.1,1.8-4,3.2-5.6c1.4-1.6,3.1-2.8,5.1-3.7c2-0.9,4.3-1.3,6.9-1.3s4.9,0.4,6.9,1.3
			s3.7,2.1,5.1,3.7c1.4,1.6,2.4,3.4,3.2,5.6c0.7,2.1,1.1,4.5,1.1,7v0.7c0,2.5-0.4,4.9-1.1,7s-1.8,4-3.2,5.6
			c-1.4,1.6-3.1,2.8-5.1,3.7s-4.3,1.3-6.9,1.3s-4.9-0.4-7-1.3c-2-0.9-3.7-2.1-5.1-3.7c-1.4-1.6-2.5-3.4-3.2-5.6s-1.1-4.5-1.1-7v-0.7
			C971.1,67.9,971.5,65.6,972.2,63.5z M980.4,75.2c0.3,1.3,0.7,2.4,1.3,3.3c0.6,1,1.4,1.7,2.3,2.3s2.1,0.8,3.4,0.8s2.4-0.3,3.4-0.8
			c0.9-0.6,1.7-1.3,2.3-2.3c0.6-0.9,1-2,1.3-3.3s0.4-2.6,0.4-4.1v-0.7c0-1.4-0.1-2.7-0.4-4s-0.7-2.4-1.3-3.3c-0.6-1-1.4-1.7-2.3-2.3
			s-2.1-0.8-3.4-0.8s-2.5,0.3-3.4,0.8c-0.9,0.6-1.7,1.3-2.3,2.3s-1,2.1-1.3,3.3s-0.4,2.6-0.4,4v0.7C980,72.6,980.2,73.9,980.4,75.2z
			"/>
		<path class="st0" d="M1020.2,60h-9.1v-6.6h9.1v-1.9c0-2.3,0.4-4.3,1.1-6s1.8-3.2,3.1-4.4c1.3-1.2,3-2.1,4.9-2.7s4.1-0.9,6.4-0.9
			c0.7,0,1.5,0,2.2,0.1s1.4,0.1,2,0.2c0.7,0.1,1.3,0.2,2,0.3c0.7,0.1,1.4,0.2,2.1,0.4l-0.6,7c-0.8-0.2-1.7-0.3-2.7-0.4
			s-2.2-0.2-3.6-0.2c-1.5,0-2.8,0.2-3.8,0.5s-1.9,0.8-2.5,1.5c-0.6,0.6-1,1.2-1.2,2c-0.3,0.8-0.4,1.7-0.4,2.7v1.9h12.5v6.6h-12.5v28
			h-8.9L1020.2,60L1020.2,60z"/>
		<path class="st0" d="M1090.3,53.5h8.2l0.3,3.4c0.5-0.6,1-1.1,1.5-1.5c0.6-0.5,1.2-0.9,1.8-1.2c0.8-0.4,1.6-0.7,2.5-0.9
			c0.9-0.2,1.9-0.3,3-0.3c2.2,0,4.1,0.4,5.8,1.3s3.1,2,4.3,3.6c1.2,1.6,2,3.4,2.6,5.6c0.6,2.2,0.9,4.6,0.9,7.2v0.7
			c0,2.5-0.3,4.8-0.9,7s-1.4,4-2.6,5.6s-2.6,2.8-4.3,3.7c-1.7,0.9-3.6,1.3-5.8,1.3c-1.2,0-2.2-0.1-3.2-0.4c-1-0.2-1.9-0.6-2.7-1.1
			c-0.5-0.3-1-0.6-1.4-1s-0.9-0.8-1.3-1.2v16.3h-8.9V53.5H1090.3z M1112,66.4c-0.3-1.3-0.7-2.4-1.2-3.3c-0.6-0.9-1.3-1.6-2.2-2.2
			c-0.9-0.5-1.9-0.8-3.2-0.8c-0.7,0-1.4,0.1-2,0.2s-1.1,0.3-1.6,0.6c-0.6,0.3-1,0.7-1.4,1.1c-0.4,0.4-0.8,1-1.1,1.6V78
			c0.3,0.6,0.6,1.1,1,1.5s0.8,0.8,1.4,1.2c0.5,0.3,1.1,0.5,1.7,0.7s1.4,0.2,2.1,0.2c1.3,0,2.3-0.3,3.2-0.8s1.6-1.3,2.2-2.3
			s1-2.1,1.2-3.3c0.3-1.3,0.4-2.6,0.4-4v-0.7C1112.3,69,1112.2,67.6,1112,66.4z"/>
		<path class="st0" d="M1150.6,39v41.9h9.9v7.2h-29.2v-7.2h10.4V46.2h-10.4v-7.3L1150.6,39L1150.6,39z"/>
		<path class="st0" d="M1189.8,86.6c-0.1-0.6-0.3-1.1-0.4-1.8c-0.5,0.5-1.1,1-1.7,1.5s-1.3,0.9-2.1,1.2c-0.8,0.4-1.7,0.6-2.6,0.8
			s-1.9,0.3-3,0.3c-1.8,0-3.4-0.3-4.9-0.8s-2.8-1.2-3.8-2.1c-1.1-0.9-1.9-2-2.5-3.3s-0.9-2.6-0.9-4.1c0-1.9,0.4-3.6,1.1-5.1
			s1.9-2.7,3.4-3.7c1.3-0.9,3-1.5,5-2s4.2-0.7,6.8-0.7h5v-2c0-0.8-0.1-1.5-0.4-2.2c-0.3-0.6-0.6-1.2-1.2-1.7c-0.5-0.5-1.2-0.9-2-1.1
			c-0.8-0.3-1.7-0.4-2.8-0.4c-0.9,0-1.7,0.1-2.4,0.3s-1.2,0.5-1.7,0.9c-0.4,0.4-0.7,0.8-0.9,1.3c-0.2,0.5-0.3,1.1-0.3,1.7h-8.9
			c0-1.5,0.3-2.9,1-4.2s1.6-2.5,2.9-3.5c1.2-1,2.7-1.8,4.5-2.4s3.9-0.9,6.2-0.9c2.1,0,4,0.3,5.8,0.8s3.4,1.3,4.7,2.3
			c1.3,1,2.4,2.3,3.1,3.8s1.1,3.3,1.1,5.3v14.8c0,1.9,0.1,3.4,0.4,4.6c0.2,1.2,0.6,2.3,1,3.1v0.5h-9
			C1190.1,87.6,1189.9,87.2,1189.8,86.6z M1184.4,81.5c0.8-0.2,1.5-0.5,2.1-0.8s1.2-0.7,1.6-1.2c0.4-0.4,0.8-0.9,1.1-1.3v-6h-4.5
			c-1.4,0-2.6,0.1-3.5,0.4c-1,0.3-1.8,0.6-2.4,1.1s-1.1,1.1-1.4,1.7c-0.3,0.7-0.4,1.4-0.4,2.2c0,0.6,0.1,1.2,0.3,1.7
			c0.2,0.5,0.6,1,1,1.3s0.9,0.6,1.6,0.8c0.6,0.2,1.4,0.3,2.2,0.3C1182.8,81.8,1183.6,81.7,1184.4,81.5z"/>
		<path class="st0" d="M1229.9,77.2c-0.2-0.4-0.7-0.8-1.3-1.2c-0.6-0.3-1.5-0.7-2.5-1s-2.4-0.6-4-0.9c-2-0.4-3.9-0.9-5.5-1.5
			c-1.7-0.6-3.1-1.3-4.3-2.2c-1.2-0.9-2.1-1.8-2.8-3c-0.7-1.1-1-2.4-1-3.9c0-1.4,0.3-2.8,1-4.1s1.7-2.4,2.9-3.4
			c1.3-1,2.8-1.8,4.7-2.3c1.8-0.6,3.9-0.9,6.2-0.9c2.4,0,4.6,0.3,6.5,0.8c1.9,0.6,3.5,1.3,4.9,2.3c1.3,1,2.3,2.2,3,3.5
			c0.7,1.4,1.1,2.8,1.1,4.4h-8.9c0-0.6-0.1-1.1-0.3-1.6s-0.5-1-0.9-1.4c-0.5-0.5-1.3-1-2.2-1.3s-2-0.5-3.3-0.5c-1.1,0-2,0.1-2.8,0.3
			s-1.5,0.5-2,0.9c-0.5,0.3-0.8,0.7-1.1,1.2c-0.3,0.5-0.4,0.9-0.4,1.5c0,0.5,0.1,1,0.3,1.4c0.2,0.4,0.6,0.8,1.2,1.2
			c0.5,0.4,1.3,0.7,2.2,1c0.9,0.3,2.1,0.5,3.6,0.8c2.1,0.3,4,0.8,5.8,1.3s3.3,1.2,4.6,2c1.3,0.9,2.3,1.9,3.1,3.1
			c0.7,1.2,1.1,2.6,1.1,4.3c0,1.5-0.4,2.9-1.1,4.2s-1.8,2.4-3.1,3.3c-1.4,0.9-3,1.7-4.9,2.2s-4.1,0.8-6.4,0.8c-2.6,0-4.9-0.3-6.9-1
			s-3.7-1.6-5-2.7c-1.3-1.1-2.4-2.3-3-3.7c-0.7-1.4-1-2.8-1-4.2h8.5c0.1,0.9,0.3,1.7,0.8,2.4c0.4,0.7,1,1.2,1.7,1.6
			c0.7,0.4,1.5,0.7,2.4,0.9s1.8,0.3,2.8,0.3c1.2,0,2.2-0.1,3-0.3c0.9-0.2,1.6-0.5,2.1-0.8s0.9-0.7,1.2-1.2c0.3-0.4,0.4-0.9,0.4-1.5
			C1230.3,78,1230.2,77.6,1229.9,77.2z"/>
		<path class="st0" d="M1263.6,53.5h12.9v6.6h-12.9V75c0,1.3,0.1,2.3,0.4,3.1s0.7,1.5,1.2,2s1.2,0.9,1.9,1.1
			c0.8,0.2,1.6,0.3,2.5,0.3c0.7,0,1.4,0,2.1-0.1s1.4-0.1,2.1-0.3c0.6-0.1,1.2-0.2,1.8-0.3c0.6-0.1,1.1-0.2,1.5-0.3l0.9,6.1
			c-0.6,0.4-1.3,0.7-2.2,0.9c-0.8,0.3-1.7,0.5-2.7,0.7c-0.9,0.2-1.9,0.3-2.9,0.4c-1,0.1-2,0.1-3,0.1c-1.9,0-3.6-0.3-5.2-0.8
			s-2.9-1.3-4-2.3s-2-2.4-2.6-4s-0.9-3.6-0.9-5.9V60h-7.9v-6.6h7.9v-8.5h8.9v8.6H1263.6z"/>
		<path class="st0" d="M1307.7,53.5v27.4h9.4v7.2h-28.2v-7.2h9.8V60.8h-9.8v-7.3L1307.7,53.5L1307.7,53.5z M1298.5,42.7
			c0.2-0.6,0.6-1.1,1-1.5s1-0.7,1.6-1s1.3-0.4,2.1-0.4c1.6,0,2.8,0.4,3.8,1.3c0.9,0.9,1.4,2,1.4,3.4s-0.5,2.5-1.4,3.4
			s-2.2,1.3-3.8,1.3c-0.8,0-1.5-0.1-2.1-0.4c-0.6-0.2-1.2-0.6-1.6-1s-0.8-0.9-1-1.5c-0.3-0.6-0.4-1.2-0.4-1.9
			C1298.1,44,1298.2,43.3,1298.5,42.7z"/>
		<path class="st0" d="M1343.6,81.2c0.8-0.3,1.5-0.6,2.1-1.1s1.1-1,1.4-1.7s0.5-1.4,0.4-2.2h8.4c0,1.8-0.3,3.5-1.1,5
			c-0.8,1.5-1.8,2.9-3.2,4c-1.3,1.1-2.9,2-4.7,2.6c-1.8,0.6-3.7,0.9-5.6,0.9c-2.7,0-5-0.5-7.1-1.4c-2-0.9-3.7-2.1-5-3.7
			c-1.4-1.6-2.4-3.4-3.1-5.5s-1-4.4-1-6.8v-1c0-2.4,0.3-4.7,1-6.8s1.7-4,3.1-5.5s3.1-2.8,5.1-3.7c2-0.9,4.4-1.4,7-1.4
			c2.1,0,4.1,0.3,5.9,1c1.8,0.6,3.4,1.5,4.7,2.7c1.3,1.2,2.3,2.6,3,4.2s1.1,3.5,1,5.5h-8.4c0-0.9-0.1-1.7-0.4-2.4
			c-0.3-0.8-0.7-1.4-1.3-2c-0.6-0.6-1.3-1-2.1-1.3c-0.8-0.3-1.7-0.5-2.7-0.5c-1.4,0-2.6,0.3-3.5,0.9s-1.6,1.3-2.2,2.3
			s-0.9,2.1-1.2,3.3c-0.2,1.2-0.3,2.5-0.3,3.8v1c0,1.3,0.1,2.6,0.3,3.9c0.2,1.2,0.6,2.3,1.2,3.3c0.5,1,1.3,1.7,2.2,2.3
			c0.9,0.6,2.1,0.9,3.5,0.9C1342,81.6,1342.8,81.5,1343.6,81.2z"/>
		<path class="st0" d="M1387,77.2c-0.2-0.4-0.7-0.8-1.3-1.2c-0.6-0.3-1.5-0.7-2.5-1s-2.4-0.6-4-0.9c-2-0.4-3.9-0.9-5.5-1.5
			c-1.7-0.6-3.1-1.3-4.3-2.2c-1.2-0.9-2.1-1.8-2.8-3c-0.7-1.1-1-2.4-1-3.9c0-1.4,0.3-2.8,1-4.1s1.7-2.4,2.9-3.4
			c1.3-1,2.8-1.8,4.7-2.3c1.8-0.6,3.9-0.9,6.2-0.9c2.4,0,4.6,0.3,6.5,0.8c1.9,0.6,3.5,1.3,4.9,2.3c1.3,1,2.3,2.2,3,3.5
			c0.7,1.4,1.1,2.8,1.1,4.4h-8.9c0-0.6-0.1-1.1-0.3-1.6c-0.2-0.5-0.5-1-0.9-1.4c-0.5-0.5-1.3-1-2.2-1.3s-2-0.5-3.3-0.5
			c-1.1,0-2,0.1-2.8,0.3s-1.5,0.5-2,0.9c-0.5,0.3-0.8,0.7-1.1,1.2c-0.3,0.5-0.4,0.9-0.4,1.5c0,0.5,0.1,1,0.3,1.4
			c0.2,0.4,0.6,0.8,1.2,1.2c0.5,0.4,1.3,0.7,2.2,1c0.9,0.3,2.1,0.5,3.6,0.8c2.1,0.3,4,0.8,5.8,1.3s3.3,1.2,4.6,2
			c1.3,0.9,2.3,1.9,3.1,3.1c0.7,1.2,1.1,2.6,1.1,4.3c0,1.5-0.4,2.9-1.1,4.2s-1.8,2.4-3.1,3.3c-1.4,0.9-3,1.7-4.9,2.2
			s-4.1,0.8-6.4,0.8c-2.6,0-4.9-0.3-6.9-1s-3.7-1.6-5-2.7c-1.3-1.1-2.4-2.3-3-3.7c-0.7-1.4-1-2.8-1-4.2h8.5c0.1,0.9,0.3,1.7,0.8,2.4
			c0.4,0.7,1,1.2,1.7,1.6c0.7,0.4,1.5,0.7,2.4,0.9s1.8,0.3,2.8,0.3c1.2,0,2.2-0.1,3-0.3c0.9-0.2,1.6-0.5,2.1-0.8s0.9-0.7,1.2-1.2
			c0.3-0.4,0.4-0.9,0.4-1.5C1387.4,78,1387.3,77.6,1387,77.2z"/>
		<path class="st0" d="M1415,78.8c1.1-1.1,2.6-1.7,4.5-1.7s3.4,0.6,4.5,1.7c1.1,1.1,1.6,2.5,1.6,4.2s-0.6,3-1.7,4.1
			s-2.6,1.6-4.5,1.6s-3.4-0.6-4.5-1.7c-1.1-1.1-1.7-2.5-1.7-4.1S1413.9,79.9,1415,78.8z"/>
	</g>
</g>
</svg>
